M48
; DRILL file {KiCad (5.1.10)-1} date 11/09/21 21:08:54
; FORMAT={-:-/ absolute / metric / decimal}
; #@! TF.CreationDate,2021-11-09T21:08:54+01:00
; #@! TF.GenerationSoftware,Kicad,Pcbnew,(5.1.10)-1
FMAT,2
METRIC
T1C0.600
T2C0.762
T3C1.000
T4C1.520
%
G90
G05
T1
X48.514Y-59.69
X50.514Y-59.69
T2
X55.0Y-55.0
X55.0Y-57.54
X55.0Y-60.08
X55.0Y-62.62
X57.54Y-55.0
X57.54Y-57.54
X57.54Y-60.08
X57.54Y-62.62
T3
X58.42Y-111.506
X58.42Y-126.746
X60.96Y-111.506
X60.96Y-126.746
X63.5Y-111.506
X63.5Y-126.746
X66.04Y-111.506
X66.04Y-126.746
X68.58Y-111.506
X68.58Y-126.746
X71.12Y-111.506
X71.12Y-126.746
X73.66Y-111.506
X73.66Y-126.746
X76.2Y-111.506
X76.2Y-126.746
X78.74Y-111.506
X78.74Y-126.746
X81.28Y-111.506
X81.28Y-126.746
X83.82Y-111.506
X83.82Y-126.746
X86.36Y-111.506
X86.36Y-126.746
X88.9Y-111.506
X88.9Y-126.746
X91.44Y-111.506
X91.44Y-126.746
X93.98Y-111.506
X93.98Y-126.746
T4
X52.324Y-89.662
X52.324Y-94.742
X52.324Y-99.822
X88.0Y-57.0
X93.08Y-57.0
T0
M30
