%TF.GenerationSoftware,KiCad,Pcbnew,(5.1.10)-1*%
%TF.CreationDate,2021-11-09T21:08:57+01:00*%
%TF.ProjectId,BuzzerSend,42757a7a-6572-4536-956e-642e6b696361,1.0*%
%TF.SameCoordinates,Original*%
%TF.FileFunction,Legend,Top*%
%TF.FilePolarity,Positive*%
%FSLAX46Y46*%
G04 Gerber Fmt 4.6, Leading zero omitted, Abs format (unit mm)*
G04 Created by KiCad (PCBNEW (5.1.10)-1) date 2021-11-09 21:08:57*
%MOMM*%
%LPD*%
G01*
G04 APERTURE LIST*
%ADD10C,0.300000*%
%ADD11C,0.150000*%
%ADD12C,0.010000*%
%ADD13C,0.120000*%
G04 APERTURE END LIST*
D10*
X53907428Y-116725142D02*
X52693142Y-116725142D01*
X52550285Y-116796571D01*
X52478857Y-116868000D01*
X52407428Y-117010857D01*
X52407428Y-117296571D01*
X52478857Y-117439428D01*
X52550285Y-117510857D01*
X52693142Y-117582285D01*
X53907428Y-117582285D01*
X52478857Y-118225142D02*
X52407428Y-118439428D01*
X52407428Y-118796571D01*
X52478857Y-118939428D01*
X52550285Y-119010857D01*
X52693142Y-119082285D01*
X52836000Y-119082285D01*
X52978857Y-119010857D01*
X53050285Y-118939428D01*
X53121714Y-118796571D01*
X53193142Y-118510857D01*
X53264571Y-118368000D01*
X53336000Y-118296571D01*
X53478857Y-118225142D01*
X53621714Y-118225142D01*
X53764571Y-118296571D01*
X53836000Y-118368000D01*
X53907428Y-118510857D01*
X53907428Y-118868000D01*
X53836000Y-119082285D01*
X53193142Y-120225142D02*
X53121714Y-120439428D01*
X53050285Y-120510857D01*
X52907428Y-120582285D01*
X52693142Y-120582285D01*
X52550285Y-120510857D01*
X52478857Y-120439428D01*
X52407428Y-120296571D01*
X52407428Y-119725142D01*
X53907428Y-119725142D01*
X53907428Y-120225142D01*
X53836000Y-120368000D01*
X53764571Y-120439428D01*
X53621714Y-120510857D01*
X53478857Y-120510857D01*
X53336000Y-120439428D01*
X53264571Y-120368000D01*
X53193142Y-120225142D01*
X53193142Y-119725142D01*
D11*
X48458571Y-63444380D02*
X47887142Y-63444380D01*
X48172857Y-63444380D02*
X48172857Y-62444380D01*
X48077619Y-62587238D01*
X47982380Y-62682476D01*
X47887142Y-62730095D01*
X49077619Y-62444380D02*
X49172857Y-62444380D01*
X49268095Y-62492000D01*
X49315714Y-62539619D01*
X49363333Y-62634857D01*
X49410952Y-62825333D01*
X49410952Y-63063428D01*
X49363333Y-63253904D01*
X49315714Y-63349142D01*
X49268095Y-63396761D01*
X49172857Y-63444380D01*
X49077619Y-63444380D01*
X48982380Y-63396761D01*
X48934761Y-63349142D01*
X48887142Y-63253904D01*
X48839523Y-63063428D01*
X48839523Y-62825333D01*
X48887142Y-62634857D01*
X48934761Y-62539619D01*
X48982380Y-62492000D01*
X49077619Y-62444380D01*
X50268095Y-62777714D02*
X50268095Y-63444380D01*
X49839523Y-62777714D02*
X49839523Y-63301523D01*
X49887142Y-63396761D01*
X49982380Y-63444380D01*
X50125238Y-63444380D01*
X50220476Y-63396761D01*
X50268095Y-63349142D01*
X51077619Y-62920571D02*
X50744285Y-62920571D01*
X50744285Y-63444380D02*
X50744285Y-62444380D01*
X51220476Y-62444380D01*
X84241047Y-119578380D02*
X84241047Y-118578380D01*
X84812476Y-119578380D01*
X84812476Y-118578380D01*
X85717238Y-119578380D02*
X85717238Y-119054571D01*
X85669619Y-118959333D01*
X85574380Y-118911714D01*
X85383904Y-118911714D01*
X85288666Y-118959333D01*
X85717238Y-119530761D02*
X85622000Y-119578380D01*
X85383904Y-119578380D01*
X85288666Y-119530761D01*
X85241047Y-119435523D01*
X85241047Y-119340285D01*
X85288666Y-119245047D01*
X85383904Y-119197428D01*
X85622000Y-119197428D01*
X85717238Y-119149809D01*
X86193428Y-118911714D02*
X86193428Y-119578380D01*
X86193428Y-119006952D02*
X86241047Y-118959333D01*
X86336285Y-118911714D01*
X86479142Y-118911714D01*
X86574380Y-118959333D01*
X86622000Y-119054571D01*
X86622000Y-119578380D01*
X87241047Y-119578380D02*
X87145809Y-119530761D01*
X87098190Y-119483142D01*
X87050571Y-119387904D01*
X87050571Y-119102190D01*
X87098190Y-119006952D01*
X87145809Y-118959333D01*
X87241047Y-118911714D01*
X87383904Y-118911714D01*
X87479142Y-118959333D01*
X87526761Y-119006952D01*
X87574380Y-119102190D01*
X87574380Y-119387904D01*
X87526761Y-119483142D01*
X87479142Y-119530761D01*
X87383904Y-119578380D01*
X87241047Y-119578380D01*
X88669619Y-118911714D02*
X88907714Y-119578380D01*
X89145809Y-118911714D01*
X89431523Y-118578380D02*
X90050571Y-118578380D01*
X89717238Y-118959333D01*
X89860095Y-118959333D01*
X89955333Y-119006952D01*
X90002952Y-119054571D01*
X90050571Y-119149809D01*
X90050571Y-119387904D01*
X90002952Y-119483142D01*
X89955333Y-119530761D01*
X89860095Y-119578380D01*
X89574380Y-119578380D01*
X89479142Y-119530761D01*
X89431523Y-119483142D01*
X70136190Y-60904380D02*
X70136190Y-59904380D01*
X70707619Y-60904380D01*
X70707619Y-59904380D01*
X71755238Y-60904380D02*
X71421904Y-60428190D01*
X71183809Y-60904380D02*
X71183809Y-59904380D01*
X71564761Y-59904380D01*
X71660000Y-59952000D01*
X71707619Y-59999619D01*
X71755238Y-60094857D01*
X71755238Y-60237714D01*
X71707619Y-60332952D01*
X71660000Y-60380571D01*
X71564761Y-60428190D01*
X71183809Y-60428190D01*
X72517142Y-60380571D02*
X72183809Y-60380571D01*
X72183809Y-60904380D02*
X72183809Y-59904380D01*
X72660000Y-59904380D01*
X72993333Y-59999619D02*
X73040952Y-59952000D01*
X73136190Y-59904380D01*
X73374285Y-59904380D01*
X73469523Y-59952000D01*
X73517142Y-59999619D01*
X73564761Y-60094857D01*
X73564761Y-60190095D01*
X73517142Y-60332952D01*
X72945714Y-60904380D01*
X73564761Y-60904380D01*
X74421904Y-60237714D02*
X74421904Y-60904380D01*
X74183809Y-59856761D02*
X73945714Y-60571047D01*
X74564761Y-60571047D01*
X75421904Y-60904380D02*
X74945714Y-60904380D01*
X74945714Y-59904380D01*
X75945714Y-59904380D02*
X76040952Y-59904380D01*
X76136190Y-59952000D01*
X76183809Y-59999619D01*
X76231428Y-60094857D01*
X76279047Y-60285333D01*
X76279047Y-60523428D01*
X76231428Y-60713904D01*
X76183809Y-60809142D01*
X76136190Y-60856761D01*
X76040952Y-60904380D01*
X75945714Y-60904380D01*
X75850476Y-60856761D01*
X75802857Y-60809142D01*
X75755238Y-60713904D01*
X75707619Y-60523428D01*
X75707619Y-60285333D01*
X75755238Y-60094857D01*
X75802857Y-59999619D01*
X75850476Y-59952000D01*
X75945714Y-59904380D01*
X77231428Y-60904380D02*
X76660000Y-60904380D01*
X76945714Y-60904380D02*
X76945714Y-59904380D01*
X76850476Y-60047238D01*
X76755238Y-60142476D01*
X76660000Y-60190095D01*
X92456095Y-62238000D02*
X92360857Y-62190380D01*
X92218000Y-62190380D01*
X92075142Y-62238000D01*
X91979904Y-62333238D01*
X91932285Y-62428476D01*
X91884666Y-62618952D01*
X91884666Y-62761809D01*
X91932285Y-62952285D01*
X91979904Y-63047523D01*
X92075142Y-63142761D01*
X92218000Y-63190380D01*
X92313238Y-63190380D01*
X92456095Y-63142761D01*
X92503714Y-63095142D01*
X92503714Y-62761809D01*
X92313238Y-62761809D01*
X92932285Y-63190380D02*
X92932285Y-62190380D01*
X93503714Y-63190380D01*
X93503714Y-62190380D01*
X93979904Y-63190380D02*
X93979904Y-62190380D01*
X94218000Y-62190380D01*
X94360857Y-62238000D01*
X94456095Y-62333238D01*
X94503714Y-62428476D01*
X94551333Y-62618952D01*
X94551333Y-62761809D01*
X94503714Y-62952285D01*
X94456095Y-63047523D01*
X94360857Y-63142761D01*
X94218000Y-63190380D01*
X93979904Y-63190380D01*
X87264952Y-63190380D02*
X87455428Y-63190380D01*
X87550666Y-63142761D01*
X87598285Y-63095142D01*
X87693523Y-62952285D01*
X87741142Y-62761809D01*
X87741142Y-62380857D01*
X87693523Y-62285619D01*
X87645904Y-62238000D01*
X87550666Y-62190380D01*
X87360190Y-62190380D01*
X87264952Y-62238000D01*
X87217333Y-62285619D01*
X87169714Y-62380857D01*
X87169714Y-62618952D01*
X87217333Y-62714190D01*
X87264952Y-62761809D01*
X87360190Y-62809428D01*
X87550666Y-62809428D01*
X87645904Y-62761809D01*
X87693523Y-62714190D01*
X87741142Y-62618952D01*
X88026857Y-62190380D02*
X88360190Y-63190380D01*
X88693523Y-62190380D01*
X57856380Y-95384857D02*
X57856380Y-95861047D01*
X56856380Y-95861047D01*
X57332571Y-95051523D02*
X57332571Y-94718190D01*
X57856380Y-94575333D02*
X57856380Y-95051523D01*
X56856380Y-95051523D01*
X56856380Y-94575333D01*
X57856380Y-94146761D02*
X56856380Y-94146761D01*
X56856380Y-93908666D01*
X56904000Y-93765809D01*
X56999238Y-93670571D01*
X57094476Y-93622952D01*
X57284952Y-93575333D01*
X57427809Y-93575333D01*
X57618285Y-93622952D01*
X57713523Y-93670571D01*
X57808761Y-93765809D01*
X57856380Y-93908666D01*
X57856380Y-94146761D01*
X57332571Y-91066761D02*
X57380190Y-90923904D01*
X57427809Y-90876285D01*
X57523047Y-90828666D01*
X57665904Y-90828666D01*
X57761142Y-90876285D01*
X57808761Y-90923904D01*
X57856380Y-91019142D01*
X57856380Y-91400095D01*
X56856380Y-91400095D01*
X56856380Y-91066761D01*
X56904000Y-90971523D01*
X56951619Y-90923904D01*
X57046857Y-90876285D01*
X57142095Y-90876285D01*
X57237333Y-90923904D01*
X57284952Y-90971523D01*
X57332571Y-91066761D01*
X57332571Y-91400095D01*
X56856380Y-90400095D02*
X57665904Y-90400095D01*
X57761142Y-90352476D01*
X57808761Y-90304857D01*
X57856380Y-90209619D01*
X57856380Y-90019142D01*
X57808761Y-89923904D01*
X57761142Y-89876285D01*
X57665904Y-89828666D01*
X56856380Y-89828666D01*
X56856380Y-89447714D02*
X56856380Y-88781047D01*
X57856380Y-89447714D01*
X57856380Y-88781047D01*
X56856380Y-88495333D02*
X56856380Y-87828666D01*
X57856380Y-88495333D01*
X57856380Y-87828666D01*
X56904000Y-100583904D02*
X56856380Y-100679142D01*
X56856380Y-100822000D01*
X56904000Y-100964857D01*
X56999238Y-101060095D01*
X57094476Y-101107714D01*
X57284952Y-101155333D01*
X57427809Y-101155333D01*
X57618285Y-101107714D01*
X57713523Y-101060095D01*
X57808761Y-100964857D01*
X57856380Y-100822000D01*
X57856380Y-100726761D01*
X57808761Y-100583904D01*
X57761142Y-100536285D01*
X57427809Y-100536285D01*
X57427809Y-100726761D01*
X57856380Y-100107714D02*
X56856380Y-100107714D01*
X57856380Y-99536285D01*
X56856380Y-99536285D01*
X57856380Y-99060095D02*
X56856380Y-99060095D01*
X56856380Y-98822000D01*
X56904000Y-98679142D01*
X56999238Y-98583904D01*
X57094476Y-98536285D01*
X57284952Y-98488666D01*
X57427809Y-98488666D01*
X57618285Y-98536285D01*
X57713523Y-98583904D01*
X57808761Y-98679142D01*
X57856380Y-98822000D01*
X57856380Y-99060095D01*
D12*
%TO.C,G\u002A\u002A\u002A*%
G36*
X107143675Y-124605878D02*
G01*
X107337079Y-124629415D01*
X107526495Y-124670866D01*
X107710686Y-124729633D01*
X107888414Y-124805123D01*
X108058442Y-124896738D01*
X108219533Y-125003882D01*
X108370450Y-125125960D01*
X108509955Y-125262377D01*
X108636811Y-125412534D01*
X108749782Y-125575838D01*
X108847629Y-125751691D01*
X108849456Y-125755400D01*
X108931655Y-125944985D01*
X108994364Y-126139034D01*
X109037473Y-126336467D01*
X109060874Y-126536202D01*
X109064457Y-126737156D01*
X109048114Y-126938250D01*
X109011734Y-127138401D01*
X108995585Y-127203041D01*
X108933698Y-127396822D01*
X108854436Y-127581331D01*
X108758832Y-127755678D01*
X108647920Y-127918970D01*
X108522732Y-128070319D01*
X108384302Y-128208834D01*
X108233663Y-128333623D01*
X108071847Y-128443797D01*
X107899889Y-128538464D01*
X107718820Y-128616736D01*
X107529675Y-128677720D01*
X107333485Y-128720527D01*
X107216340Y-128736733D01*
X107150204Y-128741921D01*
X107070861Y-128744966D01*
X106985098Y-128745873D01*
X106899696Y-128744650D01*
X106821442Y-128741302D01*
X106761280Y-128736316D01*
X106564113Y-128704018D01*
X106371158Y-128652295D01*
X106183867Y-128581852D01*
X106003691Y-128493397D01*
X105832083Y-128387635D01*
X105670497Y-128265274D01*
X105531526Y-128138238D01*
X105391430Y-127984421D01*
X105268705Y-127820587D01*
X105163722Y-127647481D01*
X105076853Y-127465844D01*
X105008468Y-127276421D01*
X104958941Y-127079954D01*
X104937086Y-126949200D01*
X104929417Y-126872307D01*
X104924717Y-126781831D01*
X104922974Y-126684123D01*
X104923843Y-126612916D01*
X105720229Y-126612916D01*
X105723303Y-126771376D01*
X105745973Y-126931936D01*
X105761167Y-126998709D01*
X105785217Y-127075508D01*
X105819732Y-127161084D01*
X105861629Y-127249071D01*
X105907822Y-127333103D01*
X105955229Y-127406814D01*
X105966287Y-127422050D01*
X106017470Y-127484802D01*
X106078998Y-127550954D01*
X106145692Y-127615521D01*
X106212376Y-127673520D01*
X106273869Y-127719967D01*
X106280383Y-127724349D01*
X106400795Y-127794646D01*
X106531439Y-127853829D01*
X106666424Y-127899637D01*
X106799858Y-127929813D01*
X106827320Y-127933979D01*
X106886508Y-127939031D01*
X106959122Y-127940515D01*
X107038637Y-127938715D01*
X107118525Y-127933915D01*
X107192263Y-127926398D01*
X107253323Y-127916450D01*
X107259120Y-127915189D01*
X107413151Y-127870584D01*
X107558229Y-127808639D01*
X107693180Y-127730590D01*
X107816831Y-127637669D01*
X107928009Y-127531110D01*
X108025541Y-127412148D01*
X108108254Y-127282017D01*
X108174975Y-127141949D01*
X108224530Y-126993180D01*
X108250402Y-126872564D01*
X108259464Y-126792473D01*
X108263033Y-126701263D01*
X108261330Y-126605752D01*
X108254574Y-126512759D01*
X108242986Y-126429102D01*
X108234843Y-126390400D01*
X108186596Y-126233667D01*
X108121461Y-126087237D01*
X108040476Y-125952097D01*
X107944675Y-125829238D01*
X107835095Y-125719648D01*
X107712773Y-125624317D01*
X107578746Y-125544234D01*
X107434049Y-125480389D01*
X107279719Y-125433770D01*
X107219146Y-125420850D01*
X107156784Y-125412357D01*
X107080856Y-125407152D01*
X106997853Y-125405253D01*
X106914262Y-125406675D01*
X106836574Y-125411435D01*
X106771278Y-125419547D01*
X106770133Y-125419746D01*
X106617326Y-125456590D01*
X106471103Y-125512516D01*
X106332157Y-125587159D01*
X106201182Y-125680155D01*
X106094403Y-125775561D01*
X105986986Y-125895431D01*
X105897142Y-126024826D01*
X105825207Y-126162510D01*
X105771518Y-126307245D01*
X105736414Y-126457793D01*
X105720229Y-126612916D01*
X104923843Y-126612916D01*
X104924178Y-126585536D01*
X104928315Y-126492419D01*
X104935375Y-126411126D01*
X104938108Y-126389663D01*
X104975844Y-126190737D01*
X105032059Y-125998847D01*
X105105827Y-125814990D01*
X105196225Y-125640163D01*
X105302330Y-125475363D01*
X105423216Y-125321585D01*
X105557962Y-125179827D01*
X105705641Y-125051086D01*
X105865332Y-124936357D01*
X106036109Y-124836638D01*
X106217048Y-124752926D01*
X106407227Y-124686217D01*
X106551904Y-124648708D01*
X106749850Y-124614929D01*
X106947519Y-124600851D01*
X107143675Y-124605878D01*
G37*
X107143675Y-124605878D02*
X107337079Y-124629415D01*
X107526495Y-124670866D01*
X107710686Y-124729633D01*
X107888414Y-124805123D01*
X108058442Y-124896738D01*
X108219533Y-125003882D01*
X108370450Y-125125960D01*
X108509955Y-125262377D01*
X108636811Y-125412534D01*
X108749782Y-125575838D01*
X108847629Y-125751691D01*
X108849456Y-125755400D01*
X108931655Y-125944985D01*
X108994364Y-126139034D01*
X109037473Y-126336467D01*
X109060874Y-126536202D01*
X109064457Y-126737156D01*
X109048114Y-126938250D01*
X109011734Y-127138401D01*
X108995585Y-127203041D01*
X108933698Y-127396822D01*
X108854436Y-127581331D01*
X108758832Y-127755678D01*
X108647920Y-127918970D01*
X108522732Y-128070319D01*
X108384302Y-128208834D01*
X108233663Y-128333623D01*
X108071847Y-128443797D01*
X107899889Y-128538464D01*
X107718820Y-128616736D01*
X107529675Y-128677720D01*
X107333485Y-128720527D01*
X107216340Y-128736733D01*
X107150204Y-128741921D01*
X107070861Y-128744966D01*
X106985098Y-128745873D01*
X106899696Y-128744650D01*
X106821442Y-128741302D01*
X106761280Y-128736316D01*
X106564113Y-128704018D01*
X106371158Y-128652295D01*
X106183867Y-128581852D01*
X106003691Y-128493397D01*
X105832083Y-128387635D01*
X105670497Y-128265274D01*
X105531526Y-128138238D01*
X105391430Y-127984421D01*
X105268705Y-127820587D01*
X105163722Y-127647481D01*
X105076853Y-127465844D01*
X105008468Y-127276421D01*
X104958941Y-127079954D01*
X104937086Y-126949200D01*
X104929417Y-126872307D01*
X104924717Y-126781831D01*
X104922974Y-126684123D01*
X104923843Y-126612916D01*
X105720229Y-126612916D01*
X105723303Y-126771376D01*
X105745973Y-126931936D01*
X105761167Y-126998709D01*
X105785217Y-127075508D01*
X105819732Y-127161084D01*
X105861629Y-127249071D01*
X105907822Y-127333103D01*
X105955229Y-127406814D01*
X105966287Y-127422050D01*
X106017470Y-127484802D01*
X106078998Y-127550954D01*
X106145692Y-127615521D01*
X106212376Y-127673520D01*
X106273869Y-127719967D01*
X106280383Y-127724349D01*
X106400795Y-127794646D01*
X106531439Y-127853829D01*
X106666424Y-127899637D01*
X106799858Y-127929813D01*
X106827320Y-127933979D01*
X106886508Y-127939031D01*
X106959122Y-127940515D01*
X107038637Y-127938715D01*
X107118525Y-127933915D01*
X107192263Y-127926398D01*
X107253323Y-127916450D01*
X107259120Y-127915189D01*
X107413151Y-127870584D01*
X107558229Y-127808639D01*
X107693180Y-127730590D01*
X107816831Y-127637669D01*
X107928009Y-127531110D01*
X108025541Y-127412148D01*
X108108254Y-127282017D01*
X108174975Y-127141949D01*
X108224530Y-126993180D01*
X108250402Y-126872564D01*
X108259464Y-126792473D01*
X108263033Y-126701263D01*
X108261330Y-126605752D01*
X108254574Y-126512759D01*
X108242986Y-126429102D01*
X108234843Y-126390400D01*
X108186596Y-126233667D01*
X108121461Y-126087237D01*
X108040476Y-125952097D01*
X107944675Y-125829238D01*
X107835095Y-125719648D01*
X107712773Y-125624317D01*
X107578746Y-125544234D01*
X107434049Y-125480389D01*
X107279719Y-125433770D01*
X107219146Y-125420850D01*
X107156784Y-125412357D01*
X107080856Y-125407152D01*
X106997853Y-125405253D01*
X106914262Y-125406675D01*
X106836574Y-125411435D01*
X106771278Y-125419547D01*
X106770133Y-125419746D01*
X106617326Y-125456590D01*
X106471103Y-125512516D01*
X106332157Y-125587159D01*
X106201182Y-125680155D01*
X106094403Y-125775561D01*
X105986986Y-125895431D01*
X105897142Y-126024826D01*
X105825207Y-126162510D01*
X105771518Y-126307245D01*
X105736414Y-126457793D01*
X105720229Y-126612916D01*
X104923843Y-126612916D01*
X104924178Y-126585536D01*
X104928315Y-126492419D01*
X104935375Y-126411126D01*
X104938108Y-126389663D01*
X104975844Y-126190737D01*
X105032059Y-125998847D01*
X105105827Y-125814990D01*
X105196225Y-125640163D01*
X105302330Y-125475363D01*
X105423216Y-125321585D01*
X105557962Y-125179827D01*
X105705641Y-125051086D01*
X105865332Y-124936357D01*
X106036109Y-124836638D01*
X106217048Y-124752926D01*
X106407227Y-124686217D01*
X106551904Y-124648708D01*
X106749850Y-124614929D01*
X106947519Y-124600851D01*
X107143675Y-124605878D01*
G36*
X114744173Y-125081223D02*
G01*
X114963827Y-125081331D01*
X115165895Y-125081511D01*
X115350769Y-125081763D01*
X115518838Y-125082088D01*
X115670493Y-125082487D01*
X115806126Y-125082962D01*
X115926126Y-125083512D01*
X116030884Y-125084140D01*
X116120791Y-125084845D01*
X116196238Y-125085630D01*
X116257615Y-125086494D01*
X116305313Y-125087439D01*
X116339722Y-125088466D01*
X116361233Y-125089576D01*
X116367560Y-125090202D01*
X116492605Y-125116808D01*
X116619632Y-125161166D01*
X116745161Y-125221454D01*
X116865712Y-125295852D01*
X116977806Y-125382539D01*
X117044125Y-125444251D01*
X117152390Y-125566083D01*
X117241729Y-125695308D01*
X117312158Y-125831965D01*
X117363693Y-125976092D01*
X117396350Y-126127729D01*
X117410145Y-126286913D01*
X117410651Y-126323076D01*
X117407058Y-126446192D01*
X117395051Y-126555857D01*
X117373286Y-126657668D01*
X117340422Y-126757222D01*
X117295116Y-126860117D01*
X117270043Y-126909512D01*
X117205365Y-127016888D01*
X117126568Y-127121934D01*
X117037831Y-127219950D01*
X116943338Y-127306237D01*
X116865369Y-127364357D01*
X116830129Y-127387973D01*
X116801817Y-127407131D01*
X116784304Y-127419201D01*
X116780613Y-127421923D01*
X116783702Y-127431707D01*
X116794036Y-127458327D01*
X116810848Y-127499948D01*
X116833369Y-127554732D01*
X116860830Y-127620845D01*
X116892463Y-127696449D01*
X116927499Y-127779709D01*
X116965171Y-127868788D01*
X117004710Y-127961849D01*
X117045348Y-128057057D01*
X117086315Y-128152576D01*
X117087729Y-128155862D01*
X117123848Y-128239845D01*
X116849248Y-128237142D01*
X116574649Y-128234440D01*
X116434860Y-127909320D01*
X116295072Y-127584200D01*
X115861416Y-127581550D01*
X115427760Y-127578901D01*
X115427760Y-128239520D01*
X114909600Y-128239520D01*
X114909600Y-127060960D01*
X115427760Y-127060960D01*
X115846860Y-127060809D01*
X115956159Y-127060639D01*
X116047148Y-127060172D01*
X116121833Y-127059341D01*
X116182225Y-127058084D01*
X116230329Y-127056334D01*
X116268154Y-127054027D01*
X116297709Y-127051099D01*
X116321001Y-127047483D01*
X116332000Y-127045148D01*
X116372619Y-127033138D01*
X116422144Y-127014946D01*
X116471554Y-126993957D01*
X116484400Y-126987915D01*
X116523671Y-126967703D01*
X116557483Y-126946765D01*
X116590577Y-126921479D01*
X116627694Y-126888224D01*
X116673396Y-126843556D01*
X116718195Y-126797715D01*
X116751417Y-126760620D01*
X116776682Y-126727532D01*
X116797612Y-126693709D01*
X116817755Y-126654560D01*
X116852463Y-126573653D01*
X116874975Y-126497030D01*
X116887062Y-126416781D01*
X116890499Y-126329440D01*
X116886750Y-126238434D01*
X116874348Y-126158841D01*
X116851558Y-126082968D01*
X116817236Y-126004320D01*
X116796228Y-125964271D01*
X116774199Y-125929435D01*
X116747453Y-125894983D01*
X116712290Y-125856085D01*
X116672799Y-125815695D01*
X116606537Y-125753318D01*
X116545006Y-125705141D01*
X116482747Y-125667786D01*
X116414299Y-125637872D01*
X116352154Y-125617248D01*
X116332543Y-125611648D01*
X116313298Y-125607018D01*
X116292252Y-125603242D01*
X116267244Y-125600203D01*
X116236108Y-125597784D01*
X116196681Y-125595869D01*
X116146799Y-125594342D01*
X116084299Y-125593084D01*
X116007016Y-125591981D01*
X115912787Y-125590915D01*
X115851940Y-125590293D01*
X115427760Y-125586036D01*
X115427760Y-127060960D01*
X114909600Y-127060960D01*
X114909600Y-125597920D01*
X113920844Y-125597920D01*
X113752325Y-125597917D01*
X113602879Y-125597949D01*
X113471258Y-125598077D01*
X113356215Y-125598362D01*
X113256502Y-125598865D01*
X113170872Y-125599647D01*
X113098077Y-125600768D01*
X113036870Y-125602290D01*
X112986004Y-125604274D01*
X112944230Y-125606781D01*
X112910303Y-125609871D01*
X112882973Y-125613606D01*
X112860994Y-125618046D01*
X112843118Y-125623253D01*
X112828098Y-125629287D01*
X112814687Y-125636210D01*
X112801636Y-125644082D01*
X112787699Y-125652964D01*
X112787141Y-125653319D01*
X112749046Y-125682614D01*
X112707945Y-125722339D01*
X112669074Y-125766640D01*
X112637666Y-125809664D01*
X112621978Y-125837979D01*
X112598721Y-125913049D01*
X112590453Y-125994859D01*
X112597031Y-126077179D01*
X112618315Y-126153779D01*
X112629716Y-126179085D01*
X112667161Y-126236422D01*
X112718274Y-126291783D01*
X112776819Y-126339111D01*
X112821720Y-126365624D01*
X112882680Y-126395480D01*
X113652300Y-126398266D01*
X114421920Y-126401053D01*
X114421920Y-126918720D01*
X113687860Y-126918878D01*
X113541203Y-126918935D01*
X113413393Y-126919095D01*
X113302957Y-126919449D01*
X113208422Y-126920083D01*
X113128313Y-126921087D01*
X113061159Y-126922549D01*
X113005485Y-126924557D01*
X112959820Y-126927200D01*
X112922688Y-126930567D01*
X112892618Y-126934745D01*
X112868136Y-126939823D01*
X112847769Y-126945891D01*
X112830043Y-126953035D01*
X112813487Y-126961345D01*
X112796625Y-126970909D01*
X112793807Y-126972558D01*
X112745948Y-127007351D01*
X112698193Y-127053633D01*
X112655729Y-127105448D01*
X112623744Y-127156838D01*
X112613757Y-127179284D01*
X112598910Y-127237051D01*
X112591867Y-127304881D01*
X112592996Y-127373929D01*
X112602663Y-127435347D01*
X112603088Y-127436978D01*
X112627888Y-127498302D01*
X112667972Y-127560034D01*
X112719044Y-127617161D01*
X112776803Y-127664668D01*
X112820165Y-127690127D01*
X112853096Y-127702309D01*
X112896622Y-127713546D01*
X112939349Y-127721105D01*
X112962417Y-127722785D01*
X113003967Y-127724380D01*
X113062161Y-127725865D01*
X113135160Y-127727217D01*
X113221127Y-127728412D01*
X113318224Y-127729426D01*
X113424612Y-127730235D01*
X113538453Y-127730816D01*
X113657910Y-127731144D01*
X113718340Y-127731206D01*
X114421920Y-127731520D01*
X114421920Y-128249680D01*
X113692940Y-128248329D01*
X113570519Y-128247981D01*
X113452163Y-128247410D01*
X113339738Y-128246640D01*
X113235109Y-128245694D01*
X113140141Y-128244595D01*
X113056701Y-128243369D01*
X112986653Y-128242037D01*
X112931864Y-128240623D01*
X112894199Y-128239151D01*
X112878826Y-128238078D01*
X112762085Y-128216690D01*
X112645371Y-128178090D01*
X112533121Y-128124466D01*
X112429767Y-128058007D01*
X112339747Y-127980900D01*
X112323396Y-127964035D01*
X112238502Y-127858992D01*
X112169955Y-127743461D01*
X112118541Y-127619788D01*
X112085049Y-127490319D01*
X112070264Y-127357401D01*
X112074975Y-127223380D01*
X112074976Y-127223368D01*
X112095404Y-127101563D01*
X112129543Y-126990592D01*
X112179076Y-126886775D01*
X112245688Y-126786434D01*
X112311010Y-126707740D01*
X112349992Y-126664400D01*
X112283604Y-126585820D01*
X112229303Y-126512636D01*
X112178407Y-126427520D01*
X112134716Y-126337751D01*
X112102033Y-126250610D01*
X112094073Y-126222760D01*
X112076191Y-126122389D01*
X112070731Y-126012038D01*
X112077277Y-125897480D01*
X112095415Y-125784486D01*
X112124730Y-125678829D01*
X112135215Y-125650506D01*
X112146690Y-125620626D01*
X112154327Y-125599271D01*
X112156240Y-125592463D01*
X112146343Y-125591441D01*
X112117704Y-125590548D01*
X112071903Y-125589779D01*
X112010515Y-125589132D01*
X111935120Y-125588603D01*
X111847296Y-125588188D01*
X111748621Y-125587884D01*
X111640672Y-125587686D01*
X111525028Y-125587592D01*
X111403266Y-125587598D01*
X111276965Y-125587700D01*
X111147703Y-125587894D01*
X111017058Y-125588178D01*
X110886607Y-125588546D01*
X110757930Y-125588996D01*
X110632603Y-125589525D01*
X110512205Y-125590127D01*
X110398314Y-125590801D01*
X110292508Y-125591542D01*
X110196365Y-125592346D01*
X110111463Y-125593210D01*
X110039380Y-125594131D01*
X109981695Y-125595105D01*
X109939984Y-125596127D01*
X109915826Y-125597196D01*
X109911644Y-125597603D01*
X109825847Y-125619461D01*
X109748980Y-125657561D01*
X109682747Y-125709588D01*
X109628847Y-125773225D01*
X109588983Y-125846156D01*
X109564855Y-125926066D01*
X109558165Y-126010637D01*
X109564535Y-126070119D01*
X109574913Y-126112799D01*
X109589194Y-126155685D01*
X109597678Y-126175592D01*
X109625551Y-126219537D01*
X109666183Y-126266700D01*
X109713946Y-126311649D01*
X109763211Y-126348952D01*
X109797616Y-126368576D01*
X109855000Y-126395480D01*
X110317280Y-126401304D01*
X110779560Y-126407129D01*
X110868780Y-126434372D01*
X110987510Y-126478355D01*
X111098486Y-126534701D01*
X111198548Y-126601355D01*
X111284536Y-126676263D01*
X111341982Y-126741953D01*
X111390131Y-126813525D01*
X111436018Y-126896654D01*
X111476109Y-126984000D01*
X111506870Y-127068223D01*
X111517602Y-127106680D01*
X111531927Y-127186592D01*
X111539343Y-127276000D01*
X111539844Y-127367964D01*
X111533424Y-127455548D01*
X111520076Y-127531812D01*
X111517984Y-127539967D01*
X111472168Y-127676146D01*
X111411172Y-127798821D01*
X111335010Y-127907973D01*
X111243697Y-128003587D01*
X111137248Y-128085644D01*
X111015680Y-128154126D01*
X110962529Y-128177836D01*
X110938948Y-128187634D01*
X110917186Y-128196346D01*
X110895969Y-128204032D01*
X110874020Y-128210754D01*
X110850066Y-128216570D01*
X110822831Y-128221543D01*
X110791040Y-128225732D01*
X110753418Y-128229198D01*
X110708690Y-128232001D01*
X110655582Y-128234202D01*
X110592818Y-128235860D01*
X110519123Y-128237038D01*
X110433222Y-128237795D01*
X110333841Y-128238191D01*
X110219704Y-128238287D01*
X110089536Y-128238144D01*
X109942063Y-128237822D01*
X109776008Y-128237381D01*
X109710665Y-128237203D01*
X108692571Y-128234440D01*
X108783839Y-128127760D01*
X108870260Y-128020888D01*
X108944576Y-127916855D01*
X109004427Y-127819022D01*
X109017326Y-127795020D01*
X109050384Y-127731520D01*
X109828612Y-127731315D01*
X109954359Y-127731160D01*
X110075509Y-127730775D01*
X110190329Y-127730180D01*
X110297086Y-127729394D01*
X110394047Y-127728438D01*
X110479480Y-127727330D01*
X110551652Y-127726092D01*
X110608829Y-127724743D01*
X110649280Y-127723302D01*
X110671272Y-127721790D01*
X110672115Y-127721676D01*
X110752295Y-127700940D01*
X110828081Y-127664081D01*
X110895793Y-127613936D01*
X110951750Y-127553341D01*
X110992269Y-127485134D01*
X110998418Y-127470251D01*
X111016013Y-127401926D01*
X111021867Y-127325261D01*
X111015986Y-127248496D01*
X110998377Y-127179870D01*
X110998187Y-127179373D01*
X110968373Y-127122482D01*
X110924261Y-127065065D01*
X110870993Y-127012508D01*
X110813712Y-126970198D01*
X110782235Y-126953188D01*
X110718600Y-126923800D01*
X110261400Y-126917960D01*
X110147963Y-126916483D01*
X110052645Y-126915033D01*
X109973246Y-126913359D01*
X109907565Y-126911210D01*
X109853402Y-126908335D01*
X109808559Y-126904484D01*
X109770835Y-126899405D01*
X109738030Y-126892848D01*
X109707944Y-126884562D01*
X109678378Y-126874297D01*
X109647132Y-126861800D01*
X109612006Y-126846822D01*
X109602843Y-126842869D01*
X109504338Y-126795299D01*
X109421331Y-126743705D01*
X109358002Y-126693272D01*
X109304477Y-126645624D01*
X109298077Y-126520552D01*
X109281878Y-126349991D01*
X109251301Y-126174930D01*
X109207888Y-126002302D01*
X109153179Y-125839038D01*
X109137890Y-125800428D01*
X109121208Y-125758320D01*
X109107964Y-125722275D01*
X109099833Y-125697009D01*
X109098080Y-125688381D01*
X109103201Y-125667760D01*
X109117109Y-125634262D01*
X109137621Y-125592116D01*
X109162551Y-125545551D01*
X109189717Y-125498795D01*
X109216933Y-125456075D01*
X109221613Y-125449222D01*
X109291420Y-125361825D01*
X109372887Y-125285879D01*
X109468718Y-125219201D01*
X109578734Y-125160952D01*
X109625451Y-125140341D01*
X109674153Y-125120780D01*
X109715738Y-125105886D01*
X109722920Y-125103628D01*
X109729240Y-125101894D01*
X109736825Y-125100269D01*
X109746340Y-125098751D01*
X109758452Y-125097334D01*
X109773828Y-125096014D01*
X109793134Y-125094787D01*
X109817038Y-125093649D01*
X109846207Y-125092595D01*
X109881306Y-125091620D01*
X109923003Y-125090722D01*
X109971965Y-125089894D01*
X110028858Y-125089133D01*
X110094350Y-125088434D01*
X110169106Y-125087793D01*
X110253794Y-125087206D01*
X110349080Y-125086669D01*
X110455632Y-125086176D01*
X110574116Y-125085724D01*
X110705198Y-125085309D01*
X110849546Y-125084925D01*
X111007827Y-125084569D01*
X111180706Y-125084236D01*
X111368851Y-125083922D01*
X111572929Y-125083622D01*
X111793607Y-125083333D01*
X112031551Y-125083050D01*
X112287427Y-125082768D01*
X112561904Y-125082483D01*
X112855647Y-125082191D01*
X113035080Y-125082017D01*
X113368450Y-125081717D01*
X113681890Y-125081483D01*
X113975792Y-125081316D01*
X114250546Y-125081216D01*
X114506543Y-125081185D01*
X114744173Y-125081223D01*
G37*
X114744173Y-125081223D02*
X114963827Y-125081331D01*
X115165895Y-125081511D01*
X115350769Y-125081763D01*
X115518838Y-125082088D01*
X115670493Y-125082487D01*
X115806126Y-125082962D01*
X115926126Y-125083512D01*
X116030884Y-125084140D01*
X116120791Y-125084845D01*
X116196238Y-125085630D01*
X116257615Y-125086494D01*
X116305313Y-125087439D01*
X116339722Y-125088466D01*
X116361233Y-125089576D01*
X116367560Y-125090202D01*
X116492605Y-125116808D01*
X116619632Y-125161166D01*
X116745161Y-125221454D01*
X116865712Y-125295852D01*
X116977806Y-125382539D01*
X117044125Y-125444251D01*
X117152390Y-125566083D01*
X117241729Y-125695308D01*
X117312158Y-125831965D01*
X117363693Y-125976092D01*
X117396350Y-126127729D01*
X117410145Y-126286913D01*
X117410651Y-126323076D01*
X117407058Y-126446192D01*
X117395051Y-126555857D01*
X117373286Y-126657668D01*
X117340422Y-126757222D01*
X117295116Y-126860117D01*
X117270043Y-126909512D01*
X117205365Y-127016888D01*
X117126568Y-127121934D01*
X117037831Y-127219950D01*
X116943338Y-127306237D01*
X116865369Y-127364357D01*
X116830129Y-127387973D01*
X116801817Y-127407131D01*
X116784304Y-127419201D01*
X116780613Y-127421923D01*
X116783702Y-127431707D01*
X116794036Y-127458327D01*
X116810848Y-127499948D01*
X116833369Y-127554732D01*
X116860830Y-127620845D01*
X116892463Y-127696449D01*
X116927499Y-127779709D01*
X116965171Y-127868788D01*
X117004710Y-127961849D01*
X117045348Y-128057057D01*
X117086315Y-128152576D01*
X117087729Y-128155862D01*
X117123848Y-128239845D01*
X116849248Y-128237142D01*
X116574649Y-128234440D01*
X116434860Y-127909320D01*
X116295072Y-127584200D01*
X115861416Y-127581550D01*
X115427760Y-127578901D01*
X115427760Y-128239520D01*
X114909600Y-128239520D01*
X114909600Y-127060960D01*
X115427760Y-127060960D01*
X115846860Y-127060809D01*
X115956159Y-127060639D01*
X116047148Y-127060172D01*
X116121833Y-127059341D01*
X116182225Y-127058084D01*
X116230329Y-127056334D01*
X116268154Y-127054027D01*
X116297709Y-127051099D01*
X116321001Y-127047483D01*
X116332000Y-127045148D01*
X116372619Y-127033138D01*
X116422144Y-127014946D01*
X116471554Y-126993957D01*
X116484400Y-126987915D01*
X116523671Y-126967703D01*
X116557483Y-126946765D01*
X116590577Y-126921479D01*
X116627694Y-126888224D01*
X116673396Y-126843556D01*
X116718195Y-126797715D01*
X116751417Y-126760620D01*
X116776682Y-126727532D01*
X116797612Y-126693709D01*
X116817755Y-126654560D01*
X116852463Y-126573653D01*
X116874975Y-126497030D01*
X116887062Y-126416781D01*
X116890499Y-126329440D01*
X116886750Y-126238434D01*
X116874348Y-126158841D01*
X116851558Y-126082968D01*
X116817236Y-126004320D01*
X116796228Y-125964271D01*
X116774199Y-125929435D01*
X116747453Y-125894983D01*
X116712290Y-125856085D01*
X116672799Y-125815695D01*
X116606537Y-125753318D01*
X116545006Y-125705141D01*
X116482747Y-125667786D01*
X116414299Y-125637872D01*
X116352154Y-125617248D01*
X116332543Y-125611648D01*
X116313298Y-125607018D01*
X116292252Y-125603242D01*
X116267244Y-125600203D01*
X116236108Y-125597784D01*
X116196681Y-125595869D01*
X116146799Y-125594342D01*
X116084299Y-125593084D01*
X116007016Y-125591981D01*
X115912787Y-125590915D01*
X115851940Y-125590293D01*
X115427760Y-125586036D01*
X115427760Y-127060960D01*
X114909600Y-127060960D01*
X114909600Y-125597920D01*
X113920844Y-125597920D01*
X113752325Y-125597917D01*
X113602879Y-125597949D01*
X113471258Y-125598077D01*
X113356215Y-125598362D01*
X113256502Y-125598865D01*
X113170872Y-125599647D01*
X113098077Y-125600768D01*
X113036870Y-125602290D01*
X112986004Y-125604274D01*
X112944230Y-125606781D01*
X112910303Y-125609871D01*
X112882973Y-125613606D01*
X112860994Y-125618046D01*
X112843118Y-125623253D01*
X112828098Y-125629287D01*
X112814687Y-125636210D01*
X112801636Y-125644082D01*
X112787699Y-125652964D01*
X112787141Y-125653319D01*
X112749046Y-125682614D01*
X112707945Y-125722339D01*
X112669074Y-125766640D01*
X112637666Y-125809664D01*
X112621978Y-125837979D01*
X112598721Y-125913049D01*
X112590453Y-125994859D01*
X112597031Y-126077179D01*
X112618315Y-126153779D01*
X112629716Y-126179085D01*
X112667161Y-126236422D01*
X112718274Y-126291783D01*
X112776819Y-126339111D01*
X112821720Y-126365624D01*
X112882680Y-126395480D01*
X113652300Y-126398266D01*
X114421920Y-126401053D01*
X114421920Y-126918720D01*
X113687860Y-126918878D01*
X113541203Y-126918935D01*
X113413393Y-126919095D01*
X113302957Y-126919449D01*
X113208422Y-126920083D01*
X113128313Y-126921087D01*
X113061159Y-126922549D01*
X113005485Y-126924557D01*
X112959820Y-126927200D01*
X112922688Y-126930567D01*
X112892618Y-126934745D01*
X112868136Y-126939823D01*
X112847769Y-126945891D01*
X112830043Y-126953035D01*
X112813487Y-126961345D01*
X112796625Y-126970909D01*
X112793807Y-126972558D01*
X112745948Y-127007351D01*
X112698193Y-127053633D01*
X112655729Y-127105448D01*
X112623744Y-127156838D01*
X112613757Y-127179284D01*
X112598910Y-127237051D01*
X112591867Y-127304881D01*
X112592996Y-127373929D01*
X112602663Y-127435347D01*
X112603088Y-127436978D01*
X112627888Y-127498302D01*
X112667972Y-127560034D01*
X112719044Y-127617161D01*
X112776803Y-127664668D01*
X112820165Y-127690127D01*
X112853096Y-127702309D01*
X112896622Y-127713546D01*
X112939349Y-127721105D01*
X112962417Y-127722785D01*
X113003967Y-127724380D01*
X113062161Y-127725865D01*
X113135160Y-127727217D01*
X113221127Y-127728412D01*
X113318224Y-127729426D01*
X113424612Y-127730235D01*
X113538453Y-127730816D01*
X113657910Y-127731144D01*
X113718340Y-127731206D01*
X114421920Y-127731520D01*
X114421920Y-128249680D01*
X113692940Y-128248329D01*
X113570519Y-128247981D01*
X113452163Y-128247410D01*
X113339738Y-128246640D01*
X113235109Y-128245694D01*
X113140141Y-128244595D01*
X113056701Y-128243369D01*
X112986653Y-128242037D01*
X112931864Y-128240623D01*
X112894199Y-128239151D01*
X112878826Y-128238078D01*
X112762085Y-128216690D01*
X112645371Y-128178090D01*
X112533121Y-128124466D01*
X112429767Y-128058007D01*
X112339747Y-127980900D01*
X112323396Y-127964035D01*
X112238502Y-127858992D01*
X112169955Y-127743461D01*
X112118541Y-127619788D01*
X112085049Y-127490319D01*
X112070264Y-127357401D01*
X112074975Y-127223380D01*
X112074976Y-127223368D01*
X112095404Y-127101563D01*
X112129543Y-126990592D01*
X112179076Y-126886775D01*
X112245688Y-126786434D01*
X112311010Y-126707740D01*
X112349992Y-126664400D01*
X112283604Y-126585820D01*
X112229303Y-126512636D01*
X112178407Y-126427520D01*
X112134716Y-126337751D01*
X112102033Y-126250610D01*
X112094073Y-126222760D01*
X112076191Y-126122389D01*
X112070731Y-126012038D01*
X112077277Y-125897480D01*
X112095415Y-125784486D01*
X112124730Y-125678829D01*
X112135215Y-125650506D01*
X112146690Y-125620626D01*
X112154327Y-125599271D01*
X112156240Y-125592463D01*
X112146343Y-125591441D01*
X112117704Y-125590548D01*
X112071903Y-125589779D01*
X112010515Y-125589132D01*
X111935120Y-125588603D01*
X111847296Y-125588188D01*
X111748621Y-125587884D01*
X111640672Y-125587686D01*
X111525028Y-125587592D01*
X111403266Y-125587598D01*
X111276965Y-125587700D01*
X111147703Y-125587894D01*
X111017058Y-125588178D01*
X110886607Y-125588546D01*
X110757930Y-125588996D01*
X110632603Y-125589525D01*
X110512205Y-125590127D01*
X110398314Y-125590801D01*
X110292508Y-125591542D01*
X110196365Y-125592346D01*
X110111463Y-125593210D01*
X110039380Y-125594131D01*
X109981695Y-125595105D01*
X109939984Y-125596127D01*
X109915826Y-125597196D01*
X109911644Y-125597603D01*
X109825847Y-125619461D01*
X109748980Y-125657561D01*
X109682747Y-125709588D01*
X109628847Y-125773225D01*
X109588983Y-125846156D01*
X109564855Y-125926066D01*
X109558165Y-126010637D01*
X109564535Y-126070119D01*
X109574913Y-126112799D01*
X109589194Y-126155685D01*
X109597678Y-126175592D01*
X109625551Y-126219537D01*
X109666183Y-126266700D01*
X109713946Y-126311649D01*
X109763211Y-126348952D01*
X109797616Y-126368576D01*
X109855000Y-126395480D01*
X110317280Y-126401304D01*
X110779560Y-126407129D01*
X110868780Y-126434372D01*
X110987510Y-126478355D01*
X111098486Y-126534701D01*
X111198548Y-126601355D01*
X111284536Y-126676263D01*
X111341982Y-126741953D01*
X111390131Y-126813525D01*
X111436018Y-126896654D01*
X111476109Y-126984000D01*
X111506870Y-127068223D01*
X111517602Y-127106680D01*
X111531927Y-127186592D01*
X111539343Y-127276000D01*
X111539844Y-127367964D01*
X111533424Y-127455548D01*
X111520076Y-127531812D01*
X111517984Y-127539967D01*
X111472168Y-127676146D01*
X111411172Y-127798821D01*
X111335010Y-127907973D01*
X111243697Y-128003587D01*
X111137248Y-128085644D01*
X111015680Y-128154126D01*
X110962529Y-128177836D01*
X110938948Y-128187634D01*
X110917186Y-128196346D01*
X110895969Y-128204032D01*
X110874020Y-128210754D01*
X110850066Y-128216570D01*
X110822831Y-128221543D01*
X110791040Y-128225732D01*
X110753418Y-128229198D01*
X110708690Y-128232001D01*
X110655582Y-128234202D01*
X110592818Y-128235860D01*
X110519123Y-128237038D01*
X110433222Y-128237795D01*
X110333841Y-128238191D01*
X110219704Y-128238287D01*
X110089536Y-128238144D01*
X109942063Y-128237822D01*
X109776008Y-128237381D01*
X109710665Y-128237203D01*
X108692571Y-128234440D01*
X108783839Y-128127760D01*
X108870260Y-128020888D01*
X108944576Y-127916855D01*
X109004427Y-127819022D01*
X109017326Y-127795020D01*
X109050384Y-127731520D01*
X109828612Y-127731315D01*
X109954359Y-127731160D01*
X110075509Y-127730775D01*
X110190329Y-127730180D01*
X110297086Y-127729394D01*
X110394047Y-127728438D01*
X110479480Y-127727330D01*
X110551652Y-127726092D01*
X110608829Y-127724743D01*
X110649280Y-127723302D01*
X110671272Y-127721790D01*
X110672115Y-127721676D01*
X110752295Y-127700940D01*
X110828081Y-127664081D01*
X110895793Y-127613936D01*
X110951750Y-127553341D01*
X110992269Y-127485134D01*
X110998418Y-127470251D01*
X111016013Y-127401926D01*
X111021867Y-127325261D01*
X111015986Y-127248496D01*
X110998377Y-127179870D01*
X110998187Y-127179373D01*
X110968373Y-127122482D01*
X110924261Y-127065065D01*
X110870993Y-127012508D01*
X110813712Y-126970198D01*
X110782235Y-126953188D01*
X110718600Y-126923800D01*
X110261400Y-126917960D01*
X110147963Y-126916483D01*
X110052645Y-126915033D01*
X109973246Y-126913359D01*
X109907565Y-126911210D01*
X109853402Y-126908335D01*
X109808559Y-126904484D01*
X109770835Y-126899405D01*
X109738030Y-126892848D01*
X109707944Y-126884562D01*
X109678378Y-126874297D01*
X109647132Y-126861800D01*
X109612006Y-126846822D01*
X109602843Y-126842869D01*
X109504338Y-126795299D01*
X109421331Y-126743705D01*
X109358002Y-126693272D01*
X109304477Y-126645624D01*
X109298077Y-126520552D01*
X109281878Y-126349991D01*
X109251301Y-126174930D01*
X109207888Y-126002302D01*
X109153179Y-125839038D01*
X109137890Y-125800428D01*
X109121208Y-125758320D01*
X109107964Y-125722275D01*
X109099833Y-125697009D01*
X109098080Y-125688381D01*
X109103201Y-125667760D01*
X109117109Y-125634262D01*
X109137621Y-125592116D01*
X109162551Y-125545551D01*
X109189717Y-125498795D01*
X109216933Y-125456075D01*
X109221613Y-125449222D01*
X109291420Y-125361825D01*
X109372887Y-125285879D01*
X109468718Y-125219201D01*
X109578734Y-125160952D01*
X109625451Y-125140341D01*
X109674153Y-125120780D01*
X109715738Y-125105886D01*
X109722920Y-125103628D01*
X109729240Y-125101894D01*
X109736825Y-125100269D01*
X109746340Y-125098751D01*
X109758452Y-125097334D01*
X109773828Y-125096014D01*
X109793134Y-125094787D01*
X109817038Y-125093649D01*
X109846207Y-125092595D01*
X109881306Y-125091620D01*
X109923003Y-125090722D01*
X109971965Y-125089894D01*
X110028858Y-125089133D01*
X110094350Y-125088434D01*
X110169106Y-125087793D01*
X110253794Y-125087206D01*
X110349080Y-125086669D01*
X110455632Y-125086176D01*
X110574116Y-125085724D01*
X110705198Y-125085309D01*
X110849546Y-125084925D01*
X111007827Y-125084569D01*
X111180706Y-125084236D01*
X111368851Y-125083922D01*
X111572929Y-125083622D01*
X111793607Y-125083333D01*
X112031551Y-125083050D01*
X112287427Y-125082768D01*
X112561904Y-125082483D01*
X112855647Y-125082191D01*
X113035080Y-125082017D01*
X113368450Y-125081717D01*
X113681890Y-125081483D01*
X113975792Y-125081316D01*
X114250546Y-125081216D01*
X114506543Y-125081185D01*
X114744173Y-125081223D01*
G36*
X102602660Y-125036618D02*
G01*
X102666991Y-125041029D01*
X102723984Y-125049898D01*
X102780069Y-125064360D01*
X102841680Y-125085548D01*
X102869835Y-125096365D01*
X102920703Y-125120124D01*
X102980248Y-125153882D01*
X103042333Y-125193729D01*
X103100822Y-125235754D01*
X103144025Y-125271064D01*
X103189451Y-125311284D01*
X103240545Y-125265318D01*
X103348998Y-125180382D01*
X103465158Y-125114042D01*
X103590186Y-125065660D01*
X103616760Y-125057973D01*
X103654732Y-125048619D01*
X103691783Y-125042233D01*
X103733218Y-125038315D01*
X103784342Y-125036361D01*
X103850440Y-125035872D01*
X103912715Y-125036300D01*
X103960032Y-125037849D01*
X103997743Y-125041129D01*
X104031205Y-125046749D01*
X104065770Y-125055319D01*
X104094280Y-125063639D01*
X104228724Y-125113562D01*
X104348782Y-125177815D01*
X104454560Y-125256488D01*
X104546169Y-125349671D01*
X104623716Y-125457456D01*
X104669884Y-125542040D01*
X104716744Y-125653390D01*
X104747557Y-125763135D01*
X104764347Y-125878955D01*
X104766501Y-125908291D01*
X104768678Y-125953350D01*
X104768496Y-125990525D01*
X104765276Y-126026063D01*
X104758338Y-126066217D01*
X104747005Y-126117236D01*
X104741117Y-126141971D01*
X104715225Y-126259876D01*
X104696991Y-126369049D01*
X104685702Y-126476459D01*
X104680644Y-126589076D01*
X104681104Y-126713868D01*
X104681385Y-126725680D01*
X104688686Y-126876088D01*
X104702996Y-127012158D01*
X104724974Y-127138855D01*
X104749773Y-127241413D01*
X104754560Y-127260092D01*
X104758527Y-127279231D01*
X104761749Y-127300867D01*
X104764304Y-127327039D01*
X104766267Y-127359783D01*
X104767715Y-127401138D01*
X104768725Y-127453141D01*
X104769374Y-127517829D01*
X104769738Y-127597241D01*
X104769893Y-127693414D01*
X104769920Y-127777353D01*
X104769920Y-128239520D01*
X104251760Y-128239520D01*
X104251760Y-127071620D01*
X104251675Y-126865659D01*
X104251421Y-126679700D01*
X104250994Y-126513425D01*
X104250390Y-126366516D01*
X104249608Y-126238655D01*
X104248644Y-126129524D01*
X104247496Y-126038806D01*
X104246160Y-125966182D01*
X104244633Y-125911336D01*
X104242914Y-125873948D01*
X104240998Y-125853702D01*
X104240725Y-125852268D01*
X104219019Y-125791789D01*
X104181688Y-125730403D01*
X104132730Y-125672476D01*
X104076145Y-125622374D01*
X104015932Y-125584463D01*
X103982520Y-125570324D01*
X103922409Y-125556941D01*
X103852639Y-125552650D01*
X103781624Y-125557262D01*
X103717782Y-125570587D01*
X103700228Y-125576666D01*
X103641290Y-125608189D01*
X103582940Y-125654543D01*
X103530492Y-125710796D01*
X103489263Y-125772017D01*
X103488863Y-125772753D01*
X103454200Y-125836680D01*
X103448794Y-128239520D01*
X102931525Y-128239520D01*
X102928702Y-127053340D01*
X102925880Y-125867160D01*
X102902035Y-125808058D01*
X102876579Y-125760489D01*
X102839069Y-125709434D01*
X102794602Y-125660539D01*
X102748277Y-125619451D01*
X102708069Y-125593231D01*
X102628956Y-125563737D01*
X102544561Y-125550929D01*
X102459873Y-125554943D01*
X102379880Y-125575913D01*
X102361110Y-125583862D01*
X102314813Y-125611385D01*
X102265478Y-125650800D01*
X102219001Y-125696512D01*
X102181276Y-125742925D01*
X102164332Y-125770640D01*
X102147857Y-125809398D01*
X102133649Y-125853545D01*
X102129583Y-125870200D01*
X102127615Y-125886999D01*
X102125849Y-125918243D01*
X102124280Y-125964479D01*
X102122902Y-126026257D01*
X102121711Y-126104126D01*
X102120702Y-126198635D01*
X102119869Y-126310335D01*
X102119207Y-126439773D01*
X102118711Y-126587498D01*
X102118376Y-126754062D01*
X102118196Y-126940011D01*
X102118159Y-127081780D01*
X102118160Y-128239520D01*
X101610160Y-128239520D01*
X101610336Y-127033020D01*
X101610354Y-126846815D01*
X101610384Y-126679761D01*
X101610474Y-126530691D01*
X101610674Y-126398436D01*
X101611033Y-126281828D01*
X101611599Y-126179698D01*
X101612422Y-126090878D01*
X101613551Y-126014200D01*
X101615034Y-125948495D01*
X101616921Y-125892595D01*
X101619261Y-125845332D01*
X101622103Y-125805537D01*
X101625495Y-125772043D01*
X101629487Y-125743680D01*
X101634128Y-125719281D01*
X101639467Y-125697677D01*
X101645553Y-125677699D01*
X101652434Y-125658180D01*
X101660161Y-125637952D01*
X101668781Y-125615845D01*
X101669916Y-125612911D01*
X101724352Y-125493342D01*
X101789967Y-125389388D01*
X101868580Y-125299069D01*
X101962012Y-125220400D01*
X102072083Y-125151399D01*
X102113080Y-125130058D01*
X102191180Y-125093730D01*
X102261263Y-125067617D01*
X102329700Y-125050255D01*
X102402862Y-125040181D01*
X102487120Y-125035930D01*
X102524560Y-125035535D01*
X102602660Y-125036618D01*
G37*
X102602660Y-125036618D02*
X102666991Y-125041029D01*
X102723984Y-125049898D01*
X102780069Y-125064360D01*
X102841680Y-125085548D01*
X102869835Y-125096365D01*
X102920703Y-125120124D01*
X102980248Y-125153882D01*
X103042333Y-125193729D01*
X103100822Y-125235754D01*
X103144025Y-125271064D01*
X103189451Y-125311284D01*
X103240545Y-125265318D01*
X103348998Y-125180382D01*
X103465158Y-125114042D01*
X103590186Y-125065660D01*
X103616760Y-125057973D01*
X103654732Y-125048619D01*
X103691783Y-125042233D01*
X103733218Y-125038315D01*
X103784342Y-125036361D01*
X103850440Y-125035872D01*
X103912715Y-125036300D01*
X103960032Y-125037849D01*
X103997743Y-125041129D01*
X104031205Y-125046749D01*
X104065770Y-125055319D01*
X104094280Y-125063639D01*
X104228724Y-125113562D01*
X104348782Y-125177815D01*
X104454560Y-125256488D01*
X104546169Y-125349671D01*
X104623716Y-125457456D01*
X104669884Y-125542040D01*
X104716744Y-125653390D01*
X104747557Y-125763135D01*
X104764347Y-125878955D01*
X104766501Y-125908291D01*
X104768678Y-125953350D01*
X104768496Y-125990525D01*
X104765276Y-126026063D01*
X104758338Y-126066217D01*
X104747005Y-126117236D01*
X104741117Y-126141971D01*
X104715225Y-126259876D01*
X104696991Y-126369049D01*
X104685702Y-126476459D01*
X104680644Y-126589076D01*
X104681104Y-126713868D01*
X104681385Y-126725680D01*
X104688686Y-126876088D01*
X104702996Y-127012158D01*
X104724974Y-127138855D01*
X104749773Y-127241413D01*
X104754560Y-127260092D01*
X104758527Y-127279231D01*
X104761749Y-127300867D01*
X104764304Y-127327039D01*
X104766267Y-127359783D01*
X104767715Y-127401138D01*
X104768725Y-127453141D01*
X104769374Y-127517829D01*
X104769738Y-127597241D01*
X104769893Y-127693414D01*
X104769920Y-127777353D01*
X104769920Y-128239520D01*
X104251760Y-128239520D01*
X104251760Y-127071620D01*
X104251675Y-126865659D01*
X104251421Y-126679700D01*
X104250994Y-126513425D01*
X104250390Y-126366516D01*
X104249608Y-126238655D01*
X104248644Y-126129524D01*
X104247496Y-126038806D01*
X104246160Y-125966182D01*
X104244633Y-125911336D01*
X104242914Y-125873948D01*
X104240998Y-125853702D01*
X104240725Y-125852268D01*
X104219019Y-125791789D01*
X104181688Y-125730403D01*
X104132730Y-125672476D01*
X104076145Y-125622374D01*
X104015932Y-125584463D01*
X103982520Y-125570324D01*
X103922409Y-125556941D01*
X103852639Y-125552650D01*
X103781624Y-125557262D01*
X103717782Y-125570587D01*
X103700228Y-125576666D01*
X103641290Y-125608189D01*
X103582940Y-125654543D01*
X103530492Y-125710796D01*
X103489263Y-125772017D01*
X103488863Y-125772753D01*
X103454200Y-125836680D01*
X103448794Y-128239520D01*
X102931525Y-128239520D01*
X102928702Y-127053340D01*
X102925880Y-125867160D01*
X102902035Y-125808058D01*
X102876579Y-125760489D01*
X102839069Y-125709434D01*
X102794602Y-125660539D01*
X102748277Y-125619451D01*
X102708069Y-125593231D01*
X102628956Y-125563737D01*
X102544561Y-125550929D01*
X102459873Y-125554943D01*
X102379880Y-125575913D01*
X102361110Y-125583862D01*
X102314813Y-125611385D01*
X102265478Y-125650800D01*
X102219001Y-125696512D01*
X102181276Y-125742925D01*
X102164332Y-125770640D01*
X102147857Y-125809398D01*
X102133649Y-125853545D01*
X102129583Y-125870200D01*
X102127615Y-125886999D01*
X102125849Y-125918243D01*
X102124280Y-125964479D01*
X102122902Y-126026257D01*
X102121711Y-126104126D01*
X102120702Y-126198635D01*
X102119869Y-126310335D01*
X102119207Y-126439773D01*
X102118711Y-126587498D01*
X102118376Y-126754062D01*
X102118196Y-126940011D01*
X102118159Y-127081780D01*
X102118160Y-128239520D01*
X101610160Y-128239520D01*
X101610336Y-127033020D01*
X101610354Y-126846815D01*
X101610384Y-126679761D01*
X101610474Y-126530691D01*
X101610674Y-126398436D01*
X101611033Y-126281828D01*
X101611599Y-126179698D01*
X101612422Y-126090878D01*
X101613551Y-126014200D01*
X101615034Y-125948495D01*
X101616921Y-125892595D01*
X101619261Y-125845332D01*
X101622103Y-125805537D01*
X101625495Y-125772043D01*
X101629487Y-125743680D01*
X101634128Y-125719281D01*
X101639467Y-125697677D01*
X101645553Y-125677699D01*
X101652434Y-125658180D01*
X101660161Y-125637952D01*
X101668781Y-125615845D01*
X101669916Y-125612911D01*
X101724352Y-125493342D01*
X101789967Y-125389388D01*
X101868580Y-125299069D01*
X101962012Y-125220400D01*
X102072083Y-125151399D01*
X102113080Y-125130058D01*
X102191180Y-125093730D01*
X102261263Y-125067617D01*
X102329700Y-125050255D01*
X102402862Y-125040181D01*
X102487120Y-125035930D01*
X102524560Y-125035535D01*
X102602660Y-125036618D01*
G36*
X104884898Y-121565650D02*
G01*
X105144292Y-121565717D01*
X105420189Y-121565820D01*
X105713114Y-121565953D01*
X106023594Y-121566111D01*
X106352155Y-121566288D01*
X106699322Y-121566479D01*
X107065621Y-121566677D01*
X107451578Y-121566878D01*
X107554901Y-121566930D01*
X112699800Y-121569480D01*
X112654080Y-121593613D01*
X112528722Y-121668561D01*
X112412801Y-121755362D01*
X112309170Y-121851433D01*
X112220682Y-121954194D01*
X112164289Y-122036868D01*
X112130840Y-122092143D01*
X111127540Y-122092431D01*
X110124240Y-122092720D01*
X110124240Y-122814080D01*
X111058960Y-122814080D01*
X111058960Y-123332240D01*
X110124240Y-123332240D01*
X110124240Y-124581920D01*
X109595920Y-124581920D01*
X109595920Y-122092720D01*
X107553760Y-122092720D01*
X107553760Y-122814080D01*
X108579920Y-122814080D01*
X108579920Y-123332052D01*
X107558840Y-123337320D01*
X107553500Y-124053600D01*
X109067600Y-124053600D01*
X109067600Y-124581920D01*
X107934620Y-124581920D01*
X107843250Y-124545711D01*
X107659203Y-124482532D01*
X107466284Y-124434659D01*
X107270319Y-124403372D01*
X107146116Y-124392651D01*
X107025440Y-124385831D01*
X107025440Y-122092720D01*
X105674160Y-122092720D01*
X105674160Y-124581920D01*
X105145840Y-124581920D01*
X105145840Y-123337144D01*
X105145839Y-122092368D01*
X103751379Y-122095084D01*
X102356920Y-122097800D01*
X102299235Y-122126127D01*
X102246269Y-122159548D01*
X102195288Y-122204826D01*
X102151370Y-122256484D01*
X102119593Y-122309046D01*
X102111636Y-122328467D01*
X102096262Y-122396185D01*
X102093382Y-122468921D01*
X102102749Y-122539105D01*
X102120132Y-122591044D01*
X102165918Y-122666809D01*
X102226230Y-122728986D01*
X102298799Y-122775606D01*
X102366608Y-122809000D01*
X103133924Y-122814741D01*
X103281181Y-122815810D01*
X103409673Y-122816759D01*
X103520951Y-122817730D01*
X103616570Y-122818865D01*
X103698082Y-122820305D01*
X103767038Y-122822192D01*
X103824993Y-122824668D01*
X103873499Y-122827874D01*
X103914108Y-122831952D01*
X103948374Y-122837044D01*
X103977849Y-122843291D01*
X104004086Y-122850835D01*
X104028637Y-122859817D01*
X104053055Y-122870380D01*
X104078894Y-122882664D01*
X104107705Y-122896813D01*
X104124760Y-122905138D01*
X104238966Y-122971383D01*
X104339919Y-123052164D01*
X104426665Y-123145844D01*
X104498255Y-123250786D01*
X104553735Y-123365355D01*
X104592154Y-123487913D01*
X104612561Y-123616823D01*
X104614218Y-123746858D01*
X104606519Y-123832578D01*
X104592979Y-123906559D01*
X104571564Y-123977024D01*
X104540242Y-124052194D01*
X104536939Y-124059320D01*
X104471117Y-124178791D01*
X104392022Y-124283248D01*
X104299224Y-124373049D01*
X104192290Y-124448551D01*
X104070789Y-124510114D01*
X103936800Y-124557373D01*
X103925879Y-124560304D01*
X103913768Y-124562926D01*
X103899311Y-124565258D01*
X103881349Y-124567323D01*
X103858726Y-124569139D01*
X103830285Y-124570729D01*
X103794867Y-124572113D01*
X103751317Y-124573311D01*
X103698476Y-124574345D01*
X103635187Y-124575235D01*
X103560293Y-124576002D01*
X103472638Y-124576666D01*
X103371062Y-124577249D01*
X103254410Y-124577770D01*
X103121523Y-124578251D01*
X102971246Y-124578713D01*
X102802420Y-124579175D01*
X102704900Y-124579428D01*
X101539040Y-124582416D01*
X101539040Y-124053942D01*
X102679718Y-124051231D01*
X103820397Y-124048520D01*
X103888223Y-124015126D01*
X103960874Y-123968330D01*
X104020486Y-123906704D01*
X104060177Y-123842309D01*
X104079316Y-123784668D01*
X104088001Y-123717275D01*
X104085970Y-123647953D01*
X104072962Y-123584528D01*
X104069147Y-123573573D01*
X104032680Y-123504204D01*
X103979870Y-123441988D01*
X103914343Y-123390333D01*
X103839730Y-123352650D01*
X103830409Y-123349254D01*
X103813426Y-123346898D01*
X103776480Y-123344648D01*
X103719929Y-123342511D01*
X103644130Y-123340494D01*
X103549441Y-123338606D01*
X103436219Y-123336852D01*
X103304821Y-123335242D01*
X103155604Y-123333781D01*
X103037640Y-123332829D01*
X102275640Y-123327160D01*
X102175435Y-123292477D01*
X102058800Y-123243797D01*
X101951519Y-123182436D01*
X101856666Y-123110507D01*
X101777313Y-123030126D01*
X101756808Y-123004440D01*
X101717440Y-122945535D01*
X101677408Y-122873780D01*
X101640125Y-122796235D01*
X101609003Y-122719957D01*
X101588648Y-122656600D01*
X101573081Y-122575317D01*
X101565785Y-122485047D01*
X101566766Y-122393156D01*
X101576033Y-122307007D01*
X101588203Y-122251378D01*
X101634974Y-122116888D01*
X101695468Y-121994691D01*
X101768700Y-121886600D01*
X101816496Y-121831219D01*
X101867686Y-121784078D01*
X101932066Y-121735358D01*
X102003328Y-121689200D01*
X102075163Y-121649745D01*
X102130517Y-121625124D01*
X102141666Y-121620608D01*
X102151440Y-121616319D01*
X102160366Y-121612253D01*
X102168968Y-121608404D01*
X102177773Y-121604765D01*
X102187307Y-121601332D01*
X102198096Y-121598098D01*
X102210665Y-121595059D01*
X102225540Y-121592207D01*
X102243246Y-121589539D01*
X102264311Y-121587048D01*
X102289259Y-121584728D01*
X102318617Y-121582574D01*
X102352909Y-121580580D01*
X102392663Y-121578740D01*
X102438403Y-121577050D01*
X102490657Y-121575502D01*
X102549948Y-121574093D01*
X102616804Y-121572815D01*
X102691749Y-121571664D01*
X102775311Y-121570633D01*
X102868014Y-121569718D01*
X102970385Y-121568911D01*
X103082949Y-121568209D01*
X103206232Y-121567605D01*
X103340760Y-121567093D01*
X103487059Y-121566668D01*
X103645654Y-121566324D01*
X103817072Y-121566056D01*
X104001838Y-121565857D01*
X104200477Y-121565723D01*
X104413517Y-121565648D01*
X104641482Y-121565626D01*
X104884898Y-121565650D01*
G37*
X104884898Y-121565650D02*
X105144292Y-121565717D01*
X105420189Y-121565820D01*
X105713114Y-121565953D01*
X106023594Y-121566111D01*
X106352155Y-121566288D01*
X106699322Y-121566479D01*
X107065621Y-121566677D01*
X107451578Y-121566878D01*
X107554901Y-121566930D01*
X112699800Y-121569480D01*
X112654080Y-121593613D01*
X112528722Y-121668561D01*
X112412801Y-121755362D01*
X112309170Y-121851433D01*
X112220682Y-121954194D01*
X112164289Y-122036868D01*
X112130840Y-122092143D01*
X111127540Y-122092431D01*
X110124240Y-122092720D01*
X110124240Y-122814080D01*
X111058960Y-122814080D01*
X111058960Y-123332240D01*
X110124240Y-123332240D01*
X110124240Y-124581920D01*
X109595920Y-124581920D01*
X109595920Y-122092720D01*
X107553760Y-122092720D01*
X107553760Y-122814080D01*
X108579920Y-122814080D01*
X108579920Y-123332052D01*
X107558840Y-123337320D01*
X107553500Y-124053600D01*
X109067600Y-124053600D01*
X109067600Y-124581920D01*
X107934620Y-124581920D01*
X107843250Y-124545711D01*
X107659203Y-124482532D01*
X107466284Y-124434659D01*
X107270319Y-124403372D01*
X107146116Y-124392651D01*
X107025440Y-124385831D01*
X107025440Y-122092720D01*
X105674160Y-122092720D01*
X105674160Y-124581920D01*
X105145840Y-124581920D01*
X105145840Y-123337144D01*
X105145839Y-122092368D01*
X103751379Y-122095084D01*
X102356920Y-122097800D01*
X102299235Y-122126127D01*
X102246269Y-122159548D01*
X102195288Y-122204826D01*
X102151370Y-122256484D01*
X102119593Y-122309046D01*
X102111636Y-122328467D01*
X102096262Y-122396185D01*
X102093382Y-122468921D01*
X102102749Y-122539105D01*
X102120132Y-122591044D01*
X102165918Y-122666809D01*
X102226230Y-122728986D01*
X102298799Y-122775606D01*
X102366608Y-122809000D01*
X103133924Y-122814741D01*
X103281181Y-122815810D01*
X103409673Y-122816759D01*
X103520951Y-122817730D01*
X103616570Y-122818865D01*
X103698082Y-122820305D01*
X103767038Y-122822192D01*
X103824993Y-122824668D01*
X103873499Y-122827874D01*
X103914108Y-122831952D01*
X103948374Y-122837044D01*
X103977849Y-122843291D01*
X104004086Y-122850835D01*
X104028637Y-122859817D01*
X104053055Y-122870380D01*
X104078894Y-122882664D01*
X104107705Y-122896813D01*
X104124760Y-122905138D01*
X104238966Y-122971383D01*
X104339919Y-123052164D01*
X104426665Y-123145844D01*
X104498255Y-123250786D01*
X104553735Y-123365355D01*
X104592154Y-123487913D01*
X104612561Y-123616823D01*
X104614218Y-123746858D01*
X104606519Y-123832578D01*
X104592979Y-123906559D01*
X104571564Y-123977024D01*
X104540242Y-124052194D01*
X104536939Y-124059320D01*
X104471117Y-124178791D01*
X104392022Y-124283248D01*
X104299224Y-124373049D01*
X104192290Y-124448551D01*
X104070789Y-124510114D01*
X103936800Y-124557373D01*
X103925879Y-124560304D01*
X103913768Y-124562926D01*
X103899311Y-124565258D01*
X103881349Y-124567323D01*
X103858726Y-124569139D01*
X103830285Y-124570729D01*
X103794867Y-124572113D01*
X103751317Y-124573311D01*
X103698476Y-124574345D01*
X103635187Y-124575235D01*
X103560293Y-124576002D01*
X103472638Y-124576666D01*
X103371062Y-124577249D01*
X103254410Y-124577770D01*
X103121523Y-124578251D01*
X102971246Y-124578713D01*
X102802420Y-124579175D01*
X102704900Y-124579428D01*
X101539040Y-124582416D01*
X101539040Y-124053942D01*
X102679718Y-124051231D01*
X103820397Y-124048520D01*
X103888223Y-124015126D01*
X103960874Y-123968330D01*
X104020486Y-123906704D01*
X104060177Y-123842309D01*
X104079316Y-123784668D01*
X104088001Y-123717275D01*
X104085970Y-123647953D01*
X104072962Y-123584528D01*
X104069147Y-123573573D01*
X104032680Y-123504204D01*
X103979870Y-123441988D01*
X103914343Y-123390333D01*
X103839730Y-123352650D01*
X103830409Y-123349254D01*
X103813426Y-123346898D01*
X103776480Y-123344648D01*
X103719929Y-123342511D01*
X103644130Y-123340494D01*
X103549441Y-123338606D01*
X103436219Y-123336852D01*
X103304821Y-123335242D01*
X103155604Y-123333781D01*
X103037640Y-123332829D01*
X102275640Y-123327160D01*
X102175435Y-123292477D01*
X102058800Y-123243797D01*
X101951519Y-123182436D01*
X101856666Y-123110507D01*
X101777313Y-123030126D01*
X101756808Y-123004440D01*
X101717440Y-122945535D01*
X101677408Y-122873780D01*
X101640125Y-122796235D01*
X101609003Y-122719957D01*
X101588648Y-122656600D01*
X101573081Y-122575317D01*
X101565785Y-122485047D01*
X101566766Y-122393156D01*
X101576033Y-122307007D01*
X101588203Y-122251378D01*
X101634974Y-122116888D01*
X101695468Y-121994691D01*
X101768700Y-121886600D01*
X101816496Y-121831219D01*
X101867686Y-121784078D01*
X101932066Y-121735358D01*
X102003328Y-121689200D01*
X102075163Y-121649745D01*
X102130517Y-121625124D01*
X102141666Y-121620608D01*
X102151440Y-121616319D01*
X102160366Y-121612253D01*
X102168968Y-121608404D01*
X102177773Y-121604765D01*
X102187307Y-121601332D01*
X102198096Y-121598098D01*
X102210665Y-121595059D01*
X102225540Y-121592207D01*
X102243246Y-121589539D01*
X102264311Y-121587048D01*
X102289259Y-121584728D01*
X102318617Y-121582574D01*
X102352909Y-121580580D01*
X102392663Y-121578740D01*
X102438403Y-121577050D01*
X102490657Y-121575502D01*
X102549948Y-121574093D01*
X102616804Y-121572815D01*
X102691749Y-121571664D01*
X102775311Y-121570633D01*
X102868014Y-121569718D01*
X102970385Y-121568911D01*
X103082949Y-121568209D01*
X103206232Y-121567605D01*
X103340760Y-121567093D01*
X103487059Y-121566668D01*
X103645654Y-121566324D01*
X103817072Y-121566056D01*
X104001838Y-121565857D01*
X104200477Y-121565723D01*
X104413517Y-121565648D01*
X104641482Y-121565626D01*
X104884898Y-121565650D01*
G36*
X113456133Y-121567429D02*
G01*
X113530692Y-121573606D01*
X113673885Y-121602245D01*
X113814591Y-121648640D01*
X113949522Y-121711128D01*
X114075389Y-121788045D01*
X114188902Y-121877728D01*
X114250281Y-121937576D01*
X114328589Y-122031896D01*
X114400530Y-122140455D01*
X114462905Y-122257421D01*
X114512519Y-122376963D01*
X114539536Y-122465213D01*
X114547088Y-122496709D01*
X114553767Y-122529252D01*
X114559621Y-122564194D01*
X114564696Y-122602888D01*
X114569038Y-122646687D01*
X114572694Y-122696942D01*
X114575710Y-122755007D01*
X114578133Y-122822233D01*
X114580009Y-122899974D01*
X114581384Y-122989582D01*
X114582306Y-123092410D01*
X114582820Y-123209810D01*
X114582973Y-123343134D01*
X114582812Y-123493735D01*
X114582383Y-123662966D01*
X114582239Y-123708160D01*
X114579400Y-124576840D01*
X114317780Y-124579551D01*
X114056160Y-124582263D01*
X114056160Y-123332240D01*
X112582960Y-123332240D01*
X112582960Y-124581920D01*
X112325573Y-124581920D01*
X112255208Y-124581663D01*
X112191646Y-124580939D01*
X112137685Y-124579822D01*
X112096121Y-124578382D01*
X112069754Y-124576691D01*
X112061413Y-124575146D01*
X112060071Y-124563851D01*
X112058888Y-124533966D01*
X112057863Y-124487220D01*
X112056991Y-124425342D01*
X112056270Y-124350060D01*
X112055696Y-124263104D01*
X112055265Y-124166203D01*
X112054976Y-124061086D01*
X112054825Y-123949482D01*
X112054808Y-123833120D01*
X112054922Y-123713730D01*
X112055164Y-123593039D01*
X112055532Y-123472778D01*
X112056021Y-123354674D01*
X112056629Y-123240458D01*
X112057352Y-123131859D01*
X112058187Y-123030604D01*
X112059132Y-122938425D01*
X112060182Y-122857048D01*
X112060899Y-122814214D01*
X112579907Y-122814214D01*
X113315493Y-122811607D01*
X114051080Y-122809000D01*
X114047784Y-122737880D01*
X114036860Y-122631036D01*
X114013474Y-122537263D01*
X113975747Y-122452287D01*
X113921803Y-122371833D01*
X113853248Y-122295117D01*
X113774469Y-122224861D01*
X113692401Y-122170393D01*
X113604675Y-122131009D01*
X113508927Y-122106004D01*
X113402787Y-122094674D01*
X113283890Y-122096314D01*
X113207800Y-122102968D01*
X113133766Y-122112359D01*
X113074724Y-122123041D01*
X113025346Y-122136338D01*
X112980303Y-122153572D01*
X112953800Y-122166025D01*
X112863020Y-122221912D01*
X112780189Y-122294168D01*
X112708771Y-122379345D01*
X112660070Y-122458480D01*
X112624833Y-122535847D01*
X112601834Y-122612402D01*
X112588671Y-122696827D01*
X112586263Y-122725247D01*
X112579907Y-122814214D01*
X112060899Y-122814214D01*
X112061335Y-122788204D01*
X112062587Y-122733622D01*
X112063936Y-122695030D01*
X112064904Y-122678831D01*
X112087474Y-122520453D01*
X112128456Y-122370357D01*
X112188246Y-122227497D01*
X112267239Y-122090825D01*
X112309418Y-122030709D01*
X112389683Y-121936304D01*
X112484395Y-121848346D01*
X112589326Y-121769847D01*
X112700247Y-121703822D01*
X112812928Y-121653282D01*
X112862797Y-121636479D01*
X112949603Y-121614346D01*
X113048220Y-121595805D01*
X113153414Y-121581350D01*
X113259953Y-121571474D01*
X113362604Y-121566670D01*
X113456133Y-121567429D01*
G37*
X113456133Y-121567429D02*
X113530692Y-121573606D01*
X113673885Y-121602245D01*
X113814591Y-121648640D01*
X113949522Y-121711128D01*
X114075389Y-121788045D01*
X114188902Y-121877728D01*
X114250281Y-121937576D01*
X114328589Y-122031896D01*
X114400530Y-122140455D01*
X114462905Y-122257421D01*
X114512519Y-122376963D01*
X114539536Y-122465213D01*
X114547088Y-122496709D01*
X114553767Y-122529252D01*
X114559621Y-122564194D01*
X114564696Y-122602888D01*
X114569038Y-122646687D01*
X114572694Y-122696942D01*
X114575710Y-122755007D01*
X114578133Y-122822233D01*
X114580009Y-122899974D01*
X114581384Y-122989582D01*
X114582306Y-123092410D01*
X114582820Y-123209810D01*
X114582973Y-123343134D01*
X114582812Y-123493735D01*
X114582383Y-123662966D01*
X114582239Y-123708160D01*
X114579400Y-124576840D01*
X114317780Y-124579551D01*
X114056160Y-124582263D01*
X114056160Y-123332240D01*
X112582960Y-123332240D01*
X112582960Y-124581920D01*
X112325573Y-124581920D01*
X112255208Y-124581663D01*
X112191646Y-124580939D01*
X112137685Y-124579822D01*
X112096121Y-124578382D01*
X112069754Y-124576691D01*
X112061413Y-124575146D01*
X112060071Y-124563851D01*
X112058888Y-124533966D01*
X112057863Y-124487220D01*
X112056991Y-124425342D01*
X112056270Y-124350060D01*
X112055696Y-124263104D01*
X112055265Y-124166203D01*
X112054976Y-124061086D01*
X112054825Y-123949482D01*
X112054808Y-123833120D01*
X112054922Y-123713730D01*
X112055164Y-123593039D01*
X112055532Y-123472778D01*
X112056021Y-123354674D01*
X112056629Y-123240458D01*
X112057352Y-123131859D01*
X112058187Y-123030604D01*
X112059132Y-122938425D01*
X112060182Y-122857048D01*
X112060899Y-122814214D01*
X112579907Y-122814214D01*
X113315493Y-122811607D01*
X114051080Y-122809000D01*
X114047784Y-122737880D01*
X114036860Y-122631036D01*
X114013474Y-122537263D01*
X113975747Y-122452287D01*
X113921803Y-122371833D01*
X113853248Y-122295117D01*
X113774469Y-122224861D01*
X113692401Y-122170393D01*
X113604675Y-122131009D01*
X113508927Y-122106004D01*
X113402787Y-122094674D01*
X113283890Y-122096314D01*
X113207800Y-122102968D01*
X113133766Y-122112359D01*
X113074724Y-122123041D01*
X113025346Y-122136338D01*
X112980303Y-122153572D01*
X112953800Y-122166025D01*
X112863020Y-122221912D01*
X112780189Y-122294168D01*
X112708771Y-122379345D01*
X112660070Y-122458480D01*
X112624833Y-122535847D01*
X112601834Y-122612402D01*
X112588671Y-122696827D01*
X112586263Y-122725247D01*
X112579907Y-122814214D01*
X112060899Y-122814214D01*
X112061335Y-122788204D01*
X112062587Y-122733622D01*
X112063936Y-122695030D01*
X112064904Y-122678831D01*
X112087474Y-122520453D01*
X112128456Y-122370357D01*
X112188246Y-122227497D01*
X112267239Y-122090825D01*
X112309418Y-122030709D01*
X112389683Y-121936304D01*
X112484395Y-121848346D01*
X112589326Y-121769847D01*
X112700247Y-121703822D01*
X112812928Y-121653282D01*
X112862797Y-121636479D01*
X112949603Y-121614346D01*
X113048220Y-121595805D01*
X113153414Y-121581350D01*
X113259953Y-121571474D01*
X113362604Y-121566670D01*
X113456133Y-121567429D01*
G36*
X115926399Y-121571003D02*
G01*
X116036816Y-121576958D01*
X116147987Y-121588145D01*
X116255557Y-121604151D01*
X116355174Y-121624557D01*
X116442486Y-121648949D01*
X116499322Y-121670508D01*
X116630361Y-121739365D01*
X116752073Y-121825100D01*
X116862895Y-121925817D01*
X116961262Y-122039614D01*
X117045612Y-122164594D01*
X117114380Y-122298857D01*
X117166003Y-122440505D01*
X117181576Y-122499120D01*
X117184581Y-122512957D01*
X117187247Y-122528543D01*
X117189602Y-122547144D01*
X117191669Y-122570027D01*
X117193474Y-122598458D01*
X117195043Y-122633704D01*
X117196400Y-122677032D01*
X117197571Y-122729709D01*
X117198581Y-122793001D01*
X117199455Y-122868175D01*
X117200218Y-122956498D01*
X117200896Y-123059237D01*
X117201513Y-123177657D01*
X117202096Y-123313027D01*
X117202668Y-123466612D01*
X117203053Y-123578792D01*
X117206420Y-124582264D01*
X116682520Y-124576840D01*
X116677070Y-123601480D01*
X116676157Y-123436917D01*
X116675328Y-123291370D01*
X116674519Y-123163532D01*
X116673668Y-123052099D01*
X116672713Y-122955765D01*
X116671591Y-122873227D01*
X116670240Y-122803179D01*
X116668597Y-122744317D01*
X116666600Y-122695335D01*
X116664187Y-122654928D01*
X116661294Y-122621793D01*
X116657859Y-122594623D01*
X116653820Y-122572113D01*
X116649115Y-122552960D01*
X116643681Y-122535859D01*
X116637454Y-122519503D01*
X116630374Y-122502589D01*
X116623704Y-122486955D01*
X116586297Y-122417639D01*
X116533843Y-122347059D01*
X116470744Y-122279851D01*
X116401398Y-122220651D01*
X116330203Y-122174095D01*
X116323341Y-122170413D01*
X116264939Y-122146324D01*
X116191402Y-122126120D01*
X116107636Y-122110339D01*
X116018547Y-122099517D01*
X115929041Y-122094192D01*
X115844025Y-122094899D01*
X115768406Y-122102177D01*
X115742720Y-122106870D01*
X115632684Y-122140507D01*
X115530835Y-122191929D01*
X115439164Y-122259568D01*
X115359660Y-122341856D01*
X115294315Y-122437224D01*
X115273797Y-122476184D01*
X115262644Y-122499182D01*
X115252766Y-122520482D01*
X115244085Y-122541405D01*
X115236523Y-122563271D01*
X115230002Y-122587400D01*
X115224445Y-122615112D01*
X115219773Y-122647727D01*
X115215909Y-122686565D01*
X115212775Y-122732945D01*
X115210293Y-122788189D01*
X115208385Y-122853615D01*
X115206974Y-122930545D01*
X115205981Y-123020297D01*
X115205329Y-123124192D01*
X115204940Y-123243551D01*
X115204735Y-123379693D01*
X115204638Y-123533937D01*
X115204594Y-123649740D01*
X115204240Y-124581920D01*
X114686080Y-124581920D01*
X114686080Y-123605615D01*
X114686091Y-123442678D01*
X114686142Y-123298732D01*
X114686259Y-123172450D01*
X114686467Y-123062504D01*
X114686793Y-122967566D01*
X114687261Y-122886308D01*
X114687899Y-122817402D01*
X114688732Y-122759520D01*
X114689786Y-122711334D01*
X114691087Y-122671516D01*
X114692660Y-122638737D01*
X114694531Y-122611671D01*
X114696727Y-122588988D01*
X114699273Y-122569362D01*
X114702195Y-122551463D01*
X114705519Y-122533964D01*
X114707102Y-122526115D01*
X114747808Y-122375308D01*
X114806007Y-122233809D01*
X114880607Y-122102712D01*
X114970515Y-121983112D01*
X115074639Y-121876103D01*
X115191887Y-121782778D01*
X115321167Y-121704230D01*
X115461386Y-121641555D01*
X115611452Y-121595846D01*
X115643191Y-121588700D01*
X115725233Y-121576459D01*
X115821087Y-121570698D01*
X115926399Y-121571003D01*
G37*
X115926399Y-121571003D02*
X116036816Y-121576958D01*
X116147987Y-121588145D01*
X116255557Y-121604151D01*
X116355174Y-121624557D01*
X116442486Y-121648949D01*
X116499322Y-121670508D01*
X116630361Y-121739365D01*
X116752073Y-121825100D01*
X116862895Y-121925817D01*
X116961262Y-122039614D01*
X117045612Y-122164594D01*
X117114380Y-122298857D01*
X117166003Y-122440505D01*
X117181576Y-122499120D01*
X117184581Y-122512957D01*
X117187247Y-122528543D01*
X117189602Y-122547144D01*
X117191669Y-122570027D01*
X117193474Y-122598458D01*
X117195043Y-122633704D01*
X117196400Y-122677032D01*
X117197571Y-122729709D01*
X117198581Y-122793001D01*
X117199455Y-122868175D01*
X117200218Y-122956498D01*
X117200896Y-123059237D01*
X117201513Y-123177657D01*
X117202096Y-123313027D01*
X117202668Y-123466612D01*
X117203053Y-123578792D01*
X117206420Y-124582264D01*
X116682520Y-124576840D01*
X116677070Y-123601480D01*
X116676157Y-123436917D01*
X116675328Y-123291370D01*
X116674519Y-123163532D01*
X116673668Y-123052099D01*
X116672713Y-122955765D01*
X116671591Y-122873227D01*
X116670240Y-122803179D01*
X116668597Y-122744317D01*
X116666600Y-122695335D01*
X116664187Y-122654928D01*
X116661294Y-122621793D01*
X116657859Y-122594623D01*
X116653820Y-122572113D01*
X116649115Y-122552960D01*
X116643681Y-122535859D01*
X116637454Y-122519503D01*
X116630374Y-122502589D01*
X116623704Y-122486955D01*
X116586297Y-122417639D01*
X116533843Y-122347059D01*
X116470744Y-122279851D01*
X116401398Y-122220651D01*
X116330203Y-122174095D01*
X116323341Y-122170413D01*
X116264939Y-122146324D01*
X116191402Y-122126120D01*
X116107636Y-122110339D01*
X116018547Y-122099517D01*
X115929041Y-122094192D01*
X115844025Y-122094899D01*
X115768406Y-122102177D01*
X115742720Y-122106870D01*
X115632684Y-122140507D01*
X115530835Y-122191929D01*
X115439164Y-122259568D01*
X115359660Y-122341856D01*
X115294315Y-122437224D01*
X115273797Y-122476184D01*
X115262644Y-122499182D01*
X115252766Y-122520482D01*
X115244085Y-122541405D01*
X115236523Y-122563271D01*
X115230002Y-122587400D01*
X115224445Y-122615112D01*
X115219773Y-122647727D01*
X115215909Y-122686565D01*
X115212775Y-122732945D01*
X115210293Y-122788189D01*
X115208385Y-122853615D01*
X115206974Y-122930545D01*
X115205981Y-123020297D01*
X115205329Y-123124192D01*
X115204940Y-123243551D01*
X115204735Y-123379693D01*
X115204638Y-123533937D01*
X115204594Y-123649740D01*
X115204240Y-124581920D01*
X114686080Y-124581920D01*
X114686080Y-123605615D01*
X114686091Y-123442678D01*
X114686142Y-123298732D01*
X114686259Y-123172450D01*
X114686467Y-123062504D01*
X114686793Y-122967566D01*
X114687261Y-122886308D01*
X114687899Y-122817402D01*
X114688732Y-122759520D01*
X114689786Y-122711334D01*
X114691087Y-122671516D01*
X114692660Y-122638737D01*
X114694531Y-122611671D01*
X114696727Y-122588988D01*
X114699273Y-122569362D01*
X114702195Y-122551463D01*
X114705519Y-122533964D01*
X114707102Y-122526115D01*
X114747808Y-122375308D01*
X114806007Y-122233809D01*
X114880607Y-122102712D01*
X114970515Y-121983112D01*
X115074639Y-121876103D01*
X115191887Y-121782778D01*
X115321167Y-121704230D01*
X115461386Y-121641555D01*
X115611452Y-121595846D01*
X115643191Y-121588700D01*
X115725233Y-121576459D01*
X115821087Y-121570698D01*
X115926399Y-121571003D01*
G36*
X117419120Y-121046240D02*
G01*
X101539040Y-121046240D01*
X101539040Y-118615267D01*
X102317254Y-118615267D01*
X102317296Y-118719402D01*
X102317522Y-118807896D01*
X102317964Y-118882312D01*
X102318658Y-118944208D01*
X102319637Y-118995145D01*
X102320935Y-119036682D01*
X102322586Y-119070381D01*
X102324623Y-119097801D01*
X102327082Y-119120501D01*
X102329994Y-119140044D01*
X102333395Y-119157987D01*
X102335244Y-119166640D01*
X102380634Y-119328328D01*
X102443245Y-119481078D01*
X102521950Y-119623746D01*
X102615627Y-119755191D01*
X102723148Y-119874269D01*
X102843391Y-119979839D01*
X102975229Y-120070757D01*
X103117539Y-120145883D01*
X103269194Y-120204074D01*
X103388160Y-120235864D01*
X103457904Y-120247255D01*
X103541345Y-120254712D01*
X103632231Y-120258182D01*
X103724314Y-120257609D01*
X103811343Y-120252941D01*
X103887067Y-120244124D01*
X103908171Y-120240361D01*
X104070457Y-120198149D01*
X104223872Y-120137686D01*
X104367964Y-120059212D01*
X104502285Y-119962968D01*
X104612653Y-119863158D01*
X104722971Y-119738276D01*
X104816704Y-119602093D01*
X104893178Y-119455948D01*
X104951722Y-119301176D01*
X104991662Y-119139115D01*
X104998981Y-119095520D01*
X105001521Y-119075627D01*
X105003765Y-119050610D01*
X105005729Y-119019239D01*
X105007430Y-118980284D01*
X105008885Y-118932516D01*
X105010110Y-118874705D01*
X105011124Y-118805621D01*
X105011942Y-118724037D01*
X105012581Y-118628720D01*
X105013059Y-118518443D01*
X105013391Y-118391976D01*
X105013596Y-118248089D01*
X105013690Y-118085552D01*
X105013700Y-118022486D01*
X105013819Y-117849202D01*
X105014152Y-117689647D01*
X105014690Y-117544539D01*
X105015427Y-117414595D01*
X105016356Y-117300532D01*
X105017468Y-117203067D01*
X105018758Y-117122917D01*
X105020218Y-117060799D01*
X105021840Y-117017431D01*
X105023618Y-116993528D01*
X105023973Y-116991246D01*
X105050098Y-116904338D01*
X105093118Y-116825745D01*
X105150619Y-116757459D01*
X105220186Y-116701469D01*
X105299405Y-116659765D01*
X105385859Y-116634339D01*
X105465880Y-116627008D01*
X105562786Y-116636539D01*
X105651114Y-116664047D01*
X105729573Y-116708545D01*
X105796874Y-116769043D01*
X105851727Y-116844552D01*
X105892842Y-116934082D01*
X105901626Y-116961224D01*
X105903780Y-116969885D01*
X105905738Y-116981302D01*
X105907511Y-116996416D01*
X105909106Y-117016169D01*
X105910533Y-117041505D01*
X105911801Y-117073363D01*
X105912920Y-117112688D01*
X105913898Y-117160421D01*
X105914745Y-117217505D01*
X105915469Y-117284881D01*
X105916080Y-117363491D01*
X105916588Y-117454279D01*
X105917000Y-117558186D01*
X105917327Y-117676154D01*
X105917577Y-117809125D01*
X105917760Y-117958043D01*
X105917884Y-118123848D01*
X105917959Y-118307483D01*
X105917994Y-118509891D01*
X105918000Y-118650324D01*
X105918000Y-120284240D01*
X106822812Y-120284240D01*
X106819582Y-118595140D01*
X106819164Y-118378211D01*
X106818772Y-118180642D01*
X106818390Y-118001475D01*
X106818005Y-117839749D01*
X106817605Y-117694505D01*
X106817175Y-117564784D01*
X106816703Y-117449625D01*
X106816175Y-117348071D01*
X106815578Y-117259160D01*
X106814898Y-117181934D01*
X106814121Y-117115433D01*
X106813235Y-117058698D01*
X106812227Y-117010769D01*
X106811081Y-116970687D01*
X106809787Y-116937491D01*
X106808329Y-116910224D01*
X106806694Y-116887925D01*
X106804870Y-116869634D01*
X106802842Y-116854393D01*
X106800598Y-116841242D01*
X106798124Y-116829221D01*
X106795406Y-116817370D01*
X106794734Y-116814522D01*
X106745934Y-116647726D01*
X106681442Y-116491814D01*
X106602259Y-116347618D01*
X106509389Y-116215969D01*
X106403832Y-116097697D01*
X106286592Y-115993635D01*
X106158669Y-115904612D01*
X106021066Y-115831460D01*
X105874784Y-115775009D01*
X105720827Y-115736092D01*
X105560195Y-115715539D01*
X105465880Y-115712359D01*
X105302374Y-115722107D01*
X105144559Y-115750739D01*
X104993557Y-115797342D01*
X104850493Y-115861000D01*
X104716489Y-115940797D01*
X104592668Y-116035820D01*
X104480154Y-116145153D01*
X104380070Y-116267881D01*
X104293539Y-116403089D01*
X104221684Y-116549862D01*
X104165629Y-116707286D01*
X104143996Y-116789200D01*
X104141092Y-116802886D01*
X104138495Y-116818638D01*
X104136179Y-116837682D01*
X104134117Y-116861244D01*
X104132284Y-116890549D01*
X104130652Y-116926826D01*
X104129196Y-116971299D01*
X104127890Y-117025195D01*
X104126707Y-117089740D01*
X104125622Y-117166160D01*
X104124607Y-117255682D01*
X104123638Y-117359532D01*
X104122687Y-117478936D01*
X104121729Y-117615120D01*
X104120737Y-117769311D01*
X104119808Y-117922040D01*
X104118790Y-118093829D01*
X104117864Y-118246529D01*
X104116971Y-118381371D01*
X104116055Y-118499584D01*
X104115055Y-118602399D01*
X104113914Y-118691046D01*
X104112573Y-118766756D01*
X104110974Y-118830758D01*
X104109058Y-118884284D01*
X104106766Y-118928563D01*
X104104041Y-118964826D01*
X104100824Y-118994303D01*
X104097056Y-119018224D01*
X104092678Y-119037821D01*
X104087633Y-119054322D01*
X104081862Y-119068959D01*
X104075306Y-119082961D01*
X104067907Y-119097560D01*
X104063533Y-119106138D01*
X104015464Y-119179450D01*
X103952762Y-119241556D01*
X103878706Y-119290843D01*
X103796575Y-119325700D01*
X103709648Y-119344515D01*
X103621205Y-119345677D01*
X103586055Y-119340822D01*
X103496185Y-119314794D01*
X103414958Y-119272581D01*
X103344517Y-119216323D01*
X103287008Y-119148158D01*
X103244575Y-119070224D01*
X103219363Y-118984659D01*
X103217506Y-118973378D01*
X103216357Y-118954925D01*
X103215440Y-118916966D01*
X103214750Y-118860314D01*
X103214285Y-118785782D01*
X103214040Y-118694182D01*
X103214011Y-118586328D01*
X103214196Y-118463032D01*
X103214590Y-118325108D01*
X103215189Y-118173367D01*
X103215991Y-118008622D01*
X103216992Y-117831687D01*
X103218187Y-117643375D01*
X103219573Y-117444497D01*
X103221147Y-117235868D01*
X103222905Y-117018299D01*
X103224842Y-116792604D01*
X103226957Y-116559595D01*
X103229244Y-116320085D01*
X103229601Y-116283740D01*
X103235232Y-115712240D01*
X102333993Y-115712240D01*
X102326440Y-116669820D01*
X102325237Y-116829447D01*
X102324059Y-116998934D01*
X102322926Y-117175030D01*
X102321853Y-117354484D01*
X102320858Y-117534048D01*
X102319959Y-117710471D01*
X102319171Y-117880503D01*
X102318512Y-118040893D01*
X102318000Y-118188393D01*
X102317651Y-118319751D01*
X102317584Y-118353840D01*
X102317361Y-118493933D01*
X102317254Y-118615267D01*
X101539040Y-118615267D01*
X101539040Y-115630960D01*
X107309358Y-115630960D01*
X107312553Y-117355620D01*
X107312962Y-117574965D01*
X107313349Y-117774938D01*
X107313727Y-117956490D01*
X107314107Y-118120568D01*
X107314503Y-118268121D01*
X107314928Y-118400098D01*
X107315395Y-118517448D01*
X107315915Y-118621119D01*
X107316503Y-118712061D01*
X107317170Y-118791222D01*
X107317929Y-118859551D01*
X107318794Y-118917997D01*
X107319777Y-118967508D01*
X107320891Y-119009033D01*
X107322148Y-119043522D01*
X107323562Y-119071922D01*
X107325144Y-119095184D01*
X107326909Y-119114254D01*
X107328868Y-119130083D01*
X107331035Y-119143619D01*
X107333421Y-119155811D01*
X107336041Y-119167608D01*
X107336992Y-119171720D01*
X107386108Y-119341392D01*
X107452049Y-119500571D01*
X107534402Y-119648330D01*
X107574634Y-119707949D01*
X107654403Y-119806919D01*
X107749384Y-119903290D01*
X107854541Y-119992759D01*
X107964838Y-120071025D01*
X108070177Y-120131274D01*
X108135543Y-120160336D01*
X108213234Y-120189247D01*
X108295401Y-120215460D01*
X108374191Y-120236428D01*
X108428502Y-120247544D01*
X108500932Y-120256295D01*
X108585975Y-120261196D01*
X108676287Y-120262229D01*
X108764528Y-120259377D01*
X108843353Y-120252622D01*
X108872045Y-120248592D01*
X108991986Y-120222517D01*
X109113200Y-120183864D01*
X109231369Y-120134643D01*
X109342179Y-120076861D01*
X109441313Y-120012526D01*
X109521798Y-119946176D01*
X109543167Y-119927623D01*
X109557187Y-119921998D01*
X109570251Y-119927257D01*
X109573580Y-119929634D01*
X109589759Y-119941766D01*
X109617530Y-119962728D01*
X109652307Y-119989057D01*
X109673969Y-120005487D01*
X109802277Y-120090303D01*
X109941802Y-120159099D01*
X110090427Y-120211188D01*
X110246037Y-120245881D01*
X110406514Y-120262491D01*
X110469680Y-120263920D01*
X110636169Y-120254343D01*
X110795687Y-120225698D01*
X110947933Y-120178109D01*
X111092605Y-120111701D01*
X111229403Y-120026600D01*
X111358024Y-119922929D01*
X111410099Y-119873318D01*
X111521871Y-119747440D01*
X111617062Y-119610037D01*
X111695245Y-119461911D01*
X111755995Y-119303862D01*
X111758146Y-119295586D01*
X112156240Y-119295586D01*
X112156240Y-120213120D01*
X112377220Y-120214588D01*
X112420769Y-120214888D01*
X112482729Y-120215329D01*
X112561190Y-120215897D01*
X112654243Y-120216578D01*
X112759979Y-120217358D01*
X112876487Y-120218223D01*
X113001860Y-120219159D01*
X113134188Y-120220151D01*
X113271562Y-120221185D01*
X113412072Y-120222248D01*
X113527840Y-120223126D01*
X113678551Y-120224201D01*
X113834213Y-120225178D01*
X113992140Y-120226048D01*
X114149647Y-120226800D01*
X114304048Y-120227427D01*
X114452659Y-120227918D01*
X114592794Y-120228263D01*
X114721768Y-120228454D01*
X114836896Y-120228480D01*
X114935492Y-120228333D01*
X114970560Y-120228220D01*
X115086883Y-120227730D01*
X115184836Y-120227182D01*
X115266369Y-120226501D01*
X115333432Y-120225612D01*
X115387976Y-120224441D01*
X115431950Y-120222914D01*
X115467304Y-120220955D01*
X115495988Y-120218491D01*
X115519953Y-120215446D01*
X115541148Y-120211746D01*
X115561523Y-120207317D01*
X115570000Y-120205295D01*
X115733899Y-120155594D01*
X115886925Y-120089005D01*
X116028354Y-120006244D01*
X116157463Y-119908024D01*
X116273530Y-119795063D01*
X116375833Y-119668074D01*
X116463647Y-119527773D01*
X116536250Y-119374875D01*
X116592920Y-119210094D01*
X116599316Y-119186960D01*
X116609960Y-119146508D01*
X116617876Y-119112766D01*
X116623463Y-119081568D01*
X116627120Y-119048749D01*
X116629246Y-119010144D01*
X116630241Y-118961589D01*
X116630504Y-118898917D01*
X116630487Y-118861840D01*
X116630277Y-118790540D01*
X116629546Y-118735371D01*
X116627893Y-118692145D01*
X116624912Y-118656673D01*
X116620200Y-118624766D01*
X116613355Y-118592235D01*
X116603972Y-118554893D01*
X116599164Y-118536720D01*
X116545008Y-118370289D01*
X116474638Y-118215872D01*
X116388654Y-118074065D01*
X116287653Y-117945466D01*
X116172231Y-117830672D01*
X116042988Y-117730280D01*
X115900520Y-117644887D01*
X115745425Y-117575092D01*
X115585240Y-117523324D01*
X115483640Y-117496240D01*
X114442240Y-117490575D01*
X114273113Y-117489637D01*
X114123104Y-117488752D01*
X113991009Y-117487896D01*
X113875625Y-117487041D01*
X113775750Y-117486162D01*
X113690181Y-117485232D01*
X113617714Y-117484225D01*
X113557148Y-117483116D01*
X113507279Y-117481877D01*
X113466904Y-117480484D01*
X113434821Y-117478909D01*
X113409827Y-117477127D01*
X113390718Y-117475111D01*
X113376293Y-117472836D01*
X113365348Y-117470275D01*
X113356681Y-117467402D01*
X113355553Y-117466963D01*
X113270306Y-117423603D01*
X113198993Y-117368084D01*
X113141726Y-117302647D01*
X113098614Y-117229536D01*
X113069767Y-117150992D01*
X113055295Y-117069259D01*
X113055308Y-116986577D01*
X113069915Y-116905190D01*
X113099227Y-116827340D01*
X113143354Y-116755269D01*
X113202405Y-116691219D01*
X113276491Y-116637434D01*
X113313922Y-116617577D01*
X113390680Y-116580920D01*
X115023900Y-116578258D01*
X116657120Y-116575597D01*
X116657120Y-115660975D01*
X113299240Y-115667007D01*
X113217960Y-115688893D01*
X113049670Y-115743816D01*
X112893497Y-115814351D01*
X112750119Y-115899803D01*
X112620216Y-115999478D01*
X112504467Y-116112682D01*
X112403551Y-116238718D01*
X112318149Y-116376893D01*
X112248939Y-116526512D01*
X112196600Y-116686880D01*
X112181700Y-116748560D01*
X112171117Y-116812497D01*
X112163584Y-116890444D01*
X112159244Y-116976297D01*
X112158241Y-117063954D01*
X112160718Y-117147313D01*
X112166820Y-117220273D01*
X112170039Y-117243500D01*
X112205152Y-117403253D01*
X112258163Y-117556185D01*
X112327884Y-117700873D01*
X112413128Y-117835890D01*
X112512706Y-117959812D01*
X112625430Y-118071215D01*
X112750112Y-118168674D01*
X112885565Y-118250764D01*
X113030600Y-118316060D01*
X113078651Y-118333113D01*
X113109075Y-118343324D01*
X113136239Y-118352404D01*
X113161459Y-118360425D01*
X113186050Y-118367459D01*
X113211327Y-118373580D01*
X113238604Y-118378860D01*
X113269197Y-118383371D01*
X113304421Y-118387185D01*
X113345590Y-118390377D01*
X113394020Y-118393018D01*
X113451025Y-118395180D01*
X113517921Y-118396937D01*
X113596022Y-118398361D01*
X113686644Y-118399524D01*
X113791101Y-118400500D01*
X113910709Y-118401360D01*
X114046782Y-118402177D01*
X114200636Y-118403025D01*
X114360960Y-118403904D01*
X115402360Y-118409720D01*
X115469653Y-118441604D01*
X115552433Y-118490848D01*
X115620138Y-118553349D01*
X115673615Y-118630037D01*
X115706529Y-118701714D01*
X115732271Y-118792092D01*
X115739053Y-118878470D01*
X115726735Y-118964108D01*
X115695180Y-119052266D01*
X115691284Y-119060663D01*
X115641673Y-119142943D01*
X115577295Y-119211352D01*
X115498574Y-119265512D01*
X115421859Y-119299655D01*
X115412339Y-119302967D01*
X115402726Y-119305911D01*
X115391851Y-119308503D01*
X115378543Y-119310756D01*
X115361634Y-119312686D01*
X115339952Y-119314308D01*
X115312329Y-119315637D01*
X115277593Y-119316687D01*
X115234575Y-119317474D01*
X115182105Y-119318013D01*
X115119013Y-119318318D01*
X115044129Y-119318404D01*
X114956283Y-119318287D01*
X114854304Y-119317982D01*
X114737024Y-119317502D01*
X114603272Y-119316864D01*
X114451877Y-119316082D01*
X114281671Y-119315171D01*
X114228880Y-119314886D01*
X114067177Y-119313974D01*
X113903270Y-119312976D01*
X113739267Y-119311907D01*
X113577275Y-119310785D01*
X113419400Y-119309627D01*
X113267750Y-119308448D01*
X113124431Y-119307267D01*
X112991551Y-119306099D01*
X112871216Y-119304961D01*
X112765533Y-119303870D01*
X112676610Y-119302842D01*
X112626140Y-119302179D01*
X112156240Y-119295586D01*
X111758146Y-119295586D01*
X111796997Y-119146117D01*
X111799250Y-119133925D01*
X111801310Y-119119840D01*
X111803187Y-119102921D01*
X111804893Y-119082224D01*
X111806437Y-119056807D01*
X111807832Y-119025727D01*
X111809089Y-118988040D01*
X111810217Y-118942804D01*
X111811230Y-118889077D01*
X111812136Y-118825916D01*
X111812949Y-118752376D01*
X111813677Y-118667517D01*
X111814334Y-118570395D01*
X111814929Y-118460067D01*
X111815474Y-118335590D01*
X111815979Y-118196022D01*
X111816457Y-118040419D01*
X111816917Y-117867840D01*
X111817371Y-117677340D01*
X111817830Y-117467978D01*
X111818087Y-117345460D01*
X111821631Y-115630960D01*
X110916720Y-115630960D01*
X110916720Y-117295065D01*
X110916734Y-117514872D01*
X110916756Y-117715303D01*
X110916752Y-117897304D01*
X110916689Y-118061820D01*
X110916536Y-118209794D01*
X110916258Y-118342173D01*
X110915823Y-118459899D01*
X110915198Y-118563920D01*
X110914351Y-118655178D01*
X110913248Y-118734619D01*
X110911857Y-118803188D01*
X110910144Y-118861829D01*
X110908078Y-118911487D01*
X110905625Y-118953107D01*
X110902753Y-118987633D01*
X110899427Y-119016011D01*
X110895617Y-119039186D01*
X110891288Y-119058100D01*
X110886409Y-119073701D01*
X110880946Y-119086932D01*
X110874866Y-119098738D01*
X110868136Y-119110064D01*
X110860725Y-119121855D01*
X110852789Y-119134735D01*
X110800970Y-119203034D01*
X110733495Y-119263075D01*
X110654507Y-119311177D01*
X110653988Y-119311431D01*
X110624199Y-119325493D01*
X110599573Y-119334864D01*
X110574664Y-119340490D01*
X110544030Y-119343320D01*
X110502226Y-119344300D01*
X110464600Y-119344393D01*
X110412050Y-119344086D01*
X110374369Y-119342581D01*
X110346109Y-119338927D01*
X110321819Y-119332175D01*
X110296050Y-119321374D01*
X110275211Y-119311384D01*
X110196188Y-119263424D01*
X110128628Y-119203463D01*
X110076683Y-119135191D01*
X110076410Y-119134735D01*
X110068299Y-119121577D01*
X110060904Y-119109807D01*
X110054189Y-119098481D01*
X110048124Y-119086653D01*
X110042674Y-119073379D01*
X110037807Y-119057714D01*
X110033491Y-119038714D01*
X110029691Y-119015433D01*
X110026377Y-118986927D01*
X110023514Y-118952251D01*
X110021070Y-118910460D01*
X110019012Y-118860610D01*
X110017307Y-118801756D01*
X110015923Y-118732952D01*
X110014826Y-118653255D01*
X110013985Y-118561720D01*
X110013364Y-118457401D01*
X110012933Y-118339355D01*
X110012659Y-118206636D01*
X110012507Y-118058299D01*
X110012447Y-117893400D01*
X110012444Y-117710994D01*
X110012465Y-117510136D01*
X110012480Y-117295065D01*
X110012480Y-115630960D01*
X109108474Y-115630960D01*
X109103160Y-119019320D01*
X109070633Y-119087986D01*
X109036631Y-119146397D01*
X108992073Y-119203831D01*
X108942317Y-119254190D01*
X108892725Y-119291377D01*
X108890953Y-119292427D01*
X108813744Y-119326657D01*
X108727986Y-119345772D01*
X108638978Y-119349525D01*
X108552017Y-119337674D01*
X108475693Y-119311538D01*
X108397126Y-119264013D01*
X108328731Y-119201220D01*
X108273153Y-119126568D01*
X108233039Y-119043463D01*
X108214147Y-118974753D01*
X108212707Y-118956615D01*
X108211368Y-118918530D01*
X108210133Y-118860870D01*
X108209004Y-118784009D01*
X108207985Y-118688319D01*
X108207075Y-118574174D01*
X108206279Y-118441944D01*
X108205598Y-118292005D01*
X108205035Y-118124727D01*
X108204591Y-117940484D01*
X108204269Y-117739649D01*
X108204071Y-117522594D01*
X108204000Y-117289693D01*
X108204000Y-115630960D01*
X107309358Y-115630960D01*
X101539040Y-115630960D01*
X101539040Y-112196089D01*
X102282016Y-112196089D01*
X102294523Y-112355520D01*
X102324224Y-112511175D01*
X102370621Y-112660915D01*
X102433217Y-112802597D01*
X102511514Y-112934083D01*
X102577083Y-113020938D01*
X102626475Y-113080289D01*
X102556871Y-113171967D01*
X102466065Y-113308248D01*
X102391713Y-113455753D01*
X102334577Y-113612798D01*
X102304481Y-113731040D01*
X102296397Y-113783751D01*
X102290525Y-113851342D01*
X102286916Y-113928490D01*
X102285619Y-114009870D01*
X102286684Y-114090158D01*
X102290160Y-114164030D01*
X102296097Y-114226162D01*
X102299644Y-114249200D01*
X102338304Y-114407954D01*
X102394870Y-114559093D01*
X102468123Y-114701329D01*
X102556848Y-114833377D01*
X102659828Y-114953951D01*
X102775846Y-115061764D01*
X102903685Y-115155530D01*
X103042130Y-115233964D01*
X103189964Y-115295779D01*
X103327200Y-115335486D01*
X103370671Y-115345217D01*
X103410104Y-115353459D01*
X103438655Y-115358798D01*
X103444040Y-115359618D01*
X103457383Y-115360078D01*
X103489966Y-115360541D01*
X103540708Y-115361004D01*
X103608529Y-115361465D01*
X103692348Y-115361918D01*
X103791085Y-115362360D01*
X103903660Y-115362789D01*
X104028991Y-115363200D01*
X104165998Y-115363590D01*
X104313602Y-115363955D01*
X104470721Y-115364292D01*
X104636275Y-115364597D01*
X104809184Y-115364866D01*
X104988368Y-115365097D01*
X105163724Y-115365277D01*
X106852929Y-115366800D01*
X106850284Y-114912140D01*
X106847640Y-114457480D01*
X103505000Y-114447320D01*
X103438960Y-114414905D01*
X103361924Y-114366097D01*
X103294682Y-114301118D01*
X103240109Y-114222903D01*
X103227484Y-114199017D01*
X103211967Y-114166980D01*
X103201466Y-114141588D01*
X103195003Y-114117525D01*
X103191596Y-114089473D01*
X103190269Y-114052114D01*
X103190040Y-114000132D01*
X103190040Y-113995726D01*
X103190264Y-113942200D01*
X103191548Y-113903728D01*
X103194812Y-113875048D01*
X103200974Y-113850895D01*
X103210953Y-113826005D01*
X103224710Y-113797080D01*
X103274465Y-113716784D01*
X103338144Y-113649353D01*
X103413263Y-113596709D01*
X103497340Y-113560773D01*
X103544965Y-113549107D01*
X103562009Y-113547463D01*
X103594766Y-113545960D01*
X103643605Y-113544595D01*
X103708893Y-113543366D01*
X103790998Y-113542270D01*
X103890285Y-113541305D01*
X104007124Y-113540469D01*
X104141882Y-113539759D01*
X104294925Y-113539172D01*
X104466621Y-113538707D01*
X104657337Y-113538361D01*
X104867441Y-113538131D01*
X105097301Y-113538015D01*
X105228985Y-113538000D01*
X106852720Y-113538000D01*
X106852720Y-112623600D01*
X105203564Y-112623600D01*
X104985687Y-112623612D01*
X104787182Y-112623630D01*
X104607096Y-112623623D01*
X104444482Y-112623561D01*
X104298389Y-112623414D01*
X104167867Y-112623152D01*
X104051967Y-112622744D01*
X103949739Y-112622160D01*
X103860234Y-112621371D01*
X103782501Y-112620345D01*
X103715591Y-112619053D01*
X103658554Y-112617465D01*
X103610441Y-112615550D01*
X103570302Y-112613279D01*
X103537187Y-112610621D01*
X103510146Y-112607546D01*
X103488230Y-112604024D01*
X103470490Y-112600024D01*
X103455974Y-112595517D01*
X103443735Y-112590472D01*
X103432821Y-112584859D01*
X103422283Y-112578649D01*
X103411172Y-112571810D01*
X103402117Y-112566383D01*
X103352857Y-112530010D01*
X103303168Y-112480234D01*
X103258391Y-112423132D01*
X103223870Y-112364786D01*
X103222566Y-112362066D01*
X103208942Y-112332269D01*
X103199771Y-112307517D01*
X103194174Y-112282522D01*
X103191273Y-112251998D01*
X103190189Y-112210659D01*
X103190040Y-112166400D01*
X103190313Y-112112568D01*
X103191704Y-112073826D01*
X103195069Y-112044946D01*
X103201264Y-112020697D01*
X103211144Y-111995852D01*
X103221641Y-111973360D01*
X103272412Y-111889296D01*
X103336882Y-111819672D01*
X103413811Y-111765579D01*
X103500844Y-111728448D01*
X103509445Y-111725942D01*
X103519024Y-111723662D01*
X103530539Y-111721600D01*
X103544945Y-111719743D01*
X103563201Y-111718081D01*
X103586261Y-111716603D01*
X103615083Y-111715298D01*
X103650624Y-111714156D01*
X103693839Y-111713166D01*
X103745687Y-111712317D01*
X103807123Y-111711598D01*
X103879104Y-111710999D01*
X103962586Y-111710508D01*
X104058527Y-111710116D01*
X104167883Y-111709810D01*
X104291610Y-111709580D01*
X104430666Y-111709416D01*
X104586007Y-111709307D01*
X104758589Y-111709242D01*
X104949369Y-111709210D01*
X105159304Y-111709200D01*
X106852720Y-111709200D01*
X106852720Y-111526320D01*
X112095280Y-111526320D01*
X113724573Y-111526320D01*
X113964100Y-111526385D01*
X114186216Y-111526582D01*
X114390676Y-111526908D01*
X114577232Y-111527362D01*
X114745637Y-111527942D01*
X114895645Y-111528646D01*
X115027010Y-111529474D01*
X115139485Y-111530424D01*
X115232822Y-111531493D01*
X115306776Y-111532682D01*
X115361100Y-111533988D01*
X115395547Y-111535409D01*
X115408593Y-111536622D01*
X115494245Y-111562590D01*
X115571214Y-111605219D01*
X115637852Y-111662103D01*
X115692511Y-111730840D01*
X115733540Y-111809025D01*
X115759293Y-111894255D01*
X115768119Y-111984125D01*
X115762677Y-112052884D01*
X115739933Y-112140317D01*
X115701420Y-112221197D01*
X115649458Y-112292102D01*
X115586372Y-112349612D01*
X115542695Y-112377036D01*
X115527725Y-112385217D01*
X115514500Y-112392669D01*
X115502056Y-112399426D01*
X115489433Y-112405521D01*
X115475666Y-112410989D01*
X115459794Y-112415863D01*
X115440853Y-112420177D01*
X115417883Y-112423966D01*
X115389918Y-112427262D01*
X115355999Y-112430100D01*
X115315160Y-112432514D01*
X115266441Y-112434538D01*
X115208879Y-112436206D01*
X115141511Y-112437551D01*
X115063374Y-112438607D01*
X114973506Y-112439409D01*
X114870944Y-112439989D01*
X114754726Y-112440383D01*
X114623889Y-112440624D01*
X114477471Y-112440746D01*
X114314509Y-112440782D01*
X114134041Y-112440768D01*
X113935104Y-112440735D01*
X113734275Y-112440720D01*
X112095280Y-112440720D01*
X112095280Y-113355120D01*
X113733580Y-113355368D01*
X113974226Y-113355469D01*
X114197157Y-113355697D01*
X114402154Y-113356050D01*
X114588996Y-113356526D01*
X114757463Y-113357125D01*
X114907335Y-113357845D01*
X115038391Y-113358684D01*
X115150412Y-113359641D01*
X115243178Y-113360715D01*
X115316468Y-113361904D01*
X115370062Y-113363207D01*
X115403740Y-113364623D01*
X115416435Y-113365888D01*
X115503407Y-113396002D01*
X115581647Y-113443000D01*
X115649008Y-113504543D01*
X115703346Y-113578293D01*
X115742515Y-113661910D01*
X115763036Y-113743739D01*
X115767533Y-113837111D01*
X115753125Y-113928036D01*
X115721223Y-114013875D01*
X115673242Y-114091993D01*
X115610594Y-114159749D01*
X115534693Y-114214508D01*
X115501506Y-114231913D01*
X115432840Y-114264440D01*
X113764060Y-114267098D01*
X112095280Y-114269757D01*
X112095280Y-115184489D01*
X115493800Y-115178063D01*
X115592797Y-115155395D01*
X115755346Y-115108206D01*
X115908280Y-115043666D01*
X116050555Y-114962599D01*
X116181127Y-114865826D01*
X116298953Y-114754169D01*
X116402990Y-114628452D01*
X116492193Y-114489496D01*
X116530163Y-114416840D01*
X116581267Y-114300413D01*
X116618830Y-114187233D01*
X116644339Y-114071190D01*
X116659280Y-113946174D01*
X116663651Y-113868200D01*
X116661516Y-113701690D01*
X116642053Y-113544814D01*
X116604663Y-113395685D01*
X116548745Y-113252417D01*
X116473700Y-113113123D01*
X116380478Y-112977943D01*
X116321287Y-112900487D01*
X116393006Y-112805223D01*
X116479102Y-112674774D01*
X116551441Y-112531225D01*
X116608686Y-112377559D01*
X116643197Y-112247145D01*
X116652658Y-112187720D01*
X116659102Y-112113754D01*
X116662523Y-112030801D01*
X116662916Y-111944417D01*
X116660276Y-111860155D01*
X116654599Y-111783570D01*
X116645880Y-111720218D01*
X116643680Y-111709200D01*
X116598803Y-111545817D01*
X116536436Y-111391545D01*
X116457446Y-111247517D01*
X116362703Y-111114866D01*
X116253075Y-110994725D01*
X116129430Y-110888229D01*
X115992636Y-110796510D01*
X115910205Y-110751821D01*
X115765921Y-110689939D01*
X115611695Y-110642826D01*
X115579907Y-110635299D01*
X115568878Y-110633093D01*
X115555623Y-110631076D01*
X115539206Y-110629238D01*
X115518688Y-110627568D01*
X115493132Y-110626056D01*
X115461602Y-110624690D01*
X115423158Y-110623460D01*
X115376864Y-110622355D01*
X115321782Y-110621364D01*
X115256975Y-110620477D01*
X115181505Y-110619681D01*
X115094435Y-110618968D01*
X114994827Y-110618326D01*
X114881743Y-110617743D01*
X114754247Y-110617210D01*
X114611400Y-110616716D01*
X114452265Y-110616249D01*
X114275905Y-110615799D01*
X114081381Y-110615354D01*
X113867758Y-110614906D01*
X113799620Y-110614768D01*
X112095280Y-110611352D01*
X112095280Y-111526320D01*
X106852720Y-111526320D01*
X106852720Y-110794232D01*
X105148380Y-110797502D01*
X104927795Y-110797905D01*
X104726554Y-110798252D01*
X104543680Y-110798578D01*
X104378196Y-110798916D01*
X104229128Y-110799303D01*
X104095497Y-110799771D01*
X103976328Y-110800356D01*
X103870645Y-110801093D01*
X103777471Y-110802015D01*
X103695830Y-110803157D01*
X103624745Y-110804555D01*
X103563240Y-110806242D01*
X103510340Y-110808253D01*
X103465066Y-110810622D01*
X103426444Y-110813384D01*
X103393497Y-110816575D01*
X103365249Y-110820227D01*
X103340722Y-110824376D01*
X103318942Y-110829056D01*
X103298931Y-110834302D01*
X103279713Y-110840148D01*
X103260312Y-110846629D01*
X103239752Y-110853780D01*
X103217056Y-110861635D01*
X103203131Y-110866326D01*
X103053101Y-110926684D01*
X102912730Y-111004140D01*
X102783250Y-111097301D01*
X102665895Y-111204774D01*
X102561898Y-111325167D01*
X102472492Y-111457087D01*
X102398911Y-111599141D01*
X102342386Y-111749935D01*
X102310575Y-111874465D01*
X102287201Y-112035024D01*
X102282016Y-112196089D01*
X101539040Y-112196089D01*
X101539040Y-109423563D01*
X102301040Y-109423563D01*
X102301040Y-109873808D01*
X102301195Y-109967571D01*
X102301639Y-110055038D01*
X102302339Y-110134121D01*
X102303264Y-110202736D01*
X102304380Y-110258794D01*
X102305655Y-110300210D01*
X102307058Y-110324897D01*
X102308130Y-110331144D01*
X102318901Y-110331902D01*
X102348920Y-110332599D01*
X102397116Y-110333232D01*
X102462418Y-110333797D01*
X102543755Y-110334293D01*
X102640055Y-110334717D01*
X102750247Y-110335067D01*
X102873259Y-110335341D01*
X103008021Y-110335535D01*
X103153461Y-110335647D01*
X103308508Y-110335676D01*
X103472090Y-110335617D01*
X103643136Y-110335470D01*
X103820575Y-110335231D01*
X103971830Y-110334962D01*
X104186567Y-110334535D01*
X104381956Y-110334134D01*
X104558967Y-110333744D01*
X104718572Y-110333351D01*
X104861742Y-110332942D01*
X104989450Y-110332503D01*
X105102665Y-110332019D01*
X105202360Y-110331478D01*
X105289505Y-110330865D01*
X105365073Y-110330166D01*
X105430034Y-110329368D01*
X105485360Y-110328456D01*
X105532022Y-110327417D01*
X105570991Y-110326237D01*
X105603239Y-110324902D01*
X105629738Y-110323398D01*
X105651457Y-110321712D01*
X105669370Y-110319829D01*
X105684447Y-110317736D01*
X105697659Y-110315418D01*
X105709978Y-110312862D01*
X105722376Y-110310055D01*
X105722696Y-110309981D01*
X105872788Y-110268608D01*
X106008481Y-110216166D01*
X106133580Y-110150614D01*
X106251891Y-110069908D01*
X106367221Y-109972008D01*
X106386439Y-109953858D01*
X106500193Y-109831112D01*
X106597220Y-109696975D01*
X106677154Y-109552110D01*
X106739629Y-109397177D01*
X106783226Y-109237781D01*
X106795448Y-109161977D01*
X106803287Y-109073107D01*
X106806680Y-108977611D01*
X106805566Y-108881932D01*
X106799883Y-108792512D01*
X106789568Y-108715794D01*
X106788316Y-108709257D01*
X106746897Y-108548891D01*
X106687898Y-108395359D01*
X106653190Y-108328709D01*
X107147358Y-108328709D01*
X107147358Y-108540056D01*
X107147360Y-108680283D01*
X107147360Y-110368080D01*
X108051600Y-110368080D01*
X108051600Y-108692585D01*
X108051607Y-108476077D01*
X108051638Y-108278944D01*
X108051700Y-108100243D01*
X108051806Y-107939027D01*
X108051964Y-107794354D01*
X108052185Y-107665278D01*
X108052478Y-107550855D01*
X108052855Y-107450140D01*
X108053324Y-107362188D01*
X108053897Y-107286056D01*
X108054583Y-107220798D01*
X108055392Y-107165470D01*
X108056334Y-107119128D01*
X108057420Y-107080827D01*
X108058659Y-107049622D01*
X108060062Y-107024570D01*
X108061639Y-107004724D01*
X108063399Y-106989141D01*
X108065353Y-106976877D01*
X108067511Y-106966986D01*
X108069883Y-106958525D01*
X108070119Y-106957765D01*
X108102634Y-106879754D01*
X108150128Y-106809409D01*
X108196725Y-106759460D01*
X108268410Y-106704036D01*
X108347931Y-106665922D01*
X108432513Y-106645101D01*
X108519378Y-106641558D01*
X108605750Y-106655274D01*
X108688851Y-106686234D01*
X108765905Y-106734419D01*
X108799363Y-106763127D01*
X108853955Y-106822067D01*
X108893641Y-106883592D01*
X108923202Y-106955317D01*
X108926538Y-106965748D01*
X108929013Y-106974266D01*
X108931265Y-106983810D01*
X108933305Y-106995330D01*
X108935143Y-107009773D01*
X108936789Y-107028089D01*
X108938255Y-107051225D01*
X108939551Y-107080130D01*
X108940687Y-107115753D01*
X108941673Y-107159042D01*
X108942521Y-107210946D01*
X108943240Y-107272413D01*
X108943842Y-107344391D01*
X108944336Y-107427830D01*
X108944733Y-107523676D01*
X108945043Y-107632880D01*
X108945278Y-107756389D01*
X108945447Y-107895153D01*
X108945561Y-108050118D01*
X108945631Y-108222234D01*
X108945667Y-108412450D01*
X108945679Y-108621714D01*
X108945680Y-108697665D01*
X108945680Y-110368080D01*
X109849628Y-110368080D01*
X109855000Y-106979720D01*
X109887664Y-106910757D01*
X109937010Y-106828393D01*
X109999529Y-106759383D01*
X110072862Y-106705025D01*
X110154649Y-106666616D01*
X110242530Y-106645454D01*
X110334145Y-106642836D01*
X110367991Y-106646745D01*
X110448843Y-106666364D01*
X110519867Y-106699916D01*
X110586207Y-106750072D01*
X110609024Y-106771795D01*
X110670202Y-106843994D01*
X110715256Y-106921140D01*
X110742186Y-106999777D01*
X110742895Y-107003080D01*
X110744521Y-107018201D01*
X110746009Y-107047652D01*
X110747362Y-107091889D01*
X110748581Y-107151369D01*
X110749672Y-107226550D01*
X110750636Y-107317888D01*
X110751477Y-107425840D01*
X110752197Y-107550863D01*
X110752800Y-107693414D01*
X110753288Y-107853949D01*
X110753666Y-108032927D01*
X110753934Y-108230803D01*
X110754098Y-108448034D01*
X110754159Y-108685078D01*
X110754160Y-108712500D01*
X110754160Y-110368080D01*
X111648240Y-110368080D01*
X111648240Y-108662530D01*
X111648222Y-108440814D01*
X111648163Y-108238492D01*
X111648055Y-108054638D01*
X111647890Y-107888326D01*
X111647660Y-107738631D01*
X111647357Y-107604626D01*
X111646973Y-107485386D01*
X111646500Y-107379985D01*
X111645931Y-107287497D01*
X111645256Y-107206996D01*
X111644468Y-107137556D01*
X111643560Y-107078252D01*
X111642522Y-107028157D01*
X111641348Y-106986346D01*
X111640028Y-106951892D01*
X111638556Y-106923871D01*
X111636923Y-106901355D01*
X111635121Y-106883419D01*
X111633143Y-106869138D01*
X111632744Y-106866750D01*
X111595022Y-106704169D01*
X111539855Y-106550477D01*
X111468373Y-106406690D01*
X111381702Y-106273827D01*
X111280970Y-106152907D01*
X111167306Y-106044947D01*
X111041836Y-105950965D01*
X110905689Y-105871980D01*
X110759992Y-105809010D01*
X110605874Y-105763073D01*
X110444460Y-105735187D01*
X110372463Y-105728961D01*
X110217077Y-105729372D01*
X110062210Y-105748831D01*
X109910462Y-105786491D01*
X109764432Y-105841503D01*
X109626721Y-105913021D01*
X109499928Y-106000196D01*
X109472383Y-106022540D01*
X109402092Y-106081360D01*
X109321595Y-106016954D01*
X109190197Y-105924467D01*
X109050099Y-105849466D01*
X108903122Y-105792144D01*
X108751087Y-105752696D01*
X108595815Y-105731314D01*
X108439127Y-105728193D01*
X108282844Y-105743525D01*
X108128786Y-105777505D01*
X107978775Y-105830326D01*
X107901610Y-105865987D01*
X107821491Y-105910071D01*
X107738586Y-105962333D01*
X107660522Y-106017706D01*
X107601251Y-106065541D01*
X107508856Y-106157058D01*
X107421976Y-106264046D01*
X107343582Y-106381816D01*
X107276645Y-106505678D01*
X107224133Y-106630945D01*
X107204377Y-106692080D01*
X107197264Y-106716582D01*
X107190769Y-106739328D01*
X107184862Y-106761295D01*
X107179517Y-106783458D01*
X107174705Y-106806794D01*
X107170399Y-106832278D01*
X107166569Y-106860888D01*
X107163189Y-106893598D01*
X107160230Y-106931385D01*
X107157664Y-106975225D01*
X107155463Y-107026093D01*
X107153600Y-107084967D01*
X107152046Y-107152822D01*
X107150773Y-107230634D01*
X107149754Y-107319379D01*
X107148960Y-107420033D01*
X107148363Y-107533572D01*
X107147935Y-107660973D01*
X107147649Y-107803211D01*
X107147476Y-107961262D01*
X107147389Y-108136102D01*
X107147358Y-108328709D01*
X106653190Y-108328709D01*
X106612485Y-108250545D01*
X106521825Y-108116335D01*
X106417083Y-107994613D01*
X106299423Y-107887263D01*
X106262172Y-107858434D01*
X106152420Y-107786476D01*
X106027295Y-107721691D01*
X105891068Y-107666050D01*
X105750360Y-107622147D01*
X105736810Y-107618654D01*
X105723166Y-107615550D01*
X105708177Y-107612805D01*
X105690590Y-107610389D01*
X105669155Y-107608270D01*
X105642620Y-107606419D01*
X105609734Y-107604806D01*
X105569245Y-107603399D01*
X105519901Y-107602168D01*
X105460452Y-107601084D01*
X105389645Y-107600115D01*
X105306229Y-107599232D01*
X105208953Y-107598403D01*
X105096565Y-107597599D01*
X104967814Y-107596788D01*
X104821449Y-107595942D01*
X104656217Y-107595028D01*
X104627680Y-107594872D01*
X103586280Y-107589190D01*
X103525320Y-107564898D01*
X103435655Y-107519332D01*
X103360649Y-107460586D01*
X103301233Y-107390006D01*
X103258344Y-107308940D01*
X103232914Y-107218735D01*
X103225720Y-107132815D01*
X103234630Y-107035188D01*
X103261253Y-106947290D01*
X103305950Y-106868282D01*
X103369081Y-106797321D01*
X103369448Y-106796981D01*
X103443799Y-106739738D01*
X103522651Y-106700981D01*
X103598516Y-106682334D01*
X103616826Y-106681325D01*
X103653994Y-106680488D01*
X103708554Y-106679822D01*
X103779044Y-106679330D01*
X103864002Y-106679013D01*
X103961964Y-106678872D01*
X104071466Y-106678908D01*
X104191047Y-106679122D01*
X104319242Y-106679517D01*
X104454590Y-106680093D01*
X104595626Y-106680852D01*
X104678480Y-106681370D01*
X104836064Y-106682376D01*
X104998561Y-106683359D01*
X105163429Y-106684307D01*
X105328122Y-106685208D01*
X105490098Y-106686048D01*
X105646814Y-106686816D01*
X105795725Y-106687499D01*
X105934287Y-106688084D01*
X106059959Y-106688559D01*
X106170195Y-106688912D01*
X106255820Y-106689117D01*
X106812080Y-106690160D01*
X106812080Y-105788292D01*
X106433620Y-105782119D01*
X106360977Y-105781057D01*
X106269868Y-105779928D01*
X106162145Y-105778744D01*
X106039660Y-105777520D01*
X105904268Y-105776269D01*
X105757820Y-105775004D01*
X105602170Y-105773738D01*
X105439171Y-105772486D01*
X105270676Y-105771259D01*
X105098537Y-105770073D01*
X104924607Y-105768939D01*
X104750740Y-105767872D01*
X104578788Y-105766884D01*
X104410605Y-105765989D01*
X104248043Y-105765201D01*
X104092955Y-105764533D01*
X103947194Y-105763998D01*
X103901240Y-105763852D01*
X103798331Y-105763679D01*
X103713320Y-105763900D01*
X103643786Y-105764597D01*
X103587307Y-105765854D01*
X103541465Y-105767754D01*
X103503838Y-105770380D01*
X103472006Y-105773814D01*
X103443549Y-105778140D01*
X103433924Y-105779882D01*
X103278011Y-105819341D01*
X103128683Y-105877299D01*
X102987435Y-105952585D01*
X102855762Y-106044025D01*
X102735157Y-106150447D01*
X102627116Y-106270680D01*
X102533132Y-106403550D01*
X102454701Y-106547885D01*
X102454578Y-106548148D01*
X102403448Y-106669462D01*
X102366546Y-106786852D01*
X102342594Y-106906215D01*
X102330313Y-107033451D01*
X102327978Y-107132120D01*
X102333208Y-107269972D01*
X102349356Y-107395849D01*
X102377735Y-107515683D01*
X102419655Y-107635405D01*
X102459244Y-107725465D01*
X102538530Y-107870023D01*
X102633507Y-108002733D01*
X102742760Y-108122494D01*
X102864875Y-108228205D01*
X102998439Y-108318764D01*
X103142037Y-108393068D01*
X103294256Y-108450017D01*
X103433924Y-108484844D01*
X103450591Y-108487768D01*
X103469449Y-108490379D01*
X103491764Y-108492703D01*
X103518800Y-108494767D01*
X103551824Y-108496597D01*
X103592100Y-108498219D01*
X103640894Y-108499661D01*
X103699471Y-108500948D01*
X103769097Y-108502108D01*
X103851036Y-108503166D01*
X103946554Y-108504150D01*
X104056917Y-108505085D01*
X104183389Y-108505999D01*
X104327236Y-108506918D01*
X104489724Y-108507869D01*
X104547184Y-108508191D01*
X105569049Y-108513880D01*
X105656401Y-108557173D01*
X105733823Y-108603508D01*
X105795407Y-108659028D01*
X105843462Y-108726546D01*
X105880297Y-108808871D01*
X105891466Y-108843384D01*
X105906898Y-108929602D01*
X105904264Y-109018085D01*
X105884836Y-109105227D01*
X105849886Y-109187424D01*
X105800685Y-109261069D01*
X105738505Y-109322558D01*
X105716777Y-109338598D01*
X105702425Y-109348843D01*
X105690056Y-109358173D01*
X105678709Y-109366630D01*
X105667424Y-109374259D01*
X105655242Y-109381104D01*
X105641203Y-109387209D01*
X105624347Y-109392618D01*
X105603714Y-109397376D01*
X105578344Y-109401525D01*
X105547277Y-109405110D01*
X105509554Y-109408175D01*
X105464215Y-109410765D01*
X105410299Y-109412923D01*
X105346848Y-109414693D01*
X105272901Y-109416119D01*
X105187498Y-109417246D01*
X105089679Y-109418117D01*
X104978485Y-109418776D01*
X104852957Y-109419268D01*
X104712133Y-109419636D01*
X104555054Y-109419925D01*
X104380760Y-109420178D01*
X104188292Y-109420440D01*
X103976690Y-109420755D01*
X103924100Y-109420841D01*
X102301040Y-109423563D01*
X101539040Y-109423563D01*
X101539040Y-105694480D01*
X112125131Y-105694480D01*
X112128631Y-107378500D01*
X112129098Y-107596936D01*
X112129558Y-107795999D01*
X112130021Y-107976634D01*
X112130498Y-108139788D01*
X112131001Y-108286407D01*
X112131540Y-108417438D01*
X112132126Y-108533826D01*
X112132770Y-108636517D01*
X112133484Y-108726459D01*
X112134278Y-108804598D01*
X112135163Y-108871879D01*
X112136150Y-108929248D01*
X112137250Y-108977653D01*
X112138474Y-109018039D01*
X112139834Y-109051353D01*
X112141339Y-109078541D01*
X112143002Y-109100549D01*
X112144832Y-109118324D01*
X112146841Y-109132811D01*
X112149041Y-109144957D01*
X112149127Y-109145377D01*
X112193217Y-109313251D01*
X112254422Y-109471436D01*
X112332219Y-109618908D01*
X112426086Y-109754645D01*
X112509316Y-109850869D01*
X112629705Y-109963465D01*
X112760728Y-110059952D01*
X112900691Y-110139365D01*
X113047898Y-110200737D01*
X113195350Y-110241976D01*
X113282606Y-110256138D01*
X113381531Y-110264579D01*
X113485858Y-110267303D01*
X113589319Y-110264314D01*
X113685646Y-110255615D01*
X113766600Y-110241665D01*
X113924822Y-110195318D01*
X114073883Y-110131500D01*
X114212729Y-110051374D01*
X114340303Y-109956102D01*
X114455550Y-109846847D01*
X114557415Y-109724771D01*
X114644842Y-109591038D01*
X114716777Y-109446809D01*
X114772163Y-109293247D01*
X114809946Y-109131515D01*
X114817329Y-109084189D01*
X114819503Y-109057581D01*
X114821441Y-109010801D01*
X114823143Y-108943994D01*
X114824606Y-108857307D01*
X114825828Y-108750886D01*
X114826810Y-108624876D01*
X114827548Y-108479425D01*
X114828041Y-108314677D01*
X114828289Y-108130780D01*
X114828320Y-108031931D01*
X114828432Y-107853590D01*
X114828764Y-107690552D01*
X114829311Y-107543375D01*
X114830068Y-107412615D01*
X114831028Y-107298831D01*
X114832186Y-107202578D01*
X114833536Y-107124415D01*
X114835074Y-107064899D01*
X114836792Y-107024586D01*
X114838685Y-107004034D01*
X114838690Y-107004010D01*
X114863503Y-106921771D01*
X114904484Y-106843282D01*
X114958509Y-106772715D01*
X115022457Y-106714244D01*
X115083850Y-106676404D01*
X115171199Y-106644595D01*
X115260334Y-106631767D01*
X115348816Y-106637026D01*
X115434207Y-106659476D01*
X115514067Y-106698223D01*
X115585959Y-106752371D01*
X115647443Y-106821026D01*
X115694815Y-106900597D01*
X115727480Y-106969560D01*
X115727480Y-107716320D01*
X115727426Y-107850287D01*
X115727271Y-108001005D01*
X115727024Y-108164907D01*
X115726693Y-108338424D01*
X115726287Y-108517988D01*
X115725814Y-108700030D01*
X115725283Y-108880982D01*
X115724703Y-109057277D01*
X115724082Y-109225345D01*
X115723492Y-109367320D01*
X115719504Y-110271560D01*
X116166757Y-110274204D01*
X116614009Y-110276849D01*
X116620562Y-109380124D01*
X116621673Y-109221785D01*
X116622788Y-109050950D01*
X116623888Y-108871346D01*
X116624952Y-108686696D01*
X116625961Y-108500728D01*
X116626895Y-108317166D01*
X116627734Y-108139735D01*
X116628459Y-107972161D01*
X116629051Y-107818169D01*
X116629418Y-107706160D01*
X116629820Y-107560784D01*
X116630089Y-107434223D01*
X116630197Y-107324972D01*
X116630114Y-107231526D01*
X116629814Y-107152381D01*
X116629269Y-107086031D01*
X116628449Y-107030971D01*
X116627327Y-106985697D01*
X116625875Y-106948704D01*
X116624065Y-106918487D01*
X116621868Y-106893540D01*
X116619257Y-106872360D01*
X116616203Y-106853442D01*
X116613205Y-106837848D01*
X116571857Y-106675829D01*
X116515880Y-106526822D01*
X116444155Y-106388662D01*
X116355560Y-106259180D01*
X116252141Y-106139506D01*
X116142164Y-106034710D01*
X116028512Y-105947283D01*
X115906816Y-105874288D01*
X115772712Y-105812786D01*
X115757960Y-105806964D01*
X115661357Y-105772532D01*
X115571507Y-105748009D01*
X115481562Y-105732141D01*
X115384675Y-105723672D01*
X115290600Y-105721352D01*
X115164721Y-105725032D01*
X115051455Y-105737801D01*
X114944632Y-105760989D01*
X114838081Y-105795929D01*
X114728031Y-105842833D01*
X114586774Y-105919576D01*
X114455149Y-106012681D01*
X114334778Y-106120281D01*
X114227281Y-106240510D01*
X114134281Y-106371504D01*
X114057399Y-106511396D01*
X113998257Y-106658320D01*
X113986342Y-106696236D01*
X113977945Y-106724804D01*
X113970502Y-106751430D01*
X113963955Y-106777467D01*
X113958248Y-106804266D01*
X113953321Y-106833180D01*
X113949118Y-106865560D01*
X113945580Y-106902757D01*
X113942649Y-106946126D01*
X113940268Y-106997016D01*
X113938378Y-107056780D01*
X113936922Y-107126770D01*
X113935842Y-107208338D01*
X113935081Y-107302835D01*
X113934579Y-107411615D01*
X113934280Y-107536028D01*
X113934125Y-107677426D01*
X113934057Y-107837163D01*
X113934038Y-107918310D01*
X113933898Y-108079240D01*
X113933554Y-108230285D01*
X113933017Y-108370350D01*
X113932296Y-108498341D01*
X113931404Y-108613164D01*
X113930350Y-108713727D01*
X113929146Y-108798934D01*
X113927802Y-108867691D01*
X113926328Y-108918906D01*
X113924736Y-108951484D01*
X113923834Y-108960920D01*
X113901262Y-109050665D01*
X113860823Y-109134767D01*
X113804817Y-109210078D01*
X113735542Y-109273451D01*
X113662943Y-109318076D01*
X113636803Y-109330257D01*
X113613831Y-109338441D01*
X113588954Y-109343416D01*
X113557101Y-109345972D01*
X113513200Y-109346898D01*
X113477040Y-109347000D01*
X113422963Y-109346699D01*
X113384123Y-109345268D01*
X113355438Y-109341913D01*
X113331826Y-109335839D01*
X113308207Y-109326253D01*
X113290661Y-109317868D01*
X113219232Y-109272613D01*
X113154069Y-109211567D01*
X113099428Y-109139164D01*
X113073182Y-109091519D01*
X113035080Y-109011720D01*
X113029702Y-105694480D01*
X112125131Y-105694480D01*
X101539040Y-105694480D01*
X101539040Y-104932480D01*
X117419120Y-104932480D01*
X117419120Y-121046240D01*
G37*
X117419120Y-121046240D02*
X101539040Y-121046240D01*
X101539040Y-118615267D01*
X102317254Y-118615267D01*
X102317296Y-118719402D01*
X102317522Y-118807896D01*
X102317964Y-118882312D01*
X102318658Y-118944208D01*
X102319637Y-118995145D01*
X102320935Y-119036682D01*
X102322586Y-119070381D01*
X102324623Y-119097801D01*
X102327082Y-119120501D01*
X102329994Y-119140044D01*
X102333395Y-119157987D01*
X102335244Y-119166640D01*
X102380634Y-119328328D01*
X102443245Y-119481078D01*
X102521950Y-119623746D01*
X102615627Y-119755191D01*
X102723148Y-119874269D01*
X102843391Y-119979839D01*
X102975229Y-120070757D01*
X103117539Y-120145883D01*
X103269194Y-120204074D01*
X103388160Y-120235864D01*
X103457904Y-120247255D01*
X103541345Y-120254712D01*
X103632231Y-120258182D01*
X103724314Y-120257609D01*
X103811343Y-120252941D01*
X103887067Y-120244124D01*
X103908171Y-120240361D01*
X104070457Y-120198149D01*
X104223872Y-120137686D01*
X104367964Y-120059212D01*
X104502285Y-119962968D01*
X104612653Y-119863158D01*
X104722971Y-119738276D01*
X104816704Y-119602093D01*
X104893178Y-119455948D01*
X104951722Y-119301176D01*
X104991662Y-119139115D01*
X104998981Y-119095520D01*
X105001521Y-119075627D01*
X105003765Y-119050610D01*
X105005729Y-119019239D01*
X105007430Y-118980284D01*
X105008885Y-118932516D01*
X105010110Y-118874705D01*
X105011124Y-118805621D01*
X105011942Y-118724037D01*
X105012581Y-118628720D01*
X105013059Y-118518443D01*
X105013391Y-118391976D01*
X105013596Y-118248089D01*
X105013690Y-118085552D01*
X105013700Y-118022486D01*
X105013819Y-117849202D01*
X105014152Y-117689647D01*
X105014690Y-117544539D01*
X105015427Y-117414595D01*
X105016356Y-117300532D01*
X105017468Y-117203067D01*
X105018758Y-117122917D01*
X105020218Y-117060799D01*
X105021840Y-117017431D01*
X105023618Y-116993528D01*
X105023973Y-116991246D01*
X105050098Y-116904338D01*
X105093118Y-116825745D01*
X105150619Y-116757459D01*
X105220186Y-116701469D01*
X105299405Y-116659765D01*
X105385859Y-116634339D01*
X105465880Y-116627008D01*
X105562786Y-116636539D01*
X105651114Y-116664047D01*
X105729573Y-116708545D01*
X105796874Y-116769043D01*
X105851727Y-116844552D01*
X105892842Y-116934082D01*
X105901626Y-116961224D01*
X105903780Y-116969885D01*
X105905738Y-116981302D01*
X105907511Y-116996416D01*
X105909106Y-117016169D01*
X105910533Y-117041505D01*
X105911801Y-117073363D01*
X105912920Y-117112688D01*
X105913898Y-117160421D01*
X105914745Y-117217505D01*
X105915469Y-117284881D01*
X105916080Y-117363491D01*
X105916588Y-117454279D01*
X105917000Y-117558186D01*
X105917327Y-117676154D01*
X105917577Y-117809125D01*
X105917760Y-117958043D01*
X105917884Y-118123848D01*
X105917959Y-118307483D01*
X105917994Y-118509891D01*
X105918000Y-118650324D01*
X105918000Y-120284240D01*
X106822812Y-120284240D01*
X106819582Y-118595140D01*
X106819164Y-118378211D01*
X106818772Y-118180642D01*
X106818390Y-118001475D01*
X106818005Y-117839749D01*
X106817605Y-117694505D01*
X106817175Y-117564784D01*
X106816703Y-117449625D01*
X106816175Y-117348071D01*
X106815578Y-117259160D01*
X106814898Y-117181934D01*
X106814121Y-117115433D01*
X106813235Y-117058698D01*
X106812227Y-117010769D01*
X106811081Y-116970687D01*
X106809787Y-116937491D01*
X106808329Y-116910224D01*
X106806694Y-116887925D01*
X106804870Y-116869634D01*
X106802842Y-116854393D01*
X106800598Y-116841242D01*
X106798124Y-116829221D01*
X106795406Y-116817370D01*
X106794734Y-116814522D01*
X106745934Y-116647726D01*
X106681442Y-116491814D01*
X106602259Y-116347618D01*
X106509389Y-116215969D01*
X106403832Y-116097697D01*
X106286592Y-115993635D01*
X106158669Y-115904612D01*
X106021066Y-115831460D01*
X105874784Y-115775009D01*
X105720827Y-115736092D01*
X105560195Y-115715539D01*
X105465880Y-115712359D01*
X105302374Y-115722107D01*
X105144559Y-115750739D01*
X104993557Y-115797342D01*
X104850493Y-115861000D01*
X104716489Y-115940797D01*
X104592668Y-116035820D01*
X104480154Y-116145153D01*
X104380070Y-116267881D01*
X104293539Y-116403089D01*
X104221684Y-116549862D01*
X104165629Y-116707286D01*
X104143996Y-116789200D01*
X104141092Y-116802886D01*
X104138495Y-116818638D01*
X104136179Y-116837682D01*
X104134117Y-116861244D01*
X104132284Y-116890549D01*
X104130652Y-116926826D01*
X104129196Y-116971299D01*
X104127890Y-117025195D01*
X104126707Y-117089740D01*
X104125622Y-117166160D01*
X104124607Y-117255682D01*
X104123638Y-117359532D01*
X104122687Y-117478936D01*
X104121729Y-117615120D01*
X104120737Y-117769311D01*
X104119808Y-117922040D01*
X104118790Y-118093829D01*
X104117864Y-118246529D01*
X104116971Y-118381371D01*
X104116055Y-118499584D01*
X104115055Y-118602399D01*
X104113914Y-118691046D01*
X104112573Y-118766756D01*
X104110974Y-118830758D01*
X104109058Y-118884284D01*
X104106766Y-118928563D01*
X104104041Y-118964826D01*
X104100824Y-118994303D01*
X104097056Y-119018224D01*
X104092678Y-119037821D01*
X104087633Y-119054322D01*
X104081862Y-119068959D01*
X104075306Y-119082961D01*
X104067907Y-119097560D01*
X104063533Y-119106138D01*
X104015464Y-119179450D01*
X103952762Y-119241556D01*
X103878706Y-119290843D01*
X103796575Y-119325700D01*
X103709648Y-119344515D01*
X103621205Y-119345677D01*
X103586055Y-119340822D01*
X103496185Y-119314794D01*
X103414958Y-119272581D01*
X103344517Y-119216323D01*
X103287008Y-119148158D01*
X103244575Y-119070224D01*
X103219363Y-118984659D01*
X103217506Y-118973378D01*
X103216357Y-118954925D01*
X103215440Y-118916966D01*
X103214750Y-118860314D01*
X103214285Y-118785782D01*
X103214040Y-118694182D01*
X103214011Y-118586328D01*
X103214196Y-118463032D01*
X103214590Y-118325108D01*
X103215189Y-118173367D01*
X103215991Y-118008622D01*
X103216992Y-117831687D01*
X103218187Y-117643375D01*
X103219573Y-117444497D01*
X103221147Y-117235868D01*
X103222905Y-117018299D01*
X103224842Y-116792604D01*
X103226957Y-116559595D01*
X103229244Y-116320085D01*
X103229601Y-116283740D01*
X103235232Y-115712240D01*
X102333993Y-115712240D01*
X102326440Y-116669820D01*
X102325237Y-116829447D01*
X102324059Y-116998934D01*
X102322926Y-117175030D01*
X102321853Y-117354484D01*
X102320858Y-117534048D01*
X102319959Y-117710471D01*
X102319171Y-117880503D01*
X102318512Y-118040893D01*
X102318000Y-118188393D01*
X102317651Y-118319751D01*
X102317584Y-118353840D01*
X102317361Y-118493933D01*
X102317254Y-118615267D01*
X101539040Y-118615267D01*
X101539040Y-115630960D01*
X107309358Y-115630960D01*
X107312553Y-117355620D01*
X107312962Y-117574965D01*
X107313349Y-117774938D01*
X107313727Y-117956490D01*
X107314107Y-118120568D01*
X107314503Y-118268121D01*
X107314928Y-118400098D01*
X107315395Y-118517448D01*
X107315915Y-118621119D01*
X107316503Y-118712061D01*
X107317170Y-118791222D01*
X107317929Y-118859551D01*
X107318794Y-118917997D01*
X107319777Y-118967508D01*
X107320891Y-119009033D01*
X107322148Y-119043522D01*
X107323562Y-119071922D01*
X107325144Y-119095184D01*
X107326909Y-119114254D01*
X107328868Y-119130083D01*
X107331035Y-119143619D01*
X107333421Y-119155811D01*
X107336041Y-119167608D01*
X107336992Y-119171720D01*
X107386108Y-119341392D01*
X107452049Y-119500571D01*
X107534402Y-119648330D01*
X107574634Y-119707949D01*
X107654403Y-119806919D01*
X107749384Y-119903290D01*
X107854541Y-119992759D01*
X107964838Y-120071025D01*
X108070177Y-120131274D01*
X108135543Y-120160336D01*
X108213234Y-120189247D01*
X108295401Y-120215460D01*
X108374191Y-120236428D01*
X108428502Y-120247544D01*
X108500932Y-120256295D01*
X108585975Y-120261196D01*
X108676287Y-120262229D01*
X108764528Y-120259377D01*
X108843353Y-120252622D01*
X108872045Y-120248592D01*
X108991986Y-120222517D01*
X109113200Y-120183864D01*
X109231369Y-120134643D01*
X109342179Y-120076861D01*
X109441313Y-120012526D01*
X109521798Y-119946176D01*
X109543167Y-119927623D01*
X109557187Y-119921998D01*
X109570251Y-119927257D01*
X109573580Y-119929634D01*
X109589759Y-119941766D01*
X109617530Y-119962728D01*
X109652307Y-119989057D01*
X109673969Y-120005487D01*
X109802277Y-120090303D01*
X109941802Y-120159099D01*
X110090427Y-120211188D01*
X110246037Y-120245881D01*
X110406514Y-120262491D01*
X110469680Y-120263920D01*
X110636169Y-120254343D01*
X110795687Y-120225698D01*
X110947933Y-120178109D01*
X111092605Y-120111701D01*
X111229403Y-120026600D01*
X111358024Y-119922929D01*
X111410099Y-119873318D01*
X111521871Y-119747440D01*
X111617062Y-119610037D01*
X111695245Y-119461911D01*
X111755995Y-119303862D01*
X111758146Y-119295586D01*
X112156240Y-119295586D01*
X112156240Y-120213120D01*
X112377220Y-120214588D01*
X112420769Y-120214888D01*
X112482729Y-120215329D01*
X112561190Y-120215897D01*
X112654243Y-120216578D01*
X112759979Y-120217358D01*
X112876487Y-120218223D01*
X113001860Y-120219159D01*
X113134188Y-120220151D01*
X113271562Y-120221185D01*
X113412072Y-120222248D01*
X113527840Y-120223126D01*
X113678551Y-120224201D01*
X113834213Y-120225178D01*
X113992140Y-120226048D01*
X114149647Y-120226800D01*
X114304048Y-120227427D01*
X114452659Y-120227918D01*
X114592794Y-120228263D01*
X114721768Y-120228454D01*
X114836896Y-120228480D01*
X114935492Y-120228333D01*
X114970560Y-120228220D01*
X115086883Y-120227730D01*
X115184836Y-120227182D01*
X115266369Y-120226501D01*
X115333432Y-120225612D01*
X115387976Y-120224441D01*
X115431950Y-120222914D01*
X115467304Y-120220955D01*
X115495988Y-120218491D01*
X115519953Y-120215446D01*
X115541148Y-120211746D01*
X115561523Y-120207317D01*
X115570000Y-120205295D01*
X115733899Y-120155594D01*
X115886925Y-120089005D01*
X116028354Y-120006244D01*
X116157463Y-119908024D01*
X116273530Y-119795063D01*
X116375833Y-119668074D01*
X116463647Y-119527773D01*
X116536250Y-119374875D01*
X116592920Y-119210094D01*
X116599316Y-119186960D01*
X116609960Y-119146508D01*
X116617876Y-119112766D01*
X116623463Y-119081568D01*
X116627120Y-119048749D01*
X116629246Y-119010144D01*
X116630241Y-118961589D01*
X116630504Y-118898917D01*
X116630487Y-118861840D01*
X116630277Y-118790540D01*
X116629546Y-118735371D01*
X116627893Y-118692145D01*
X116624912Y-118656673D01*
X116620200Y-118624766D01*
X116613355Y-118592235D01*
X116603972Y-118554893D01*
X116599164Y-118536720D01*
X116545008Y-118370289D01*
X116474638Y-118215872D01*
X116388654Y-118074065D01*
X116287653Y-117945466D01*
X116172231Y-117830672D01*
X116042988Y-117730280D01*
X115900520Y-117644887D01*
X115745425Y-117575092D01*
X115585240Y-117523324D01*
X115483640Y-117496240D01*
X114442240Y-117490575D01*
X114273113Y-117489637D01*
X114123104Y-117488752D01*
X113991009Y-117487896D01*
X113875625Y-117487041D01*
X113775750Y-117486162D01*
X113690181Y-117485232D01*
X113617714Y-117484225D01*
X113557148Y-117483116D01*
X113507279Y-117481877D01*
X113466904Y-117480484D01*
X113434821Y-117478909D01*
X113409827Y-117477127D01*
X113390718Y-117475111D01*
X113376293Y-117472836D01*
X113365348Y-117470275D01*
X113356681Y-117467402D01*
X113355553Y-117466963D01*
X113270306Y-117423603D01*
X113198993Y-117368084D01*
X113141726Y-117302647D01*
X113098614Y-117229536D01*
X113069767Y-117150992D01*
X113055295Y-117069259D01*
X113055308Y-116986577D01*
X113069915Y-116905190D01*
X113099227Y-116827340D01*
X113143354Y-116755269D01*
X113202405Y-116691219D01*
X113276491Y-116637434D01*
X113313922Y-116617577D01*
X113390680Y-116580920D01*
X115023900Y-116578258D01*
X116657120Y-116575597D01*
X116657120Y-115660975D01*
X113299240Y-115667007D01*
X113217960Y-115688893D01*
X113049670Y-115743816D01*
X112893497Y-115814351D01*
X112750119Y-115899803D01*
X112620216Y-115999478D01*
X112504467Y-116112682D01*
X112403551Y-116238718D01*
X112318149Y-116376893D01*
X112248939Y-116526512D01*
X112196600Y-116686880D01*
X112181700Y-116748560D01*
X112171117Y-116812497D01*
X112163584Y-116890444D01*
X112159244Y-116976297D01*
X112158241Y-117063954D01*
X112160718Y-117147313D01*
X112166820Y-117220273D01*
X112170039Y-117243500D01*
X112205152Y-117403253D01*
X112258163Y-117556185D01*
X112327884Y-117700873D01*
X112413128Y-117835890D01*
X112512706Y-117959812D01*
X112625430Y-118071215D01*
X112750112Y-118168674D01*
X112885565Y-118250764D01*
X113030600Y-118316060D01*
X113078651Y-118333113D01*
X113109075Y-118343324D01*
X113136239Y-118352404D01*
X113161459Y-118360425D01*
X113186050Y-118367459D01*
X113211327Y-118373580D01*
X113238604Y-118378860D01*
X113269197Y-118383371D01*
X113304421Y-118387185D01*
X113345590Y-118390377D01*
X113394020Y-118393018D01*
X113451025Y-118395180D01*
X113517921Y-118396937D01*
X113596022Y-118398361D01*
X113686644Y-118399524D01*
X113791101Y-118400500D01*
X113910709Y-118401360D01*
X114046782Y-118402177D01*
X114200636Y-118403025D01*
X114360960Y-118403904D01*
X115402360Y-118409720D01*
X115469653Y-118441604D01*
X115552433Y-118490848D01*
X115620138Y-118553349D01*
X115673615Y-118630037D01*
X115706529Y-118701714D01*
X115732271Y-118792092D01*
X115739053Y-118878470D01*
X115726735Y-118964108D01*
X115695180Y-119052266D01*
X115691284Y-119060663D01*
X115641673Y-119142943D01*
X115577295Y-119211352D01*
X115498574Y-119265512D01*
X115421859Y-119299655D01*
X115412339Y-119302967D01*
X115402726Y-119305911D01*
X115391851Y-119308503D01*
X115378543Y-119310756D01*
X115361634Y-119312686D01*
X115339952Y-119314308D01*
X115312329Y-119315637D01*
X115277593Y-119316687D01*
X115234575Y-119317474D01*
X115182105Y-119318013D01*
X115119013Y-119318318D01*
X115044129Y-119318404D01*
X114956283Y-119318287D01*
X114854304Y-119317982D01*
X114737024Y-119317502D01*
X114603272Y-119316864D01*
X114451877Y-119316082D01*
X114281671Y-119315171D01*
X114228880Y-119314886D01*
X114067177Y-119313974D01*
X113903270Y-119312976D01*
X113739267Y-119311907D01*
X113577275Y-119310785D01*
X113419400Y-119309627D01*
X113267750Y-119308448D01*
X113124431Y-119307267D01*
X112991551Y-119306099D01*
X112871216Y-119304961D01*
X112765533Y-119303870D01*
X112676610Y-119302842D01*
X112626140Y-119302179D01*
X112156240Y-119295586D01*
X111758146Y-119295586D01*
X111796997Y-119146117D01*
X111799250Y-119133925D01*
X111801310Y-119119840D01*
X111803187Y-119102921D01*
X111804893Y-119082224D01*
X111806437Y-119056807D01*
X111807832Y-119025727D01*
X111809089Y-118988040D01*
X111810217Y-118942804D01*
X111811230Y-118889077D01*
X111812136Y-118825916D01*
X111812949Y-118752376D01*
X111813677Y-118667517D01*
X111814334Y-118570395D01*
X111814929Y-118460067D01*
X111815474Y-118335590D01*
X111815979Y-118196022D01*
X111816457Y-118040419D01*
X111816917Y-117867840D01*
X111817371Y-117677340D01*
X111817830Y-117467978D01*
X111818087Y-117345460D01*
X111821631Y-115630960D01*
X110916720Y-115630960D01*
X110916720Y-117295065D01*
X110916734Y-117514872D01*
X110916756Y-117715303D01*
X110916752Y-117897304D01*
X110916689Y-118061820D01*
X110916536Y-118209794D01*
X110916258Y-118342173D01*
X110915823Y-118459899D01*
X110915198Y-118563920D01*
X110914351Y-118655178D01*
X110913248Y-118734619D01*
X110911857Y-118803188D01*
X110910144Y-118861829D01*
X110908078Y-118911487D01*
X110905625Y-118953107D01*
X110902753Y-118987633D01*
X110899427Y-119016011D01*
X110895617Y-119039186D01*
X110891288Y-119058100D01*
X110886409Y-119073701D01*
X110880946Y-119086932D01*
X110874866Y-119098738D01*
X110868136Y-119110064D01*
X110860725Y-119121855D01*
X110852789Y-119134735D01*
X110800970Y-119203034D01*
X110733495Y-119263075D01*
X110654507Y-119311177D01*
X110653988Y-119311431D01*
X110624199Y-119325493D01*
X110599573Y-119334864D01*
X110574664Y-119340490D01*
X110544030Y-119343320D01*
X110502226Y-119344300D01*
X110464600Y-119344393D01*
X110412050Y-119344086D01*
X110374369Y-119342581D01*
X110346109Y-119338927D01*
X110321819Y-119332175D01*
X110296050Y-119321374D01*
X110275211Y-119311384D01*
X110196188Y-119263424D01*
X110128628Y-119203463D01*
X110076683Y-119135191D01*
X110076410Y-119134735D01*
X110068299Y-119121577D01*
X110060904Y-119109807D01*
X110054189Y-119098481D01*
X110048124Y-119086653D01*
X110042674Y-119073379D01*
X110037807Y-119057714D01*
X110033491Y-119038714D01*
X110029691Y-119015433D01*
X110026377Y-118986927D01*
X110023514Y-118952251D01*
X110021070Y-118910460D01*
X110019012Y-118860610D01*
X110017307Y-118801756D01*
X110015923Y-118732952D01*
X110014826Y-118653255D01*
X110013985Y-118561720D01*
X110013364Y-118457401D01*
X110012933Y-118339355D01*
X110012659Y-118206636D01*
X110012507Y-118058299D01*
X110012447Y-117893400D01*
X110012444Y-117710994D01*
X110012465Y-117510136D01*
X110012480Y-117295065D01*
X110012480Y-115630960D01*
X109108474Y-115630960D01*
X109103160Y-119019320D01*
X109070633Y-119087986D01*
X109036631Y-119146397D01*
X108992073Y-119203831D01*
X108942317Y-119254190D01*
X108892725Y-119291377D01*
X108890953Y-119292427D01*
X108813744Y-119326657D01*
X108727986Y-119345772D01*
X108638978Y-119349525D01*
X108552017Y-119337674D01*
X108475693Y-119311538D01*
X108397126Y-119264013D01*
X108328731Y-119201220D01*
X108273153Y-119126568D01*
X108233039Y-119043463D01*
X108214147Y-118974753D01*
X108212707Y-118956615D01*
X108211368Y-118918530D01*
X108210133Y-118860870D01*
X108209004Y-118784009D01*
X108207985Y-118688319D01*
X108207075Y-118574174D01*
X108206279Y-118441944D01*
X108205598Y-118292005D01*
X108205035Y-118124727D01*
X108204591Y-117940484D01*
X108204269Y-117739649D01*
X108204071Y-117522594D01*
X108204000Y-117289693D01*
X108204000Y-115630960D01*
X107309358Y-115630960D01*
X101539040Y-115630960D01*
X101539040Y-112196089D01*
X102282016Y-112196089D01*
X102294523Y-112355520D01*
X102324224Y-112511175D01*
X102370621Y-112660915D01*
X102433217Y-112802597D01*
X102511514Y-112934083D01*
X102577083Y-113020938D01*
X102626475Y-113080289D01*
X102556871Y-113171967D01*
X102466065Y-113308248D01*
X102391713Y-113455753D01*
X102334577Y-113612798D01*
X102304481Y-113731040D01*
X102296397Y-113783751D01*
X102290525Y-113851342D01*
X102286916Y-113928490D01*
X102285619Y-114009870D01*
X102286684Y-114090158D01*
X102290160Y-114164030D01*
X102296097Y-114226162D01*
X102299644Y-114249200D01*
X102338304Y-114407954D01*
X102394870Y-114559093D01*
X102468123Y-114701329D01*
X102556848Y-114833377D01*
X102659828Y-114953951D01*
X102775846Y-115061764D01*
X102903685Y-115155530D01*
X103042130Y-115233964D01*
X103189964Y-115295779D01*
X103327200Y-115335486D01*
X103370671Y-115345217D01*
X103410104Y-115353459D01*
X103438655Y-115358798D01*
X103444040Y-115359618D01*
X103457383Y-115360078D01*
X103489966Y-115360541D01*
X103540708Y-115361004D01*
X103608529Y-115361465D01*
X103692348Y-115361918D01*
X103791085Y-115362360D01*
X103903660Y-115362789D01*
X104028991Y-115363200D01*
X104165998Y-115363590D01*
X104313602Y-115363955D01*
X104470721Y-115364292D01*
X104636275Y-115364597D01*
X104809184Y-115364866D01*
X104988368Y-115365097D01*
X105163724Y-115365277D01*
X106852929Y-115366800D01*
X106850284Y-114912140D01*
X106847640Y-114457480D01*
X103505000Y-114447320D01*
X103438960Y-114414905D01*
X103361924Y-114366097D01*
X103294682Y-114301118D01*
X103240109Y-114222903D01*
X103227484Y-114199017D01*
X103211967Y-114166980D01*
X103201466Y-114141588D01*
X103195003Y-114117525D01*
X103191596Y-114089473D01*
X103190269Y-114052114D01*
X103190040Y-114000132D01*
X103190040Y-113995726D01*
X103190264Y-113942200D01*
X103191548Y-113903728D01*
X103194812Y-113875048D01*
X103200974Y-113850895D01*
X103210953Y-113826005D01*
X103224710Y-113797080D01*
X103274465Y-113716784D01*
X103338144Y-113649353D01*
X103413263Y-113596709D01*
X103497340Y-113560773D01*
X103544965Y-113549107D01*
X103562009Y-113547463D01*
X103594766Y-113545960D01*
X103643605Y-113544595D01*
X103708893Y-113543366D01*
X103790998Y-113542270D01*
X103890285Y-113541305D01*
X104007124Y-113540469D01*
X104141882Y-113539759D01*
X104294925Y-113539172D01*
X104466621Y-113538707D01*
X104657337Y-113538361D01*
X104867441Y-113538131D01*
X105097301Y-113538015D01*
X105228985Y-113538000D01*
X106852720Y-113538000D01*
X106852720Y-112623600D01*
X105203564Y-112623600D01*
X104985687Y-112623612D01*
X104787182Y-112623630D01*
X104607096Y-112623623D01*
X104444482Y-112623561D01*
X104298389Y-112623414D01*
X104167867Y-112623152D01*
X104051967Y-112622744D01*
X103949739Y-112622160D01*
X103860234Y-112621371D01*
X103782501Y-112620345D01*
X103715591Y-112619053D01*
X103658554Y-112617465D01*
X103610441Y-112615550D01*
X103570302Y-112613279D01*
X103537187Y-112610621D01*
X103510146Y-112607546D01*
X103488230Y-112604024D01*
X103470490Y-112600024D01*
X103455974Y-112595517D01*
X103443735Y-112590472D01*
X103432821Y-112584859D01*
X103422283Y-112578649D01*
X103411172Y-112571810D01*
X103402117Y-112566383D01*
X103352857Y-112530010D01*
X103303168Y-112480234D01*
X103258391Y-112423132D01*
X103223870Y-112364786D01*
X103222566Y-112362066D01*
X103208942Y-112332269D01*
X103199771Y-112307517D01*
X103194174Y-112282522D01*
X103191273Y-112251998D01*
X103190189Y-112210659D01*
X103190040Y-112166400D01*
X103190313Y-112112568D01*
X103191704Y-112073826D01*
X103195069Y-112044946D01*
X103201264Y-112020697D01*
X103211144Y-111995852D01*
X103221641Y-111973360D01*
X103272412Y-111889296D01*
X103336882Y-111819672D01*
X103413811Y-111765579D01*
X103500844Y-111728448D01*
X103509445Y-111725942D01*
X103519024Y-111723662D01*
X103530539Y-111721600D01*
X103544945Y-111719743D01*
X103563201Y-111718081D01*
X103586261Y-111716603D01*
X103615083Y-111715298D01*
X103650624Y-111714156D01*
X103693839Y-111713166D01*
X103745687Y-111712317D01*
X103807123Y-111711598D01*
X103879104Y-111710999D01*
X103962586Y-111710508D01*
X104058527Y-111710116D01*
X104167883Y-111709810D01*
X104291610Y-111709580D01*
X104430666Y-111709416D01*
X104586007Y-111709307D01*
X104758589Y-111709242D01*
X104949369Y-111709210D01*
X105159304Y-111709200D01*
X106852720Y-111709200D01*
X106852720Y-111526320D01*
X112095280Y-111526320D01*
X113724573Y-111526320D01*
X113964100Y-111526385D01*
X114186216Y-111526582D01*
X114390676Y-111526908D01*
X114577232Y-111527362D01*
X114745637Y-111527942D01*
X114895645Y-111528646D01*
X115027010Y-111529474D01*
X115139485Y-111530424D01*
X115232822Y-111531493D01*
X115306776Y-111532682D01*
X115361100Y-111533988D01*
X115395547Y-111535409D01*
X115408593Y-111536622D01*
X115494245Y-111562590D01*
X115571214Y-111605219D01*
X115637852Y-111662103D01*
X115692511Y-111730840D01*
X115733540Y-111809025D01*
X115759293Y-111894255D01*
X115768119Y-111984125D01*
X115762677Y-112052884D01*
X115739933Y-112140317D01*
X115701420Y-112221197D01*
X115649458Y-112292102D01*
X115586372Y-112349612D01*
X115542695Y-112377036D01*
X115527725Y-112385217D01*
X115514500Y-112392669D01*
X115502056Y-112399426D01*
X115489433Y-112405521D01*
X115475666Y-112410989D01*
X115459794Y-112415863D01*
X115440853Y-112420177D01*
X115417883Y-112423966D01*
X115389918Y-112427262D01*
X115355999Y-112430100D01*
X115315160Y-112432514D01*
X115266441Y-112434538D01*
X115208879Y-112436206D01*
X115141511Y-112437551D01*
X115063374Y-112438607D01*
X114973506Y-112439409D01*
X114870944Y-112439989D01*
X114754726Y-112440383D01*
X114623889Y-112440624D01*
X114477471Y-112440746D01*
X114314509Y-112440782D01*
X114134041Y-112440768D01*
X113935104Y-112440735D01*
X113734275Y-112440720D01*
X112095280Y-112440720D01*
X112095280Y-113355120D01*
X113733580Y-113355368D01*
X113974226Y-113355469D01*
X114197157Y-113355697D01*
X114402154Y-113356050D01*
X114588996Y-113356526D01*
X114757463Y-113357125D01*
X114907335Y-113357845D01*
X115038391Y-113358684D01*
X115150412Y-113359641D01*
X115243178Y-113360715D01*
X115316468Y-113361904D01*
X115370062Y-113363207D01*
X115403740Y-113364623D01*
X115416435Y-113365888D01*
X115503407Y-113396002D01*
X115581647Y-113443000D01*
X115649008Y-113504543D01*
X115703346Y-113578293D01*
X115742515Y-113661910D01*
X115763036Y-113743739D01*
X115767533Y-113837111D01*
X115753125Y-113928036D01*
X115721223Y-114013875D01*
X115673242Y-114091993D01*
X115610594Y-114159749D01*
X115534693Y-114214508D01*
X115501506Y-114231913D01*
X115432840Y-114264440D01*
X113764060Y-114267098D01*
X112095280Y-114269757D01*
X112095280Y-115184489D01*
X115493800Y-115178063D01*
X115592797Y-115155395D01*
X115755346Y-115108206D01*
X115908280Y-115043666D01*
X116050555Y-114962599D01*
X116181127Y-114865826D01*
X116298953Y-114754169D01*
X116402990Y-114628452D01*
X116492193Y-114489496D01*
X116530163Y-114416840D01*
X116581267Y-114300413D01*
X116618830Y-114187233D01*
X116644339Y-114071190D01*
X116659280Y-113946174D01*
X116663651Y-113868200D01*
X116661516Y-113701690D01*
X116642053Y-113544814D01*
X116604663Y-113395685D01*
X116548745Y-113252417D01*
X116473700Y-113113123D01*
X116380478Y-112977943D01*
X116321287Y-112900487D01*
X116393006Y-112805223D01*
X116479102Y-112674774D01*
X116551441Y-112531225D01*
X116608686Y-112377559D01*
X116643197Y-112247145D01*
X116652658Y-112187720D01*
X116659102Y-112113754D01*
X116662523Y-112030801D01*
X116662916Y-111944417D01*
X116660276Y-111860155D01*
X116654599Y-111783570D01*
X116645880Y-111720218D01*
X116643680Y-111709200D01*
X116598803Y-111545817D01*
X116536436Y-111391545D01*
X116457446Y-111247517D01*
X116362703Y-111114866D01*
X116253075Y-110994725D01*
X116129430Y-110888229D01*
X115992636Y-110796510D01*
X115910205Y-110751821D01*
X115765921Y-110689939D01*
X115611695Y-110642826D01*
X115579907Y-110635299D01*
X115568878Y-110633093D01*
X115555623Y-110631076D01*
X115539206Y-110629238D01*
X115518688Y-110627568D01*
X115493132Y-110626056D01*
X115461602Y-110624690D01*
X115423158Y-110623460D01*
X115376864Y-110622355D01*
X115321782Y-110621364D01*
X115256975Y-110620477D01*
X115181505Y-110619681D01*
X115094435Y-110618968D01*
X114994827Y-110618326D01*
X114881743Y-110617743D01*
X114754247Y-110617210D01*
X114611400Y-110616716D01*
X114452265Y-110616249D01*
X114275905Y-110615799D01*
X114081381Y-110615354D01*
X113867758Y-110614906D01*
X113799620Y-110614768D01*
X112095280Y-110611352D01*
X112095280Y-111526320D01*
X106852720Y-111526320D01*
X106852720Y-110794232D01*
X105148380Y-110797502D01*
X104927795Y-110797905D01*
X104726554Y-110798252D01*
X104543680Y-110798578D01*
X104378196Y-110798916D01*
X104229128Y-110799303D01*
X104095497Y-110799771D01*
X103976328Y-110800356D01*
X103870645Y-110801093D01*
X103777471Y-110802015D01*
X103695830Y-110803157D01*
X103624745Y-110804555D01*
X103563240Y-110806242D01*
X103510340Y-110808253D01*
X103465066Y-110810622D01*
X103426444Y-110813384D01*
X103393497Y-110816575D01*
X103365249Y-110820227D01*
X103340722Y-110824376D01*
X103318942Y-110829056D01*
X103298931Y-110834302D01*
X103279713Y-110840148D01*
X103260312Y-110846629D01*
X103239752Y-110853780D01*
X103217056Y-110861635D01*
X103203131Y-110866326D01*
X103053101Y-110926684D01*
X102912730Y-111004140D01*
X102783250Y-111097301D01*
X102665895Y-111204774D01*
X102561898Y-111325167D01*
X102472492Y-111457087D01*
X102398911Y-111599141D01*
X102342386Y-111749935D01*
X102310575Y-111874465D01*
X102287201Y-112035024D01*
X102282016Y-112196089D01*
X101539040Y-112196089D01*
X101539040Y-109423563D01*
X102301040Y-109423563D01*
X102301040Y-109873808D01*
X102301195Y-109967571D01*
X102301639Y-110055038D01*
X102302339Y-110134121D01*
X102303264Y-110202736D01*
X102304380Y-110258794D01*
X102305655Y-110300210D01*
X102307058Y-110324897D01*
X102308130Y-110331144D01*
X102318901Y-110331902D01*
X102348920Y-110332599D01*
X102397116Y-110333232D01*
X102462418Y-110333797D01*
X102543755Y-110334293D01*
X102640055Y-110334717D01*
X102750247Y-110335067D01*
X102873259Y-110335341D01*
X103008021Y-110335535D01*
X103153461Y-110335647D01*
X103308508Y-110335676D01*
X103472090Y-110335617D01*
X103643136Y-110335470D01*
X103820575Y-110335231D01*
X103971830Y-110334962D01*
X104186567Y-110334535D01*
X104381956Y-110334134D01*
X104558967Y-110333744D01*
X104718572Y-110333351D01*
X104861742Y-110332942D01*
X104989450Y-110332503D01*
X105102665Y-110332019D01*
X105202360Y-110331478D01*
X105289505Y-110330865D01*
X105365073Y-110330166D01*
X105430034Y-110329368D01*
X105485360Y-110328456D01*
X105532022Y-110327417D01*
X105570991Y-110326237D01*
X105603239Y-110324902D01*
X105629738Y-110323398D01*
X105651457Y-110321712D01*
X105669370Y-110319829D01*
X105684447Y-110317736D01*
X105697659Y-110315418D01*
X105709978Y-110312862D01*
X105722376Y-110310055D01*
X105722696Y-110309981D01*
X105872788Y-110268608D01*
X106008481Y-110216166D01*
X106133580Y-110150614D01*
X106251891Y-110069908D01*
X106367221Y-109972008D01*
X106386439Y-109953858D01*
X106500193Y-109831112D01*
X106597220Y-109696975D01*
X106677154Y-109552110D01*
X106739629Y-109397177D01*
X106783226Y-109237781D01*
X106795448Y-109161977D01*
X106803287Y-109073107D01*
X106806680Y-108977611D01*
X106805566Y-108881932D01*
X106799883Y-108792512D01*
X106789568Y-108715794D01*
X106788316Y-108709257D01*
X106746897Y-108548891D01*
X106687898Y-108395359D01*
X106653190Y-108328709D01*
X107147358Y-108328709D01*
X107147358Y-108540056D01*
X107147360Y-108680283D01*
X107147360Y-110368080D01*
X108051600Y-110368080D01*
X108051600Y-108692585D01*
X108051607Y-108476077D01*
X108051638Y-108278944D01*
X108051700Y-108100243D01*
X108051806Y-107939027D01*
X108051964Y-107794354D01*
X108052185Y-107665278D01*
X108052478Y-107550855D01*
X108052855Y-107450140D01*
X108053324Y-107362188D01*
X108053897Y-107286056D01*
X108054583Y-107220798D01*
X108055392Y-107165470D01*
X108056334Y-107119128D01*
X108057420Y-107080827D01*
X108058659Y-107049622D01*
X108060062Y-107024570D01*
X108061639Y-107004724D01*
X108063399Y-106989141D01*
X108065353Y-106976877D01*
X108067511Y-106966986D01*
X108069883Y-106958525D01*
X108070119Y-106957765D01*
X108102634Y-106879754D01*
X108150128Y-106809409D01*
X108196725Y-106759460D01*
X108268410Y-106704036D01*
X108347931Y-106665922D01*
X108432513Y-106645101D01*
X108519378Y-106641558D01*
X108605750Y-106655274D01*
X108688851Y-106686234D01*
X108765905Y-106734419D01*
X108799363Y-106763127D01*
X108853955Y-106822067D01*
X108893641Y-106883592D01*
X108923202Y-106955317D01*
X108926538Y-106965748D01*
X108929013Y-106974266D01*
X108931265Y-106983810D01*
X108933305Y-106995330D01*
X108935143Y-107009773D01*
X108936789Y-107028089D01*
X108938255Y-107051225D01*
X108939551Y-107080130D01*
X108940687Y-107115753D01*
X108941673Y-107159042D01*
X108942521Y-107210946D01*
X108943240Y-107272413D01*
X108943842Y-107344391D01*
X108944336Y-107427830D01*
X108944733Y-107523676D01*
X108945043Y-107632880D01*
X108945278Y-107756389D01*
X108945447Y-107895153D01*
X108945561Y-108050118D01*
X108945631Y-108222234D01*
X108945667Y-108412450D01*
X108945679Y-108621714D01*
X108945680Y-108697665D01*
X108945680Y-110368080D01*
X109849628Y-110368080D01*
X109855000Y-106979720D01*
X109887664Y-106910757D01*
X109937010Y-106828393D01*
X109999529Y-106759383D01*
X110072862Y-106705025D01*
X110154649Y-106666616D01*
X110242530Y-106645454D01*
X110334145Y-106642836D01*
X110367991Y-106646745D01*
X110448843Y-106666364D01*
X110519867Y-106699916D01*
X110586207Y-106750072D01*
X110609024Y-106771795D01*
X110670202Y-106843994D01*
X110715256Y-106921140D01*
X110742186Y-106999777D01*
X110742895Y-107003080D01*
X110744521Y-107018201D01*
X110746009Y-107047652D01*
X110747362Y-107091889D01*
X110748581Y-107151369D01*
X110749672Y-107226550D01*
X110750636Y-107317888D01*
X110751477Y-107425840D01*
X110752197Y-107550863D01*
X110752800Y-107693414D01*
X110753288Y-107853949D01*
X110753666Y-108032927D01*
X110753934Y-108230803D01*
X110754098Y-108448034D01*
X110754159Y-108685078D01*
X110754160Y-108712500D01*
X110754160Y-110368080D01*
X111648240Y-110368080D01*
X111648240Y-108662530D01*
X111648222Y-108440814D01*
X111648163Y-108238492D01*
X111648055Y-108054638D01*
X111647890Y-107888326D01*
X111647660Y-107738631D01*
X111647357Y-107604626D01*
X111646973Y-107485386D01*
X111646500Y-107379985D01*
X111645931Y-107287497D01*
X111645256Y-107206996D01*
X111644468Y-107137556D01*
X111643560Y-107078252D01*
X111642522Y-107028157D01*
X111641348Y-106986346D01*
X111640028Y-106951892D01*
X111638556Y-106923871D01*
X111636923Y-106901355D01*
X111635121Y-106883419D01*
X111633143Y-106869138D01*
X111632744Y-106866750D01*
X111595022Y-106704169D01*
X111539855Y-106550477D01*
X111468373Y-106406690D01*
X111381702Y-106273827D01*
X111280970Y-106152907D01*
X111167306Y-106044947D01*
X111041836Y-105950965D01*
X110905689Y-105871980D01*
X110759992Y-105809010D01*
X110605874Y-105763073D01*
X110444460Y-105735187D01*
X110372463Y-105728961D01*
X110217077Y-105729372D01*
X110062210Y-105748831D01*
X109910462Y-105786491D01*
X109764432Y-105841503D01*
X109626721Y-105913021D01*
X109499928Y-106000196D01*
X109472383Y-106022540D01*
X109402092Y-106081360D01*
X109321595Y-106016954D01*
X109190197Y-105924467D01*
X109050099Y-105849466D01*
X108903122Y-105792144D01*
X108751087Y-105752696D01*
X108595815Y-105731314D01*
X108439127Y-105728193D01*
X108282844Y-105743525D01*
X108128786Y-105777505D01*
X107978775Y-105830326D01*
X107901610Y-105865987D01*
X107821491Y-105910071D01*
X107738586Y-105962333D01*
X107660522Y-106017706D01*
X107601251Y-106065541D01*
X107508856Y-106157058D01*
X107421976Y-106264046D01*
X107343582Y-106381816D01*
X107276645Y-106505678D01*
X107224133Y-106630945D01*
X107204377Y-106692080D01*
X107197264Y-106716582D01*
X107190769Y-106739328D01*
X107184862Y-106761295D01*
X107179517Y-106783458D01*
X107174705Y-106806794D01*
X107170399Y-106832278D01*
X107166569Y-106860888D01*
X107163189Y-106893598D01*
X107160230Y-106931385D01*
X107157664Y-106975225D01*
X107155463Y-107026093D01*
X107153600Y-107084967D01*
X107152046Y-107152822D01*
X107150773Y-107230634D01*
X107149754Y-107319379D01*
X107148960Y-107420033D01*
X107148363Y-107533572D01*
X107147935Y-107660973D01*
X107147649Y-107803211D01*
X107147476Y-107961262D01*
X107147389Y-108136102D01*
X107147358Y-108328709D01*
X106653190Y-108328709D01*
X106612485Y-108250545D01*
X106521825Y-108116335D01*
X106417083Y-107994613D01*
X106299423Y-107887263D01*
X106262172Y-107858434D01*
X106152420Y-107786476D01*
X106027295Y-107721691D01*
X105891068Y-107666050D01*
X105750360Y-107622147D01*
X105736810Y-107618654D01*
X105723166Y-107615550D01*
X105708177Y-107612805D01*
X105690590Y-107610389D01*
X105669155Y-107608270D01*
X105642620Y-107606419D01*
X105609734Y-107604806D01*
X105569245Y-107603399D01*
X105519901Y-107602168D01*
X105460452Y-107601084D01*
X105389645Y-107600115D01*
X105306229Y-107599232D01*
X105208953Y-107598403D01*
X105096565Y-107597599D01*
X104967814Y-107596788D01*
X104821449Y-107595942D01*
X104656217Y-107595028D01*
X104627680Y-107594872D01*
X103586280Y-107589190D01*
X103525320Y-107564898D01*
X103435655Y-107519332D01*
X103360649Y-107460586D01*
X103301233Y-107390006D01*
X103258344Y-107308940D01*
X103232914Y-107218735D01*
X103225720Y-107132815D01*
X103234630Y-107035188D01*
X103261253Y-106947290D01*
X103305950Y-106868282D01*
X103369081Y-106797321D01*
X103369448Y-106796981D01*
X103443799Y-106739738D01*
X103522651Y-106700981D01*
X103598516Y-106682334D01*
X103616826Y-106681325D01*
X103653994Y-106680488D01*
X103708554Y-106679822D01*
X103779044Y-106679330D01*
X103864002Y-106679013D01*
X103961964Y-106678872D01*
X104071466Y-106678908D01*
X104191047Y-106679122D01*
X104319242Y-106679517D01*
X104454590Y-106680093D01*
X104595626Y-106680852D01*
X104678480Y-106681370D01*
X104836064Y-106682376D01*
X104998561Y-106683359D01*
X105163429Y-106684307D01*
X105328122Y-106685208D01*
X105490098Y-106686048D01*
X105646814Y-106686816D01*
X105795725Y-106687499D01*
X105934287Y-106688084D01*
X106059959Y-106688559D01*
X106170195Y-106688912D01*
X106255820Y-106689117D01*
X106812080Y-106690160D01*
X106812080Y-105788292D01*
X106433620Y-105782119D01*
X106360977Y-105781057D01*
X106269868Y-105779928D01*
X106162145Y-105778744D01*
X106039660Y-105777520D01*
X105904268Y-105776269D01*
X105757820Y-105775004D01*
X105602170Y-105773738D01*
X105439171Y-105772486D01*
X105270676Y-105771259D01*
X105098537Y-105770073D01*
X104924607Y-105768939D01*
X104750740Y-105767872D01*
X104578788Y-105766884D01*
X104410605Y-105765989D01*
X104248043Y-105765201D01*
X104092955Y-105764533D01*
X103947194Y-105763998D01*
X103901240Y-105763852D01*
X103798331Y-105763679D01*
X103713320Y-105763900D01*
X103643786Y-105764597D01*
X103587307Y-105765854D01*
X103541465Y-105767754D01*
X103503838Y-105770380D01*
X103472006Y-105773814D01*
X103443549Y-105778140D01*
X103433924Y-105779882D01*
X103278011Y-105819341D01*
X103128683Y-105877299D01*
X102987435Y-105952585D01*
X102855762Y-106044025D01*
X102735157Y-106150447D01*
X102627116Y-106270680D01*
X102533132Y-106403550D01*
X102454701Y-106547885D01*
X102454578Y-106548148D01*
X102403448Y-106669462D01*
X102366546Y-106786852D01*
X102342594Y-106906215D01*
X102330313Y-107033451D01*
X102327978Y-107132120D01*
X102333208Y-107269972D01*
X102349356Y-107395849D01*
X102377735Y-107515683D01*
X102419655Y-107635405D01*
X102459244Y-107725465D01*
X102538530Y-107870023D01*
X102633507Y-108002733D01*
X102742760Y-108122494D01*
X102864875Y-108228205D01*
X102998439Y-108318764D01*
X103142037Y-108393068D01*
X103294256Y-108450017D01*
X103433924Y-108484844D01*
X103450591Y-108487768D01*
X103469449Y-108490379D01*
X103491764Y-108492703D01*
X103518800Y-108494767D01*
X103551824Y-108496597D01*
X103592100Y-108498219D01*
X103640894Y-108499661D01*
X103699471Y-108500948D01*
X103769097Y-108502108D01*
X103851036Y-108503166D01*
X103946554Y-108504150D01*
X104056917Y-108505085D01*
X104183389Y-108505999D01*
X104327236Y-108506918D01*
X104489724Y-108507869D01*
X104547184Y-108508191D01*
X105569049Y-108513880D01*
X105656401Y-108557173D01*
X105733823Y-108603508D01*
X105795407Y-108659028D01*
X105843462Y-108726546D01*
X105880297Y-108808871D01*
X105891466Y-108843384D01*
X105906898Y-108929602D01*
X105904264Y-109018085D01*
X105884836Y-109105227D01*
X105849886Y-109187424D01*
X105800685Y-109261069D01*
X105738505Y-109322558D01*
X105716777Y-109338598D01*
X105702425Y-109348843D01*
X105690056Y-109358173D01*
X105678709Y-109366630D01*
X105667424Y-109374259D01*
X105655242Y-109381104D01*
X105641203Y-109387209D01*
X105624347Y-109392618D01*
X105603714Y-109397376D01*
X105578344Y-109401525D01*
X105547277Y-109405110D01*
X105509554Y-109408175D01*
X105464215Y-109410765D01*
X105410299Y-109412923D01*
X105346848Y-109414693D01*
X105272901Y-109416119D01*
X105187498Y-109417246D01*
X105089679Y-109418117D01*
X104978485Y-109418776D01*
X104852957Y-109419268D01*
X104712133Y-109419636D01*
X104555054Y-109419925D01*
X104380760Y-109420178D01*
X104188292Y-109420440D01*
X103976690Y-109420755D01*
X103924100Y-109420841D01*
X102301040Y-109423563D01*
X101539040Y-109423563D01*
X101539040Y-105694480D01*
X112125131Y-105694480D01*
X112128631Y-107378500D01*
X112129098Y-107596936D01*
X112129558Y-107795999D01*
X112130021Y-107976634D01*
X112130498Y-108139788D01*
X112131001Y-108286407D01*
X112131540Y-108417438D01*
X112132126Y-108533826D01*
X112132770Y-108636517D01*
X112133484Y-108726459D01*
X112134278Y-108804598D01*
X112135163Y-108871879D01*
X112136150Y-108929248D01*
X112137250Y-108977653D01*
X112138474Y-109018039D01*
X112139834Y-109051353D01*
X112141339Y-109078541D01*
X112143002Y-109100549D01*
X112144832Y-109118324D01*
X112146841Y-109132811D01*
X112149041Y-109144957D01*
X112149127Y-109145377D01*
X112193217Y-109313251D01*
X112254422Y-109471436D01*
X112332219Y-109618908D01*
X112426086Y-109754645D01*
X112509316Y-109850869D01*
X112629705Y-109963465D01*
X112760728Y-110059952D01*
X112900691Y-110139365D01*
X113047898Y-110200737D01*
X113195350Y-110241976D01*
X113282606Y-110256138D01*
X113381531Y-110264579D01*
X113485858Y-110267303D01*
X113589319Y-110264314D01*
X113685646Y-110255615D01*
X113766600Y-110241665D01*
X113924822Y-110195318D01*
X114073883Y-110131500D01*
X114212729Y-110051374D01*
X114340303Y-109956102D01*
X114455550Y-109846847D01*
X114557415Y-109724771D01*
X114644842Y-109591038D01*
X114716777Y-109446809D01*
X114772163Y-109293247D01*
X114809946Y-109131515D01*
X114817329Y-109084189D01*
X114819503Y-109057581D01*
X114821441Y-109010801D01*
X114823143Y-108943994D01*
X114824606Y-108857307D01*
X114825828Y-108750886D01*
X114826810Y-108624876D01*
X114827548Y-108479425D01*
X114828041Y-108314677D01*
X114828289Y-108130780D01*
X114828320Y-108031931D01*
X114828432Y-107853590D01*
X114828764Y-107690552D01*
X114829311Y-107543375D01*
X114830068Y-107412615D01*
X114831028Y-107298831D01*
X114832186Y-107202578D01*
X114833536Y-107124415D01*
X114835074Y-107064899D01*
X114836792Y-107024586D01*
X114838685Y-107004034D01*
X114838690Y-107004010D01*
X114863503Y-106921771D01*
X114904484Y-106843282D01*
X114958509Y-106772715D01*
X115022457Y-106714244D01*
X115083850Y-106676404D01*
X115171199Y-106644595D01*
X115260334Y-106631767D01*
X115348816Y-106637026D01*
X115434207Y-106659476D01*
X115514067Y-106698223D01*
X115585959Y-106752371D01*
X115647443Y-106821026D01*
X115694815Y-106900597D01*
X115727480Y-106969560D01*
X115727480Y-107716320D01*
X115727426Y-107850287D01*
X115727271Y-108001005D01*
X115727024Y-108164907D01*
X115726693Y-108338424D01*
X115726287Y-108517988D01*
X115725814Y-108700030D01*
X115725283Y-108880982D01*
X115724703Y-109057277D01*
X115724082Y-109225345D01*
X115723492Y-109367320D01*
X115719504Y-110271560D01*
X116166757Y-110274204D01*
X116614009Y-110276849D01*
X116620562Y-109380124D01*
X116621673Y-109221785D01*
X116622788Y-109050950D01*
X116623888Y-108871346D01*
X116624952Y-108686696D01*
X116625961Y-108500728D01*
X116626895Y-108317166D01*
X116627734Y-108139735D01*
X116628459Y-107972161D01*
X116629051Y-107818169D01*
X116629418Y-107706160D01*
X116629820Y-107560784D01*
X116630089Y-107434223D01*
X116630197Y-107324972D01*
X116630114Y-107231526D01*
X116629814Y-107152381D01*
X116629269Y-107086031D01*
X116628449Y-107030971D01*
X116627327Y-106985697D01*
X116625875Y-106948704D01*
X116624065Y-106918487D01*
X116621868Y-106893540D01*
X116619257Y-106872360D01*
X116616203Y-106853442D01*
X116613205Y-106837848D01*
X116571857Y-106675829D01*
X116515880Y-106526822D01*
X116444155Y-106388662D01*
X116355560Y-106259180D01*
X116252141Y-106139506D01*
X116142164Y-106034710D01*
X116028512Y-105947283D01*
X115906816Y-105874288D01*
X115772712Y-105812786D01*
X115757960Y-105806964D01*
X115661357Y-105772532D01*
X115571507Y-105748009D01*
X115481562Y-105732141D01*
X115384675Y-105723672D01*
X115290600Y-105721352D01*
X115164721Y-105725032D01*
X115051455Y-105737801D01*
X114944632Y-105760989D01*
X114838081Y-105795929D01*
X114728031Y-105842833D01*
X114586774Y-105919576D01*
X114455149Y-106012681D01*
X114334778Y-106120281D01*
X114227281Y-106240510D01*
X114134281Y-106371504D01*
X114057399Y-106511396D01*
X113998257Y-106658320D01*
X113986342Y-106696236D01*
X113977945Y-106724804D01*
X113970502Y-106751430D01*
X113963955Y-106777467D01*
X113958248Y-106804266D01*
X113953321Y-106833180D01*
X113949118Y-106865560D01*
X113945580Y-106902757D01*
X113942649Y-106946126D01*
X113940268Y-106997016D01*
X113938378Y-107056780D01*
X113936922Y-107126770D01*
X113935842Y-107208338D01*
X113935081Y-107302835D01*
X113934579Y-107411615D01*
X113934280Y-107536028D01*
X113934125Y-107677426D01*
X113934057Y-107837163D01*
X113934038Y-107918310D01*
X113933898Y-108079240D01*
X113933554Y-108230285D01*
X113933017Y-108370350D01*
X113932296Y-108498341D01*
X113931404Y-108613164D01*
X113930350Y-108713727D01*
X113929146Y-108798934D01*
X113927802Y-108867691D01*
X113926328Y-108918906D01*
X113924736Y-108951484D01*
X113923834Y-108960920D01*
X113901262Y-109050665D01*
X113860823Y-109134767D01*
X113804817Y-109210078D01*
X113735542Y-109273451D01*
X113662943Y-109318076D01*
X113636803Y-109330257D01*
X113613831Y-109338441D01*
X113588954Y-109343416D01*
X113557101Y-109345972D01*
X113513200Y-109346898D01*
X113477040Y-109347000D01*
X113422963Y-109346699D01*
X113384123Y-109345268D01*
X113355438Y-109341913D01*
X113331826Y-109335839D01*
X113308207Y-109326253D01*
X113290661Y-109317868D01*
X113219232Y-109272613D01*
X113154069Y-109211567D01*
X113099428Y-109139164D01*
X113073182Y-109091519D01*
X113035080Y-109011720D01*
X113029702Y-105694480D01*
X112125131Y-105694480D01*
X101539040Y-105694480D01*
X101539040Y-104932480D01*
X117419120Y-104932480D01*
X117419120Y-121046240D01*
D13*
%TO.C,A1*%
X97920000Y-128146000D02*
X97920000Y-110106000D01*
X54480000Y-128146000D02*
X97920000Y-128146000D01*
X54480000Y-110106000D02*
X54480000Y-128146000D01*
X57150000Y-112776000D02*
X57150000Y-110106000D01*
X92710000Y-112776000D02*
X57150000Y-112776000D01*
X92710000Y-112776000D02*
X92710000Y-110106000D01*
X57150000Y-125476000D02*
X57150000Y-128146000D01*
X95250000Y-125476000D02*
X57150000Y-125476000D01*
X95250000Y-125476000D02*
X95250000Y-128146000D01*
X97920000Y-110106000D02*
X95250000Y-110106000D01*
X92710000Y-110106000D02*
X54480000Y-110106000D01*
X95250000Y-112776000D02*
X95250000Y-110106000D01*
X92710000Y-112776000D02*
X95250000Y-112776000D01*
%TO.C,J1*%
X56134000Y-102362000D02*
X56134000Y-87122000D01*
X48514000Y-102362000D02*
X48514000Y-87122000D01*
X54864000Y-102362000D02*
X54864000Y-87122000D01*
X56134000Y-87122000D02*
X48514000Y-87122000D01*
X56134000Y-102362000D02*
X48514000Y-102362000D01*
%TO.C,J2*%
X85460000Y-60810000D02*
X95620000Y-60810000D01*
X85460000Y-53190000D02*
X85460000Y-60810000D01*
X95620000Y-53190000D02*
X85460000Y-53190000D01*
X95620000Y-60810000D02*
X95620000Y-53190000D01*
X95620000Y-59540000D02*
X85460000Y-59540000D01*
%TO.C,U1*%
X53730000Y-53476000D02*
X53730000Y-53476000D01*
X53730000Y-64144000D02*
X53730000Y-53476000D01*
X53400000Y-52900000D02*
X53400000Y-52900000D01*
X53400000Y-68350000D02*
X53400000Y-52900000D01*
X82600000Y-68350000D02*
X53400000Y-68350000D01*
X82600000Y-52900000D02*
X82600000Y-68350000D01*
X53400000Y-52900000D02*
X82600000Y-52900000D01*
X53984000Y-56270000D02*
X53984000Y-56270000D01*
X56270000Y-56270000D02*
X53984000Y-56270000D01*
X56270000Y-53984000D02*
X56270000Y-56270000D01*
X53730000Y-64144000D02*
X53730000Y-64144000D01*
X59064000Y-64144000D02*
X53730000Y-64144000D01*
X59064000Y-53476000D02*
X59064000Y-64144000D01*
X53730000Y-53476000D02*
X59064000Y-53476000D01*
%TO.C,C1*%
X47444199Y-58295000D02*
X47444199Y-58695000D01*
X47244199Y-58495000D02*
X47644199Y-58495000D01*
X51595000Y-59320000D02*
X51595000Y-60060000D01*
X51555000Y-59153000D02*
X51555000Y-60227000D01*
X51515000Y-59026000D02*
X51515000Y-60354000D01*
X51475000Y-58922000D02*
X51475000Y-60458000D01*
X51435000Y-58831000D02*
X51435000Y-60549000D01*
X51395000Y-58750000D02*
X51395000Y-60630000D01*
X51355000Y-58677000D02*
X51355000Y-60703000D01*
X51315000Y-60530000D02*
X51315000Y-60770000D01*
X51315000Y-58610000D02*
X51315000Y-58850000D01*
X51275000Y-60530000D02*
X51275000Y-60832000D01*
X51275000Y-58548000D02*
X51275000Y-58850000D01*
X51235000Y-60530000D02*
X51235000Y-60890000D01*
X51235000Y-58490000D02*
X51235000Y-58850000D01*
X51195000Y-60530000D02*
X51195000Y-60944000D01*
X51195000Y-58436000D02*
X51195000Y-58850000D01*
X51155000Y-60530000D02*
X51155000Y-60994000D01*
X51155000Y-58386000D02*
X51155000Y-58850000D01*
X51115000Y-60530000D02*
X51115000Y-61041000D01*
X51115000Y-58339000D02*
X51115000Y-58850000D01*
X51075000Y-60530000D02*
X51075000Y-61086000D01*
X51075000Y-58294000D02*
X51075000Y-58850000D01*
X51035000Y-60530000D02*
X51035000Y-61128000D01*
X51035000Y-58252000D02*
X51035000Y-58850000D01*
X50995000Y-60530000D02*
X50995000Y-61168000D01*
X50995000Y-58212000D02*
X50995000Y-58850000D01*
X50955000Y-60530000D02*
X50955000Y-61206000D01*
X50955000Y-58174000D02*
X50955000Y-58850000D01*
X50915000Y-60530000D02*
X50915000Y-61242000D01*
X50915000Y-58138000D02*
X50915000Y-58850000D01*
X50875000Y-60530000D02*
X50875000Y-61277000D01*
X50875000Y-58103000D02*
X50875000Y-58850000D01*
X50835000Y-60530000D02*
X50835000Y-61309000D01*
X50835000Y-58071000D02*
X50835000Y-58850000D01*
X50795000Y-60530000D02*
X50795000Y-61340000D01*
X50795000Y-58040000D02*
X50795000Y-58850000D01*
X50755000Y-60530000D02*
X50755000Y-61370000D01*
X50755000Y-58010000D02*
X50755000Y-58850000D01*
X50715000Y-60530000D02*
X50715000Y-61398000D01*
X50715000Y-57982000D02*
X50715000Y-58850000D01*
X50675000Y-60530000D02*
X50675000Y-61425000D01*
X50675000Y-57955000D02*
X50675000Y-58850000D01*
X50635000Y-60530000D02*
X50635000Y-61450000D01*
X50635000Y-57930000D02*
X50635000Y-58850000D01*
X50595000Y-60530000D02*
X50595000Y-61475000D01*
X50595000Y-57905000D02*
X50595000Y-58850000D01*
X50555000Y-60530000D02*
X50555000Y-61498000D01*
X50555000Y-57882000D02*
X50555000Y-58850000D01*
X50515000Y-60530000D02*
X50515000Y-61520000D01*
X50515000Y-57860000D02*
X50515000Y-58850000D01*
X50475000Y-60530000D02*
X50475000Y-61541000D01*
X50475000Y-57839000D02*
X50475000Y-58850000D01*
X50435000Y-60530000D02*
X50435000Y-61560000D01*
X50435000Y-57820000D02*
X50435000Y-58850000D01*
X50395000Y-60530000D02*
X50395000Y-61579000D01*
X50395000Y-57801000D02*
X50395000Y-58850000D01*
X50355000Y-60530000D02*
X50355000Y-61597000D01*
X50355000Y-57783000D02*
X50355000Y-58850000D01*
X50315000Y-60530000D02*
X50315000Y-61614000D01*
X50315000Y-57766000D02*
X50315000Y-58850000D01*
X50275000Y-60530000D02*
X50275000Y-61630000D01*
X50275000Y-57750000D02*
X50275000Y-58850000D01*
X50235000Y-60530000D02*
X50235000Y-61644000D01*
X50235000Y-57736000D02*
X50235000Y-58850000D01*
X50194000Y-60530000D02*
X50194000Y-61658000D01*
X50194000Y-57722000D02*
X50194000Y-58850000D01*
X50154000Y-60530000D02*
X50154000Y-61672000D01*
X50154000Y-57708000D02*
X50154000Y-58850000D01*
X50114000Y-60530000D02*
X50114000Y-61684000D01*
X50114000Y-57696000D02*
X50114000Y-58850000D01*
X50074000Y-60530000D02*
X50074000Y-61695000D01*
X50074000Y-57685000D02*
X50074000Y-58850000D01*
X50034000Y-60530000D02*
X50034000Y-61706000D01*
X50034000Y-57674000D02*
X50034000Y-58850000D01*
X49994000Y-60530000D02*
X49994000Y-61715000D01*
X49994000Y-57665000D02*
X49994000Y-58850000D01*
X49954000Y-60530000D02*
X49954000Y-61724000D01*
X49954000Y-57656000D02*
X49954000Y-58850000D01*
X49914000Y-60530000D02*
X49914000Y-61732000D01*
X49914000Y-57648000D02*
X49914000Y-58850000D01*
X49874000Y-60530000D02*
X49874000Y-61740000D01*
X49874000Y-57640000D02*
X49874000Y-58850000D01*
X49834000Y-60530000D02*
X49834000Y-61746000D01*
X49834000Y-57634000D02*
X49834000Y-58850000D01*
X49794000Y-60530000D02*
X49794000Y-61752000D01*
X49794000Y-57628000D02*
X49794000Y-58850000D01*
X49754000Y-60530000D02*
X49754000Y-61757000D01*
X49754000Y-57623000D02*
X49754000Y-58850000D01*
X49714000Y-60530000D02*
X49714000Y-61761000D01*
X49714000Y-57619000D02*
X49714000Y-58850000D01*
X49674000Y-57616000D02*
X49674000Y-61764000D01*
X49634000Y-57613000D02*
X49634000Y-61767000D01*
X49594000Y-57611000D02*
X49594000Y-61769000D01*
X49554000Y-57610000D02*
X49554000Y-61770000D01*
X49514000Y-57610000D02*
X49514000Y-61770000D01*
X51634000Y-59690000D02*
G75*
G03*
X51634000Y-59690000I-2120000J0D01*
G01*
%TO.C,A1*%
D11*
X99226666Y-119840285D02*
X99226666Y-119364095D01*
X99512380Y-119935523D02*
X98512380Y-119602190D01*
X99512380Y-119268857D01*
X99512380Y-118411714D02*
X99512380Y-118983142D01*
X99512380Y-118697428D02*
X98512380Y-118697428D01*
X98655238Y-118792666D01*
X98750476Y-118887904D01*
X98798095Y-118983142D01*
%TO.C,J1*%
X47126380Y-95105333D02*
X47840666Y-95105333D01*
X47983523Y-95152952D01*
X48078761Y-95248190D01*
X48126380Y-95391047D01*
X48126380Y-95486285D01*
X48126380Y-94105333D02*
X48126380Y-94676761D01*
X48126380Y-94391047D02*
X47126380Y-94391047D01*
X47269238Y-94486285D01*
X47364476Y-94581523D01*
X47412095Y-94676761D01*
%TO.C,J2*%
X90206666Y-51372380D02*
X90206666Y-52086666D01*
X90159047Y-52229523D01*
X90063809Y-52324761D01*
X89920952Y-52372380D01*
X89825714Y-52372380D01*
X90635238Y-51467619D02*
X90682857Y-51420000D01*
X90778095Y-51372380D01*
X91016190Y-51372380D01*
X91111428Y-51420000D01*
X91159047Y-51467619D01*
X91206666Y-51562857D01*
X91206666Y-51658095D01*
X91159047Y-51800952D01*
X90587619Y-52372380D01*
X91206666Y-52372380D01*
%TO.C,U1*%
X80264095Y-53808380D02*
X80264095Y-54617904D01*
X80311714Y-54713142D01*
X80359333Y-54760761D01*
X80454571Y-54808380D01*
X80645047Y-54808380D01*
X80740285Y-54760761D01*
X80787904Y-54713142D01*
X80835523Y-54617904D01*
X80835523Y-53808380D01*
X81835523Y-54808380D02*
X81264095Y-54808380D01*
X81549809Y-54808380D02*
X81549809Y-53808380D01*
X81454571Y-53951238D01*
X81359333Y-54046476D01*
X81264095Y-54094095D01*
%TO.C,C1*%
X49347333Y-56797142D02*
X49299714Y-56844761D01*
X49156857Y-56892380D01*
X49061619Y-56892380D01*
X48918761Y-56844761D01*
X48823523Y-56749523D01*
X48775904Y-56654285D01*
X48728285Y-56463809D01*
X48728285Y-56320952D01*
X48775904Y-56130476D01*
X48823523Y-56035238D01*
X48918761Y-55940000D01*
X49061619Y-55892380D01*
X49156857Y-55892380D01*
X49299714Y-55940000D01*
X49347333Y-55987619D01*
X50299714Y-56892380D02*
X49728285Y-56892380D01*
X50014000Y-56892380D02*
X50014000Y-55892380D01*
X49918761Y-56035238D01*
X49823523Y-56130476D01*
X49728285Y-56178095D01*
%TD*%
M02*
