%TF.GenerationSoftware,KiCad,Pcbnew,(5.1.10)-1*%
%TF.CreationDate,2021-11-09T21:09:32+01:00*%
%TF.ProjectId,BuzzerHost,42757a7a-6572-4486-9f73-742e6b696361,1.0*%
%TF.SameCoordinates,Original*%
%TF.FileFunction,Legend,Bot*%
%TF.FilePolarity,Positive*%
%FSLAX46Y46*%
G04 Gerber Fmt 4.6, Leading zero omitted, Abs format (unit mm)*
G04 Created by KiCad (PCBNEW (5.1.10)-1) date 2021-11-09 21:09:32*
%MOMM*%
%LPD*%
G01*
G04 APERTURE LIST*
%ADD10C,0.150000*%
%ADD11C,0.120000*%
G04 APERTURE END LIST*
D10*
X59500000Y-74261904D02*
X59547619Y-74357142D01*
X59547619Y-74500000D01*
X59500000Y-74642857D01*
X59404761Y-74738095D01*
X59309523Y-74785714D01*
X59119047Y-74833333D01*
X58976190Y-74833333D01*
X58785714Y-74785714D01*
X58690476Y-74738095D01*
X58595238Y-74642857D01*
X58547619Y-74500000D01*
X58547619Y-74404761D01*
X58595238Y-74261904D01*
X58642857Y-74214285D01*
X58976190Y-74214285D01*
X58976190Y-74404761D01*
X58547619Y-73785714D02*
X59547619Y-73785714D01*
X58547619Y-73214285D01*
X59547619Y-73214285D01*
X58547619Y-72738095D02*
X59547619Y-72738095D01*
X59547619Y-72500000D01*
X59500000Y-72357142D01*
X59404761Y-72261904D01*
X59309523Y-72214285D01*
X59119047Y-72166666D01*
X58976190Y-72166666D01*
X58785714Y-72214285D01*
X58690476Y-72261904D01*
X58595238Y-72357142D01*
X58547619Y-72500000D01*
X58547619Y-72738095D01*
X84000000Y-74261904D02*
X84047619Y-74357142D01*
X84047619Y-74500000D01*
X84000000Y-74642857D01*
X83904761Y-74738095D01*
X83809523Y-74785714D01*
X83619047Y-74833333D01*
X83476190Y-74833333D01*
X83285714Y-74785714D01*
X83190476Y-74738095D01*
X83095238Y-74642857D01*
X83047619Y-74500000D01*
X83047619Y-74404761D01*
X83095238Y-74261904D01*
X83142857Y-74214285D01*
X83476190Y-74214285D01*
X83476190Y-74404761D01*
X83047619Y-73785714D02*
X84047619Y-73785714D01*
X83047619Y-73214285D01*
X84047619Y-73214285D01*
X83047619Y-72738095D02*
X84047619Y-72738095D01*
X84047619Y-72500000D01*
X84000000Y-72357142D01*
X83904761Y-72261904D01*
X83809523Y-72214285D01*
X83619047Y-72166666D01*
X83476190Y-72166666D01*
X83285714Y-72214285D01*
X83190476Y-72261904D01*
X83095238Y-72357142D01*
X83047619Y-72500000D01*
X83047619Y-72738095D01*
X108500000Y-74261904D02*
X108547619Y-74357142D01*
X108547619Y-74500000D01*
X108500000Y-74642857D01*
X108404761Y-74738095D01*
X108309523Y-74785714D01*
X108119047Y-74833333D01*
X107976190Y-74833333D01*
X107785714Y-74785714D01*
X107690476Y-74738095D01*
X107595238Y-74642857D01*
X107547619Y-74500000D01*
X107547619Y-74404761D01*
X107595238Y-74261904D01*
X107642857Y-74214285D01*
X107976190Y-74214285D01*
X107976190Y-74404761D01*
X107547619Y-73785714D02*
X108547619Y-73785714D01*
X107547619Y-73214285D01*
X108547619Y-73214285D01*
X107547619Y-72738095D02*
X108547619Y-72738095D01*
X108547619Y-72500000D01*
X108500000Y-72357142D01*
X108404761Y-72261904D01*
X108309523Y-72214285D01*
X108119047Y-72166666D01*
X107976190Y-72166666D01*
X107785714Y-72214285D01*
X107690476Y-72261904D01*
X107595238Y-72357142D01*
X107547619Y-72500000D01*
X107547619Y-72738095D01*
X133000000Y-74261904D02*
X133047619Y-74357142D01*
X133047619Y-74500000D01*
X133000000Y-74642857D01*
X132904761Y-74738095D01*
X132809523Y-74785714D01*
X132619047Y-74833333D01*
X132476190Y-74833333D01*
X132285714Y-74785714D01*
X132190476Y-74738095D01*
X132095238Y-74642857D01*
X132047619Y-74500000D01*
X132047619Y-74404761D01*
X132095238Y-74261904D01*
X132142857Y-74214285D01*
X132476190Y-74214285D01*
X132476190Y-74404761D01*
X132047619Y-73785714D02*
X133047619Y-73785714D01*
X132047619Y-73214285D01*
X133047619Y-73214285D01*
X132047619Y-72738095D02*
X133047619Y-72738095D01*
X133047619Y-72500000D01*
X133000000Y-72357142D01*
X132904761Y-72261904D01*
X132809523Y-72214285D01*
X132619047Y-72166666D01*
X132476190Y-72166666D01*
X132285714Y-72214285D01*
X132190476Y-72261904D01*
X132095238Y-72357142D01*
X132047619Y-72500000D01*
X132047619Y-72738095D01*
X67571428Y-74809523D02*
X67523809Y-74666666D01*
X67476190Y-74619047D01*
X67380952Y-74571428D01*
X67238095Y-74571428D01*
X67142857Y-74619047D01*
X67095238Y-74666666D01*
X67047619Y-74761904D01*
X67047619Y-75142857D01*
X68047619Y-75142857D01*
X68047619Y-74809523D01*
X68000000Y-74714285D01*
X67952380Y-74666666D01*
X67857142Y-74619047D01*
X67761904Y-74619047D01*
X67666666Y-74666666D01*
X67619047Y-74714285D01*
X67571428Y-74809523D01*
X67571428Y-75142857D01*
X67047619Y-73666666D02*
X67047619Y-74142857D01*
X68047619Y-74142857D01*
X68047619Y-73333333D02*
X67238095Y-73333333D01*
X67142857Y-73285714D01*
X67095238Y-73238095D01*
X67047619Y-73142857D01*
X67047619Y-72952380D01*
X67095238Y-72857142D01*
X67142857Y-72809523D01*
X67238095Y-72761904D01*
X68047619Y-72761904D01*
X67571428Y-72285714D02*
X67571428Y-71952380D01*
X67047619Y-71809523D02*
X67047619Y-72285714D01*
X68047619Y-72285714D01*
X68047619Y-71809523D01*
X92500000Y-75166666D02*
X92547619Y-75261904D01*
X92547619Y-75404761D01*
X92500000Y-75547619D01*
X92404761Y-75642857D01*
X92309523Y-75690476D01*
X92119047Y-75738095D01*
X91976190Y-75738095D01*
X91785714Y-75690476D01*
X91690476Y-75642857D01*
X91595238Y-75547619D01*
X91547619Y-75404761D01*
X91547619Y-75309523D01*
X91595238Y-75166666D01*
X91642857Y-75119047D01*
X91976190Y-75119047D01*
X91976190Y-75309523D01*
X91547619Y-74119047D02*
X92023809Y-74452380D01*
X91547619Y-74690476D02*
X92547619Y-74690476D01*
X92547619Y-74309523D01*
X92500000Y-74214285D01*
X92452380Y-74166666D01*
X92357142Y-74119047D01*
X92214285Y-74119047D01*
X92119047Y-74166666D01*
X92071428Y-74214285D01*
X92023809Y-74309523D01*
X92023809Y-74690476D01*
X92071428Y-73690476D02*
X92071428Y-73357142D01*
X91547619Y-73214285D02*
X91547619Y-73690476D01*
X92547619Y-73690476D01*
X92547619Y-73214285D01*
X92071428Y-72785714D02*
X92071428Y-72452380D01*
X91547619Y-72309523D02*
X91547619Y-72785714D01*
X92547619Y-72785714D01*
X92547619Y-72309523D01*
X91547619Y-71880952D02*
X92547619Y-71880952D01*
X91547619Y-71309523D01*
X92547619Y-71309523D01*
X116523809Y-75857142D02*
X116047619Y-75857142D01*
X117047619Y-76190476D02*
X116523809Y-75857142D01*
X117047619Y-75523809D01*
X116571428Y-75190476D02*
X116571428Y-74857142D01*
X116047619Y-74714285D02*
X116047619Y-75190476D01*
X117047619Y-75190476D01*
X117047619Y-74714285D01*
X116047619Y-73809523D02*
X116047619Y-74285714D01*
X117047619Y-74285714D01*
X116047619Y-73000000D02*
X116047619Y-73476190D01*
X117047619Y-73476190D01*
X117047619Y-72476190D02*
X117047619Y-72285714D01*
X117000000Y-72190476D01*
X116904761Y-72095238D01*
X116714285Y-72047619D01*
X116380952Y-72047619D01*
X116190476Y-72095238D01*
X116095238Y-72190476D01*
X116047619Y-72285714D01*
X116047619Y-72476190D01*
X116095238Y-72571428D01*
X116190476Y-72666666D01*
X116380952Y-72714285D01*
X116714285Y-72714285D01*
X116904761Y-72666666D01*
X117000000Y-72571428D01*
X117047619Y-72476190D01*
X117047619Y-71714285D02*
X116047619Y-71476190D01*
X116761904Y-71285714D01*
X116047619Y-71095238D01*
X117047619Y-70857142D01*
X140547619Y-74142857D02*
X141023809Y-74476190D01*
X140547619Y-74714285D02*
X141547619Y-74714285D01*
X141547619Y-74333333D01*
X141500000Y-74238095D01*
X141452380Y-74190476D01*
X141357142Y-74142857D01*
X141214285Y-74142857D01*
X141119047Y-74190476D01*
X141071428Y-74238095D01*
X141023809Y-74333333D01*
X141023809Y-74714285D01*
X141071428Y-73714285D02*
X141071428Y-73380952D01*
X140547619Y-73238095D02*
X140547619Y-73714285D01*
X141547619Y-73714285D01*
X141547619Y-73238095D01*
X140547619Y-72809523D02*
X141547619Y-72809523D01*
X141547619Y-72571428D01*
X141500000Y-72428571D01*
X141404761Y-72333333D01*
X141309523Y-72285714D01*
X141119047Y-72238095D01*
X140976190Y-72238095D01*
X140785714Y-72285714D01*
X140690476Y-72333333D01*
X140595238Y-72428571D01*
X140547619Y-72571428D01*
X140547619Y-72809523D01*
D11*
%TO.C,SW1*%
X137500000Y-105500000D02*
X133000000Y-105500000D01*
X138750000Y-101500000D02*
X138750000Y-103000000D01*
X133000000Y-99000000D02*
X137500000Y-99000000D01*
X131750000Y-103000000D02*
X131750000Y-101500000D01*
%TO.C,D1*%
X139270000Y-73500000D02*
G75*
G03*
X139270000Y-73500000I-2500000J0D01*
G01*
X134210000Y-75045000D02*
X134210000Y-71955000D01*
X139760000Y-73500462D02*
G75*
G03*
X134210000Y-71955170I-2990000J462D01*
G01*
X139760000Y-73499538D02*
G75*
G02*
X134210000Y-75044830I-2990000J-462D01*
G01*
%TO.C,D2*%
X109710000Y-75045000D02*
X109710000Y-71955000D01*
X114770000Y-73500000D02*
G75*
G03*
X114770000Y-73500000I-2500000J0D01*
G01*
X115260000Y-73499538D02*
G75*
G02*
X109710000Y-75044830I-2990000J-462D01*
G01*
X115260000Y-73500462D02*
G75*
G03*
X109710000Y-71955170I-2990000J462D01*
G01*
%TO.C,D3*%
X90270000Y-73500000D02*
G75*
G03*
X90270000Y-73500000I-2500000J0D01*
G01*
X85210000Y-75045000D02*
X85210000Y-71955000D01*
X90760000Y-73500462D02*
G75*
G03*
X85210000Y-71955170I-2990000J462D01*
G01*
X90760000Y-73499538D02*
G75*
G02*
X85210000Y-75044830I-2990000J-462D01*
G01*
%TO.C,D4*%
X60710000Y-75045000D02*
X60710000Y-71955000D01*
X65770000Y-73500000D02*
G75*
G03*
X65770000Y-73500000I-2500000J0D01*
G01*
X66260000Y-73499538D02*
G75*
G02*
X60710000Y-75044830I-2990000J-462D01*
G01*
X66260000Y-73500462D02*
G75*
G03*
X60710000Y-71955170I-2990000J462D01*
G01*
%TO.C,SW2*%
X110250000Y-103000000D02*
X110250000Y-101500000D01*
X111500000Y-99000000D02*
X116000000Y-99000000D01*
X117250000Y-101500000D02*
X117250000Y-103000000D01*
X116000000Y-105500000D02*
X111500000Y-105500000D01*
%TO.C,SW3*%
X88500000Y-105500000D02*
X84000000Y-105500000D01*
X89750000Y-101500000D02*
X89750000Y-103000000D01*
X84000000Y-99000000D02*
X88500000Y-99000000D01*
X82750000Y-103000000D02*
X82750000Y-101500000D01*
%TO.C,SW4*%
X61250000Y-103000000D02*
X61250000Y-101500000D01*
X62500000Y-99000000D02*
X67000000Y-99000000D01*
X68250000Y-101500000D02*
X68250000Y-103000000D01*
X67000000Y-105500000D02*
X62500000Y-105500000D01*
%TO.C,SW1*%
D10*
X136583333Y-98404761D02*
X136440476Y-98452380D01*
X136202380Y-98452380D01*
X136107142Y-98404761D01*
X136059523Y-98357142D01*
X136011904Y-98261904D01*
X136011904Y-98166666D01*
X136059523Y-98071428D01*
X136107142Y-98023809D01*
X136202380Y-97976190D01*
X136392857Y-97928571D01*
X136488095Y-97880952D01*
X136535714Y-97833333D01*
X136583333Y-97738095D01*
X136583333Y-97642857D01*
X136535714Y-97547619D01*
X136488095Y-97500000D01*
X136392857Y-97452380D01*
X136154761Y-97452380D01*
X136011904Y-97500000D01*
X135678571Y-97452380D02*
X135440476Y-98452380D01*
X135250000Y-97738095D01*
X135059523Y-98452380D01*
X134821428Y-97452380D01*
X133916666Y-98452380D02*
X134488095Y-98452380D01*
X134202380Y-98452380D02*
X134202380Y-97452380D01*
X134297619Y-97595238D01*
X134392857Y-97690476D01*
X134488095Y-97738095D01*
%TO.C,D1*%
X137508095Y-77912380D02*
X137508095Y-76912380D01*
X137270000Y-76912380D01*
X137127142Y-76960000D01*
X137031904Y-77055238D01*
X136984285Y-77150476D01*
X136936666Y-77340952D01*
X136936666Y-77483809D01*
X136984285Y-77674285D01*
X137031904Y-77769523D01*
X137127142Y-77864761D01*
X137270000Y-77912380D01*
X137508095Y-77912380D01*
X135984285Y-77912380D02*
X136555714Y-77912380D01*
X136270000Y-77912380D02*
X136270000Y-76912380D01*
X136365238Y-77055238D01*
X136460476Y-77150476D01*
X136555714Y-77198095D01*
%TO.C,D2*%
X113008095Y-77912380D02*
X113008095Y-76912380D01*
X112770000Y-76912380D01*
X112627142Y-76960000D01*
X112531904Y-77055238D01*
X112484285Y-77150476D01*
X112436666Y-77340952D01*
X112436666Y-77483809D01*
X112484285Y-77674285D01*
X112531904Y-77769523D01*
X112627142Y-77864761D01*
X112770000Y-77912380D01*
X113008095Y-77912380D01*
X112055714Y-77007619D02*
X112008095Y-76960000D01*
X111912857Y-76912380D01*
X111674761Y-76912380D01*
X111579523Y-76960000D01*
X111531904Y-77007619D01*
X111484285Y-77102857D01*
X111484285Y-77198095D01*
X111531904Y-77340952D01*
X112103333Y-77912380D01*
X111484285Y-77912380D01*
%TO.C,D3*%
X88508095Y-77912380D02*
X88508095Y-76912380D01*
X88270000Y-76912380D01*
X88127142Y-76960000D01*
X88031904Y-77055238D01*
X87984285Y-77150476D01*
X87936666Y-77340952D01*
X87936666Y-77483809D01*
X87984285Y-77674285D01*
X88031904Y-77769523D01*
X88127142Y-77864761D01*
X88270000Y-77912380D01*
X88508095Y-77912380D01*
X87603333Y-76912380D02*
X86984285Y-76912380D01*
X87317619Y-77293333D01*
X87174761Y-77293333D01*
X87079523Y-77340952D01*
X87031904Y-77388571D01*
X86984285Y-77483809D01*
X86984285Y-77721904D01*
X87031904Y-77817142D01*
X87079523Y-77864761D01*
X87174761Y-77912380D01*
X87460476Y-77912380D01*
X87555714Y-77864761D01*
X87603333Y-77817142D01*
%TO.C,D4*%
X64008095Y-77912380D02*
X64008095Y-76912380D01*
X63770000Y-76912380D01*
X63627142Y-76960000D01*
X63531904Y-77055238D01*
X63484285Y-77150476D01*
X63436666Y-77340952D01*
X63436666Y-77483809D01*
X63484285Y-77674285D01*
X63531904Y-77769523D01*
X63627142Y-77864761D01*
X63770000Y-77912380D01*
X64008095Y-77912380D01*
X62579523Y-77245714D02*
X62579523Y-77912380D01*
X62817619Y-76864761D02*
X63055714Y-77579047D01*
X62436666Y-77579047D01*
%TO.C,SW2*%
X115083333Y-98404761D02*
X114940476Y-98452380D01*
X114702380Y-98452380D01*
X114607142Y-98404761D01*
X114559523Y-98357142D01*
X114511904Y-98261904D01*
X114511904Y-98166666D01*
X114559523Y-98071428D01*
X114607142Y-98023809D01*
X114702380Y-97976190D01*
X114892857Y-97928571D01*
X114988095Y-97880952D01*
X115035714Y-97833333D01*
X115083333Y-97738095D01*
X115083333Y-97642857D01*
X115035714Y-97547619D01*
X114988095Y-97500000D01*
X114892857Y-97452380D01*
X114654761Y-97452380D01*
X114511904Y-97500000D01*
X114178571Y-97452380D02*
X113940476Y-98452380D01*
X113750000Y-97738095D01*
X113559523Y-98452380D01*
X113321428Y-97452380D01*
X112988095Y-97547619D02*
X112940476Y-97500000D01*
X112845238Y-97452380D01*
X112607142Y-97452380D01*
X112511904Y-97500000D01*
X112464285Y-97547619D01*
X112416666Y-97642857D01*
X112416666Y-97738095D01*
X112464285Y-97880952D01*
X113035714Y-98452380D01*
X112416666Y-98452380D01*
%TO.C,SW3*%
X87583333Y-98404761D02*
X87440476Y-98452380D01*
X87202380Y-98452380D01*
X87107142Y-98404761D01*
X87059523Y-98357142D01*
X87011904Y-98261904D01*
X87011904Y-98166666D01*
X87059523Y-98071428D01*
X87107142Y-98023809D01*
X87202380Y-97976190D01*
X87392857Y-97928571D01*
X87488095Y-97880952D01*
X87535714Y-97833333D01*
X87583333Y-97738095D01*
X87583333Y-97642857D01*
X87535714Y-97547619D01*
X87488095Y-97500000D01*
X87392857Y-97452380D01*
X87154761Y-97452380D01*
X87011904Y-97500000D01*
X86678571Y-97452380D02*
X86440476Y-98452380D01*
X86250000Y-97738095D01*
X86059523Y-98452380D01*
X85821428Y-97452380D01*
X85535714Y-97452380D02*
X84916666Y-97452380D01*
X85250000Y-97833333D01*
X85107142Y-97833333D01*
X85011904Y-97880952D01*
X84964285Y-97928571D01*
X84916666Y-98023809D01*
X84916666Y-98261904D01*
X84964285Y-98357142D01*
X85011904Y-98404761D01*
X85107142Y-98452380D01*
X85392857Y-98452380D01*
X85488095Y-98404761D01*
X85535714Y-98357142D01*
%TO.C,SW4*%
X66083333Y-98404761D02*
X65940476Y-98452380D01*
X65702380Y-98452380D01*
X65607142Y-98404761D01*
X65559523Y-98357142D01*
X65511904Y-98261904D01*
X65511904Y-98166666D01*
X65559523Y-98071428D01*
X65607142Y-98023809D01*
X65702380Y-97976190D01*
X65892857Y-97928571D01*
X65988095Y-97880952D01*
X66035714Y-97833333D01*
X66083333Y-97738095D01*
X66083333Y-97642857D01*
X66035714Y-97547619D01*
X65988095Y-97500000D01*
X65892857Y-97452380D01*
X65654761Y-97452380D01*
X65511904Y-97500000D01*
X65178571Y-97452380D02*
X64940476Y-98452380D01*
X64750000Y-97738095D01*
X64559523Y-98452380D01*
X64321428Y-97452380D01*
X63511904Y-97785714D02*
X63511904Y-98452380D01*
X63750000Y-97404761D02*
X63988095Y-98119047D01*
X63369047Y-98119047D01*
%TD*%
M02*
