%TF.GenerationSoftware,KiCad,Pcbnew,(5.1.10)-1*%
%TF.CreationDate,2021-11-09T21:09:32+01:00*%
%TF.ProjectId,BuzzerHost,42757a7a-6572-4486-9f73-742e6b696361,1.0*%
%TF.SameCoordinates,Original*%
%TF.FileFunction,Legend,Top*%
%TF.FilePolarity,Positive*%
%FSLAX46Y46*%
G04 Gerber Fmt 4.6, Leading zero omitted, Abs format (unit mm)*
G04 Created by KiCad (PCBNEW (5.1.10)-1) date 2021-11-09 21:09:32*
%MOMM*%
%LPD*%
G01*
G04 APERTURE LIST*
%ADD10C,0.150000*%
%ADD11C,0.120000*%
%ADD12C,0.010000*%
G04 APERTURE END LIST*
D10*
X67452380Y-88190476D02*
X67452380Y-88761904D01*
X67452380Y-88476190D02*
X66452380Y-88476190D01*
X66595238Y-88571428D01*
X66690476Y-88666666D01*
X66738095Y-88761904D01*
X66452380Y-87571428D02*
X66452380Y-87476190D01*
X66500000Y-87380952D01*
X66547619Y-87333333D01*
X66642857Y-87285714D01*
X66833333Y-87238095D01*
X67071428Y-87238095D01*
X67261904Y-87285714D01*
X67357142Y-87333333D01*
X67404761Y-87380952D01*
X67452380Y-87476190D01*
X67452380Y-87571428D01*
X67404761Y-87666666D01*
X67357142Y-87714285D01*
X67261904Y-87761904D01*
X67071428Y-87809523D01*
X66833333Y-87809523D01*
X66642857Y-87761904D01*
X66547619Y-87714285D01*
X66500000Y-87666666D01*
X66452380Y-87571428D01*
X66452380Y-86619047D02*
X66452380Y-86523809D01*
X66500000Y-86428571D01*
X66547619Y-86380952D01*
X66642857Y-86333333D01*
X66833333Y-86285714D01*
X67071428Y-86285714D01*
X67261904Y-86333333D01*
X67357142Y-86380952D01*
X67404761Y-86428571D01*
X67452380Y-86523809D01*
X67452380Y-86619047D01*
X67404761Y-86714285D01*
X67357142Y-86761904D01*
X67261904Y-86809523D01*
X67071428Y-86857142D01*
X66833333Y-86857142D01*
X66642857Y-86809523D01*
X66547619Y-86761904D01*
X66500000Y-86714285D01*
X66452380Y-86619047D01*
X66452380Y-84904761D02*
X66452380Y-84714285D01*
X66500000Y-84619047D01*
X66595238Y-84523809D01*
X66785714Y-84476190D01*
X67119047Y-84476190D01*
X67309523Y-84523809D01*
X67404761Y-84619047D01*
X67452380Y-84714285D01*
X67452380Y-84904761D01*
X67404761Y-85000000D01*
X67309523Y-85095238D01*
X67119047Y-85142857D01*
X66785714Y-85142857D01*
X66595238Y-85095238D01*
X66500000Y-85000000D01*
X66452380Y-84904761D01*
X67452380Y-84047619D02*
X66452380Y-84047619D01*
X67452380Y-83619047D02*
X66928571Y-83619047D01*
X66833333Y-83666666D01*
X66785714Y-83761904D01*
X66785714Y-83904761D01*
X66833333Y-84000000D01*
X66880952Y-84047619D01*
X67452380Y-83142857D02*
X66785714Y-83142857D01*
X66880952Y-83142857D02*
X66833333Y-83095238D01*
X66785714Y-83000000D01*
X66785714Y-82857142D01*
X66833333Y-82761904D01*
X66928571Y-82714285D01*
X67452380Y-82714285D01*
X66928571Y-82714285D02*
X66833333Y-82666666D01*
X66785714Y-82571428D01*
X66785714Y-82428571D01*
X66833333Y-82333333D01*
X66928571Y-82285714D01*
X67452380Y-82285714D01*
X91952380Y-88190476D02*
X91952380Y-88761904D01*
X91952380Y-88476190D02*
X90952380Y-88476190D01*
X91095238Y-88571428D01*
X91190476Y-88666666D01*
X91238095Y-88761904D01*
X90952380Y-87571428D02*
X90952380Y-87476190D01*
X91000000Y-87380952D01*
X91047619Y-87333333D01*
X91142857Y-87285714D01*
X91333333Y-87238095D01*
X91571428Y-87238095D01*
X91761904Y-87285714D01*
X91857142Y-87333333D01*
X91904761Y-87380952D01*
X91952380Y-87476190D01*
X91952380Y-87571428D01*
X91904761Y-87666666D01*
X91857142Y-87714285D01*
X91761904Y-87761904D01*
X91571428Y-87809523D01*
X91333333Y-87809523D01*
X91142857Y-87761904D01*
X91047619Y-87714285D01*
X91000000Y-87666666D01*
X90952380Y-87571428D01*
X90952380Y-86619047D02*
X90952380Y-86523809D01*
X91000000Y-86428571D01*
X91047619Y-86380952D01*
X91142857Y-86333333D01*
X91333333Y-86285714D01*
X91571428Y-86285714D01*
X91761904Y-86333333D01*
X91857142Y-86380952D01*
X91904761Y-86428571D01*
X91952380Y-86523809D01*
X91952380Y-86619047D01*
X91904761Y-86714285D01*
X91857142Y-86761904D01*
X91761904Y-86809523D01*
X91571428Y-86857142D01*
X91333333Y-86857142D01*
X91142857Y-86809523D01*
X91047619Y-86761904D01*
X91000000Y-86714285D01*
X90952380Y-86619047D01*
X90952380Y-84904761D02*
X90952380Y-84714285D01*
X91000000Y-84619047D01*
X91095238Y-84523809D01*
X91285714Y-84476190D01*
X91619047Y-84476190D01*
X91809523Y-84523809D01*
X91904761Y-84619047D01*
X91952380Y-84714285D01*
X91952380Y-84904761D01*
X91904761Y-85000000D01*
X91809523Y-85095238D01*
X91619047Y-85142857D01*
X91285714Y-85142857D01*
X91095238Y-85095238D01*
X91000000Y-85000000D01*
X90952380Y-84904761D01*
X91952380Y-84047619D02*
X90952380Y-84047619D01*
X91952380Y-83619047D02*
X91428571Y-83619047D01*
X91333333Y-83666666D01*
X91285714Y-83761904D01*
X91285714Y-83904761D01*
X91333333Y-84000000D01*
X91380952Y-84047619D01*
X91952380Y-83142857D02*
X91285714Y-83142857D01*
X91380952Y-83142857D02*
X91333333Y-83095238D01*
X91285714Y-83000000D01*
X91285714Y-82857142D01*
X91333333Y-82761904D01*
X91428571Y-82714285D01*
X91952380Y-82714285D01*
X91428571Y-82714285D02*
X91333333Y-82666666D01*
X91285714Y-82571428D01*
X91285714Y-82428571D01*
X91333333Y-82333333D01*
X91428571Y-82285714D01*
X91952380Y-82285714D01*
X115547619Y-88761904D02*
X115500000Y-88714285D01*
X115452380Y-88619047D01*
X115452380Y-88380952D01*
X115500000Y-88285714D01*
X115547619Y-88238095D01*
X115642857Y-88190476D01*
X115738095Y-88190476D01*
X115880952Y-88238095D01*
X116452380Y-88809523D01*
X116452380Y-88190476D01*
X115547619Y-87809523D02*
X115500000Y-87761904D01*
X115452380Y-87666666D01*
X115452380Y-87428571D01*
X115500000Y-87333333D01*
X115547619Y-87285714D01*
X115642857Y-87238095D01*
X115738095Y-87238095D01*
X115880952Y-87285714D01*
X116452380Y-87857142D01*
X116452380Y-87238095D01*
X115452380Y-86619047D02*
X115452380Y-86523809D01*
X115500000Y-86428571D01*
X115547619Y-86380952D01*
X115642857Y-86333333D01*
X115833333Y-86285714D01*
X116071428Y-86285714D01*
X116261904Y-86333333D01*
X116357142Y-86380952D01*
X116404761Y-86428571D01*
X116452380Y-86523809D01*
X116452380Y-86619047D01*
X116404761Y-86714285D01*
X116357142Y-86761904D01*
X116261904Y-86809523D01*
X116071428Y-86857142D01*
X115833333Y-86857142D01*
X115642857Y-86809523D01*
X115547619Y-86761904D01*
X115500000Y-86714285D01*
X115452380Y-86619047D01*
X115452380Y-84904761D02*
X115452380Y-84714285D01*
X115500000Y-84619047D01*
X115595238Y-84523809D01*
X115785714Y-84476190D01*
X116119047Y-84476190D01*
X116309523Y-84523809D01*
X116404761Y-84619047D01*
X116452380Y-84714285D01*
X116452380Y-84904761D01*
X116404761Y-85000000D01*
X116309523Y-85095238D01*
X116119047Y-85142857D01*
X115785714Y-85142857D01*
X115595238Y-85095238D01*
X115500000Y-85000000D01*
X115452380Y-84904761D01*
X116452380Y-84047619D02*
X115452380Y-84047619D01*
X116452380Y-83619047D02*
X115928571Y-83619047D01*
X115833333Y-83666666D01*
X115785714Y-83761904D01*
X115785714Y-83904761D01*
X115833333Y-84000000D01*
X115880952Y-84047619D01*
X116452380Y-83142857D02*
X115785714Y-83142857D01*
X115880952Y-83142857D02*
X115833333Y-83095238D01*
X115785714Y-83000000D01*
X115785714Y-82857142D01*
X115833333Y-82761904D01*
X115928571Y-82714285D01*
X116452380Y-82714285D01*
X115928571Y-82714285D02*
X115833333Y-82666666D01*
X115785714Y-82571428D01*
X115785714Y-82428571D01*
X115833333Y-82333333D01*
X115928571Y-82285714D01*
X116452380Y-82285714D01*
X140047619Y-88761904D02*
X140000000Y-88714285D01*
X139952380Y-88619047D01*
X139952380Y-88380952D01*
X140000000Y-88285714D01*
X140047619Y-88238095D01*
X140142857Y-88190476D01*
X140238095Y-88190476D01*
X140380952Y-88238095D01*
X140952380Y-88809523D01*
X140952380Y-88190476D01*
X140047619Y-87809523D02*
X140000000Y-87761904D01*
X139952380Y-87666666D01*
X139952380Y-87428571D01*
X140000000Y-87333333D01*
X140047619Y-87285714D01*
X140142857Y-87238095D01*
X140238095Y-87238095D01*
X140380952Y-87285714D01*
X140952380Y-87857142D01*
X140952380Y-87238095D01*
X139952380Y-86619047D02*
X139952380Y-86523809D01*
X140000000Y-86428571D01*
X140047619Y-86380952D01*
X140142857Y-86333333D01*
X140333333Y-86285714D01*
X140571428Y-86285714D01*
X140761904Y-86333333D01*
X140857142Y-86380952D01*
X140904761Y-86428571D01*
X140952380Y-86523809D01*
X140952380Y-86619047D01*
X140904761Y-86714285D01*
X140857142Y-86761904D01*
X140761904Y-86809523D01*
X140571428Y-86857142D01*
X140333333Y-86857142D01*
X140142857Y-86809523D01*
X140047619Y-86761904D01*
X140000000Y-86714285D01*
X139952380Y-86619047D01*
X139952380Y-84904761D02*
X139952380Y-84714285D01*
X140000000Y-84619047D01*
X140095238Y-84523809D01*
X140285714Y-84476190D01*
X140619047Y-84476190D01*
X140809523Y-84523809D01*
X140904761Y-84619047D01*
X140952380Y-84714285D01*
X140952380Y-84904761D01*
X140904761Y-85000000D01*
X140809523Y-85095238D01*
X140619047Y-85142857D01*
X140285714Y-85142857D01*
X140095238Y-85095238D01*
X140000000Y-85000000D01*
X139952380Y-84904761D01*
X140952380Y-84047619D02*
X139952380Y-84047619D01*
X140952380Y-83619047D02*
X140428571Y-83619047D01*
X140333333Y-83666666D01*
X140285714Y-83761904D01*
X140285714Y-83904761D01*
X140333333Y-84000000D01*
X140380952Y-84047619D01*
X140952380Y-83142857D02*
X140285714Y-83142857D01*
X140380952Y-83142857D02*
X140333333Y-83095238D01*
X140285714Y-83000000D01*
X140285714Y-82857142D01*
X140333333Y-82761904D01*
X140428571Y-82714285D01*
X140952380Y-82714285D01*
X140428571Y-82714285D02*
X140333333Y-82666666D01*
X140285714Y-82571428D01*
X140285714Y-82428571D01*
X140333333Y-82333333D01*
X140428571Y-82285714D01*
X140952380Y-82285714D01*
X61690476Y-68928571D02*
X61833333Y-68976190D01*
X61880952Y-69023809D01*
X61928571Y-69119047D01*
X61928571Y-69261904D01*
X61880952Y-69357142D01*
X61833333Y-69404761D01*
X61738095Y-69452380D01*
X61357142Y-69452380D01*
X61357142Y-68452380D01*
X61690476Y-68452380D01*
X61785714Y-68500000D01*
X61833333Y-68547619D01*
X61880952Y-68642857D01*
X61880952Y-68738095D01*
X61833333Y-68833333D01*
X61785714Y-68880952D01*
X61690476Y-68928571D01*
X61357142Y-68928571D01*
X62833333Y-69452380D02*
X62357142Y-69452380D01*
X62357142Y-68452380D01*
X63166666Y-68452380D02*
X63166666Y-69261904D01*
X63214285Y-69357142D01*
X63261904Y-69404761D01*
X63357142Y-69452380D01*
X63547619Y-69452380D01*
X63642857Y-69404761D01*
X63690476Y-69357142D01*
X63738095Y-69261904D01*
X63738095Y-68452380D01*
X64214285Y-68928571D02*
X64547619Y-68928571D01*
X64690476Y-69452380D02*
X64214285Y-69452380D01*
X64214285Y-68452380D01*
X64690476Y-68452380D01*
X85833333Y-68500000D02*
X85738095Y-68452380D01*
X85595238Y-68452380D01*
X85452380Y-68500000D01*
X85357142Y-68595238D01*
X85309523Y-68690476D01*
X85261904Y-68880952D01*
X85261904Y-69023809D01*
X85309523Y-69214285D01*
X85357142Y-69309523D01*
X85452380Y-69404761D01*
X85595238Y-69452380D01*
X85690476Y-69452380D01*
X85833333Y-69404761D01*
X85880952Y-69357142D01*
X85880952Y-69023809D01*
X85690476Y-69023809D01*
X86880952Y-69452380D02*
X86547619Y-68976190D01*
X86309523Y-69452380D02*
X86309523Y-68452380D01*
X86690476Y-68452380D01*
X86785714Y-68500000D01*
X86833333Y-68547619D01*
X86880952Y-68642857D01*
X86880952Y-68785714D01*
X86833333Y-68880952D01*
X86785714Y-68928571D01*
X86690476Y-68976190D01*
X86309523Y-68976190D01*
X87309523Y-68928571D02*
X87642857Y-68928571D01*
X87785714Y-69452380D02*
X87309523Y-69452380D01*
X87309523Y-68452380D01*
X87785714Y-68452380D01*
X88214285Y-68928571D02*
X88547619Y-68928571D01*
X88690476Y-69452380D02*
X88214285Y-69452380D01*
X88214285Y-68452380D01*
X88690476Y-68452380D01*
X89119047Y-69452380D02*
X89119047Y-68452380D01*
X89690476Y-69452380D01*
X89690476Y-68452380D01*
X109642857Y-68976190D02*
X109642857Y-69452380D01*
X109309523Y-68452380D02*
X109642857Y-68976190D01*
X109976190Y-68452380D01*
X110309523Y-68928571D02*
X110642857Y-68928571D01*
X110785714Y-69452380D02*
X110309523Y-69452380D01*
X110309523Y-68452380D01*
X110785714Y-68452380D01*
X111690476Y-69452380D02*
X111214285Y-69452380D01*
X111214285Y-68452380D01*
X112500000Y-69452380D02*
X112023809Y-69452380D01*
X112023809Y-68452380D01*
X113023809Y-68452380D02*
X113214285Y-68452380D01*
X113309523Y-68500000D01*
X113404761Y-68595238D01*
X113452380Y-68785714D01*
X113452380Y-69119047D01*
X113404761Y-69309523D01*
X113309523Y-69404761D01*
X113214285Y-69452380D01*
X113023809Y-69452380D01*
X112928571Y-69404761D01*
X112833333Y-69309523D01*
X112785714Y-69119047D01*
X112785714Y-68785714D01*
X112833333Y-68595238D01*
X112928571Y-68500000D01*
X113023809Y-68452380D01*
X113785714Y-68452380D02*
X114023809Y-69452380D01*
X114214285Y-68738095D01*
X114404761Y-69452380D01*
X114642857Y-68452380D01*
X135857142Y-69452380D02*
X135523809Y-68976190D01*
X135285714Y-69452380D02*
X135285714Y-68452380D01*
X135666666Y-68452380D01*
X135761904Y-68500000D01*
X135809523Y-68547619D01*
X135857142Y-68642857D01*
X135857142Y-68785714D01*
X135809523Y-68880952D01*
X135761904Y-68928571D01*
X135666666Y-68976190D01*
X135285714Y-68976190D01*
X136285714Y-68928571D02*
X136619047Y-68928571D01*
X136761904Y-69452380D02*
X136285714Y-69452380D01*
X136285714Y-68452380D01*
X136761904Y-68452380D01*
X137190476Y-69452380D02*
X137190476Y-68452380D01*
X137428571Y-68452380D01*
X137571428Y-68500000D01*
X137666666Y-68595238D01*
X137714285Y-68690476D01*
X137761904Y-68880952D01*
X137761904Y-69023809D01*
X137714285Y-69214285D01*
X137666666Y-69309523D01*
X137571428Y-69404761D01*
X137428571Y-69452380D01*
X137190476Y-69452380D01*
X133761904Y-97952380D02*
X133428571Y-97476190D01*
X133190476Y-97952380D02*
X133190476Y-96952380D01*
X133571428Y-96952380D01*
X133666666Y-97000000D01*
X133714285Y-97047619D01*
X133761904Y-97142857D01*
X133761904Y-97285714D01*
X133714285Y-97380952D01*
X133666666Y-97428571D01*
X133571428Y-97476190D01*
X133190476Y-97476190D01*
X134571428Y-97904761D02*
X134476190Y-97952380D01*
X134285714Y-97952380D01*
X134190476Y-97904761D01*
X134142857Y-97809523D01*
X134142857Y-97428571D01*
X134190476Y-97333333D01*
X134285714Y-97285714D01*
X134476190Y-97285714D01*
X134571428Y-97333333D01*
X134619047Y-97428571D01*
X134619047Y-97523809D01*
X134142857Y-97619047D01*
X135000000Y-97904761D02*
X135095238Y-97952380D01*
X135285714Y-97952380D01*
X135380952Y-97904761D01*
X135428571Y-97809523D01*
X135428571Y-97761904D01*
X135380952Y-97666666D01*
X135285714Y-97619047D01*
X135142857Y-97619047D01*
X135047619Y-97571428D01*
X135000000Y-97476190D01*
X135000000Y-97428571D01*
X135047619Y-97333333D01*
X135142857Y-97285714D01*
X135285714Y-97285714D01*
X135380952Y-97333333D01*
X136238095Y-97904761D02*
X136142857Y-97952380D01*
X135952380Y-97952380D01*
X135857142Y-97904761D01*
X135809523Y-97809523D01*
X135809523Y-97428571D01*
X135857142Y-97333333D01*
X135952380Y-97285714D01*
X136142857Y-97285714D01*
X136238095Y-97333333D01*
X136285714Y-97428571D01*
X136285714Y-97523809D01*
X135809523Y-97619047D01*
X136571428Y-97285714D02*
X136952380Y-97285714D01*
X136714285Y-96952380D02*
X136714285Y-97809523D01*
X136761904Y-97904761D01*
X136857142Y-97952380D01*
X136952380Y-97952380D01*
X110738095Y-97952380D02*
X110404761Y-97476190D01*
X110166666Y-97952380D02*
X110166666Y-96952380D01*
X110547619Y-96952380D01*
X110642857Y-97000000D01*
X110690476Y-97047619D01*
X110738095Y-97142857D01*
X110738095Y-97285714D01*
X110690476Y-97380952D01*
X110642857Y-97428571D01*
X110547619Y-97476190D01*
X110166666Y-97476190D01*
X111547619Y-97904761D02*
X111452380Y-97952380D01*
X111261904Y-97952380D01*
X111166666Y-97904761D01*
X111119047Y-97809523D01*
X111119047Y-97428571D01*
X111166666Y-97333333D01*
X111261904Y-97285714D01*
X111452380Y-97285714D01*
X111547619Y-97333333D01*
X111595238Y-97428571D01*
X111595238Y-97523809D01*
X111119047Y-97619047D01*
X111976190Y-97904761D02*
X112071428Y-97952380D01*
X112261904Y-97952380D01*
X112357142Y-97904761D01*
X112404761Y-97809523D01*
X112404761Y-97761904D01*
X112357142Y-97666666D01*
X112261904Y-97619047D01*
X112119047Y-97619047D01*
X112023809Y-97571428D01*
X111976190Y-97476190D01*
X111976190Y-97428571D01*
X112023809Y-97333333D01*
X112119047Y-97285714D01*
X112261904Y-97285714D01*
X112357142Y-97333333D01*
X113214285Y-97904761D02*
X113119047Y-97952380D01*
X112928571Y-97952380D01*
X112833333Y-97904761D01*
X112785714Y-97809523D01*
X112785714Y-97428571D01*
X112833333Y-97333333D01*
X112928571Y-97285714D01*
X113119047Y-97285714D01*
X113214285Y-97333333D01*
X113261904Y-97428571D01*
X113261904Y-97523809D01*
X112785714Y-97619047D01*
X113547619Y-97285714D02*
X113928571Y-97285714D01*
X113690476Y-96952380D02*
X113690476Y-97809523D01*
X113738095Y-97904761D01*
X113833333Y-97952380D01*
X113928571Y-97952380D01*
X114261904Y-97571428D02*
X115023809Y-97571428D01*
X114642857Y-97952380D02*
X114642857Y-97190476D01*
X115452380Y-97666666D02*
X115928571Y-97666666D01*
X115357142Y-97952380D02*
X115690476Y-96952380D01*
X116023809Y-97952380D01*
X116357142Y-97952380D02*
X116357142Y-97285714D01*
X116357142Y-97476190D02*
X116404761Y-97380952D01*
X116452380Y-97333333D01*
X116547619Y-97285714D01*
X116642857Y-97285714D01*
X116976190Y-97952380D02*
X116976190Y-97285714D01*
X116976190Y-97380952D02*
X117023809Y-97333333D01*
X117119047Y-97285714D01*
X117261904Y-97285714D01*
X117357142Y-97333333D01*
X117404761Y-97428571D01*
X117404761Y-97952380D01*
X117404761Y-97428571D02*
X117452380Y-97333333D01*
X117547619Y-97285714D01*
X117690476Y-97285714D01*
X117785714Y-97333333D01*
X117833333Y-97428571D01*
X117833333Y-97952380D01*
X80904761Y-97857142D02*
X80857142Y-97904761D01*
X80714285Y-97952380D01*
X80619047Y-97952380D01*
X80476190Y-97904761D01*
X80380952Y-97809523D01*
X80333333Y-97714285D01*
X80285714Y-97523809D01*
X80285714Y-97380952D01*
X80333333Y-97190476D01*
X80380952Y-97095238D01*
X80476190Y-97000000D01*
X80619047Y-96952380D01*
X80714285Y-96952380D01*
X80857142Y-97000000D01*
X80904761Y-97047619D01*
X81333333Y-97952380D02*
X81333333Y-96952380D01*
X81761904Y-97952380D02*
X81761904Y-97428571D01*
X81714285Y-97333333D01*
X81619047Y-97285714D01*
X81476190Y-97285714D01*
X81380952Y-97333333D01*
X81333333Y-97380952D01*
X82666666Y-97952380D02*
X82666666Y-97428571D01*
X82619047Y-97333333D01*
X82523809Y-97285714D01*
X82333333Y-97285714D01*
X82238095Y-97333333D01*
X82666666Y-97904761D02*
X82571428Y-97952380D01*
X82333333Y-97952380D01*
X82238095Y-97904761D01*
X82190476Y-97809523D01*
X82190476Y-97714285D01*
X82238095Y-97619047D01*
X82333333Y-97571428D01*
X82571428Y-97571428D01*
X82666666Y-97523809D01*
X83142857Y-97285714D02*
X83142857Y-97952380D01*
X83142857Y-97380952D02*
X83190476Y-97333333D01*
X83285714Y-97285714D01*
X83428571Y-97285714D01*
X83523809Y-97333333D01*
X83571428Y-97428571D01*
X83571428Y-97952380D01*
X84476190Y-97904761D02*
X84380952Y-97952380D01*
X84190476Y-97952380D01*
X84095238Y-97904761D01*
X84047619Y-97857142D01*
X84000000Y-97761904D01*
X84000000Y-97476190D01*
X84047619Y-97380952D01*
X84095238Y-97333333D01*
X84190476Y-97285714D01*
X84380952Y-97285714D01*
X84476190Y-97333333D01*
X85285714Y-97904761D02*
X85190476Y-97952380D01*
X85000000Y-97952380D01*
X84904761Y-97904761D01*
X84857142Y-97809523D01*
X84857142Y-97428571D01*
X84904761Y-97333333D01*
X85000000Y-97285714D01*
X85190476Y-97285714D01*
X85285714Y-97333333D01*
X85333333Y-97428571D01*
X85333333Y-97523809D01*
X84857142Y-97619047D01*
X86523809Y-97952380D02*
X86523809Y-96952380D01*
X86857142Y-97666666D01*
X87190476Y-96952380D01*
X87190476Y-97952380D01*
X88047619Y-97904761D02*
X87952380Y-97952380D01*
X87761904Y-97952380D01*
X87666666Y-97904761D01*
X87619047Y-97809523D01*
X87619047Y-97428571D01*
X87666666Y-97333333D01*
X87761904Y-97285714D01*
X87952380Y-97285714D01*
X88047619Y-97333333D01*
X88095238Y-97428571D01*
X88095238Y-97523809D01*
X87619047Y-97619047D01*
X88523809Y-97952380D02*
X88523809Y-97285714D01*
X88523809Y-97380952D02*
X88571428Y-97333333D01*
X88666666Y-97285714D01*
X88809523Y-97285714D01*
X88904761Y-97333333D01*
X88952380Y-97428571D01*
X88952380Y-97952380D01*
X88952380Y-97428571D02*
X89000000Y-97333333D01*
X89095238Y-97285714D01*
X89238095Y-97285714D01*
X89333333Y-97333333D01*
X89380952Y-97428571D01*
X89380952Y-97952380D01*
X90000000Y-97952380D02*
X89904761Y-97904761D01*
X89857142Y-97857142D01*
X89809523Y-97761904D01*
X89809523Y-97476190D01*
X89857142Y-97380952D01*
X89904761Y-97333333D01*
X90000000Y-97285714D01*
X90142857Y-97285714D01*
X90238095Y-97333333D01*
X90285714Y-97380952D01*
X90333333Y-97476190D01*
X90333333Y-97761904D01*
X90285714Y-97857142D01*
X90238095Y-97904761D01*
X90142857Y-97952380D01*
X90000000Y-97952380D01*
X90761904Y-97952380D02*
X90761904Y-97285714D01*
X90761904Y-97476190D02*
X90809523Y-97380952D01*
X90857142Y-97333333D01*
X90952380Y-97285714D01*
X91047619Y-97285714D01*
X91285714Y-97285714D02*
X91523809Y-97952380D01*
X91761904Y-97285714D02*
X91523809Y-97952380D01*
X91428571Y-98190476D01*
X91380952Y-98238095D01*
X91285714Y-98285714D01*
X60452380Y-97857142D02*
X60404761Y-97904761D01*
X60261904Y-97952380D01*
X60166666Y-97952380D01*
X60023809Y-97904761D01*
X59928571Y-97809523D01*
X59880952Y-97714285D01*
X59833333Y-97523809D01*
X59833333Y-97380952D01*
X59880952Y-97190476D01*
X59928571Y-97095238D01*
X60023809Y-97000000D01*
X60166666Y-96952380D01*
X60261904Y-96952380D01*
X60404761Y-97000000D01*
X60452380Y-97047619D01*
X60880952Y-97952380D02*
X60880952Y-96952380D01*
X61309523Y-97952380D02*
X61309523Y-97428571D01*
X61261904Y-97333333D01*
X61166666Y-97285714D01*
X61023809Y-97285714D01*
X60928571Y-97333333D01*
X60880952Y-97380952D01*
X62214285Y-97952380D02*
X62214285Y-97428571D01*
X62166666Y-97333333D01*
X62071428Y-97285714D01*
X61880952Y-97285714D01*
X61785714Y-97333333D01*
X62214285Y-97904761D02*
X62119047Y-97952380D01*
X61880952Y-97952380D01*
X61785714Y-97904761D01*
X61738095Y-97809523D01*
X61738095Y-97714285D01*
X61785714Y-97619047D01*
X61880952Y-97571428D01*
X62119047Y-97571428D01*
X62214285Y-97523809D01*
X62690476Y-97285714D02*
X62690476Y-97952380D01*
X62690476Y-97380952D02*
X62738095Y-97333333D01*
X62833333Y-97285714D01*
X62976190Y-97285714D01*
X63071428Y-97333333D01*
X63119047Y-97428571D01*
X63119047Y-97952380D01*
X64023809Y-97904761D02*
X63928571Y-97952380D01*
X63738095Y-97952380D01*
X63642857Y-97904761D01*
X63595238Y-97857142D01*
X63547619Y-97761904D01*
X63547619Y-97476190D01*
X63595238Y-97380952D01*
X63642857Y-97333333D01*
X63738095Y-97285714D01*
X63928571Y-97285714D01*
X64023809Y-97333333D01*
X64833333Y-97904761D02*
X64738095Y-97952380D01*
X64547619Y-97952380D01*
X64452380Y-97904761D01*
X64404761Y-97809523D01*
X64404761Y-97428571D01*
X64452380Y-97333333D01*
X64547619Y-97285714D01*
X64738095Y-97285714D01*
X64833333Y-97333333D01*
X64880952Y-97428571D01*
X64880952Y-97523809D01*
X64404761Y-97619047D01*
X66404761Y-97428571D02*
X66547619Y-97476190D01*
X66595238Y-97523809D01*
X66642857Y-97619047D01*
X66642857Y-97761904D01*
X66595238Y-97857142D01*
X66547619Y-97904761D01*
X66452380Y-97952380D01*
X66071428Y-97952380D01*
X66071428Y-96952380D01*
X66404761Y-96952380D01*
X66500000Y-97000000D01*
X66547619Y-97047619D01*
X66595238Y-97142857D01*
X66595238Y-97238095D01*
X66547619Y-97333333D01*
X66500000Y-97380952D01*
X66404761Y-97428571D01*
X66071428Y-97428571D01*
X67500000Y-97285714D02*
X67500000Y-97952380D01*
X67071428Y-97285714D02*
X67071428Y-97809523D01*
X67119047Y-97904761D01*
X67214285Y-97952380D01*
X67357142Y-97952380D01*
X67452380Y-97904761D01*
X67500000Y-97857142D01*
X67880952Y-97285714D02*
X68404761Y-97285714D01*
X67880952Y-97952380D01*
X68404761Y-97952380D01*
X68690476Y-97285714D02*
X69214285Y-97285714D01*
X68690476Y-97952380D01*
X69214285Y-97952380D01*
X85000000Y-121761904D02*
X84952380Y-121857142D01*
X84952380Y-122000000D01*
X85000000Y-122142857D01*
X85095238Y-122238095D01*
X85190476Y-122285714D01*
X85380952Y-122333333D01*
X85523809Y-122333333D01*
X85714285Y-122285714D01*
X85809523Y-122238095D01*
X85904761Y-122142857D01*
X85952380Y-122000000D01*
X85952380Y-121904761D01*
X85904761Y-121761904D01*
X85857142Y-121714285D01*
X85523809Y-121714285D01*
X85523809Y-121904761D01*
X85952380Y-121285714D02*
X84952380Y-121285714D01*
X85952380Y-120714285D01*
X84952380Y-120714285D01*
X85952380Y-120238095D02*
X84952380Y-120238095D01*
X84952380Y-120000000D01*
X85000000Y-119857142D01*
X85095238Y-119761904D01*
X85190476Y-119714285D01*
X85380952Y-119666666D01*
X85523809Y-119666666D01*
X85714285Y-119714285D01*
X85809523Y-119761904D01*
X85904761Y-119857142D01*
X85952380Y-120000000D01*
X85952380Y-120238095D01*
X128547619Y-119452380D02*
X128547619Y-118452380D01*
X128928571Y-118452380D01*
X129023809Y-118500000D01*
X129071428Y-118547619D01*
X129119047Y-118642857D01*
X129119047Y-118785714D01*
X129071428Y-118880952D01*
X129023809Y-118928571D01*
X128928571Y-118976190D01*
X128547619Y-118976190D01*
X129547619Y-119452380D02*
X129547619Y-118452380D01*
X130023809Y-118928571D02*
X130357142Y-118928571D01*
X130500000Y-119452380D02*
X130023809Y-119452380D01*
X130023809Y-118452380D01*
X130500000Y-118452380D01*
X130833333Y-118452380D02*
X131500000Y-118452380D01*
X130833333Y-119452380D01*
X131500000Y-119452380D01*
X132071428Y-118452380D02*
X132261904Y-118452380D01*
X132357142Y-118500000D01*
X132452380Y-118595238D01*
X132500000Y-118785714D01*
X132500000Y-119119047D01*
X132452380Y-119309523D01*
X132357142Y-119404761D01*
X132261904Y-119452380D01*
X132071428Y-119452380D01*
X131976190Y-119404761D01*
X131880952Y-119309523D01*
X131833333Y-119119047D01*
X131833333Y-118785714D01*
X131880952Y-118595238D01*
X131976190Y-118500000D01*
X132071428Y-118452380D01*
X124738095Y-118500000D02*
X124642857Y-118452380D01*
X124500000Y-118452380D01*
X124357142Y-118500000D01*
X124261904Y-118595238D01*
X124214285Y-118690476D01*
X124166666Y-118880952D01*
X124166666Y-119023809D01*
X124214285Y-119214285D01*
X124261904Y-119309523D01*
X124357142Y-119404761D01*
X124500000Y-119452380D01*
X124595238Y-119452380D01*
X124738095Y-119404761D01*
X124785714Y-119357142D01*
X124785714Y-119023809D01*
X124595238Y-119023809D01*
X125214285Y-119452380D02*
X125214285Y-118452380D01*
X125785714Y-119452380D01*
X125785714Y-118452380D01*
X126261904Y-119452380D02*
X126261904Y-118452380D01*
X126500000Y-118452380D01*
X126642857Y-118500000D01*
X126738095Y-118595238D01*
X126785714Y-118690476D01*
X126833333Y-118880952D01*
X126833333Y-119023809D01*
X126785714Y-119214285D01*
X126738095Y-119309523D01*
X126642857Y-119404761D01*
X126500000Y-119452380D01*
X126261904Y-119452380D01*
D11*
X131000000Y-111500000D02*
G75*
G03*
X131000000Y-111500000I-2828427J0D01*
G01*
D10*
X120357142Y-137452380D02*
X120357142Y-136452380D01*
X120928571Y-137452380D01*
X120928571Y-136452380D01*
X121833333Y-137452380D02*
X121833333Y-136928571D01*
X121785714Y-136833333D01*
X121690476Y-136785714D01*
X121500000Y-136785714D01*
X121404761Y-136833333D01*
X121833333Y-137404761D02*
X121738095Y-137452380D01*
X121500000Y-137452380D01*
X121404761Y-137404761D01*
X121357142Y-137309523D01*
X121357142Y-137214285D01*
X121404761Y-137119047D01*
X121500000Y-137071428D01*
X121738095Y-137071428D01*
X121833333Y-137023809D01*
X122309523Y-136785714D02*
X122309523Y-137452380D01*
X122309523Y-136880952D02*
X122357142Y-136833333D01*
X122452380Y-136785714D01*
X122595238Y-136785714D01*
X122690476Y-136833333D01*
X122738095Y-136928571D01*
X122738095Y-137452380D01*
X123357142Y-137452380D02*
X123261904Y-137404761D01*
X123214285Y-137357142D01*
X123166666Y-137261904D01*
X123166666Y-136976190D01*
X123214285Y-136880952D01*
X123261904Y-136833333D01*
X123357142Y-136785714D01*
X123499999Y-136785714D01*
X123595238Y-136833333D01*
X123642857Y-136880952D01*
X123690476Y-136976190D01*
X123690476Y-137261904D01*
X123642857Y-137357142D01*
X123595238Y-137404761D01*
X123499999Y-137452380D01*
X123357142Y-137452380D01*
X69000000Y-118761904D02*
X68952380Y-118857142D01*
X68952380Y-119000000D01*
X69000000Y-119142857D01*
X69095238Y-119238095D01*
X69190476Y-119285714D01*
X69380952Y-119333333D01*
X69523809Y-119333333D01*
X69714285Y-119285714D01*
X69809523Y-119238095D01*
X69904761Y-119142857D01*
X69952380Y-119000000D01*
X69952380Y-118904761D01*
X69904761Y-118761904D01*
X69857142Y-118714285D01*
X69523809Y-118714285D01*
X69523809Y-118904761D01*
X69952380Y-118285714D02*
X68952380Y-118285714D01*
X69952380Y-117714285D01*
X68952380Y-117714285D01*
X69952380Y-117238095D02*
X68952380Y-117238095D01*
X68952380Y-117000000D01*
X69000000Y-116857142D01*
X69095238Y-116761904D01*
X69190476Y-116714285D01*
X69380952Y-116666666D01*
X69523809Y-116666666D01*
X69714285Y-116714285D01*
X69809523Y-116761904D01*
X69904761Y-116857142D01*
X69952380Y-117000000D01*
X69952380Y-117238095D01*
X69952380Y-123619047D02*
X69952380Y-123428571D01*
X69904761Y-123333333D01*
X69857142Y-123285714D01*
X69714285Y-123190476D01*
X69523809Y-123142857D01*
X69142857Y-123142857D01*
X69047619Y-123190476D01*
X69000000Y-123238095D01*
X68952380Y-123333333D01*
X68952380Y-123523809D01*
X69000000Y-123619047D01*
X69047619Y-123666666D01*
X69142857Y-123714285D01*
X69380952Y-123714285D01*
X69476190Y-123666666D01*
X69523809Y-123619047D01*
X69571428Y-123523809D01*
X69571428Y-123333333D01*
X69523809Y-123238095D01*
X69476190Y-123190476D01*
X69380952Y-123142857D01*
X68952380Y-122857142D02*
X69952380Y-122523809D01*
X68952380Y-122190476D01*
X71476190Y-134452380D02*
X71476190Y-133452380D01*
X72047619Y-134452380D01*
X72047619Y-133452380D01*
X73095238Y-134452380D02*
X72761904Y-133976190D01*
X72523809Y-134452380D02*
X72523809Y-133452380D01*
X72904761Y-133452380D01*
X73000000Y-133500000D01*
X73047619Y-133547619D01*
X73095238Y-133642857D01*
X73095238Y-133785714D01*
X73047619Y-133880952D01*
X73000000Y-133928571D01*
X72904761Y-133976190D01*
X72523809Y-133976190D01*
X73857142Y-133928571D02*
X73523809Y-133928571D01*
X73523809Y-134452380D02*
X73523809Y-133452380D01*
X74000000Y-133452380D01*
X74333333Y-133547619D02*
X74380952Y-133500000D01*
X74476190Y-133452380D01*
X74714285Y-133452380D01*
X74809523Y-133500000D01*
X74857142Y-133547619D01*
X74904761Y-133642857D01*
X74904761Y-133738095D01*
X74857142Y-133880952D01*
X74285714Y-134452380D01*
X74904761Y-134452380D01*
X75761904Y-133785714D02*
X75761904Y-134452380D01*
X75523809Y-133404761D02*
X75285714Y-134119047D01*
X75904761Y-134119047D01*
X76761904Y-134452380D02*
X76285714Y-134452380D01*
X76285714Y-133452380D01*
X77285714Y-133452380D02*
X77380952Y-133452380D01*
X77476190Y-133500000D01*
X77523809Y-133547619D01*
X77571428Y-133642857D01*
X77619047Y-133833333D01*
X77619047Y-134071428D01*
X77571428Y-134261904D01*
X77523809Y-134357142D01*
X77476190Y-134404761D01*
X77380952Y-134452380D01*
X77285714Y-134452380D01*
X77190476Y-134404761D01*
X77142857Y-134357142D01*
X77095238Y-134261904D01*
X77047619Y-134071428D01*
X77047619Y-133833333D01*
X77095238Y-133642857D01*
X77142857Y-133547619D01*
X77190476Y-133500000D01*
X77285714Y-133452380D01*
X78571428Y-134452380D02*
X78000000Y-134452380D01*
X78285714Y-134452380D02*
X78285714Y-133452380D01*
X78190476Y-133595238D01*
X78095238Y-133690476D01*
X78000000Y-133738095D01*
D12*
%TO.C,G\u002A\u002A\u002A*%
G36*
X107945120Y-114706240D02*
G01*
X92065040Y-114706240D01*
X92065040Y-112275267D01*
X92843254Y-112275267D01*
X92843296Y-112379402D01*
X92843522Y-112467896D01*
X92843964Y-112542312D01*
X92844658Y-112604208D01*
X92845637Y-112655145D01*
X92846935Y-112696682D01*
X92848586Y-112730381D01*
X92850623Y-112757801D01*
X92853082Y-112780501D01*
X92855994Y-112800044D01*
X92859395Y-112817987D01*
X92861244Y-112826640D01*
X92906634Y-112988328D01*
X92969245Y-113141078D01*
X93047950Y-113283746D01*
X93141627Y-113415191D01*
X93249148Y-113534269D01*
X93369391Y-113639839D01*
X93501229Y-113730757D01*
X93643539Y-113805883D01*
X93795194Y-113864074D01*
X93914160Y-113895864D01*
X93983904Y-113907255D01*
X94067345Y-113914712D01*
X94158231Y-113918182D01*
X94250314Y-113917609D01*
X94337343Y-113912941D01*
X94413067Y-113904124D01*
X94434171Y-113900361D01*
X94596457Y-113858149D01*
X94749872Y-113797686D01*
X94893964Y-113719212D01*
X95028285Y-113622968D01*
X95138653Y-113523158D01*
X95248971Y-113398276D01*
X95342704Y-113262093D01*
X95419178Y-113115948D01*
X95477722Y-112961176D01*
X95517662Y-112799115D01*
X95524981Y-112755520D01*
X95527521Y-112735627D01*
X95529765Y-112710610D01*
X95531729Y-112679239D01*
X95533430Y-112640284D01*
X95534885Y-112592516D01*
X95536110Y-112534705D01*
X95537124Y-112465621D01*
X95537942Y-112384037D01*
X95538581Y-112288720D01*
X95539059Y-112178443D01*
X95539391Y-112051976D01*
X95539596Y-111908089D01*
X95539690Y-111745552D01*
X95539700Y-111682486D01*
X95539819Y-111509202D01*
X95540152Y-111349647D01*
X95540690Y-111204539D01*
X95541427Y-111074595D01*
X95542356Y-110960532D01*
X95543468Y-110863067D01*
X95544758Y-110782917D01*
X95546218Y-110720799D01*
X95547840Y-110677431D01*
X95549618Y-110653528D01*
X95549973Y-110651246D01*
X95576098Y-110564338D01*
X95619118Y-110485745D01*
X95676619Y-110417459D01*
X95746186Y-110361469D01*
X95825405Y-110319765D01*
X95911859Y-110294339D01*
X95991880Y-110287008D01*
X96088786Y-110296539D01*
X96177114Y-110324047D01*
X96255573Y-110368545D01*
X96322874Y-110429043D01*
X96377727Y-110504552D01*
X96418842Y-110594082D01*
X96427626Y-110621224D01*
X96429780Y-110629885D01*
X96431738Y-110641302D01*
X96433511Y-110656416D01*
X96435106Y-110676169D01*
X96436533Y-110701505D01*
X96437801Y-110733363D01*
X96438920Y-110772688D01*
X96439898Y-110820421D01*
X96440745Y-110877505D01*
X96441469Y-110944881D01*
X96442080Y-111023491D01*
X96442588Y-111114279D01*
X96443000Y-111218186D01*
X96443327Y-111336154D01*
X96443577Y-111469125D01*
X96443760Y-111618043D01*
X96443884Y-111783848D01*
X96443959Y-111967483D01*
X96443994Y-112169891D01*
X96444000Y-112310324D01*
X96444000Y-113944240D01*
X97348812Y-113944240D01*
X97345582Y-112255140D01*
X97345164Y-112038211D01*
X97344772Y-111840642D01*
X97344390Y-111661475D01*
X97344005Y-111499749D01*
X97343605Y-111354505D01*
X97343175Y-111224784D01*
X97342703Y-111109625D01*
X97342175Y-111008071D01*
X97341578Y-110919160D01*
X97340898Y-110841934D01*
X97340121Y-110775433D01*
X97339235Y-110718698D01*
X97338227Y-110670769D01*
X97337081Y-110630687D01*
X97335787Y-110597491D01*
X97334329Y-110570224D01*
X97332694Y-110547925D01*
X97330870Y-110529634D01*
X97328842Y-110514393D01*
X97326598Y-110501242D01*
X97324124Y-110489221D01*
X97321406Y-110477370D01*
X97320734Y-110474522D01*
X97271934Y-110307726D01*
X97207442Y-110151814D01*
X97128259Y-110007618D01*
X97035389Y-109875969D01*
X96929832Y-109757697D01*
X96812592Y-109653635D01*
X96684669Y-109564612D01*
X96547066Y-109491460D01*
X96400784Y-109435009D01*
X96246827Y-109396092D01*
X96086195Y-109375539D01*
X95991880Y-109372359D01*
X95828374Y-109382107D01*
X95670559Y-109410739D01*
X95519557Y-109457342D01*
X95376493Y-109521000D01*
X95242489Y-109600797D01*
X95118668Y-109695820D01*
X95006154Y-109805153D01*
X94906070Y-109927881D01*
X94819539Y-110063089D01*
X94747684Y-110209862D01*
X94691629Y-110367286D01*
X94669996Y-110449200D01*
X94667092Y-110462886D01*
X94664495Y-110478638D01*
X94662179Y-110497682D01*
X94660117Y-110521244D01*
X94658284Y-110550549D01*
X94656652Y-110586826D01*
X94655196Y-110631299D01*
X94653890Y-110685195D01*
X94652707Y-110749740D01*
X94651622Y-110826160D01*
X94650607Y-110915682D01*
X94649638Y-111019532D01*
X94648687Y-111138936D01*
X94647729Y-111275120D01*
X94646737Y-111429311D01*
X94645808Y-111582040D01*
X94644790Y-111753829D01*
X94643864Y-111906529D01*
X94642971Y-112041371D01*
X94642055Y-112159584D01*
X94641055Y-112262399D01*
X94639914Y-112351046D01*
X94638573Y-112426756D01*
X94636974Y-112490758D01*
X94635058Y-112544284D01*
X94632766Y-112588563D01*
X94630041Y-112624826D01*
X94626824Y-112654303D01*
X94623056Y-112678224D01*
X94618678Y-112697821D01*
X94613633Y-112714322D01*
X94607862Y-112728959D01*
X94601306Y-112742961D01*
X94593907Y-112757560D01*
X94589533Y-112766138D01*
X94541464Y-112839450D01*
X94478762Y-112901556D01*
X94404706Y-112950843D01*
X94322575Y-112985700D01*
X94235648Y-113004515D01*
X94147205Y-113005677D01*
X94112055Y-113000822D01*
X94022185Y-112974794D01*
X93940958Y-112932581D01*
X93870517Y-112876323D01*
X93813008Y-112808158D01*
X93770575Y-112730224D01*
X93745363Y-112644659D01*
X93743506Y-112633378D01*
X93742357Y-112614925D01*
X93741440Y-112576966D01*
X93740750Y-112520314D01*
X93740285Y-112445782D01*
X93740040Y-112354182D01*
X93740011Y-112246328D01*
X93740196Y-112123032D01*
X93740590Y-111985108D01*
X93741189Y-111833367D01*
X93741991Y-111668622D01*
X93742992Y-111491687D01*
X93744187Y-111303375D01*
X93745573Y-111104497D01*
X93747147Y-110895868D01*
X93748905Y-110678299D01*
X93750842Y-110452604D01*
X93752957Y-110219595D01*
X93755244Y-109980085D01*
X93755601Y-109943740D01*
X93761232Y-109372240D01*
X92859993Y-109372240D01*
X92852440Y-110329820D01*
X92851237Y-110489447D01*
X92850059Y-110658934D01*
X92848926Y-110835030D01*
X92847853Y-111014484D01*
X92846858Y-111194048D01*
X92845959Y-111370471D01*
X92845171Y-111540503D01*
X92844512Y-111700893D01*
X92844000Y-111848393D01*
X92843651Y-111979751D01*
X92843584Y-112013840D01*
X92843361Y-112153933D01*
X92843254Y-112275267D01*
X92065040Y-112275267D01*
X92065040Y-109290960D01*
X97835358Y-109290960D01*
X97838553Y-111015620D01*
X97838962Y-111234965D01*
X97839349Y-111434938D01*
X97839727Y-111616490D01*
X97840107Y-111780568D01*
X97840503Y-111928121D01*
X97840928Y-112060098D01*
X97841395Y-112177448D01*
X97841915Y-112281119D01*
X97842503Y-112372061D01*
X97843170Y-112451222D01*
X97843929Y-112519551D01*
X97844794Y-112577997D01*
X97845777Y-112627508D01*
X97846891Y-112669033D01*
X97848148Y-112703522D01*
X97849562Y-112731922D01*
X97851144Y-112755184D01*
X97852909Y-112774254D01*
X97854868Y-112790083D01*
X97857035Y-112803619D01*
X97859421Y-112815811D01*
X97862041Y-112827608D01*
X97862992Y-112831720D01*
X97912108Y-113001392D01*
X97978049Y-113160571D01*
X98060402Y-113308330D01*
X98100634Y-113367949D01*
X98180403Y-113466919D01*
X98275384Y-113563290D01*
X98380541Y-113652759D01*
X98490838Y-113731025D01*
X98596177Y-113791274D01*
X98661543Y-113820336D01*
X98739234Y-113849247D01*
X98821401Y-113875460D01*
X98900191Y-113896428D01*
X98954502Y-113907544D01*
X99026932Y-113916295D01*
X99111975Y-113921196D01*
X99202287Y-113922229D01*
X99290528Y-113919377D01*
X99369353Y-113912622D01*
X99398045Y-113908592D01*
X99517986Y-113882517D01*
X99639200Y-113843864D01*
X99757369Y-113794643D01*
X99868179Y-113736861D01*
X99967313Y-113672526D01*
X100047798Y-113606176D01*
X100069167Y-113587623D01*
X100083187Y-113581998D01*
X100096251Y-113587257D01*
X100099580Y-113589634D01*
X100115759Y-113601766D01*
X100143530Y-113622728D01*
X100178307Y-113649057D01*
X100199969Y-113665487D01*
X100328277Y-113750303D01*
X100467802Y-113819099D01*
X100616427Y-113871188D01*
X100772037Y-113905881D01*
X100932514Y-113922491D01*
X100995680Y-113923920D01*
X101162169Y-113914343D01*
X101321687Y-113885698D01*
X101473933Y-113838109D01*
X101618605Y-113771701D01*
X101755403Y-113686600D01*
X101884024Y-113582929D01*
X101936099Y-113533318D01*
X102047871Y-113407440D01*
X102143062Y-113270037D01*
X102221245Y-113121911D01*
X102281995Y-112963862D01*
X102284146Y-112955586D01*
X102682240Y-112955586D01*
X102682240Y-113873120D01*
X102903220Y-113874588D01*
X102946769Y-113874888D01*
X103008729Y-113875329D01*
X103087190Y-113875897D01*
X103180243Y-113876578D01*
X103285979Y-113877358D01*
X103402487Y-113878223D01*
X103527860Y-113879159D01*
X103660188Y-113880151D01*
X103797562Y-113881185D01*
X103938072Y-113882248D01*
X104053840Y-113883126D01*
X104204551Y-113884201D01*
X104360213Y-113885178D01*
X104518140Y-113886048D01*
X104675647Y-113886800D01*
X104830048Y-113887427D01*
X104978659Y-113887918D01*
X105118794Y-113888263D01*
X105247768Y-113888454D01*
X105362896Y-113888480D01*
X105461492Y-113888333D01*
X105496560Y-113888220D01*
X105612883Y-113887730D01*
X105710836Y-113887182D01*
X105792369Y-113886501D01*
X105859432Y-113885612D01*
X105913976Y-113884441D01*
X105957950Y-113882914D01*
X105993304Y-113880955D01*
X106021988Y-113878491D01*
X106045953Y-113875446D01*
X106067148Y-113871746D01*
X106087523Y-113867317D01*
X106096000Y-113865295D01*
X106259899Y-113815594D01*
X106412925Y-113749005D01*
X106554354Y-113666244D01*
X106683463Y-113568024D01*
X106799530Y-113455063D01*
X106901833Y-113328074D01*
X106989647Y-113187773D01*
X107062250Y-113034875D01*
X107118920Y-112870094D01*
X107125316Y-112846960D01*
X107135960Y-112806508D01*
X107143876Y-112772766D01*
X107149463Y-112741568D01*
X107153120Y-112708749D01*
X107155246Y-112670144D01*
X107156241Y-112621589D01*
X107156504Y-112558917D01*
X107156487Y-112521840D01*
X107156277Y-112450540D01*
X107155546Y-112395371D01*
X107153893Y-112352145D01*
X107150912Y-112316673D01*
X107146200Y-112284766D01*
X107139355Y-112252235D01*
X107129972Y-112214893D01*
X107125164Y-112196720D01*
X107071008Y-112030289D01*
X107000638Y-111875872D01*
X106914654Y-111734065D01*
X106813653Y-111605466D01*
X106698231Y-111490672D01*
X106568988Y-111390280D01*
X106426520Y-111304887D01*
X106271425Y-111235092D01*
X106111240Y-111183324D01*
X106009640Y-111156240D01*
X104968240Y-111150575D01*
X104799113Y-111149637D01*
X104649104Y-111148752D01*
X104517009Y-111147896D01*
X104401625Y-111147041D01*
X104301750Y-111146162D01*
X104216181Y-111145232D01*
X104143714Y-111144225D01*
X104083148Y-111143116D01*
X104033279Y-111141877D01*
X103992904Y-111140484D01*
X103960821Y-111138909D01*
X103935827Y-111137127D01*
X103916718Y-111135111D01*
X103902293Y-111132836D01*
X103891348Y-111130275D01*
X103882681Y-111127402D01*
X103881553Y-111126963D01*
X103796306Y-111083603D01*
X103724993Y-111028084D01*
X103667726Y-110962647D01*
X103624614Y-110889536D01*
X103595767Y-110810992D01*
X103581295Y-110729259D01*
X103581308Y-110646577D01*
X103595915Y-110565190D01*
X103625227Y-110487340D01*
X103669354Y-110415269D01*
X103728405Y-110351219D01*
X103802491Y-110297434D01*
X103839922Y-110277577D01*
X103916680Y-110240920D01*
X105549900Y-110238258D01*
X107183120Y-110235597D01*
X107183120Y-109320975D01*
X103825240Y-109327007D01*
X103743960Y-109348893D01*
X103575670Y-109403816D01*
X103419497Y-109474351D01*
X103276119Y-109559803D01*
X103146216Y-109659478D01*
X103030467Y-109772682D01*
X102929551Y-109898718D01*
X102844149Y-110036893D01*
X102774939Y-110186512D01*
X102722600Y-110346880D01*
X102707700Y-110408560D01*
X102697117Y-110472497D01*
X102689584Y-110550444D01*
X102685244Y-110636297D01*
X102684241Y-110723954D01*
X102686718Y-110807313D01*
X102692820Y-110880273D01*
X102696039Y-110903500D01*
X102731152Y-111063253D01*
X102784163Y-111216185D01*
X102853884Y-111360873D01*
X102939128Y-111495890D01*
X103038706Y-111619812D01*
X103151430Y-111731215D01*
X103276112Y-111828674D01*
X103411565Y-111910764D01*
X103556600Y-111976060D01*
X103604651Y-111993113D01*
X103635075Y-112003324D01*
X103662239Y-112012404D01*
X103687459Y-112020425D01*
X103712050Y-112027459D01*
X103737327Y-112033580D01*
X103764604Y-112038860D01*
X103795197Y-112043371D01*
X103830421Y-112047185D01*
X103871590Y-112050377D01*
X103920020Y-112053018D01*
X103977025Y-112055180D01*
X104043921Y-112056937D01*
X104122022Y-112058361D01*
X104212644Y-112059524D01*
X104317101Y-112060500D01*
X104436709Y-112061360D01*
X104572782Y-112062177D01*
X104726636Y-112063025D01*
X104886960Y-112063904D01*
X105928360Y-112069720D01*
X105995653Y-112101604D01*
X106078433Y-112150848D01*
X106146138Y-112213349D01*
X106199615Y-112290037D01*
X106232529Y-112361714D01*
X106258271Y-112452092D01*
X106265053Y-112538470D01*
X106252735Y-112624108D01*
X106221180Y-112712266D01*
X106217284Y-112720663D01*
X106167673Y-112802943D01*
X106103295Y-112871352D01*
X106024574Y-112925512D01*
X105947859Y-112959655D01*
X105938339Y-112962967D01*
X105928726Y-112965911D01*
X105917851Y-112968503D01*
X105904543Y-112970756D01*
X105887634Y-112972686D01*
X105865952Y-112974308D01*
X105838329Y-112975637D01*
X105803593Y-112976687D01*
X105760575Y-112977474D01*
X105708105Y-112978013D01*
X105645013Y-112978318D01*
X105570129Y-112978404D01*
X105482283Y-112978287D01*
X105380304Y-112977982D01*
X105263024Y-112977502D01*
X105129272Y-112976864D01*
X104977877Y-112976082D01*
X104807671Y-112975171D01*
X104754880Y-112974886D01*
X104593177Y-112973974D01*
X104429270Y-112972976D01*
X104265267Y-112971907D01*
X104103275Y-112970785D01*
X103945400Y-112969627D01*
X103793750Y-112968448D01*
X103650431Y-112967267D01*
X103517551Y-112966099D01*
X103397216Y-112964961D01*
X103291533Y-112963870D01*
X103202610Y-112962842D01*
X103152140Y-112962179D01*
X102682240Y-112955586D01*
X102284146Y-112955586D01*
X102322997Y-112806117D01*
X102325250Y-112793925D01*
X102327310Y-112779840D01*
X102329187Y-112762921D01*
X102330893Y-112742224D01*
X102332437Y-112716807D01*
X102333832Y-112685727D01*
X102335089Y-112648040D01*
X102336217Y-112602804D01*
X102337230Y-112549077D01*
X102338136Y-112485916D01*
X102338949Y-112412376D01*
X102339677Y-112327517D01*
X102340334Y-112230395D01*
X102340929Y-112120067D01*
X102341474Y-111995590D01*
X102341979Y-111856022D01*
X102342457Y-111700419D01*
X102342917Y-111527840D01*
X102343371Y-111337340D01*
X102343830Y-111127978D01*
X102344087Y-111005460D01*
X102347631Y-109290960D01*
X101442720Y-109290960D01*
X101442720Y-110955065D01*
X101442734Y-111174872D01*
X101442756Y-111375303D01*
X101442752Y-111557304D01*
X101442689Y-111721820D01*
X101442536Y-111869794D01*
X101442258Y-112002173D01*
X101441823Y-112119899D01*
X101441198Y-112223920D01*
X101440351Y-112315178D01*
X101439248Y-112394619D01*
X101437857Y-112463188D01*
X101436144Y-112521829D01*
X101434078Y-112571487D01*
X101431625Y-112613107D01*
X101428753Y-112647633D01*
X101425427Y-112676011D01*
X101421617Y-112699186D01*
X101417288Y-112718100D01*
X101412409Y-112733701D01*
X101406946Y-112746932D01*
X101400866Y-112758738D01*
X101394136Y-112770064D01*
X101386725Y-112781855D01*
X101378789Y-112794735D01*
X101326970Y-112863034D01*
X101259495Y-112923075D01*
X101180507Y-112971177D01*
X101179988Y-112971431D01*
X101150199Y-112985493D01*
X101125573Y-112994864D01*
X101100664Y-113000490D01*
X101070030Y-113003320D01*
X101028226Y-113004300D01*
X100990600Y-113004393D01*
X100938050Y-113004086D01*
X100900369Y-113002581D01*
X100872109Y-112998927D01*
X100847819Y-112992175D01*
X100822050Y-112981374D01*
X100801211Y-112971384D01*
X100722188Y-112923424D01*
X100654628Y-112863463D01*
X100602683Y-112795191D01*
X100602410Y-112794735D01*
X100594299Y-112781577D01*
X100586904Y-112769807D01*
X100580189Y-112758481D01*
X100574124Y-112746653D01*
X100568674Y-112733379D01*
X100563807Y-112717714D01*
X100559491Y-112698714D01*
X100555691Y-112675433D01*
X100552377Y-112646927D01*
X100549514Y-112612251D01*
X100547070Y-112570460D01*
X100545012Y-112520610D01*
X100543307Y-112461756D01*
X100541923Y-112392952D01*
X100540826Y-112313255D01*
X100539985Y-112221720D01*
X100539364Y-112117401D01*
X100538933Y-111999355D01*
X100538659Y-111866636D01*
X100538507Y-111718299D01*
X100538447Y-111553400D01*
X100538444Y-111370994D01*
X100538465Y-111170136D01*
X100538480Y-110955065D01*
X100538480Y-109290960D01*
X99634474Y-109290960D01*
X99629160Y-112679320D01*
X99596633Y-112747986D01*
X99562631Y-112806397D01*
X99518073Y-112863831D01*
X99468317Y-112914190D01*
X99418725Y-112951377D01*
X99416953Y-112952427D01*
X99339744Y-112986657D01*
X99253986Y-113005772D01*
X99164978Y-113009525D01*
X99078017Y-112997674D01*
X99001693Y-112971538D01*
X98923126Y-112924013D01*
X98854731Y-112861220D01*
X98799153Y-112786568D01*
X98759039Y-112703463D01*
X98740147Y-112634753D01*
X98738707Y-112616615D01*
X98737368Y-112578530D01*
X98736133Y-112520870D01*
X98735004Y-112444009D01*
X98733985Y-112348319D01*
X98733075Y-112234174D01*
X98732279Y-112101944D01*
X98731598Y-111952005D01*
X98731035Y-111784727D01*
X98730591Y-111600484D01*
X98730269Y-111399649D01*
X98730071Y-111182594D01*
X98730000Y-110949693D01*
X98730000Y-109290960D01*
X97835358Y-109290960D01*
X92065040Y-109290960D01*
X92065040Y-105856089D01*
X92808016Y-105856089D01*
X92820523Y-106015520D01*
X92850224Y-106171175D01*
X92896621Y-106320915D01*
X92959217Y-106462597D01*
X93037514Y-106594083D01*
X93103083Y-106680938D01*
X93152475Y-106740289D01*
X93082871Y-106831967D01*
X92992065Y-106968248D01*
X92917713Y-107115753D01*
X92860577Y-107272798D01*
X92830481Y-107391040D01*
X92822397Y-107443751D01*
X92816525Y-107511342D01*
X92812916Y-107588490D01*
X92811619Y-107669870D01*
X92812684Y-107750158D01*
X92816160Y-107824030D01*
X92822097Y-107886162D01*
X92825644Y-107909200D01*
X92864304Y-108067954D01*
X92920870Y-108219093D01*
X92994123Y-108361329D01*
X93082848Y-108493377D01*
X93185828Y-108613951D01*
X93301846Y-108721764D01*
X93429685Y-108815530D01*
X93568130Y-108893964D01*
X93715964Y-108955779D01*
X93853200Y-108995486D01*
X93896671Y-109005217D01*
X93936104Y-109013459D01*
X93964655Y-109018798D01*
X93970040Y-109019618D01*
X93983383Y-109020078D01*
X94015966Y-109020541D01*
X94066708Y-109021004D01*
X94134529Y-109021465D01*
X94218348Y-109021918D01*
X94317085Y-109022360D01*
X94429660Y-109022789D01*
X94554991Y-109023200D01*
X94691998Y-109023590D01*
X94839602Y-109023955D01*
X94996721Y-109024292D01*
X95162275Y-109024597D01*
X95335184Y-109024866D01*
X95514368Y-109025097D01*
X95689724Y-109025277D01*
X97378929Y-109026800D01*
X97376284Y-108572140D01*
X97373640Y-108117480D01*
X94031000Y-108107320D01*
X93964960Y-108074905D01*
X93887924Y-108026097D01*
X93820682Y-107961118D01*
X93766109Y-107882903D01*
X93753484Y-107859017D01*
X93737967Y-107826980D01*
X93727466Y-107801588D01*
X93721003Y-107777525D01*
X93717596Y-107749473D01*
X93716269Y-107712114D01*
X93716040Y-107660132D01*
X93716040Y-107655726D01*
X93716264Y-107602200D01*
X93717548Y-107563728D01*
X93720812Y-107535048D01*
X93726974Y-107510895D01*
X93736953Y-107486005D01*
X93750710Y-107457080D01*
X93800465Y-107376784D01*
X93864144Y-107309353D01*
X93939263Y-107256709D01*
X94023340Y-107220773D01*
X94070965Y-107209107D01*
X94088009Y-107207463D01*
X94120766Y-107205960D01*
X94169605Y-107204595D01*
X94234893Y-107203366D01*
X94316998Y-107202270D01*
X94416285Y-107201305D01*
X94533124Y-107200469D01*
X94667882Y-107199759D01*
X94820925Y-107199172D01*
X94992621Y-107198707D01*
X95183337Y-107198361D01*
X95393441Y-107198131D01*
X95623301Y-107198015D01*
X95754985Y-107198000D01*
X97378720Y-107198000D01*
X97378720Y-106283600D01*
X95729564Y-106283600D01*
X95511687Y-106283612D01*
X95313182Y-106283630D01*
X95133096Y-106283623D01*
X94970482Y-106283561D01*
X94824389Y-106283414D01*
X94693867Y-106283152D01*
X94577967Y-106282744D01*
X94475739Y-106282160D01*
X94386234Y-106281371D01*
X94308501Y-106280345D01*
X94241591Y-106279053D01*
X94184554Y-106277465D01*
X94136441Y-106275550D01*
X94096302Y-106273279D01*
X94063187Y-106270621D01*
X94036146Y-106267546D01*
X94014230Y-106264024D01*
X93996490Y-106260024D01*
X93981974Y-106255517D01*
X93969735Y-106250472D01*
X93958821Y-106244859D01*
X93948283Y-106238649D01*
X93937172Y-106231810D01*
X93928117Y-106226383D01*
X93878857Y-106190010D01*
X93829168Y-106140234D01*
X93784391Y-106083132D01*
X93749870Y-106024786D01*
X93748566Y-106022066D01*
X93734942Y-105992269D01*
X93725771Y-105967517D01*
X93720174Y-105942522D01*
X93717273Y-105911998D01*
X93716189Y-105870659D01*
X93716040Y-105826400D01*
X93716313Y-105772568D01*
X93717704Y-105733826D01*
X93721069Y-105704946D01*
X93727264Y-105680697D01*
X93737144Y-105655852D01*
X93747641Y-105633360D01*
X93798412Y-105549296D01*
X93862882Y-105479672D01*
X93939811Y-105425579D01*
X94026844Y-105388448D01*
X94035445Y-105385942D01*
X94045024Y-105383662D01*
X94056539Y-105381600D01*
X94070945Y-105379743D01*
X94089201Y-105378081D01*
X94112261Y-105376603D01*
X94141083Y-105375298D01*
X94176624Y-105374156D01*
X94219839Y-105373166D01*
X94271687Y-105372317D01*
X94333123Y-105371598D01*
X94405104Y-105370999D01*
X94488586Y-105370508D01*
X94584527Y-105370116D01*
X94693883Y-105369810D01*
X94817610Y-105369580D01*
X94956666Y-105369416D01*
X95112007Y-105369307D01*
X95284589Y-105369242D01*
X95475369Y-105369210D01*
X95685304Y-105369200D01*
X97378720Y-105369200D01*
X97378720Y-105186320D01*
X102621280Y-105186320D01*
X104250573Y-105186320D01*
X104490100Y-105186385D01*
X104712216Y-105186582D01*
X104916676Y-105186908D01*
X105103232Y-105187362D01*
X105271637Y-105187942D01*
X105421645Y-105188646D01*
X105553010Y-105189474D01*
X105665485Y-105190424D01*
X105758822Y-105191493D01*
X105832776Y-105192682D01*
X105887100Y-105193988D01*
X105921547Y-105195409D01*
X105934593Y-105196622D01*
X106020245Y-105222590D01*
X106097214Y-105265219D01*
X106163852Y-105322103D01*
X106218511Y-105390840D01*
X106259540Y-105469025D01*
X106285293Y-105554255D01*
X106294119Y-105644125D01*
X106288677Y-105712884D01*
X106265933Y-105800317D01*
X106227420Y-105881197D01*
X106175458Y-105952102D01*
X106112372Y-106009612D01*
X106068695Y-106037036D01*
X106053725Y-106045217D01*
X106040500Y-106052669D01*
X106028056Y-106059426D01*
X106015433Y-106065521D01*
X106001666Y-106070989D01*
X105985794Y-106075863D01*
X105966853Y-106080177D01*
X105943883Y-106083966D01*
X105915918Y-106087262D01*
X105881999Y-106090100D01*
X105841160Y-106092514D01*
X105792441Y-106094538D01*
X105734879Y-106096206D01*
X105667511Y-106097551D01*
X105589374Y-106098607D01*
X105499506Y-106099409D01*
X105396944Y-106099989D01*
X105280726Y-106100383D01*
X105149889Y-106100624D01*
X105003471Y-106100746D01*
X104840509Y-106100782D01*
X104660041Y-106100768D01*
X104461104Y-106100735D01*
X104260275Y-106100720D01*
X102621280Y-106100720D01*
X102621280Y-107015120D01*
X104259580Y-107015368D01*
X104500226Y-107015469D01*
X104723157Y-107015697D01*
X104928154Y-107016050D01*
X105114996Y-107016526D01*
X105283463Y-107017125D01*
X105433335Y-107017845D01*
X105564391Y-107018684D01*
X105676412Y-107019641D01*
X105769178Y-107020715D01*
X105842468Y-107021904D01*
X105896062Y-107023207D01*
X105929740Y-107024623D01*
X105942435Y-107025888D01*
X106029407Y-107056002D01*
X106107647Y-107103000D01*
X106175008Y-107164543D01*
X106229346Y-107238293D01*
X106268515Y-107321910D01*
X106289036Y-107403739D01*
X106293533Y-107497111D01*
X106279125Y-107588036D01*
X106247223Y-107673875D01*
X106199242Y-107751993D01*
X106136594Y-107819749D01*
X106060693Y-107874508D01*
X106027506Y-107891913D01*
X105958840Y-107924440D01*
X104290060Y-107927098D01*
X102621280Y-107929757D01*
X102621280Y-108844489D01*
X106019800Y-108838063D01*
X106118797Y-108815395D01*
X106281346Y-108768206D01*
X106434280Y-108703666D01*
X106576555Y-108622599D01*
X106707127Y-108525826D01*
X106824953Y-108414169D01*
X106928990Y-108288452D01*
X107018193Y-108149496D01*
X107056163Y-108076840D01*
X107107267Y-107960413D01*
X107144830Y-107847233D01*
X107170339Y-107731190D01*
X107185280Y-107606174D01*
X107189651Y-107528200D01*
X107187516Y-107361690D01*
X107168053Y-107204814D01*
X107130663Y-107055685D01*
X107074745Y-106912417D01*
X106999700Y-106773123D01*
X106906478Y-106637943D01*
X106847287Y-106560487D01*
X106919006Y-106465223D01*
X107005102Y-106334774D01*
X107077441Y-106191225D01*
X107134686Y-106037559D01*
X107169197Y-105907145D01*
X107178658Y-105847720D01*
X107185102Y-105773754D01*
X107188523Y-105690801D01*
X107188916Y-105604417D01*
X107186276Y-105520155D01*
X107180599Y-105443570D01*
X107171880Y-105380218D01*
X107169680Y-105369200D01*
X107124803Y-105205817D01*
X107062436Y-105051545D01*
X106983446Y-104907517D01*
X106888703Y-104774866D01*
X106779075Y-104654725D01*
X106655430Y-104548229D01*
X106518636Y-104456510D01*
X106436205Y-104411821D01*
X106291921Y-104349939D01*
X106137695Y-104302826D01*
X106105907Y-104295299D01*
X106094878Y-104293093D01*
X106081623Y-104291076D01*
X106065206Y-104289238D01*
X106044688Y-104287568D01*
X106019132Y-104286056D01*
X105987602Y-104284690D01*
X105949158Y-104283460D01*
X105902864Y-104282355D01*
X105847782Y-104281364D01*
X105782975Y-104280477D01*
X105707505Y-104279681D01*
X105620435Y-104278968D01*
X105520827Y-104278326D01*
X105407743Y-104277743D01*
X105280247Y-104277210D01*
X105137400Y-104276716D01*
X104978265Y-104276249D01*
X104801905Y-104275799D01*
X104607381Y-104275354D01*
X104393758Y-104274906D01*
X104325620Y-104274768D01*
X102621280Y-104271352D01*
X102621280Y-105186320D01*
X97378720Y-105186320D01*
X97378720Y-104454232D01*
X95674380Y-104457502D01*
X95453795Y-104457905D01*
X95252554Y-104458252D01*
X95069680Y-104458578D01*
X94904196Y-104458916D01*
X94755128Y-104459303D01*
X94621497Y-104459771D01*
X94502328Y-104460356D01*
X94396645Y-104461093D01*
X94303471Y-104462015D01*
X94221830Y-104463157D01*
X94150745Y-104464555D01*
X94089240Y-104466242D01*
X94036340Y-104468253D01*
X93991066Y-104470622D01*
X93952444Y-104473384D01*
X93919497Y-104476575D01*
X93891249Y-104480227D01*
X93866722Y-104484376D01*
X93844942Y-104489056D01*
X93824931Y-104494302D01*
X93805713Y-104500148D01*
X93786312Y-104506629D01*
X93765752Y-104513780D01*
X93743056Y-104521635D01*
X93729131Y-104526326D01*
X93579101Y-104586684D01*
X93438730Y-104664140D01*
X93309250Y-104757301D01*
X93191895Y-104864774D01*
X93087898Y-104985167D01*
X92998492Y-105117087D01*
X92924911Y-105259141D01*
X92868386Y-105409935D01*
X92836575Y-105534465D01*
X92813201Y-105695024D01*
X92808016Y-105856089D01*
X92065040Y-105856089D01*
X92065040Y-103083563D01*
X92827040Y-103083563D01*
X92827040Y-103533808D01*
X92827195Y-103627571D01*
X92827639Y-103715038D01*
X92828339Y-103794121D01*
X92829264Y-103862736D01*
X92830380Y-103918794D01*
X92831655Y-103960210D01*
X92833058Y-103984897D01*
X92834130Y-103991144D01*
X92844901Y-103991902D01*
X92874920Y-103992599D01*
X92923116Y-103993232D01*
X92988418Y-103993797D01*
X93069755Y-103994293D01*
X93166055Y-103994717D01*
X93276247Y-103995067D01*
X93399259Y-103995341D01*
X93534021Y-103995535D01*
X93679461Y-103995647D01*
X93834508Y-103995676D01*
X93998090Y-103995617D01*
X94169136Y-103995470D01*
X94346575Y-103995231D01*
X94497830Y-103994962D01*
X94712567Y-103994535D01*
X94907956Y-103994134D01*
X95084967Y-103993744D01*
X95244572Y-103993351D01*
X95387742Y-103992942D01*
X95515450Y-103992503D01*
X95628665Y-103992019D01*
X95728360Y-103991478D01*
X95815505Y-103990865D01*
X95891073Y-103990166D01*
X95956034Y-103989368D01*
X96011360Y-103988456D01*
X96058022Y-103987417D01*
X96096991Y-103986237D01*
X96129239Y-103984902D01*
X96155738Y-103983398D01*
X96177457Y-103981712D01*
X96195370Y-103979829D01*
X96210447Y-103977736D01*
X96223659Y-103975418D01*
X96235978Y-103972862D01*
X96248376Y-103970055D01*
X96248696Y-103969981D01*
X96398788Y-103928608D01*
X96534481Y-103876166D01*
X96659580Y-103810614D01*
X96777891Y-103729908D01*
X96893221Y-103632008D01*
X96912439Y-103613858D01*
X97026193Y-103491112D01*
X97123220Y-103356975D01*
X97203154Y-103212110D01*
X97265629Y-103057177D01*
X97309226Y-102897781D01*
X97321448Y-102821977D01*
X97329287Y-102733107D01*
X97332680Y-102637611D01*
X97331566Y-102541932D01*
X97325883Y-102452512D01*
X97315568Y-102375794D01*
X97314316Y-102369257D01*
X97272897Y-102208891D01*
X97213898Y-102055359D01*
X97179190Y-101988709D01*
X97673358Y-101988709D01*
X97673358Y-102200056D01*
X97673360Y-102340283D01*
X97673360Y-104028080D01*
X98577600Y-104028080D01*
X98577600Y-102352585D01*
X98577607Y-102136077D01*
X98577638Y-101938944D01*
X98577700Y-101760243D01*
X98577806Y-101599027D01*
X98577964Y-101454354D01*
X98578185Y-101325278D01*
X98578478Y-101210855D01*
X98578855Y-101110140D01*
X98579324Y-101022188D01*
X98579897Y-100946056D01*
X98580583Y-100880798D01*
X98581392Y-100825470D01*
X98582334Y-100779128D01*
X98583420Y-100740827D01*
X98584659Y-100709622D01*
X98586062Y-100684570D01*
X98587639Y-100664724D01*
X98589399Y-100649141D01*
X98591353Y-100636877D01*
X98593511Y-100626986D01*
X98595883Y-100618525D01*
X98596119Y-100617765D01*
X98628634Y-100539754D01*
X98676128Y-100469409D01*
X98722725Y-100419460D01*
X98794410Y-100364036D01*
X98873931Y-100325922D01*
X98958513Y-100305101D01*
X99045378Y-100301558D01*
X99131750Y-100315274D01*
X99214851Y-100346234D01*
X99291905Y-100394419D01*
X99325363Y-100423127D01*
X99379955Y-100482067D01*
X99419641Y-100543592D01*
X99449202Y-100615317D01*
X99452538Y-100625748D01*
X99455013Y-100634266D01*
X99457265Y-100643810D01*
X99459305Y-100655330D01*
X99461143Y-100669773D01*
X99462789Y-100688089D01*
X99464255Y-100711225D01*
X99465551Y-100740130D01*
X99466687Y-100775753D01*
X99467673Y-100819042D01*
X99468521Y-100870946D01*
X99469240Y-100932413D01*
X99469842Y-101004391D01*
X99470336Y-101087830D01*
X99470733Y-101183676D01*
X99471043Y-101292880D01*
X99471278Y-101416389D01*
X99471447Y-101555153D01*
X99471561Y-101710118D01*
X99471631Y-101882234D01*
X99471667Y-102072450D01*
X99471679Y-102281714D01*
X99471680Y-102357665D01*
X99471680Y-104028080D01*
X100375628Y-104028080D01*
X100381000Y-100639720D01*
X100413664Y-100570757D01*
X100463010Y-100488393D01*
X100525529Y-100419383D01*
X100598862Y-100365025D01*
X100680649Y-100326616D01*
X100768530Y-100305454D01*
X100860145Y-100302836D01*
X100893991Y-100306745D01*
X100974843Y-100326364D01*
X101045867Y-100359916D01*
X101112207Y-100410072D01*
X101135024Y-100431795D01*
X101196202Y-100503994D01*
X101241256Y-100581140D01*
X101268186Y-100659777D01*
X101268895Y-100663080D01*
X101270521Y-100678201D01*
X101272009Y-100707652D01*
X101273362Y-100751889D01*
X101274581Y-100811369D01*
X101275672Y-100886550D01*
X101276636Y-100977888D01*
X101277477Y-101085840D01*
X101278197Y-101210863D01*
X101278800Y-101353414D01*
X101279288Y-101513949D01*
X101279666Y-101692927D01*
X101279934Y-101890803D01*
X101280098Y-102108034D01*
X101280159Y-102345078D01*
X101280160Y-102372500D01*
X101280160Y-104028080D01*
X102174240Y-104028080D01*
X102174240Y-102322530D01*
X102174222Y-102100814D01*
X102174163Y-101898492D01*
X102174055Y-101714638D01*
X102173890Y-101548326D01*
X102173660Y-101398631D01*
X102173357Y-101264626D01*
X102172973Y-101145386D01*
X102172500Y-101039985D01*
X102171931Y-100947497D01*
X102171256Y-100866996D01*
X102170468Y-100797556D01*
X102169560Y-100738252D01*
X102168522Y-100688157D01*
X102167348Y-100646346D01*
X102166028Y-100611892D01*
X102164556Y-100583871D01*
X102162923Y-100561355D01*
X102161121Y-100543419D01*
X102159143Y-100529138D01*
X102158744Y-100526750D01*
X102121022Y-100364169D01*
X102065855Y-100210477D01*
X101994373Y-100066690D01*
X101907702Y-99933827D01*
X101806970Y-99812907D01*
X101693306Y-99704947D01*
X101567836Y-99610965D01*
X101431689Y-99531980D01*
X101285992Y-99469010D01*
X101131874Y-99423073D01*
X100970460Y-99395187D01*
X100898463Y-99388961D01*
X100743077Y-99389372D01*
X100588210Y-99408831D01*
X100436462Y-99446491D01*
X100290432Y-99501503D01*
X100152721Y-99573021D01*
X100025928Y-99660196D01*
X99998383Y-99682540D01*
X99928092Y-99741360D01*
X99847595Y-99676954D01*
X99716197Y-99584467D01*
X99576099Y-99509466D01*
X99429122Y-99452144D01*
X99277087Y-99412696D01*
X99121815Y-99391314D01*
X98965127Y-99388193D01*
X98808844Y-99403525D01*
X98654786Y-99437505D01*
X98504775Y-99490326D01*
X98427610Y-99525987D01*
X98347491Y-99570071D01*
X98264586Y-99622333D01*
X98186522Y-99677706D01*
X98127251Y-99725541D01*
X98034856Y-99817058D01*
X97947976Y-99924046D01*
X97869582Y-100041816D01*
X97802645Y-100165678D01*
X97750133Y-100290945D01*
X97730377Y-100352080D01*
X97723264Y-100376582D01*
X97716769Y-100399328D01*
X97710862Y-100421295D01*
X97705517Y-100443458D01*
X97700705Y-100466794D01*
X97696399Y-100492278D01*
X97692569Y-100520888D01*
X97689189Y-100553598D01*
X97686230Y-100591385D01*
X97683664Y-100635225D01*
X97681463Y-100686093D01*
X97679600Y-100744967D01*
X97678046Y-100812822D01*
X97676773Y-100890634D01*
X97675754Y-100979379D01*
X97674960Y-101080033D01*
X97674363Y-101193572D01*
X97673935Y-101320973D01*
X97673649Y-101463211D01*
X97673476Y-101621262D01*
X97673389Y-101796102D01*
X97673358Y-101988709D01*
X97179190Y-101988709D01*
X97138485Y-101910545D01*
X97047825Y-101776335D01*
X96943083Y-101654613D01*
X96825423Y-101547263D01*
X96788172Y-101518434D01*
X96678420Y-101446476D01*
X96553295Y-101381691D01*
X96417068Y-101326050D01*
X96276360Y-101282147D01*
X96262810Y-101278654D01*
X96249166Y-101275550D01*
X96234177Y-101272805D01*
X96216590Y-101270389D01*
X96195155Y-101268270D01*
X96168620Y-101266419D01*
X96135734Y-101264806D01*
X96095245Y-101263399D01*
X96045901Y-101262168D01*
X95986452Y-101261084D01*
X95915645Y-101260115D01*
X95832229Y-101259232D01*
X95734953Y-101258403D01*
X95622565Y-101257599D01*
X95493814Y-101256788D01*
X95347449Y-101255942D01*
X95182217Y-101255028D01*
X95153680Y-101254872D01*
X94112280Y-101249190D01*
X94051320Y-101224898D01*
X93961655Y-101179332D01*
X93886649Y-101120586D01*
X93827233Y-101050006D01*
X93784344Y-100968940D01*
X93758914Y-100878735D01*
X93751720Y-100792815D01*
X93760630Y-100695188D01*
X93787253Y-100607290D01*
X93831950Y-100528282D01*
X93895081Y-100457321D01*
X93895448Y-100456981D01*
X93969799Y-100399738D01*
X94048651Y-100360981D01*
X94124516Y-100342334D01*
X94142826Y-100341325D01*
X94179994Y-100340488D01*
X94234554Y-100339822D01*
X94305044Y-100339330D01*
X94390002Y-100339013D01*
X94487964Y-100338872D01*
X94597466Y-100338908D01*
X94717047Y-100339122D01*
X94845242Y-100339517D01*
X94980590Y-100340093D01*
X95121626Y-100340852D01*
X95204480Y-100341370D01*
X95362064Y-100342376D01*
X95524561Y-100343359D01*
X95689429Y-100344307D01*
X95854122Y-100345208D01*
X96016098Y-100346048D01*
X96172814Y-100346816D01*
X96321725Y-100347499D01*
X96460287Y-100348084D01*
X96585959Y-100348559D01*
X96696195Y-100348912D01*
X96781820Y-100349117D01*
X97338080Y-100350160D01*
X97338080Y-99448292D01*
X96959620Y-99442119D01*
X96886977Y-99441057D01*
X96795868Y-99439928D01*
X96688145Y-99438744D01*
X96565660Y-99437520D01*
X96430268Y-99436269D01*
X96283820Y-99435004D01*
X96128170Y-99433738D01*
X95965171Y-99432486D01*
X95796676Y-99431259D01*
X95624537Y-99430073D01*
X95450607Y-99428939D01*
X95276740Y-99427872D01*
X95104788Y-99426884D01*
X94936605Y-99425989D01*
X94774043Y-99425201D01*
X94618955Y-99424533D01*
X94473194Y-99423998D01*
X94427240Y-99423852D01*
X94324331Y-99423679D01*
X94239320Y-99423900D01*
X94169786Y-99424597D01*
X94113307Y-99425854D01*
X94067465Y-99427754D01*
X94029838Y-99430380D01*
X93998006Y-99433814D01*
X93969549Y-99438140D01*
X93959924Y-99439882D01*
X93804011Y-99479341D01*
X93654683Y-99537299D01*
X93513435Y-99612585D01*
X93381762Y-99704025D01*
X93261157Y-99810447D01*
X93153116Y-99930680D01*
X93059132Y-100063550D01*
X92980701Y-100207885D01*
X92980578Y-100208148D01*
X92929448Y-100329462D01*
X92892546Y-100446852D01*
X92868594Y-100566215D01*
X92856313Y-100693451D01*
X92853978Y-100792120D01*
X92859208Y-100929972D01*
X92875356Y-101055849D01*
X92903735Y-101175683D01*
X92945655Y-101295405D01*
X92985244Y-101385465D01*
X93064530Y-101530023D01*
X93159507Y-101662733D01*
X93268760Y-101782494D01*
X93390875Y-101888205D01*
X93524439Y-101978764D01*
X93668037Y-102053068D01*
X93820256Y-102110017D01*
X93959924Y-102144844D01*
X93976591Y-102147768D01*
X93995449Y-102150379D01*
X94017764Y-102152703D01*
X94044800Y-102154767D01*
X94077824Y-102156597D01*
X94118100Y-102158219D01*
X94166894Y-102159661D01*
X94225471Y-102160948D01*
X94295097Y-102162108D01*
X94377036Y-102163166D01*
X94472554Y-102164150D01*
X94582917Y-102165085D01*
X94709389Y-102165999D01*
X94853236Y-102166918D01*
X95015724Y-102167869D01*
X95073184Y-102168191D01*
X96095049Y-102173880D01*
X96182401Y-102217173D01*
X96259823Y-102263508D01*
X96321407Y-102319028D01*
X96369462Y-102386546D01*
X96406297Y-102468871D01*
X96417466Y-102503384D01*
X96432898Y-102589602D01*
X96430264Y-102678085D01*
X96410836Y-102765227D01*
X96375886Y-102847424D01*
X96326685Y-102921069D01*
X96264505Y-102982558D01*
X96242777Y-102998598D01*
X96228425Y-103008843D01*
X96216056Y-103018173D01*
X96204709Y-103026630D01*
X96193424Y-103034259D01*
X96181242Y-103041104D01*
X96167203Y-103047209D01*
X96150347Y-103052618D01*
X96129714Y-103057376D01*
X96104344Y-103061525D01*
X96073277Y-103065110D01*
X96035554Y-103068175D01*
X95990215Y-103070765D01*
X95936299Y-103072923D01*
X95872848Y-103074693D01*
X95798901Y-103076119D01*
X95713498Y-103077246D01*
X95615679Y-103078117D01*
X95504485Y-103078776D01*
X95378957Y-103079268D01*
X95238133Y-103079636D01*
X95081054Y-103079925D01*
X94906760Y-103080178D01*
X94714292Y-103080440D01*
X94502690Y-103080755D01*
X94450100Y-103080841D01*
X92827040Y-103083563D01*
X92065040Y-103083563D01*
X92065040Y-99354480D01*
X102651131Y-99354480D01*
X102654631Y-101038500D01*
X102655098Y-101256936D01*
X102655558Y-101455999D01*
X102656021Y-101636634D01*
X102656498Y-101799788D01*
X102657001Y-101946407D01*
X102657540Y-102077438D01*
X102658126Y-102193826D01*
X102658770Y-102296517D01*
X102659484Y-102386459D01*
X102660278Y-102464598D01*
X102661163Y-102531879D01*
X102662150Y-102589248D01*
X102663250Y-102637653D01*
X102664474Y-102678039D01*
X102665834Y-102711353D01*
X102667339Y-102738541D01*
X102669002Y-102760549D01*
X102670832Y-102778324D01*
X102672841Y-102792811D01*
X102675041Y-102804957D01*
X102675127Y-102805377D01*
X102719217Y-102973251D01*
X102780422Y-103131436D01*
X102858219Y-103278908D01*
X102952086Y-103414645D01*
X103035316Y-103510869D01*
X103155705Y-103623465D01*
X103286728Y-103719952D01*
X103426691Y-103799365D01*
X103573898Y-103860737D01*
X103721350Y-103901976D01*
X103808606Y-103916138D01*
X103907531Y-103924579D01*
X104011858Y-103927303D01*
X104115319Y-103924314D01*
X104211646Y-103915615D01*
X104292600Y-103901665D01*
X104450822Y-103855318D01*
X104599883Y-103791500D01*
X104738729Y-103711374D01*
X104866303Y-103616102D01*
X104981550Y-103506847D01*
X105083415Y-103384771D01*
X105170842Y-103251038D01*
X105242777Y-103106809D01*
X105298163Y-102953247D01*
X105335946Y-102791515D01*
X105343329Y-102744189D01*
X105345503Y-102717581D01*
X105347441Y-102670801D01*
X105349143Y-102603994D01*
X105350606Y-102517307D01*
X105351828Y-102410886D01*
X105352810Y-102284876D01*
X105353548Y-102139425D01*
X105354041Y-101974677D01*
X105354289Y-101790780D01*
X105354320Y-101691931D01*
X105354432Y-101513590D01*
X105354764Y-101350552D01*
X105355311Y-101203375D01*
X105356068Y-101072615D01*
X105357028Y-100958831D01*
X105358186Y-100862578D01*
X105359536Y-100784415D01*
X105361074Y-100724899D01*
X105362792Y-100684586D01*
X105364685Y-100664034D01*
X105364690Y-100664010D01*
X105389503Y-100581771D01*
X105430484Y-100503282D01*
X105484509Y-100432715D01*
X105548457Y-100374244D01*
X105609850Y-100336404D01*
X105697199Y-100304595D01*
X105786334Y-100291767D01*
X105874816Y-100297026D01*
X105960207Y-100319476D01*
X106040067Y-100358223D01*
X106111959Y-100412371D01*
X106173443Y-100481026D01*
X106220815Y-100560597D01*
X106253480Y-100629560D01*
X106253480Y-101376320D01*
X106253426Y-101510287D01*
X106253271Y-101661005D01*
X106253024Y-101824907D01*
X106252693Y-101998424D01*
X106252287Y-102177988D01*
X106251814Y-102360030D01*
X106251283Y-102540982D01*
X106250703Y-102717277D01*
X106250082Y-102885345D01*
X106249492Y-103027320D01*
X106245504Y-103931560D01*
X106692757Y-103934204D01*
X107140009Y-103936849D01*
X107146562Y-103040124D01*
X107147673Y-102881785D01*
X107148788Y-102710950D01*
X107149888Y-102531346D01*
X107150952Y-102346696D01*
X107151961Y-102160728D01*
X107152895Y-101977166D01*
X107153734Y-101799735D01*
X107154459Y-101632161D01*
X107155051Y-101478169D01*
X107155418Y-101366160D01*
X107155820Y-101220784D01*
X107156089Y-101094223D01*
X107156197Y-100984972D01*
X107156114Y-100891526D01*
X107155814Y-100812381D01*
X107155269Y-100746031D01*
X107154449Y-100690971D01*
X107153327Y-100645697D01*
X107151875Y-100608704D01*
X107150065Y-100578487D01*
X107147868Y-100553540D01*
X107145257Y-100532360D01*
X107142203Y-100513442D01*
X107139205Y-100497848D01*
X107097857Y-100335829D01*
X107041880Y-100186822D01*
X106970155Y-100048662D01*
X106881560Y-99919180D01*
X106778141Y-99799506D01*
X106668164Y-99694710D01*
X106554512Y-99607283D01*
X106432816Y-99534288D01*
X106298712Y-99472786D01*
X106283960Y-99466964D01*
X106187357Y-99432532D01*
X106097507Y-99408009D01*
X106007562Y-99392141D01*
X105910675Y-99383672D01*
X105816600Y-99381352D01*
X105690721Y-99385032D01*
X105577455Y-99397801D01*
X105470632Y-99420989D01*
X105364081Y-99455929D01*
X105254031Y-99502833D01*
X105112774Y-99579576D01*
X104981149Y-99672681D01*
X104860778Y-99780281D01*
X104753281Y-99900510D01*
X104660281Y-100031504D01*
X104583399Y-100171396D01*
X104524257Y-100318320D01*
X104512342Y-100356236D01*
X104503945Y-100384804D01*
X104496502Y-100411430D01*
X104489955Y-100437467D01*
X104484248Y-100464266D01*
X104479321Y-100493180D01*
X104475118Y-100525560D01*
X104471580Y-100562757D01*
X104468649Y-100606126D01*
X104466268Y-100657016D01*
X104464378Y-100716780D01*
X104462922Y-100786770D01*
X104461842Y-100868338D01*
X104461081Y-100962835D01*
X104460579Y-101071615D01*
X104460280Y-101196028D01*
X104460125Y-101337426D01*
X104460057Y-101497163D01*
X104460038Y-101578310D01*
X104459898Y-101739240D01*
X104459554Y-101890285D01*
X104459017Y-102030350D01*
X104458296Y-102158341D01*
X104457404Y-102273164D01*
X104456350Y-102373727D01*
X104455146Y-102458934D01*
X104453802Y-102527691D01*
X104452328Y-102578906D01*
X104450736Y-102611484D01*
X104449834Y-102620920D01*
X104427262Y-102710665D01*
X104386823Y-102794767D01*
X104330817Y-102870078D01*
X104261542Y-102933451D01*
X104188943Y-102978076D01*
X104162803Y-102990257D01*
X104139831Y-102998441D01*
X104114954Y-103003416D01*
X104083101Y-103005972D01*
X104039200Y-103006898D01*
X104003040Y-103007000D01*
X103948963Y-103006699D01*
X103910123Y-103005268D01*
X103881438Y-103001913D01*
X103857826Y-102995839D01*
X103834207Y-102986253D01*
X103816661Y-102977868D01*
X103745232Y-102932613D01*
X103680069Y-102871567D01*
X103625428Y-102799164D01*
X103599182Y-102751519D01*
X103561080Y-102671720D01*
X103555702Y-99354480D01*
X102651131Y-99354480D01*
X92065040Y-99354480D01*
X92065040Y-98592480D01*
X107945120Y-98592480D01*
X107945120Y-114706240D01*
G37*
X107945120Y-114706240D02*
X92065040Y-114706240D01*
X92065040Y-112275267D01*
X92843254Y-112275267D01*
X92843296Y-112379402D01*
X92843522Y-112467896D01*
X92843964Y-112542312D01*
X92844658Y-112604208D01*
X92845637Y-112655145D01*
X92846935Y-112696682D01*
X92848586Y-112730381D01*
X92850623Y-112757801D01*
X92853082Y-112780501D01*
X92855994Y-112800044D01*
X92859395Y-112817987D01*
X92861244Y-112826640D01*
X92906634Y-112988328D01*
X92969245Y-113141078D01*
X93047950Y-113283746D01*
X93141627Y-113415191D01*
X93249148Y-113534269D01*
X93369391Y-113639839D01*
X93501229Y-113730757D01*
X93643539Y-113805883D01*
X93795194Y-113864074D01*
X93914160Y-113895864D01*
X93983904Y-113907255D01*
X94067345Y-113914712D01*
X94158231Y-113918182D01*
X94250314Y-113917609D01*
X94337343Y-113912941D01*
X94413067Y-113904124D01*
X94434171Y-113900361D01*
X94596457Y-113858149D01*
X94749872Y-113797686D01*
X94893964Y-113719212D01*
X95028285Y-113622968D01*
X95138653Y-113523158D01*
X95248971Y-113398276D01*
X95342704Y-113262093D01*
X95419178Y-113115948D01*
X95477722Y-112961176D01*
X95517662Y-112799115D01*
X95524981Y-112755520D01*
X95527521Y-112735627D01*
X95529765Y-112710610D01*
X95531729Y-112679239D01*
X95533430Y-112640284D01*
X95534885Y-112592516D01*
X95536110Y-112534705D01*
X95537124Y-112465621D01*
X95537942Y-112384037D01*
X95538581Y-112288720D01*
X95539059Y-112178443D01*
X95539391Y-112051976D01*
X95539596Y-111908089D01*
X95539690Y-111745552D01*
X95539700Y-111682486D01*
X95539819Y-111509202D01*
X95540152Y-111349647D01*
X95540690Y-111204539D01*
X95541427Y-111074595D01*
X95542356Y-110960532D01*
X95543468Y-110863067D01*
X95544758Y-110782917D01*
X95546218Y-110720799D01*
X95547840Y-110677431D01*
X95549618Y-110653528D01*
X95549973Y-110651246D01*
X95576098Y-110564338D01*
X95619118Y-110485745D01*
X95676619Y-110417459D01*
X95746186Y-110361469D01*
X95825405Y-110319765D01*
X95911859Y-110294339D01*
X95991880Y-110287008D01*
X96088786Y-110296539D01*
X96177114Y-110324047D01*
X96255573Y-110368545D01*
X96322874Y-110429043D01*
X96377727Y-110504552D01*
X96418842Y-110594082D01*
X96427626Y-110621224D01*
X96429780Y-110629885D01*
X96431738Y-110641302D01*
X96433511Y-110656416D01*
X96435106Y-110676169D01*
X96436533Y-110701505D01*
X96437801Y-110733363D01*
X96438920Y-110772688D01*
X96439898Y-110820421D01*
X96440745Y-110877505D01*
X96441469Y-110944881D01*
X96442080Y-111023491D01*
X96442588Y-111114279D01*
X96443000Y-111218186D01*
X96443327Y-111336154D01*
X96443577Y-111469125D01*
X96443760Y-111618043D01*
X96443884Y-111783848D01*
X96443959Y-111967483D01*
X96443994Y-112169891D01*
X96444000Y-112310324D01*
X96444000Y-113944240D01*
X97348812Y-113944240D01*
X97345582Y-112255140D01*
X97345164Y-112038211D01*
X97344772Y-111840642D01*
X97344390Y-111661475D01*
X97344005Y-111499749D01*
X97343605Y-111354505D01*
X97343175Y-111224784D01*
X97342703Y-111109625D01*
X97342175Y-111008071D01*
X97341578Y-110919160D01*
X97340898Y-110841934D01*
X97340121Y-110775433D01*
X97339235Y-110718698D01*
X97338227Y-110670769D01*
X97337081Y-110630687D01*
X97335787Y-110597491D01*
X97334329Y-110570224D01*
X97332694Y-110547925D01*
X97330870Y-110529634D01*
X97328842Y-110514393D01*
X97326598Y-110501242D01*
X97324124Y-110489221D01*
X97321406Y-110477370D01*
X97320734Y-110474522D01*
X97271934Y-110307726D01*
X97207442Y-110151814D01*
X97128259Y-110007618D01*
X97035389Y-109875969D01*
X96929832Y-109757697D01*
X96812592Y-109653635D01*
X96684669Y-109564612D01*
X96547066Y-109491460D01*
X96400784Y-109435009D01*
X96246827Y-109396092D01*
X96086195Y-109375539D01*
X95991880Y-109372359D01*
X95828374Y-109382107D01*
X95670559Y-109410739D01*
X95519557Y-109457342D01*
X95376493Y-109521000D01*
X95242489Y-109600797D01*
X95118668Y-109695820D01*
X95006154Y-109805153D01*
X94906070Y-109927881D01*
X94819539Y-110063089D01*
X94747684Y-110209862D01*
X94691629Y-110367286D01*
X94669996Y-110449200D01*
X94667092Y-110462886D01*
X94664495Y-110478638D01*
X94662179Y-110497682D01*
X94660117Y-110521244D01*
X94658284Y-110550549D01*
X94656652Y-110586826D01*
X94655196Y-110631299D01*
X94653890Y-110685195D01*
X94652707Y-110749740D01*
X94651622Y-110826160D01*
X94650607Y-110915682D01*
X94649638Y-111019532D01*
X94648687Y-111138936D01*
X94647729Y-111275120D01*
X94646737Y-111429311D01*
X94645808Y-111582040D01*
X94644790Y-111753829D01*
X94643864Y-111906529D01*
X94642971Y-112041371D01*
X94642055Y-112159584D01*
X94641055Y-112262399D01*
X94639914Y-112351046D01*
X94638573Y-112426756D01*
X94636974Y-112490758D01*
X94635058Y-112544284D01*
X94632766Y-112588563D01*
X94630041Y-112624826D01*
X94626824Y-112654303D01*
X94623056Y-112678224D01*
X94618678Y-112697821D01*
X94613633Y-112714322D01*
X94607862Y-112728959D01*
X94601306Y-112742961D01*
X94593907Y-112757560D01*
X94589533Y-112766138D01*
X94541464Y-112839450D01*
X94478762Y-112901556D01*
X94404706Y-112950843D01*
X94322575Y-112985700D01*
X94235648Y-113004515D01*
X94147205Y-113005677D01*
X94112055Y-113000822D01*
X94022185Y-112974794D01*
X93940958Y-112932581D01*
X93870517Y-112876323D01*
X93813008Y-112808158D01*
X93770575Y-112730224D01*
X93745363Y-112644659D01*
X93743506Y-112633378D01*
X93742357Y-112614925D01*
X93741440Y-112576966D01*
X93740750Y-112520314D01*
X93740285Y-112445782D01*
X93740040Y-112354182D01*
X93740011Y-112246328D01*
X93740196Y-112123032D01*
X93740590Y-111985108D01*
X93741189Y-111833367D01*
X93741991Y-111668622D01*
X93742992Y-111491687D01*
X93744187Y-111303375D01*
X93745573Y-111104497D01*
X93747147Y-110895868D01*
X93748905Y-110678299D01*
X93750842Y-110452604D01*
X93752957Y-110219595D01*
X93755244Y-109980085D01*
X93755601Y-109943740D01*
X93761232Y-109372240D01*
X92859993Y-109372240D01*
X92852440Y-110329820D01*
X92851237Y-110489447D01*
X92850059Y-110658934D01*
X92848926Y-110835030D01*
X92847853Y-111014484D01*
X92846858Y-111194048D01*
X92845959Y-111370471D01*
X92845171Y-111540503D01*
X92844512Y-111700893D01*
X92844000Y-111848393D01*
X92843651Y-111979751D01*
X92843584Y-112013840D01*
X92843361Y-112153933D01*
X92843254Y-112275267D01*
X92065040Y-112275267D01*
X92065040Y-109290960D01*
X97835358Y-109290960D01*
X97838553Y-111015620D01*
X97838962Y-111234965D01*
X97839349Y-111434938D01*
X97839727Y-111616490D01*
X97840107Y-111780568D01*
X97840503Y-111928121D01*
X97840928Y-112060098D01*
X97841395Y-112177448D01*
X97841915Y-112281119D01*
X97842503Y-112372061D01*
X97843170Y-112451222D01*
X97843929Y-112519551D01*
X97844794Y-112577997D01*
X97845777Y-112627508D01*
X97846891Y-112669033D01*
X97848148Y-112703522D01*
X97849562Y-112731922D01*
X97851144Y-112755184D01*
X97852909Y-112774254D01*
X97854868Y-112790083D01*
X97857035Y-112803619D01*
X97859421Y-112815811D01*
X97862041Y-112827608D01*
X97862992Y-112831720D01*
X97912108Y-113001392D01*
X97978049Y-113160571D01*
X98060402Y-113308330D01*
X98100634Y-113367949D01*
X98180403Y-113466919D01*
X98275384Y-113563290D01*
X98380541Y-113652759D01*
X98490838Y-113731025D01*
X98596177Y-113791274D01*
X98661543Y-113820336D01*
X98739234Y-113849247D01*
X98821401Y-113875460D01*
X98900191Y-113896428D01*
X98954502Y-113907544D01*
X99026932Y-113916295D01*
X99111975Y-113921196D01*
X99202287Y-113922229D01*
X99290528Y-113919377D01*
X99369353Y-113912622D01*
X99398045Y-113908592D01*
X99517986Y-113882517D01*
X99639200Y-113843864D01*
X99757369Y-113794643D01*
X99868179Y-113736861D01*
X99967313Y-113672526D01*
X100047798Y-113606176D01*
X100069167Y-113587623D01*
X100083187Y-113581998D01*
X100096251Y-113587257D01*
X100099580Y-113589634D01*
X100115759Y-113601766D01*
X100143530Y-113622728D01*
X100178307Y-113649057D01*
X100199969Y-113665487D01*
X100328277Y-113750303D01*
X100467802Y-113819099D01*
X100616427Y-113871188D01*
X100772037Y-113905881D01*
X100932514Y-113922491D01*
X100995680Y-113923920D01*
X101162169Y-113914343D01*
X101321687Y-113885698D01*
X101473933Y-113838109D01*
X101618605Y-113771701D01*
X101755403Y-113686600D01*
X101884024Y-113582929D01*
X101936099Y-113533318D01*
X102047871Y-113407440D01*
X102143062Y-113270037D01*
X102221245Y-113121911D01*
X102281995Y-112963862D01*
X102284146Y-112955586D01*
X102682240Y-112955586D01*
X102682240Y-113873120D01*
X102903220Y-113874588D01*
X102946769Y-113874888D01*
X103008729Y-113875329D01*
X103087190Y-113875897D01*
X103180243Y-113876578D01*
X103285979Y-113877358D01*
X103402487Y-113878223D01*
X103527860Y-113879159D01*
X103660188Y-113880151D01*
X103797562Y-113881185D01*
X103938072Y-113882248D01*
X104053840Y-113883126D01*
X104204551Y-113884201D01*
X104360213Y-113885178D01*
X104518140Y-113886048D01*
X104675647Y-113886800D01*
X104830048Y-113887427D01*
X104978659Y-113887918D01*
X105118794Y-113888263D01*
X105247768Y-113888454D01*
X105362896Y-113888480D01*
X105461492Y-113888333D01*
X105496560Y-113888220D01*
X105612883Y-113887730D01*
X105710836Y-113887182D01*
X105792369Y-113886501D01*
X105859432Y-113885612D01*
X105913976Y-113884441D01*
X105957950Y-113882914D01*
X105993304Y-113880955D01*
X106021988Y-113878491D01*
X106045953Y-113875446D01*
X106067148Y-113871746D01*
X106087523Y-113867317D01*
X106096000Y-113865295D01*
X106259899Y-113815594D01*
X106412925Y-113749005D01*
X106554354Y-113666244D01*
X106683463Y-113568024D01*
X106799530Y-113455063D01*
X106901833Y-113328074D01*
X106989647Y-113187773D01*
X107062250Y-113034875D01*
X107118920Y-112870094D01*
X107125316Y-112846960D01*
X107135960Y-112806508D01*
X107143876Y-112772766D01*
X107149463Y-112741568D01*
X107153120Y-112708749D01*
X107155246Y-112670144D01*
X107156241Y-112621589D01*
X107156504Y-112558917D01*
X107156487Y-112521840D01*
X107156277Y-112450540D01*
X107155546Y-112395371D01*
X107153893Y-112352145D01*
X107150912Y-112316673D01*
X107146200Y-112284766D01*
X107139355Y-112252235D01*
X107129972Y-112214893D01*
X107125164Y-112196720D01*
X107071008Y-112030289D01*
X107000638Y-111875872D01*
X106914654Y-111734065D01*
X106813653Y-111605466D01*
X106698231Y-111490672D01*
X106568988Y-111390280D01*
X106426520Y-111304887D01*
X106271425Y-111235092D01*
X106111240Y-111183324D01*
X106009640Y-111156240D01*
X104968240Y-111150575D01*
X104799113Y-111149637D01*
X104649104Y-111148752D01*
X104517009Y-111147896D01*
X104401625Y-111147041D01*
X104301750Y-111146162D01*
X104216181Y-111145232D01*
X104143714Y-111144225D01*
X104083148Y-111143116D01*
X104033279Y-111141877D01*
X103992904Y-111140484D01*
X103960821Y-111138909D01*
X103935827Y-111137127D01*
X103916718Y-111135111D01*
X103902293Y-111132836D01*
X103891348Y-111130275D01*
X103882681Y-111127402D01*
X103881553Y-111126963D01*
X103796306Y-111083603D01*
X103724993Y-111028084D01*
X103667726Y-110962647D01*
X103624614Y-110889536D01*
X103595767Y-110810992D01*
X103581295Y-110729259D01*
X103581308Y-110646577D01*
X103595915Y-110565190D01*
X103625227Y-110487340D01*
X103669354Y-110415269D01*
X103728405Y-110351219D01*
X103802491Y-110297434D01*
X103839922Y-110277577D01*
X103916680Y-110240920D01*
X105549900Y-110238258D01*
X107183120Y-110235597D01*
X107183120Y-109320975D01*
X103825240Y-109327007D01*
X103743960Y-109348893D01*
X103575670Y-109403816D01*
X103419497Y-109474351D01*
X103276119Y-109559803D01*
X103146216Y-109659478D01*
X103030467Y-109772682D01*
X102929551Y-109898718D01*
X102844149Y-110036893D01*
X102774939Y-110186512D01*
X102722600Y-110346880D01*
X102707700Y-110408560D01*
X102697117Y-110472497D01*
X102689584Y-110550444D01*
X102685244Y-110636297D01*
X102684241Y-110723954D01*
X102686718Y-110807313D01*
X102692820Y-110880273D01*
X102696039Y-110903500D01*
X102731152Y-111063253D01*
X102784163Y-111216185D01*
X102853884Y-111360873D01*
X102939128Y-111495890D01*
X103038706Y-111619812D01*
X103151430Y-111731215D01*
X103276112Y-111828674D01*
X103411565Y-111910764D01*
X103556600Y-111976060D01*
X103604651Y-111993113D01*
X103635075Y-112003324D01*
X103662239Y-112012404D01*
X103687459Y-112020425D01*
X103712050Y-112027459D01*
X103737327Y-112033580D01*
X103764604Y-112038860D01*
X103795197Y-112043371D01*
X103830421Y-112047185D01*
X103871590Y-112050377D01*
X103920020Y-112053018D01*
X103977025Y-112055180D01*
X104043921Y-112056937D01*
X104122022Y-112058361D01*
X104212644Y-112059524D01*
X104317101Y-112060500D01*
X104436709Y-112061360D01*
X104572782Y-112062177D01*
X104726636Y-112063025D01*
X104886960Y-112063904D01*
X105928360Y-112069720D01*
X105995653Y-112101604D01*
X106078433Y-112150848D01*
X106146138Y-112213349D01*
X106199615Y-112290037D01*
X106232529Y-112361714D01*
X106258271Y-112452092D01*
X106265053Y-112538470D01*
X106252735Y-112624108D01*
X106221180Y-112712266D01*
X106217284Y-112720663D01*
X106167673Y-112802943D01*
X106103295Y-112871352D01*
X106024574Y-112925512D01*
X105947859Y-112959655D01*
X105938339Y-112962967D01*
X105928726Y-112965911D01*
X105917851Y-112968503D01*
X105904543Y-112970756D01*
X105887634Y-112972686D01*
X105865952Y-112974308D01*
X105838329Y-112975637D01*
X105803593Y-112976687D01*
X105760575Y-112977474D01*
X105708105Y-112978013D01*
X105645013Y-112978318D01*
X105570129Y-112978404D01*
X105482283Y-112978287D01*
X105380304Y-112977982D01*
X105263024Y-112977502D01*
X105129272Y-112976864D01*
X104977877Y-112976082D01*
X104807671Y-112975171D01*
X104754880Y-112974886D01*
X104593177Y-112973974D01*
X104429270Y-112972976D01*
X104265267Y-112971907D01*
X104103275Y-112970785D01*
X103945400Y-112969627D01*
X103793750Y-112968448D01*
X103650431Y-112967267D01*
X103517551Y-112966099D01*
X103397216Y-112964961D01*
X103291533Y-112963870D01*
X103202610Y-112962842D01*
X103152140Y-112962179D01*
X102682240Y-112955586D01*
X102284146Y-112955586D01*
X102322997Y-112806117D01*
X102325250Y-112793925D01*
X102327310Y-112779840D01*
X102329187Y-112762921D01*
X102330893Y-112742224D01*
X102332437Y-112716807D01*
X102333832Y-112685727D01*
X102335089Y-112648040D01*
X102336217Y-112602804D01*
X102337230Y-112549077D01*
X102338136Y-112485916D01*
X102338949Y-112412376D01*
X102339677Y-112327517D01*
X102340334Y-112230395D01*
X102340929Y-112120067D01*
X102341474Y-111995590D01*
X102341979Y-111856022D01*
X102342457Y-111700419D01*
X102342917Y-111527840D01*
X102343371Y-111337340D01*
X102343830Y-111127978D01*
X102344087Y-111005460D01*
X102347631Y-109290960D01*
X101442720Y-109290960D01*
X101442720Y-110955065D01*
X101442734Y-111174872D01*
X101442756Y-111375303D01*
X101442752Y-111557304D01*
X101442689Y-111721820D01*
X101442536Y-111869794D01*
X101442258Y-112002173D01*
X101441823Y-112119899D01*
X101441198Y-112223920D01*
X101440351Y-112315178D01*
X101439248Y-112394619D01*
X101437857Y-112463188D01*
X101436144Y-112521829D01*
X101434078Y-112571487D01*
X101431625Y-112613107D01*
X101428753Y-112647633D01*
X101425427Y-112676011D01*
X101421617Y-112699186D01*
X101417288Y-112718100D01*
X101412409Y-112733701D01*
X101406946Y-112746932D01*
X101400866Y-112758738D01*
X101394136Y-112770064D01*
X101386725Y-112781855D01*
X101378789Y-112794735D01*
X101326970Y-112863034D01*
X101259495Y-112923075D01*
X101180507Y-112971177D01*
X101179988Y-112971431D01*
X101150199Y-112985493D01*
X101125573Y-112994864D01*
X101100664Y-113000490D01*
X101070030Y-113003320D01*
X101028226Y-113004300D01*
X100990600Y-113004393D01*
X100938050Y-113004086D01*
X100900369Y-113002581D01*
X100872109Y-112998927D01*
X100847819Y-112992175D01*
X100822050Y-112981374D01*
X100801211Y-112971384D01*
X100722188Y-112923424D01*
X100654628Y-112863463D01*
X100602683Y-112795191D01*
X100602410Y-112794735D01*
X100594299Y-112781577D01*
X100586904Y-112769807D01*
X100580189Y-112758481D01*
X100574124Y-112746653D01*
X100568674Y-112733379D01*
X100563807Y-112717714D01*
X100559491Y-112698714D01*
X100555691Y-112675433D01*
X100552377Y-112646927D01*
X100549514Y-112612251D01*
X100547070Y-112570460D01*
X100545012Y-112520610D01*
X100543307Y-112461756D01*
X100541923Y-112392952D01*
X100540826Y-112313255D01*
X100539985Y-112221720D01*
X100539364Y-112117401D01*
X100538933Y-111999355D01*
X100538659Y-111866636D01*
X100538507Y-111718299D01*
X100538447Y-111553400D01*
X100538444Y-111370994D01*
X100538465Y-111170136D01*
X100538480Y-110955065D01*
X100538480Y-109290960D01*
X99634474Y-109290960D01*
X99629160Y-112679320D01*
X99596633Y-112747986D01*
X99562631Y-112806397D01*
X99518073Y-112863831D01*
X99468317Y-112914190D01*
X99418725Y-112951377D01*
X99416953Y-112952427D01*
X99339744Y-112986657D01*
X99253986Y-113005772D01*
X99164978Y-113009525D01*
X99078017Y-112997674D01*
X99001693Y-112971538D01*
X98923126Y-112924013D01*
X98854731Y-112861220D01*
X98799153Y-112786568D01*
X98759039Y-112703463D01*
X98740147Y-112634753D01*
X98738707Y-112616615D01*
X98737368Y-112578530D01*
X98736133Y-112520870D01*
X98735004Y-112444009D01*
X98733985Y-112348319D01*
X98733075Y-112234174D01*
X98732279Y-112101944D01*
X98731598Y-111952005D01*
X98731035Y-111784727D01*
X98730591Y-111600484D01*
X98730269Y-111399649D01*
X98730071Y-111182594D01*
X98730000Y-110949693D01*
X98730000Y-109290960D01*
X97835358Y-109290960D01*
X92065040Y-109290960D01*
X92065040Y-105856089D01*
X92808016Y-105856089D01*
X92820523Y-106015520D01*
X92850224Y-106171175D01*
X92896621Y-106320915D01*
X92959217Y-106462597D01*
X93037514Y-106594083D01*
X93103083Y-106680938D01*
X93152475Y-106740289D01*
X93082871Y-106831967D01*
X92992065Y-106968248D01*
X92917713Y-107115753D01*
X92860577Y-107272798D01*
X92830481Y-107391040D01*
X92822397Y-107443751D01*
X92816525Y-107511342D01*
X92812916Y-107588490D01*
X92811619Y-107669870D01*
X92812684Y-107750158D01*
X92816160Y-107824030D01*
X92822097Y-107886162D01*
X92825644Y-107909200D01*
X92864304Y-108067954D01*
X92920870Y-108219093D01*
X92994123Y-108361329D01*
X93082848Y-108493377D01*
X93185828Y-108613951D01*
X93301846Y-108721764D01*
X93429685Y-108815530D01*
X93568130Y-108893964D01*
X93715964Y-108955779D01*
X93853200Y-108995486D01*
X93896671Y-109005217D01*
X93936104Y-109013459D01*
X93964655Y-109018798D01*
X93970040Y-109019618D01*
X93983383Y-109020078D01*
X94015966Y-109020541D01*
X94066708Y-109021004D01*
X94134529Y-109021465D01*
X94218348Y-109021918D01*
X94317085Y-109022360D01*
X94429660Y-109022789D01*
X94554991Y-109023200D01*
X94691998Y-109023590D01*
X94839602Y-109023955D01*
X94996721Y-109024292D01*
X95162275Y-109024597D01*
X95335184Y-109024866D01*
X95514368Y-109025097D01*
X95689724Y-109025277D01*
X97378929Y-109026800D01*
X97376284Y-108572140D01*
X97373640Y-108117480D01*
X94031000Y-108107320D01*
X93964960Y-108074905D01*
X93887924Y-108026097D01*
X93820682Y-107961118D01*
X93766109Y-107882903D01*
X93753484Y-107859017D01*
X93737967Y-107826980D01*
X93727466Y-107801588D01*
X93721003Y-107777525D01*
X93717596Y-107749473D01*
X93716269Y-107712114D01*
X93716040Y-107660132D01*
X93716040Y-107655726D01*
X93716264Y-107602200D01*
X93717548Y-107563728D01*
X93720812Y-107535048D01*
X93726974Y-107510895D01*
X93736953Y-107486005D01*
X93750710Y-107457080D01*
X93800465Y-107376784D01*
X93864144Y-107309353D01*
X93939263Y-107256709D01*
X94023340Y-107220773D01*
X94070965Y-107209107D01*
X94088009Y-107207463D01*
X94120766Y-107205960D01*
X94169605Y-107204595D01*
X94234893Y-107203366D01*
X94316998Y-107202270D01*
X94416285Y-107201305D01*
X94533124Y-107200469D01*
X94667882Y-107199759D01*
X94820925Y-107199172D01*
X94992621Y-107198707D01*
X95183337Y-107198361D01*
X95393441Y-107198131D01*
X95623301Y-107198015D01*
X95754985Y-107198000D01*
X97378720Y-107198000D01*
X97378720Y-106283600D01*
X95729564Y-106283600D01*
X95511687Y-106283612D01*
X95313182Y-106283630D01*
X95133096Y-106283623D01*
X94970482Y-106283561D01*
X94824389Y-106283414D01*
X94693867Y-106283152D01*
X94577967Y-106282744D01*
X94475739Y-106282160D01*
X94386234Y-106281371D01*
X94308501Y-106280345D01*
X94241591Y-106279053D01*
X94184554Y-106277465D01*
X94136441Y-106275550D01*
X94096302Y-106273279D01*
X94063187Y-106270621D01*
X94036146Y-106267546D01*
X94014230Y-106264024D01*
X93996490Y-106260024D01*
X93981974Y-106255517D01*
X93969735Y-106250472D01*
X93958821Y-106244859D01*
X93948283Y-106238649D01*
X93937172Y-106231810D01*
X93928117Y-106226383D01*
X93878857Y-106190010D01*
X93829168Y-106140234D01*
X93784391Y-106083132D01*
X93749870Y-106024786D01*
X93748566Y-106022066D01*
X93734942Y-105992269D01*
X93725771Y-105967517D01*
X93720174Y-105942522D01*
X93717273Y-105911998D01*
X93716189Y-105870659D01*
X93716040Y-105826400D01*
X93716313Y-105772568D01*
X93717704Y-105733826D01*
X93721069Y-105704946D01*
X93727264Y-105680697D01*
X93737144Y-105655852D01*
X93747641Y-105633360D01*
X93798412Y-105549296D01*
X93862882Y-105479672D01*
X93939811Y-105425579D01*
X94026844Y-105388448D01*
X94035445Y-105385942D01*
X94045024Y-105383662D01*
X94056539Y-105381600D01*
X94070945Y-105379743D01*
X94089201Y-105378081D01*
X94112261Y-105376603D01*
X94141083Y-105375298D01*
X94176624Y-105374156D01*
X94219839Y-105373166D01*
X94271687Y-105372317D01*
X94333123Y-105371598D01*
X94405104Y-105370999D01*
X94488586Y-105370508D01*
X94584527Y-105370116D01*
X94693883Y-105369810D01*
X94817610Y-105369580D01*
X94956666Y-105369416D01*
X95112007Y-105369307D01*
X95284589Y-105369242D01*
X95475369Y-105369210D01*
X95685304Y-105369200D01*
X97378720Y-105369200D01*
X97378720Y-105186320D01*
X102621280Y-105186320D01*
X104250573Y-105186320D01*
X104490100Y-105186385D01*
X104712216Y-105186582D01*
X104916676Y-105186908D01*
X105103232Y-105187362D01*
X105271637Y-105187942D01*
X105421645Y-105188646D01*
X105553010Y-105189474D01*
X105665485Y-105190424D01*
X105758822Y-105191493D01*
X105832776Y-105192682D01*
X105887100Y-105193988D01*
X105921547Y-105195409D01*
X105934593Y-105196622D01*
X106020245Y-105222590D01*
X106097214Y-105265219D01*
X106163852Y-105322103D01*
X106218511Y-105390840D01*
X106259540Y-105469025D01*
X106285293Y-105554255D01*
X106294119Y-105644125D01*
X106288677Y-105712884D01*
X106265933Y-105800317D01*
X106227420Y-105881197D01*
X106175458Y-105952102D01*
X106112372Y-106009612D01*
X106068695Y-106037036D01*
X106053725Y-106045217D01*
X106040500Y-106052669D01*
X106028056Y-106059426D01*
X106015433Y-106065521D01*
X106001666Y-106070989D01*
X105985794Y-106075863D01*
X105966853Y-106080177D01*
X105943883Y-106083966D01*
X105915918Y-106087262D01*
X105881999Y-106090100D01*
X105841160Y-106092514D01*
X105792441Y-106094538D01*
X105734879Y-106096206D01*
X105667511Y-106097551D01*
X105589374Y-106098607D01*
X105499506Y-106099409D01*
X105396944Y-106099989D01*
X105280726Y-106100383D01*
X105149889Y-106100624D01*
X105003471Y-106100746D01*
X104840509Y-106100782D01*
X104660041Y-106100768D01*
X104461104Y-106100735D01*
X104260275Y-106100720D01*
X102621280Y-106100720D01*
X102621280Y-107015120D01*
X104259580Y-107015368D01*
X104500226Y-107015469D01*
X104723157Y-107015697D01*
X104928154Y-107016050D01*
X105114996Y-107016526D01*
X105283463Y-107017125D01*
X105433335Y-107017845D01*
X105564391Y-107018684D01*
X105676412Y-107019641D01*
X105769178Y-107020715D01*
X105842468Y-107021904D01*
X105896062Y-107023207D01*
X105929740Y-107024623D01*
X105942435Y-107025888D01*
X106029407Y-107056002D01*
X106107647Y-107103000D01*
X106175008Y-107164543D01*
X106229346Y-107238293D01*
X106268515Y-107321910D01*
X106289036Y-107403739D01*
X106293533Y-107497111D01*
X106279125Y-107588036D01*
X106247223Y-107673875D01*
X106199242Y-107751993D01*
X106136594Y-107819749D01*
X106060693Y-107874508D01*
X106027506Y-107891913D01*
X105958840Y-107924440D01*
X104290060Y-107927098D01*
X102621280Y-107929757D01*
X102621280Y-108844489D01*
X106019800Y-108838063D01*
X106118797Y-108815395D01*
X106281346Y-108768206D01*
X106434280Y-108703666D01*
X106576555Y-108622599D01*
X106707127Y-108525826D01*
X106824953Y-108414169D01*
X106928990Y-108288452D01*
X107018193Y-108149496D01*
X107056163Y-108076840D01*
X107107267Y-107960413D01*
X107144830Y-107847233D01*
X107170339Y-107731190D01*
X107185280Y-107606174D01*
X107189651Y-107528200D01*
X107187516Y-107361690D01*
X107168053Y-107204814D01*
X107130663Y-107055685D01*
X107074745Y-106912417D01*
X106999700Y-106773123D01*
X106906478Y-106637943D01*
X106847287Y-106560487D01*
X106919006Y-106465223D01*
X107005102Y-106334774D01*
X107077441Y-106191225D01*
X107134686Y-106037559D01*
X107169197Y-105907145D01*
X107178658Y-105847720D01*
X107185102Y-105773754D01*
X107188523Y-105690801D01*
X107188916Y-105604417D01*
X107186276Y-105520155D01*
X107180599Y-105443570D01*
X107171880Y-105380218D01*
X107169680Y-105369200D01*
X107124803Y-105205817D01*
X107062436Y-105051545D01*
X106983446Y-104907517D01*
X106888703Y-104774866D01*
X106779075Y-104654725D01*
X106655430Y-104548229D01*
X106518636Y-104456510D01*
X106436205Y-104411821D01*
X106291921Y-104349939D01*
X106137695Y-104302826D01*
X106105907Y-104295299D01*
X106094878Y-104293093D01*
X106081623Y-104291076D01*
X106065206Y-104289238D01*
X106044688Y-104287568D01*
X106019132Y-104286056D01*
X105987602Y-104284690D01*
X105949158Y-104283460D01*
X105902864Y-104282355D01*
X105847782Y-104281364D01*
X105782975Y-104280477D01*
X105707505Y-104279681D01*
X105620435Y-104278968D01*
X105520827Y-104278326D01*
X105407743Y-104277743D01*
X105280247Y-104277210D01*
X105137400Y-104276716D01*
X104978265Y-104276249D01*
X104801905Y-104275799D01*
X104607381Y-104275354D01*
X104393758Y-104274906D01*
X104325620Y-104274768D01*
X102621280Y-104271352D01*
X102621280Y-105186320D01*
X97378720Y-105186320D01*
X97378720Y-104454232D01*
X95674380Y-104457502D01*
X95453795Y-104457905D01*
X95252554Y-104458252D01*
X95069680Y-104458578D01*
X94904196Y-104458916D01*
X94755128Y-104459303D01*
X94621497Y-104459771D01*
X94502328Y-104460356D01*
X94396645Y-104461093D01*
X94303471Y-104462015D01*
X94221830Y-104463157D01*
X94150745Y-104464555D01*
X94089240Y-104466242D01*
X94036340Y-104468253D01*
X93991066Y-104470622D01*
X93952444Y-104473384D01*
X93919497Y-104476575D01*
X93891249Y-104480227D01*
X93866722Y-104484376D01*
X93844942Y-104489056D01*
X93824931Y-104494302D01*
X93805713Y-104500148D01*
X93786312Y-104506629D01*
X93765752Y-104513780D01*
X93743056Y-104521635D01*
X93729131Y-104526326D01*
X93579101Y-104586684D01*
X93438730Y-104664140D01*
X93309250Y-104757301D01*
X93191895Y-104864774D01*
X93087898Y-104985167D01*
X92998492Y-105117087D01*
X92924911Y-105259141D01*
X92868386Y-105409935D01*
X92836575Y-105534465D01*
X92813201Y-105695024D01*
X92808016Y-105856089D01*
X92065040Y-105856089D01*
X92065040Y-103083563D01*
X92827040Y-103083563D01*
X92827040Y-103533808D01*
X92827195Y-103627571D01*
X92827639Y-103715038D01*
X92828339Y-103794121D01*
X92829264Y-103862736D01*
X92830380Y-103918794D01*
X92831655Y-103960210D01*
X92833058Y-103984897D01*
X92834130Y-103991144D01*
X92844901Y-103991902D01*
X92874920Y-103992599D01*
X92923116Y-103993232D01*
X92988418Y-103993797D01*
X93069755Y-103994293D01*
X93166055Y-103994717D01*
X93276247Y-103995067D01*
X93399259Y-103995341D01*
X93534021Y-103995535D01*
X93679461Y-103995647D01*
X93834508Y-103995676D01*
X93998090Y-103995617D01*
X94169136Y-103995470D01*
X94346575Y-103995231D01*
X94497830Y-103994962D01*
X94712567Y-103994535D01*
X94907956Y-103994134D01*
X95084967Y-103993744D01*
X95244572Y-103993351D01*
X95387742Y-103992942D01*
X95515450Y-103992503D01*
X95628665Y-103992019D01*
X95728360Y-103991478D01*
X95815505Y-103990865D01*
X95891073Y-103990166D01*
X95956034Y-103989368D01*
X96011360Y-103988456D01*
X96058022Y-103987417D01*
X96096991Y-103986237D01*
X96129239Y-103984902D01*
X96155738Y-103983398D01*
X96177457Y-103981712D01*
X96195370Y-103979829D01*
X96210447Y-103977736D01*
X96223659Y-103975418D01*
X96235978Y-103972862D01*
X96248376Y-103970055D01*
X96248696Y-103969981D01*
X96398788Y-103928608D01*
X96534481Y-103876166D01*
X96659580Y-103810614D01*
X96777891Y-103729908D01*
X96893221Y-103632008D01*
X96912439Y-103613858D01*
X97026193Y-103491112D01*
X97123220Y-103356975D01*
X97203154Y-103212110D01*
X97265629Y-103057177D01*
X97309226Y-102897781D01*
X97321448Y-102821977D01*
X97329287Y-102733107D01*
X97332680Y-102637611D01*
X97331566Y-102541932D01*
X97325883Y-102452512D01*
X97315568Y-102375794D01*
X97314316Y-102369257D01*
X97272897Y-102208891D01*
X97213898Y-102055359D01*
X97179190Y-101988709D01*
X97673358Y-101988709D01*
X97673358Y-102200056D01*
X97673360Y-102340283D01*
X97673360Y-104028080D01*
X98577600Y-104028080D01*
X98577600Y-102352585D01*
X98577607Y-102136077D01*
X98577638Y-101938944D01*
X98577700Y-101760243D01*
X98577806Y-101599027D01*
X98577964Y-101454354D01*
X98578185Y-101325278D01*
X98578478Y-101210855D01*
X98578855Y-101110140D01*
X98579324Y-101022188D01*
X98579897Y-100946056D01*
X98580583Y-100880798D01*
X98581392Y-100825470D01*
X98582334Y-100779128D01*
X98583420Y-100740827D01*
X98584659Y-100709622D01*
X98586062Y-100684570D01*
X98587639Y-100664724D01*
X98589399Y-100649141D01*
X98591353Y-100636877D01*
X98593511Y-100626986D01*
X98595883Y-100618525D01*
X98596119Y-100617765D01*
X98628634Y-100539754D01*
X98676128Y-100469409D01*
X98722725Y-100419460D01*
X98794410Y-100364036D01*
X98873931Y-100325922D01*
X98958513Y-100305101D01*
X99045378Y-100301558D01*
X99131750Y-100315274D01*
X99214851Y-100346234D01*
X99291905Y-100394419D01*
X99325363Y-100423127D01*
X99379955Y-100482067D01*
X99419641Y-100543592D01*
X99449202Y-100615317D01*
X99452538Y-100625748D01*
X99455013Y-100634266D01*
X99457265Y-100643810D01*
X99459305Y-100655330D01*
X99461143Y-100669773D01*
X99462789Y-100688089D01*
X99464255Y-100711225D01*
X99465551Y-100740130D01*
X99466687Y-100775753D01*
X99467673Y-100819042D01*
X99468521Y-100870946D01*
X99469240Y-100932413D01*
X99469842Y-101004391D01*
X99470336Y-101087830D01*
X99470733Y-101183676D01*
X99471043Y-101292880D01*
X99471278Y-101416389D01*
X99471447Y-101555153D01*
X99471561Y-101710118D01*
X99471631Y-101882234D01*
X99471667Y-102072450D01*
X99471679Y-102281714D01*
X99471680Y-102357665D01*
X99471680Y-104028080D01*
X100375628Y-104028080D01*
X100381000Y-100639720D01*
X100413664Y-100570757D01*
X100463010Y-100488393D01*
X100525529Y-100419383D01*
X100598862Y-100365025D01*
X100680649Y-100326616D01*
X100768530Y-100305454D01*
X100860145Y-100302836D01*
X100893991Y-100306745D01*
X100974843Y-100326364D01*
X101045867Y-100359916D01*
X101112207Y-100410072D01*
X101135024Y-100431795D01*
X101196202Y-100503994D01*
X101241256Y-100581140D01*
X101268186Y-100659777D01*
X101268895Y-100663080D01*
X101270521Y-100678201D01*
X101272009Y-100707652D01*
X101273362Y-100751889D01*
X101274581Y-100811369D01*
X101275672Y-100886550D01*
X101276636Y-100977888D01*
X101277477Y-101085840D01*
X101278197Y-101210863D01*
X101278800Y-101353414D01*
X101279288Y-101513949D01*
X101279666Y-101692927D01*
X101279934Y-101890803D01*
X101280098Y-102108034D01*
X101280159Y-102345078D01*
X101280160Y-102372500D01*
X101280160Y-104028080D01*
X102174240Y-104028080D01*
X102174240Y-102322530D01*
X102174222Y-102100814D01*
X102174163Y-101898492D01*
X102174055Y-101714638D01*
X102173890Y-101548326D01*
X102173660Y-101398631D01*
X102173357Y-101264626D01*
X102172973Y-101145386D01*
X102172500Y-101039985D01*
X102171931Y-100947497D01*
X102171256Y-100866996D01*
X102170468Y-100797556D01*
X102169560Y-100738252D01*
X102168522Y-100688157D01*
X102167348Y-100646346D01*
X102166028Y-100611892D01*
X102164556Y-100583871D01*
X102162923Y-100561355D01*
X102161121Y-100543419D01*
X102159143Y-100529138D01*
X102158744Y-100526750D01*
X102121022Y-100364169D01*
X102065855Y-100210477D01*
X101994373Y-100066690D01*
X101907702Y-99933827D01*
X101806970Y-99812907D01*
X101693306Y-99704947D01*
X101567836Y-99610965D01*
X101431689Y-99531980D01*
X101285992Y-99469010D01*
X101131874Y-99423073D01*
X100970460Y-99395187D01*
X100898463Y-99388961D01*
X100743077Y-99389372D01*
X100588210Y-99408831D01*
X100436462Y-99446491D01*
X100290432Y-99501503D01*
X100152721Y-99573021D01*
X100025928Y-99660196D01*
X99998383Y-99682540D01*
X99928092Y-99741360D01*
X99847595Y-99676954D01*
X99716197Y-99584467D01*
X99576099Y-99509466D01*
X99429122Y-99452144D01*
X99277087Y-99412696D01*
X99121815Y-99391314D01*
X98965127Y-99388193D01*
X98808844Y-99403525D01*
X98654786Y-99437505D01*
X98504775Y-99490326D01*
X98427610Y-99525987D01*
X98347491Y-99570071D01*
X98264586Y-99622333D01*
X98186522Y-99677706D01*
X98127251Y-99725541D01*
X98034856Y-99817058D01*
X97947976Y-99924046D01*
X97869582Y-100041816D01*
X97802645Y-100165678D01*
X97750133Y-100290945D01*
X97730377Y-100352080D01*
X97723264Y-100376582D01*
X97716769Y-100399328D01*
X97710862Y-100421295D01*
X97705517Y-100443458D01*
X97700705Y-100466794D01*
X97696399Y-100492278D01*
X97692569Y-100520888D01*
X97689189Y-100553598D01*
X97686230Y-100591385D01*
X97683664Y-100635225D01*
X97681463Y-100686093D01*
X97679600Y-100744967D01*
X97678046Y-100812822D01*
X97676773Y-100890634D01*
X97675754Y-100979379D01*
X97674960Y-101080033D01*
X97674363Y-101193572D01*
X97673935Y-101320973D01*
X97673649Y-101463211D01*
X97673476Y-101621262D01*
X97673389Y-101796102D01*
X97673358Y-101988709D01*
X97179190Y-101988709D01*
X97138485Y-101910545D01*
X97047825Y-101776335D01*
X96943083Y-101654613D01*
X96825423Y-101547263D01*
X96788172Y-101518434D01*
X96678420Y-101446476D01*
X96553295Y-101381691D01*
X96417068Y-101326050D01*
X96276360Y-101282147D01*
X96262810Y-101278654D01*
X96249166Y-101275550D01*
X96234177Y-101272805D01*
X96216590Y-101270389D01*
X96195155Y-101268270D01*
X96168620Y-101266419D01*
X96135734Y-101264806D01*
X96095245Y-101263399D01*
X96045901Y-101262168D01*
X95986452Y-101261084D01*
X95915645Y-101260115D01*
X95832229Y-101259232D01*
X95734953Y-101258403D01*
X95622565Y-101257599D01*
X95493814Y-101256788D01*
X95347449Y-101255942D01*
X95182217Y-101255028D01*
X95153680Y-101254872D01*
X94112280Y-101249190D01*
X94051320Y-101224898D01*
X93961655Y-101179332D01*
X93886649Y-101120586D01*
X93827233Y-101050006D01*
X93784344Y-100968940D01*
X93758914Y-100878735D01*
X93751720Y-100792815D01*
X93760630Y-100695188D01*
X93787253Y-100607290D01*
X93831950Y-100528282D01*
X93895081Y-100457321D01*
X93895448Y-100456981D01*
X93969799Y-100399738D01*
X94048651Y-100360981D01*
X94124516Y-100342334D01*
X94142826Y-100341325D01*
X94179994Y-100340488D01*
X94234554Y-100339822D01*
X94305044Y-100339330D01*
X94390002Y-100339013D01*
X94487964Y-100338872D01*
X94597466Y-100338908D01*
X94717047Y-100339122D01*
X94845242Y-100339517D01*
X94980590Y-100340093D01*
X95121626Y-100340852D01*
X95204480Y-100341370D01*
X95362064Y-100342376D01*
X95524561Y-100343359D01*
X95689429Y-100344307D01*
X95854122Y-100345208D01*
X96016098Y-100346048D01*
X96172814Y-100346816D01*
X96321725Y-100347499D01*
X96460287Y-100348084D01*
X96585959Y-100348559D01*
X96696195Y-100348912D01*
X96781820Y-100349117D01*
X97338080Y-100350160D01*
X97338080Y-99448292D01*
X96959620Y-99442119D01*
X96886977Y-99441057D01*
X96795868Y-99439928D01*
X96688145Y-99438744D01*
X96565660Y-99437520D01*
X96430268Y-99436269D01*
X96283820Y-99435004D01*
X96128170Y-99433738D01*
X95965171Y-99432486D01*
X95796676Y-99431259D01*
X95624537Y-99430073D01*
X95450607Y-99428939D01*
X95276740Y-99427872D01*
X95104788Y-99426884D01*
X94936605Y-99425989D01*
X94774043Y-99425201D01*
X94618955Y-99424533D01*
X94473194Y-99423998D01*
X94427240Y-99423852D01*
X94324331Y-99423679D01*
X94239320Y-99423900D01*
X94169786Y-99424597D01*
X94113307Y-99425854D01*
X94067465Y-99427754D01*
X94029838Y-99430380D01*
X93998006Y-99433814D01*
X93969549Y-99438140D01*
X93959924Y-99439882D01*
X93804011Y-99479341D01*
X93654683Y-99537299D01*
X93513435Y-99612585D01*
X93381762Y-99704025D01*
X93261157Y-99810447D01*
X93153116Y-99930680D01*
X93059132Y-100063550D01*
X92980701Y-100207885D01*
X92980578Y-100208148D01*
X92929448Y-100329462D01*
X92892546Y-100446852D01*
X92868594Y-100566215D01*
X92856313Y-100693451D01*
X92853978Y-100792120D01*
X92859208Y-100929972D01*
X92875356Y-101055849D01*
X92903735Y-101175683D01*
X92945655Y-101295405D01*
X92985244Y-101385465D01*
X93064530Y-101530023D01*
X93159507Y-101662733D01*
X93268760Y-101782494D01*
X93390875Y-101888205D01*
X93524439Y-101978764D01*
X93668037Y-102053068D01*
X93820256Y-102110017D01*
X93959924Y-102144844D01*
X93976591Y-102147768D01*
X93995449Y-102150379D01*
X94017764Y-102152703D01*
X94044800Y-102154767D01*
X94077824Y-102156597D01*
X94118100Y-102158219D01*
X94166894Y-102159661D01*
X94225471Y-102160948D01*
X94295097Y-102162108D01*
X94377036Y-102163166D01*
X94472554Y-102164150D01*
X94582917Y-102165085D01*
X94709389Y-102165999D01*
X94853236Y-102166918D01*
X95015724Y-102167869D01*
X95073184Y-102168191D01*
X96095049Y-102173880D01*
X96182401Y-102217173D01*
X96259823Y-102263508D01*
X96321407Y-102319028D01*
X96369462Y-102386546D01*
X96406297Y-102468871D01*
X96417466Y-102503384D01*
X96432898Y-102589602D01*
X96430264Y-102678085D01*
X96410836Y-102765227D01*
X96375886Y-102847424D01*
X96326685Y-102921069D01*
X96264505Y-102982558D01*
X96242777Y-102998598D01*
X96228425Y-103008843D01*
X96216056Y-103018173D01*
X96204709Y-103026630D01*
X96193424Y-103034259D01*
X96181242Y-103041104D01*
X96167203Y-103047209D01*
X96150347Y-103052618D01*
X96129714Y-103057376D01*
X96104344Y-103061525D01*
X96073277Y-103065110D01*
X96035554Y-103068175D01*
X95990215Y-103070765D01*
X95936299Y-103072923D01*
X95872848Y-103074693D01*
X95798901Y-103076119D01*
X95713498Y-103077246D01*
X95615679Y-103078117D01*
X95504485Y-103078776D01*
X95378957Y-103079268D01*
X95238133Y-103079636D01*
X95081054Y-103079925D01*
X94906760Y-103080178D01*
X94714292Y-103080440D01*
X94502690Y-103080755D01*
X94450100Y-103080841D01*
X92827040Y-103083563D01*
X92065040Y-103083563D01*
X92065040Y-99354480D01*
X102651131Y-99354480D01*
X102654631Y-101038500D01*
X102655098Y-101256936D01*
X102655558Y-101455999D01*
X102656021Y-101636634D01*
X102656498Y-101799788D01*
X102657001Y-101946407D01*
X102657540Y-102077438D01*
X102658126Y-102193826D01*
X102658770Y-102296517D01*
X102659484Y-102386459D01*
X102660278Y-102464598D01*
X102661163Y-102531879D01*
X102662150Y-102589248D01*
X102663250Y-102637653D01*
X102664474Y-102678039D01*
X102665834Y-102711353D01*
X102667339Y-102738541D01*
X102669002Y-102760549D01*
X102670832Y-102778324D01*
X102672841Y-102792811D01*
X102675041Y-102804957D01*
X102675127Y-102805377D01*
X102719217Y-102973251D01*
X102780422Y-103131436D01*
X102858219Y-103278908D01*
X102952086Y-103414645D01*
X103035316Y-103510869D01*
X103155705Y-103623465D01*
X103286728Y-103719952D01*
X103426691Y-103799365D01*
X103573898Y-103860737D01*
X103721350Y-103901976D01*
X103808606Y-103916138D01*
X103907531Y-103924579D01*
X104011858Y-103927303D01*
X104115319Y-103924314D01*
X104211646Y-103915615D01*
X104292600Y-103901665D01*
X104450822Y-103855318D01*
X104599883Y-103791500D01*
X104738729Y-103711374D01*
X104866303Y-103616102D01*
X104981550Y-103506847D01*
X105083415Y-103384771D01*
X105170842Y-103251038D01*
X105242777Y-103106809D01*
X105298163Y-102953247D01*
X105335946Y-102791515D01*
X105343329Y-102744189D01*
X105345503Y-102717581D01*
X105347441Y-102670801D01*
X105349143Y-102603994D01*
X105350606Y-102517307D01*
X105351828Y-102410886D01*
X105352810Y-102284876D01*
X105353548Y-102139425D01*
X105354041Y-101974677D01*
X105354289Y-101790780D01*
X105354320Y-101691931D01*
X105354432Y-101513590D01*
X105354764Y-101350552D01*
X105355311Y-101203375D01*
X105356068Y-101072615D01*
X105357028Y-100958831D01*
X105358186Y-100862578D01*
X105359536Y-100784415D01*
X105361074Y-100724899D01*
X105362792Y-100684586D01*
X105364685Y-100664034D01*
X105364690Y-100664010D01*
X105389503Y-100581771D01*
X105430484Y-100503282D01*
X105484509Y-100432715D01*
X105548457Y-100374244D01*
X105609850Y-100336404D01*
X105697199Y-100304595D01*
X105786334Y-100291767D01*
X105874816Y-100297026D01*
X105960207Y-100319476D01*
X106040067Y-100358223D01*
X106111959Y-100412371D01*
X106173443Y-100481026D01*
X106220815Y-100560597D01*
X106253480Y-100629560D01*
X106253480Y-101376320D01*
X106253426Y-101510287D01*
X106253271Y-101661005D01*
X106253024Y-101824907D01*
X106252693Y-101998424D01*
X106252287Y-102177988D01*
X106251814Y-102360030D01*
X106251283Y-102540982D01*
X106250703Y-102717277D01*
X106250082Y-102885345D01*
X106249492Y-103027320D01*
X106245504Y-103931560D01*
X106692757Y-103934204D01*
X107140009Y-103936849D01*
X107146562Y-103040124D01*
X107147673Y-102881785D01*
X107148788Y-102710950D01*
X107149888Y-102531346D01*
X107150952Y-102346696D01*
X107151961Y-102160728D01*
X107152895Y-101977166D01*
X107153734Y-101799735D01*
X107154459Y-101632161D01*
X107155051Y-101478169D01*
X107155418Y-101366160D01*
X107155820Y-101220784D01*
X107156089Y-101094223D01*
X107156197Y-100984972D01*
X107156114Y-100891526D01*
X107155814Y-100812381D01*
X107155269Y-100746031D01*
X107154449Y-100690971D01*
X107153327Y-100645697D01*
X107151875Y-100608704D01*
X107150065Y-100578487D01*
X107147868Y-100553540D01*
X107145257Y-100532360D01*
X107142203Y-100513442D01*
X107139205Y-100497848D01*
X107097857Y-100335829D01*
X107041880Y-100186822D01*
X106970155Y-100048662D01*
X106881560Y-99919180D01*
X106778141Y-99799506D01*
X106668164Y-99694710D01*
X106554512Y-99607283D01*
X106432816Y-99534288D01*
X106298712Y-99472786D01*
X106283960Y-99466964D01*
X106187357Y-99432532D01*
X106097507Y-99408009D01*
X106007562Y-99392141D01*
X105910675Y-99383672D01*
X105816600Y-99381352D01*
X105690721Y-99385032D01*
X105577455Y-99397801D01*
X105470632Y-99420989D01*
X105364081Y-99455929D01*
X105254031Y-99502833D01*
X105112774Y-99579576D01*
X104981149Y-99672681D01*
X104860778Y-99780281D01*
X104753281Y-99900510D01*
X104660281Y-100031504D01*
X104583399Y-100171396D01*
X104524257Y-100318320D01*
X104512342Y-100356236D01*
X104503945Y-100384804D01*
X104496502Y-100411430D01*
X104489955Y-100437467D01*
X104484248Y-100464266D01*
X104479321Y-100493180D01*
X104475118Y-100525560D01*
X104471580Y-100562757D01*
X104468649Y-100606126D01*
X104466268Y-100657016D01*
X104464378Y-100716780D01*
X104462922Y-100786770D01*
X104461842Y-100868338D01*
X104461081Y-100962835D01*
X104460579Y-101071615D01*
X104460280Y-101196028D01*
X104460125Y-101337426D01*
X104460057Y-101497163D01*
X104460038Y-101578310D01*
X104459898Y-101739240D01*
X104459554Y-101890285D01*
X104459017Y-102030350D01*
X104458296Y-102158341D01*
X104457404Y-102273164D01*
X104456350Y-102373727D01*
X104455146Y-102458934D01*
X104453802Y-102527691D01*
X104452328Y-102578906D01*
X104450736Y-102611484D01*
X104449834Y-102620920D01*
X104427262Y-102710665D01*
X104386823Y-102794767D01*
X104330817Y-102870078D01*
X104261542Y-102933451D01*
X104188943Y-102978076D01*
X104162803Y-102990257D01*
X104139831Y-102998441D01*
X104114954Y-103003416D01*
X104083101Y-103005972D01*
X104039200Y-103006898D01*
X104003040Y-103007000D01*
X103948963Y-103006699D01*
X103910123Y-103005268D01*
X103881438Y-103001913D01*
X103857826Y-102995839D01*
X103834207Y-102986253D01*
X103816661Y-102977868D01*
X103745232Y-102932613D01*
X103680069Y-102871567D01*
X103625428Y-102799164D01*
X103599182Y-102751519D01*
X103561080Y-102671720D01*
X103555702Y-99354480D01*
X102651131Y-99354480D01*
X92065040Y-99354480D01*
X92065040Y-98592480D01*
X107945120Y-98592480D01*
X107945120Y-114706240D01*
G36*
X106452399Y-115231003D02*
G01*
X106562816Y-115236958D01*
X106673987Y-115248145D01*
X106781557Y-115264151D01*
X106881174Y-115284557D01*
X106968486Y-115308949D01*
X107025322Y-115330508D01*
X107156361Y-115399365D01*
X107278073Y-115485100D01*
X107388895Y-115585817D01*
X107487262Y-115699614D01*
X107571612Y-115824594D01*
X107640380Y-115958857D01*
X107692003Y-116100505D01*
X107707576Y-116159120D01*
X107710581Y-116172957D01*
X107713247Y-116188543D01*
X107715602Y-116207144D01*
X107717669Y-116230027D01*
X107719474Y-116258458D01*
X107721043Y-116293704D01*
X107722400Y-116337032D01*
X107723571Y-116389709D01*
X107724581Y-116453001D01*
X107725455Y-116528175D01*
X107726218Y-116616498D01*
X107726896Y-116719237D01*
X107727513Y-116837657D01*
X107728096Y-116973027D01*
X107728668Y-117126612D01*
X107729053Y-117238792D01*
X107732420Y-118242264D01*
X107208520Y-118236840D01*
X107203070Y-117261480D01*
X107202157Y-117096917D01*
X107201328Y-116951370D01*
X107200519Y-116823532D01*
X107199668Y-116712099D01*
X107198713Y-116615765D01*
X107197591Y-116533227D01*
X107196240Y-116463179D01*
X107194597Y-116404317D01*
X107192600Y-116355335D01*
X107190187Y-116314928D01*
X107187294Y-116281793D01*
X107183859Y-116254623D01*
X107179820Y-116232113D01*
X107175115Y-116212960D01*
X107169681Y-116195859D01*
X107163454Y-116179503D01*
X107156374Y-116162589D01*
X107149704Y-116146955D01*
X107112297Y-116077639D01*
X107059843Y-116007059D01*
X106996744Y-115939851D01*
X106927398Y-115880651D01*
X106856203Y-115834095D01*
X106849341Y-115830413D01*
X106790939Y-115806324D01*
X106717402Y-115786120D01*
X106633636Y-115770339D01*
X106544547Y-115759517D01*
X106455041Y-115754192D01*
X106370025Y-115754899D01*
X106294406Y-115762177D01*
X106268720Y-115766870D01*
X106158684Y-115800507D01*
X106056835Y-115851929D01*
X105965164Y-115919568D01*
X105885660Y-116001856D01*
X105820315Y-116097224D01*
X105799797Y-116136184D01*
X105788644Y-116159182D01*
X105778766Y-116180482D01*
X105770085Y-116201405D01*
X105762523Y-116223271D01*
X105756002Y-116247400D01*
X105750445Y-116275112D01*
X105745773Y-116307727D01*
X105741909Y-116346565D01*
X105738775Y-116392945D01*
X105736293Y-116448189D01*
X105734385Y-116513615D01*
X105732974Y-116590545D01*
X105731981Y-116680297D01*
X105731329Y-116784192D01*
X105730940Y-116903551D01*
X105730735Y-117039693D01*
X105730638Y-117193937D01*
X105730594Y-117309740D01*
X105730240Y-118241920D01*
X105212080Y-118241920D01*
X105212080Y-117265615D01*
X105212091Y-117102678D01*
X105212142Y-116958732D01*
X105212259Y-116832450D01*
X105212467Y-116722504D01*
X105212793Y-116627566D01*
X105213261Y-116546308D01*
X105213899Y-116477402D01*
X105214732Y-116419520D01*
X105215786Y-116371334D01*
X105217087Y-116331516D01*
X105218660Y-116298737D01*
X105220531Y-116271671D01*
X105222727Y-116248988D01*
X105225273Y-116229362D01*
X105228195Y-116211463D01*
X105231519Y-116193964D01*
X105233102Y-116186115D01*
X105273808Y-116035308D01*
X105332007Y-115893809D01*
X105406607Y-115762712D01*
X105496515Y-115643112D01*
X105600639Y-115536103D01*
X105717887Y-115442778D01*
X105847167Y-115364230D01*
X105987386Y-115301555D01*
X106137452Y-115255846D01*
X106169191Y-115248700D01*
X106251233Y-115236459D01*
X106347087Y-115230698D01*
X106452399Y-115231003D01*
G37*
X106452399Y-115231003D02*
X106562816Y-115236958D01*
X106673987Y-115248145D01*
X106781557Y-115264151D01*
X106881174Y-115284557D01*
X106968486Y-115308949D01*
X107025322Y-115330508D01*
X107156361Y-115399365D01*
X107278073Y-115485100D01*
X107388895Y-115585817D01*
X107487262Y-115699614D01*
X107571612Y-115824594D01*
X107640380Y-115958857D01*
X107692003Y-116100505D01*
X107707576Y-116159120D01*
X107710581Y-116172957D01*
X107713247Y-116188543D01*
X107715602Y-116207144D01*
X107717669Y-116230027D01*
X107719474Y-116258458D01*
X107721043Y-116293704D01*
X107722400Y-116337032D01*
X107723571Y-116389709D01*
X107724581Y-116453001D01*
X107725455Y-116528175D01*
X107726218Y-116616498D01*
X107726896Y-116719237D01*
X107727513Y-116837657D01*
X107728096Y-116973027D01*
X107728668Y-117126612D01*
X107729053Y-117238792D01*
X107732420Y-118242264D01*
X107208520Y-118236840D01*
X107203070Y-117261480D01*
X107202157Y-117096917D01*
X107201328Y-116951370D01*
X107200519Y-116823532D01*
X107199668Y-116712099D01*
X107198713Y-116615765D01*
X107197591Y-116533227D01*
X107196240Y-116463179D01*
X107194597Y-116404317D01*
X107192600Y-116355335D01*
X107190187Y-116314928D01*
X107187294Y-116281793D01*
X107183859Y-116254623D01*
X107179820Y-116232113D01*
X107175115Y-116212960D01*
X107169681Y-116195859D01*
X107163454Y-116179503D01*
X107156374Y-116162589D01*
X107149704Y-116146955D01*
X107112297Y-116077639D01*
X107059843Y-116007059D01*
X106996744Y-115939851D01*
X106927398Y-115880651D01*
X106856203Y-115834095D01*
X106849341Y-115830413D01*
X106790939Y-115806324D01*
X106717402Y-115786120D01*
X106633636Y-115770339D01*
X106544547Y-115759517D01*
X106455041Y-115754192D01*
X106370025Y-115754899D01*
X106294406Y-115762177D01*
X106268720Y-115766870D01*
X106158684Y-115800507D01*
X106056835Y-115851929D01*
X105965164Y-115919568D01*
X105885660Y-116001856D01*
X105820315Y-116097224D01*
X105799797Y-116136184D01*
X105788644Y-116159182D01*
X105778766Y-116180482D01*
X105770085Y-116201405D01*
X105762523Y-116223271D01*
X105756002Y-116247400D01*
X105750445Y-116275112D01*
X105745773Y-116307727D01*
X105741909Y-116346565D01*
X105738775Y-116392945D01*
X105736293Y-116448189D01*
X105734385Y-116513615D01*
X105732974Y-116590545D01*
X105731981Y-116680297D01*
X105731329Y-116784192D01*
X105730940Y-116903551D01*
X105730735Y-117039693D01*
X105730638Y-117193937D01*
X105730594Y-117309740D01*
X105730240Y-118241920D01*
X105212080Y-118241920D01*
X105212080Y-117265615D01*
X105212091Y-117102678D01*
X105212142Y-116958732D01*
X105212259Y-116832450D01*
X105212467Y-116722504D01*
X105212793Y-116627566D01*
X105213261Y-116546308D01*
X105213899Y-116477402D01*
X105214732Y-116419520D01*
X105215786Y-116371334D01*
X105217087Y-116331516D01*
X105218660Y-116298737D01*
X105220531Y-116271671D01*
X105222727Y-116248988D01*
X105225273Y-116229362D01*
X105228195Y-116211463D01*
X105231519Y-116193964D01*
X105233102Y-116186115D01*
X105273808Y-116035308D01*
X105332007Y-115893809D01*
X105406607Y-115762712D01*
X105496515Y-115643112D01*
X105600639Y-115536103D01*
X105717887Y-115442778D01*
X105847167Y-115364230D01*
X105987386Y-115301555D01*
X106137452Y-115255846D01*
X106169191Y-115248700D01*
X106251233Y-115236459D01*
X106347087Y-115230698D01*
X106452399Y-115231003D01*
G36*
X103982133Y-115227429D02*
G01*
X104056692Y-115233606D01*
X104199885Y-115262245D01*
X104340591Y-115308640D01*
X104475522Y-115371128D01*
X104601389Y-115448045D01*
X104714902Y-115537728D01*
X104776281Y-115597576D01*
X104854589Y-115691896D01*
X104926530Y-115800455D01*
X104988905Y-115917421D01*
X105038519Y-116036963D01*
X105065536Y-116125213D01*
X105073088Y-116156709D01*
X105079767Y-116189252D01*
X105085621Y-116224194D01*
X105090696Y-116262888D01*
X105095038Y-116306687D01*
X105098694Y-116356942D01*
X105101710Y-116415007D01*
X105104133Y-116482233D01*
X105106009Y-116559974D01*
X105107384Y-116649582D01*
X105108306Y-116752410D01*
X105108820Y-116869810D01*
X105108973Y-117003134D01*
X105108812Y-117153735D01*
X105108383Y-117322966D01*
X105108239Y-117368160D01*
X105105400Y-118236840D01*
X104843780Y-118239551D01*
X104582160Y-118242263D01*
X104582160Y-116992240D01*
X103108960Y-116992240D01*
X103108960Y-118241920D01*
X102851573Y-118241920D01*
X102781208Y-118241663D01*
X102717646Y-118240939D01*
X102663685Y-118239822D01*
X102622121Y-118238382D01*
X102595754Y-118236691D01*
X102587413Y-118235146D01*
X102586071Y-118223851D01*
X102584888Y-118193966D01*
X102583863Y-118147220D01*
X102582991Y-118085342D01*
X102582270Y-118010060D01*
X102581696Y-117923104D01*
X102581265Y-117826203D01*
X102580976Y-117721086D01*
X102580825Y-117609482D01*
X102580808Y-117493120D01*
X102580922Y-117373730D01*
X102581164Y-117253039D01*
X102581532Y-117132778D01*
X102582021Y-117014674D01*
X102582629Y-116900458D01*
X102583352Y-116791859D01*
X102584187Y-116690604D01*
X102585132Y-116598425D01*
X102586182Y-116517048D01*
X102586899Y-116474214D01*
X103105907Y-116474214D01*
X103841493Y-116471607D01*
X104577080Y-116469000D01*
X104573784Y-116397880D01*
X104562860Y-116291036D01*
X104539474Y-116197263D01*
X104501747Y-116112287D01*
X104447803Y-116031833D01*
X104379248Y-115955117D01*
X104300469Y-115884861D01*
X104218401Y-115830393D01*
X104130675Y-115791009D01*
X104034927Y-115766004D01*
X103928787Y-115754674D01*
X103809890Y-115756314D01*
X103733800Y-115762968D01*
X103659766Y-115772359D01*
X103600724Y-115783041D01*
X103551346Y-115796338D01*
X103506303Y-115813572D01*
X103479800Y-115826025D01*
X103389020Y-115881912D01*
X103306189Y-115954168D01*
X103234771Y-116039345D01*
X103186070Y-116118480D01*
X103150833Y-116195847D01*
X103127834Y-116272402D01*
X103114671Y-116356827D01*
X103112263Y-116385247D01*
X103105907Y-116474214D01*
X102586899Y-116474214D01*
X102587335Y-116448204D01*
X102588587Y-116393622D01*
X102589936Y-116355030D01*
X102590904Y-116338831D01*
X102613474Y-116180453D01*
X102654456Y-116030357D01*
X102714246Y-115887497D01*
X102793239Y-115750825D01*
X102835418Y-115690709D01*
X102915683Y-115596304D01*
X103010395Y-115508346D01*
X103115326Y-115429847D01*
X103226247Y-115363822D01*
X103338928Y-115313282D01*
X103388797Y-115296479D01*
X103475603Y-115274346D01*
X103574220Y-115255805D01*
X103679414Y-115241350D01*
X103785953Y-115231474D01*
X103888604Y-115226670D01*
X103982133Y-115227429D01*
G37*
X103982133Y-115227429D02*
X104056692Y-115233606D01*
X104199885Y-115262245D01*
X104340591Y-115308640D01*
X104475522Y-115371128D01*
X104601389Y-115448045D01*
X104714902Y-115537728D01*
X104776281Y-115597576D01*
X104854589Y-115691896D01*
X104926530Y-115800455D01*
X104988905Y-115917421D01*
X105038519Y-116036963D01*
X105065536Y-116125213D01*
X105073088Y-116156709D01*
X105079767Y-116189252D01*
X105085621Y-116224194D01*
X105090696Y-116262888D01*
X105095038Y-116306687D01*
X105098694Y-116356942D01*
X105101710Y-116415007D01*
X105104133Y-116482233D01*
X105106009Y-116559974D01*
X105107384Y-116649582D01*
X105108306Y-116752410D01*
X105108820Y-116869810D01*
X105108973Y-117003134D01*
X105108812Y-117153735D01*
X105108383Y-117322966D01*
X105108239Y-117368160D01*
X105105400Y-118236840D01*
X104843780Y-118239551D01*
X104582160Y-118242263D01*
X104582160Y-116992240D01*
X103108960Y-116992240D01*
X103108960Y-118241920D01*
X102851573Y-118241920D01*
X102781208Y-118241663D01*
X102717646Y-118240939D01*
X102663685Y-118239822D01*
X102622121Y-118238382D01*
X102595754Y-118236691D01*
X102587413Y-118235146D01*
X102586071Y-118223851D01*
X102584888Y-118193966D01*
X102583863Y-118147220D01*
X102582991Y-118085342D01*
X102582270Y-118010060D01*
X102581696Y-117923104D01*
X102581265Y-117826203D01*
X102580976Y-117721086D01*
X102580825Y-117609482D01*
X102580808Y-117493120D01*
X102580922Y-117373730D01*
X102581164Y-117253039D01*
X102581532Y-117132778D01*
X102582021Y-117014674D01*
X102582629Y-116900458D01*
X102583352Y-116791859D01*
X102584187Y-116690604D01*
X102585132Y-116598425D01*
X102586182Y-116517048D01*
X102586899Y-116474214D01*
X103105907Y-116474214D01*
X103841493Y-116471607D01*
X104577080Y-116469000D01*
X104573784Y-116397880D01*
X104562860Y-116291036D01*
X104539474Y-116197263D01*
X104501747Y-116112287D01*
X104447803Y-116031833D01*
X104379248Y-115955117D01*
X104300469Y-115884861D01*
X104218401Y-115830393D01*
X104130675Y-115791009D01*
X104034927Y-115766004D01*
X103928787Y-115754674D01*
X103809890Y-115756314D01*
X103733800Y-115762968D01*
X103659766Y-115772359D01*
X103600724Y-115783041D01*
X103551346Y-115796338D01*
X103506303Y-115813572D01*
X103479800Y-115826025D01*
X103389020Y-115881912D01*
X103306189Y-115954168D01*
X103234771Y-116039345D01*
X103186070Y-116118480D01*
X103150833Y-116195847D01*
X103127834Y-116272402D01*
X103114671Y-116356827D01*
X103112263Y-116385247D01*
X103105907Y-116474214D01*
X102586899Y-116474214D01*
X102587335Y-116448204D01*
X102588587Y-116393622D01*
X102589936Y-116355030D01*
X102590904Y-116338831D01*
X102613474Y-116180453D01*
X102654456Y-116030357D01*
X102714246Y-115887497D01*
X102793239Y-115750825D01*
X102835418Y-115690709D01*
X102915683Y-115596304D01*
X103010395Y-115508346D01*
X103115326Y-115429847D01*
X103226247Y-115363822D01*
X103338928Y-115313282D01*
X103388797Y-115296479D01*
X103475603Y-115274346D01*
X103574220Y-115255805D01*
X103679414Y-115241350D01*
X103785953Y-115231474D01*
X103888604Y-115226670D01*
X103982133Y-115227429D01*
G36*
X95410898Y-115225650D02*
G01*
X95670292Y-115225717D01*
X95946189Y-115225820D01*
X96239114Y-115225953D01*
X96549594Y-115226111D01*
X96878155Y-115226288D01*
X97225322Y-115226479D01*
X97591621Y-115226677D01*
X97977578Y-115226878D01*
X98080901Y-115226930D01*
X103225800Y-115229480D01*
X103180080Y-115253613D01*
X103054722Y-115328561D01*
X102938801Y-115415362D01*
X102835170Y-115511433D01*
X102746682Y-115614194D01*
X102690289Y-115696868D01*
X102656840Y-115752143D01*
X101653540Y-115752431D01*
X100650240Y-115752720D01*
X100650240Y-116474080D01*
X101584960Y-116474080D01*
X101584960Y-116992240D01*
X100650240Y-116992240D01*
X100650240Y-118241920D01*
X100121920Y-118241920D01*
X100121920Y-115752720D01*
X98079760Y-115752720D01*
X98079760Y-116474080D01*
X99105920Y-116474080D01*
X99105920Y-116992052D01*
X98084840Y-116997320D01*
X98079500Y-117713600D01*
X99593600Y-117713600D01*
X99593600Y-118241920D01*
X98460620Y-118241920D01*
X98369250Y-118205711D01*
X98185203Y-118142532D01*
X97992284Y-118094659D01*
X97796319Y-118063372D01*
X97672116Y-118052651D01*
X97551440Y-118045831D01*
X97551440Y-115752720D01*
X96200160Y-115752720D01*
X96200160Y-118241920D01*
X95671840Y-118241920D01*
X95671840Y-116997144D01*
X95671839Y-115752368D01*
X94277379Y-115755084D01*
X92882920Y-115757800D01*
X92825235Y-115786127D01*
X92772269Y-115819548D01*
X92721288Y-115864826D01*
X92677370Y-115916484D01*
X92645593Y-115969046D01*
X92637636Y-115988467D01*
X92622262Y-116056185D01*
X92619382Y-116128921D01*
X92628749Y-116199105D01*
X92646132Y-116251044D01*
X92691918Y-116326809D01*
X92752230Y-116388986D01*
X92824799Y-116435606D01*
X92892608Y-116469000D01*
X93659924Y-116474741D01*
X93807181Y-116475810D01*
X93935673Y-116476759D01*
X94046951Y-116477730D01*
X94142570Y-116478865D01*
X94224082Y-116480305D01*
X94293038Y-116482192D01*
X94350993Y-116484668D01*
X94399499Y-116487874D01*
X94440108Y-116491952D01*
X94474374Y-116497044D01*
X94503849Y-116503291D01*
X94530086Y-116510835D01*
X94554637Y-116519817D01*
X94579055Y-116530380D01*
X94604894Y-116542664D01*
X94633705Y-116556813D01*
X94650760Y-116565138D01*
X94764966Y-116631383D01*
X94865919Y-116712164D01*
X94952665Y-116805844D01*
X95024255Y-116910786D01*
X95079735Y-117025355D01*
X95118154Y-117147913D01*
X95138561Y-117276823D01*
X95140218Y-117406858D01*
X95132519Y-117492578D01*
X95118979Y-117566559D01*
X95097564Y-117637024D01*
X95066242Y-117712194D01*
X95062939Y-117719320D01*
X94997117Y-117838791D01*
X94918022Y-117943248D01*
X94825224Y-118033049D01*
X94718290Y-118108551D01*
X94596789Y-118170114D01*
X94462800Y-118217373D01*
X94451879Y-118220304D01*
X94439768Y-118222926D01*
X94425311Y-118225258D01*
X94407349Y-118227323D01*
X94384726Y-118229139D01*
X94356285Y-118230729D01*
X94320867Y-118232113D01*
X94277317Y-118233311D01*
X94224476Y-118234345D01*
X94161187Y-118235235D01*
X94086293Y-118236002D01*
X93998638Y-118236666D01*
X93897062Y-118237249D01*
X93780410Y-118237770D01*
X93647523Y-118238251D01*
X93497246Y-118238713D01*
X93328420Y-118239175D01*
X93230900Y-118239428D01*
X92065040Y-118242416D01*
X92065040Y-117713942D01*
X93205718Y-117711231D01*
X94346397Y-117708520D01*
X94414223Y-117675126D01*
X94486874Y-117628330D01*
X94546486Y-117566704D01*
X94586177Y-117502309D01*
X94605316Y-117444668D01*
X94614001Y-117377275D01*
X94611970Y-117307953D01*
X94598962Y-117244528D01*
X94595147Y-117233573D01*
X94558680Y-117164204D01*
X94505870Y-117101988D01*
X94440343Y-117050333D01*
X94365730Y-117012650D01*
X94356409Y-117009254D01*
X94339426Y-117006898D01*
X94302480Y-117004648D01*
X94245929Y-117002511D01*
X94170130Y-117000494D01*
X94075441Y-116998606D01*
X93962219Y-116996852D01*
X93830821Y-116995242D01*
X93681604Y-116993781D01*
X93563640Y-116992829D01*
X92801640Y-116987160D01*
X92701435Y-116952477D01*
X92584800Y-116903797D01*
X92477519Y-116842436D01*
X92382666Y-116770507D01*
X92303313Y-116690126D01*
X92282808Y-116664440D01*
X92243440Y-116605535D01*
X92203408Y-116533780D01*
X92166125Y-116456235D01*
X92135003Y-116379957D01*
X92114648Y-116316600D01*
X92099081Y-116235317D01*
X92091785Y-116145047D01*
X92092766Y-116053156D01*
X92102033Y-115967007D01*
X92114203Y-115911378D01*
X92160974Y-115776888D01*
X92221468Y-115654691D01*
X92294700Y-115546600D01*
X92342496Y-115491219D01*
X92393686Y-115444078D01*
X92458066Y-115395358D01*
X92529328Y-115349200D01*
X92601163Y-115309745D01*
X92656517Y-115285124D01*
X92667666Y-115280608D01*
X92677440Y-115276319D01*
X92686366Y-115272253D01*
X92694968Y-115268404D01*
X92703773Y-115264765D01*
X92713307Y-115261332D01*
X92724096Y-115258098D01*
X92736665Y-115255059D01*
X92751540Y-115252207D01*
X92769246Y-115249539D01*
X92790311Y-115247048D01*
X92815259Y-115244728D01*
X92844617Y-115242574D01*
X92878909Y-115240580D01*
X92918663Y-115238740D01*
X92964403Y-115237050D01*
X93016657Y-115235502D01*
X93075948Y-115234093D01*
X93142804Y-115232815D01*
X93217749Y-115231664D01*
X93301311Y-115230633D01*
X93394014Y-115229718D01*
X93496385Y-115228911D01*
X93608949Y-115228209D01*
X93732232Y-115227605D01*
X93866760Y-115227093D01*
X94013059Y-115226668D01*
X94171654Y-115226324D01*
X94343072Y-115226056D01*
X94527838Y-115225857D01*
X94726477Y-115225723D01*
X94939517Y-115225648D01*
X95167482Y-115225626D01*
X95410898Y-115225650D01*
G37*
X95410898Y-115225650D02*
X95670292Y-115225717D01*
X95946189Y-115225820D01*
X96239114Y-115225953D01*
X96549594Y-115226111D01*
X96878155Y-115226288D01*
X97225322Y-115226479D01*
X97591621Y-115226677D01*
X97977578Y-115226878D01*
X98080901Y-115226930D01*
X103225800Y-115229480D01*
X103180080Y-115253613D01*
X103054722Y-115328561D01*
X102938801Y-115415362D01*
X102835170Y-115511433D01*
X102746682Y-115614194D01*
X102690289Y-115696868D01*
X102656840Y-115752143D01*
X101653540Y-115752431D01*
X100650240Y-115752720D01*
X100650240Y-116474080D01*
X101584960Y-116474080D01*
X101584960Y-116992240D01*
X100650240Y-116992240D01*
X100650240Y-118241920D01*
X100121920Y-118241920D01*
X100121920Y-115752720D01*
X98079760Y-115752720D01*
X98079760Y-116474080D01*
X99105920Y-116474080D01*
X99105920Y-116992052D01*
X98084840Y-116997320D01*
X98079500Y-117713600D01*
X99593600Y-117713600D01*
X99593600Y-118241920D01*
X98460620Y-118241920D01*
X98369250Y-118205711D01*
X98185203Y-118142532D01*
X97992284Y-118094659D01*
X97796319Y-118063372D01*
X97672116Y-118052651D01*
X97551440Y-118045831D01*
X97551440Y-115752720D01*
X96200160Y-115752720D01*
X96200160Y-118241920D01*
X95671840Y-118241920D01*
X95671840Y-116997144D01*
X95671839Y-115752368D01*
X94277379Y-115755084D01*
X92882920Y-115757800D01*
X92825235Y-115786127D01*
X92772269Y-115819548D01*
X92721288Y-115864826D01*
X92677370Y-115916484D01*
X92645593Y-115969046D01*
X92637636Y-115988467D01*
X92622262Y-116056185D01*
X92619382Y-116128921D01*
X92628749Y-116199105D01*
X92646132Y-116251044D01*
X92691918Y-116326809D01*
X92752230Y-116388986D01*
X92824799Y-116435606D01*
X92892608Y-116469000D01*
X93659924Y-116474741D01*
X93807181Y-116475810D01*
X93935673Y-116476759D01*
X94046951Y-116477730D01*
X94142570Y-116478865D01*
X94224082Y-116480305D01*
X94293038Y-116482192D01*
X94350993Y-116484668D01*
X94399499Y-116487874D01*
X94440108Y-116491952D01*
X94474374Y-116497044D01*
X94503849Y-116503291D01*
X94530086Y-116510835D01*
X94554637Y-116519817D01*
X94579055Y-116530380D01*
X94604894Y-116542664D01*
X94633705Y-116556813D01*
X94650760Y-116565138D01*
X94764966Y-116631383D01*
X94865919Y-116712164D01*
X94952665Y-116805844D01*
X95024255Y-116910786D01*
X95079735Y-117025355D01*
X95118154Y-117147913D01*
X95138561Y-117276823D01*
X95140218Y-117406858D01*
X95132519Y-117492578D01*
X95118979Y-117566559D01*
X95097564Y-117637024D01*
X95066242Y-117712194D01*
X95062939Y-117719320D01*
X94997117Y-117838791D01*
X94918022Y-117943248D01*
X94825224Y-118033049D01*
X94718290Y-118108551D01*
X94596789Y-118170114D01*
X94462800Y-118217373D01*
X94451879Y-118220304D01*
X94439768Y-118222926D01*
X94425311Y-118225258D01*
X94407349Y-118227323D01*
X94384726Y-118229139D01*
X94356285Y-118230729D01*
X94320867Y-118232113D01*
X94277317Y-118233311D01*
X94224476Y-118234345D01*
X94161187Y-118235235D01*
X94086293Y-118236002D01*
X93998638Y-118236666D01*
X93897062Y-118237249D01*
X93780410Y-118237770D01*
X93647523Y-118238251D01*
X93497246Y-118238713D01*
X93328420Y-118239175D01*
X93230900Y-118239428D01*
X92065040Y-118242416D01*
X92065040Y-117713942D01*
X93205718Y-117711231D01*
X94346397Y-117708520D01*
X94414223Y-117675126D01*
X94486874Y-117628330D01*
X94546486Y-117566704D01*
X94586177Y-117502309D01*
X94605316Y-117444668D01*
X94614001Y-117377275D01*
X94611970Y-117307953D01*
X94598962Y-117244528D01*
X94595147Y-117233573D01*
X94558680Y-117164204D01*
X94505870Y-117101988D01*
X94440343Y-117050333D01*
X94365730Y-117012650D01*
X94356409Y-117009254D01*
X94339426Y-117006898D01*
X94302480Y-117004648D01*
X94245929Y-117002511D01*
X94170130Y-117000494D01*
X94075441Y-116998606D01*
X93962219Y-116996852D01*
X93830821Y-116995242D01*
X93681604Y-116993781D01*
X93563640Y-116992829D01*
X92801640Y-116987160D01*
X92701435Y-116952477D01*
X92584800Y-116903797D01*
X92477519Y-116842436D01*
X92382666Y-116770507D01*
X92303313Y-116690126D01*
X92282808Y-116664440D01*
X92243440Y-116605535D01*
X92203408Y-116533780D01*
X92166125Y-116456235D01*
X92135003Y-116379957D01*
X92114648Y-116316600D01*
X92099081Y-116235317D01*
X92091785Y-116145047D01*
X92092766Y-116053156D01*
X92102033Y-115967007D01*
X92114203Y-115911378D01*
X92160974Y-115776888D01*
X92221468Y-115654691D01*
X92294700Y-115546600D01*
X92342496Y-115491219D01*
X92393686Y-115444078D01*
X92458066Y-115395358D01*
X92529328Y-115349200D01*
X92601163Y-115309745D01*
X92656517Y-115285124D01*
X92667666Y-115280608D01*
X92677440Y-115276319D01*
X92686366Y-115272253D01*
X92694968Y-115268404D01*
X92703773Y-115264765D01*
X92713307Y-115261332D01*
X92724096Y-115258098D01*
X92736665Y-115255059D01*
X92751540Y-115252207D01*
X92769246Y-115249539D01*
X92790311Y-115247048D01*
X92815259Y-115244728D01*
X92844617Y-115242574D01*
X92878909Y-115240580D01*
X92918663Y-115238740D01*
X92964403Y-115237050D01*
X93016657Y-115235502D01*
X93075948Y-115234093D01*
X93142804Y-115232815D01*
X93217749Y-115231664D01*
X93301311Y-115230633D01*
X93394014Y-115229718D01*
X93496385Y-115228911D01*
X93608949Y-115228209D01*
X93732232Y-115227605D01*
X93866760Y-115227093D01*
X94013059Y-115226668D01*
X94171654Y-115226324D01*
X94343072Y-115226056D01*
X94527838Y-115225857D01*
X94726477Y-115225723D01*
X94939517Y-115225648D01*
X95167482Y-115225626D01*
X95410898Y-115225650D01*
G36*
X93128660Y-118696618D02*
G01*
X93192991Y-118701029D01*
X93249984Y-118709898D01*
X93306069Y-118724360D01*
X93367680Y-118745548D01*
X93395835Y-118756365D01*
X93446703Y-118780124D01*
X93506248Y-118813882D01*
X93568333Y-118853729D01*
X93626822Y-118895754D01*
X93670025Y-118931064D01*
X93715451Y-118971284D01*
X93766545Y-118925318D01*
X93874998Y-118840382D01*
X93991158Y-118774042D01*
X94116186Y-118725660D01*
X94142760Y-118717973D01*
X94180732Y-118708619D01*
X94217783Y-118702233D01*
X94259218Y-118698315D01*
X94310342Y-118696361D01*
X94376440Y-118695872D01*
X94438715Y-118696300D01*
X94486032Y-118697849D01*
X94523743Y-118701129D01*
X94557205Y-118706749D01*
X94591770Y-118715319D01*
X94620280Y-118723639D01*
X94754724Y-118773562D01*
X94874782Y-118837815D01*
X94980560Y-118916488D01*
X95072169Y-119009671D01*
X95149716Y-119117456D01*
X95195884Y-119202040D01*
X95242744Y-119313390D01*
X95273557Y-119423135D01*
X95290347Y-119538955D01*
X95292501Y-119568291D01*
X95294678Y-119613350D01*
X95294496Y-119650525D01*
X95291276Y-119686063D01*
X95284338Y-119726217D01*
X95273005Y-119777236D01*
X95267117Y-119801971D01*
X95241225Y-119919876D01*
X95222991Y-120029049D01*
X95211702Y-120136459D01*
X95206644Y-120249076D01*
X95207104Y-120373868D01*
X95207385Y-120385680D01*
X95214686Y-120536088D01*
X95228996Y-120672158D01*
X95250974Y-120798855D01*
X95275773Y-120901413D01*
X95280560Y-120920092D01*
X95284527Y-120939231D01*
X95287749Y-120960867D01*
X95290304Y-120987039D01*
X95292267Y-121019783D01*
X95293715Y-121061138D01*
X95294725Y-121113141D01*
X95295374Y-121177829D01*
X95295738Y-121257241D01*
X95295893Y-121353414D01*
X95295920Y-121437353D01*
X95295920Y-121899520D01*
X94777760Y-121899520D01*
X94777760Y-120731620D01*
X94777675Y-120525659D01*
X94777421Y-120339700D01*
X94776994Y-120173425D01*
X94776390Y-120026516D01*
X94775608Y-119898655D01*
X94774644Y-119789524D01*
X94773496Y-119698806D01*
X94772160Y-119626182D01*
X94770633Y-119571336D01*
X94768914Y-119533948D01*
X94766998Y-119513702D01*
X94766725Y-119512268D01*
X94745019Y-119451789D01*
X94707688Y-119390403D01*
X94658730Y-119332476D01*
X94602145Y-119282374D01*
X94541932Y-119244463D01*
X94508520Y-119230324D01*
X94448409Y-119216941D01*
X94378639Y-119212650D01*
X94307624Y-119217262D01*
X94243782Y-119230587D01*
X94226228Y-119236666D01*
X94167290Y-119268189D01*
X94108940Y-119314543D01*
X94056492Y-119370796D01*
X94015263Y-119432017D01*
X94014863Y-119432753D01*
X93980200Y-119496680D01*
X93974794Y-121899520D01*
X93457525Y-121899520D01*
X93454702Y-120713340D01*
X93451880Y-119527160D01*
X93428035Y-119468058D01*
X93402579Y-119420489D01*
X93365069Y-119369434D01*
X93320602Y-119320539D01*
X93274277Y-119279451D01*
X93234069Y-119253231D01*
X93154956Y-119223737D01*
X93070561Y-119210929D01*
X92985873Y-119214943D01*
X92905880Y-119235913D01*
X92887110Y-119243862D01*
X92840813Y-119271385D01*
X92791478Y-119310800D01*
X92745001Y-119356512D01*
X92707276Y-119402925D01*
X92690332Y-119430640D01*
X92673857Y-119469398D01*
X92659649Y-119513545D01*
X92655583Y-119530200D01*
X92653615Y-119546999D01*
X92651849Y-119578243D01*
X92650280Y-119624479D01*
X92648902Y-119686257D01*
X92647711Y-119764126D01*
X92646702Y-119858635D01*
X92645869Y-119970335D01*
X92645207Y-120099773D01*
X92644711Y-120247498D01*
X92644376Y-120414062D01*
X92644196Y-120600011D01*
X92644159Y-120741780D01*
X92644160Y-121899520D01*
X92136160Y-121899520D01*
X92136336Y-120693020D01*
X92136354Y-120506815D01*
X92136384Y-120339761D01*
X92136474Y-120190691D01*
X92136674Y-120058436D01*
X92137033Y-119941828D01*
X92137599Y-119839698D01*
X92138422Y-119750878D01*
X92139551Y-119674200D01*
X92141034Y-119608495D01*
X92142921Y-119552595D01*
X92145261Y-119505332D01*
X92148103Y-119465537D01*
X92151495Y-119432043D01*
X92155487Y-119403680D01*
X92160128Y-119379281D01*
X92165467Y-119357677D01*
X92171553Y-119337699D01*
X92178434Y-119318180D01*
X92186161Y-119297952D01*
X92194781Y-119275845D01*
X92195916Y-119272911D01*
X92250352Y-119153342D01*
X92315967Y-119049388D01*
X92394580Y-118959069D01*
X92488012Y-118880400D01*
X92598083Y-118811399D01*
X92639080Y-118790058D01*
X92717180Y-118753730D01*
X92787263Y-118727617D01*
X92855700Y-118710255D01*
X92928862Y-118700181D01*
X93013120Y-118695930D01*
X93050560Y-118695535D01*
X93128660Y-118696618D01*
G37*
X93128660Y-118696618D02*
X93192991Y-118701029D01*
X93249984Y-118709898D01*
X93306069Y-118724360D01*
X93367680Y-118745548D01*
X93395835Y-118756365D01*
X93446703Y-118780124D01*
X93506248Y-118813882D01*
X93568333Y-118853729D01*
X93626822Y-118895754D01*
X93670025Y-118931064D01*
X93715451Y-118971284D01*
X93766545Y-118925318D01*
X93874998Y-118840382D01*
X93991158Y-118774042D01*
X94116186Y-118725660D01*
X94142760Y-118717973D01*
X94180732Y-118708619D01*
X94217783Y-118702233D01*
X94259218Y-118698315D01*
X94310342Y-118696361D01*
X94376440Y-118695872D01*
X94438715Y-118696300D01*
X94486032Y-118697849D01*
X94523743Y-118701129D01*
X94557205Y-118706749D01*
X94591770Y-118715319D01*
X94620280Y-118723639D01*
X94754724Y-118773562D01*
X94874782Y-118837815D01*
X94980560Y-118916488D01*
X95072169Y-119009671D01*
X95149716Y-119117456D01*
X95195884Y-119202040D01*
X95242744Y-119313390D01*
X95273557Y-119423135D01*
X95290347Y-119538955D01*
X95292501Y-119568291D01*
X95294678Y-119613350D01*
X95294496Y-119650525D01*
X95291276Y-119686063D01*
X95284338Y-119726217D01*
X95273005Y-119777236D01*
X95267117Y-119801971D01*
X95241225Y-119919876D01*
X95222991Y-120029049D01*
X95211702Y-120136459D01*
X95206644Y-120249076D01*
X95207104Y-120373868D01*
X95207385Y-120385680D01*
X95214686Y-120536088D01*
X95228996Y-120672158D01*
X95250974Y-120798855D01*
X95275773Y-120901413D01*
X95280560Y-120920092D01*
X95284527Y-120939231D01*
X95287749Y-120960867D01*
X95290304Y-120987039D01*
X95292267Y-121019783D01*
X95293715Y-121061138D01*
X95294725Y-121113141D01*
X95295374Y-121177829D01*
X95295738Y-121257241D01*
X95295893Y-121353414D01*
X95295920Y-121437353D01*
X95295920Y-121899520D01*
X94777760Y-121899520D01*
X94777760Y-120731620D01*
X94777675Y-120525659D01*
X94777421Y-120339700D01*
X94776994Y-120173425D01*
X94776390Y-120026516D01*
X94775608Y-119898655D01*
X94774644Y-119789524D01*
X94773496Y-119698806D01*
X94772160Y-119626182D01*
X94770633Y-119571336D01*
X94768914Y-119533948D01*
X94766998Y-119513702D01*
X94766725Y-119512268D01*
X94745019Y-119451789D01*
X94707688Y-119390403D01*
X94658730Y-119332476D01*
X94602145Y-119282374D01*
X94541932Y-119244463D01*
X94508520Y-119230324D01*
X94448409Y-119216941D01*
X94378639Y-119212650D01*
X94307624Y-119217262D01*
X94243782Y-119230587D01*
X94226228Y-119236666D01*
X94167290Y-119268189D01*
X94108940Y-119314543D01*
X94056492Y-119370796D01*
X94015263Y-119432017D01*
X94014863Y-119432753D01*
X93980200Y-119496680D01*
X93974794Y-121899520D01*
X93457525Y-121899520D01*
X93454702Y-120713340D01*
X93451880Y-119527160D01*
X93428035Y-119468058D01*
X93402579Y-119420489D01*
X93365069Y-119369434D01*
X93320602Y-119320539D01*
X93274277Y-119279451D01*
X93234069Y-119253231D01*
X93154956Y-119223737D01*
X93070561Y-119210929D01*
X92985873Y-119214943D01*
X92905880Y-119235913D01*
X92887110Y-119243862D01*
X92840813Y-119271385D01*
X92791478Y-119310800D01*
X92745001Y-119356512D01*
X92707276Y-119402925D01*
X92690332Y-119430640D01*
X92673857Y-119469398D01*
X92659649Y-119513545D01*
X92655583Y-119530200D01*
X92653615Y-119546999D01*
X92651849Y-119578243D01*
X92650280Y-119624479D01*
X92648902Y-119686257D01*
X92647711Y-119764126D01*
X92646702Y-119858635D01*
X92645869Y-119970335D01*
X92645207Y-120099773D01*
X92644711Y-120247498D01*
X92644376Y-120414062D01*
X92644196Y-120600011D01*
X92644159Y-120741780D01*
X92644160Y-121899520D01*
X92136160Y-121899520D01*
X92136336Y-120693020D01*
X92136354Y-120506815D01*
X92136384Y-120339761D01*
X92136474Y-120190691D01*
X92136674Y-120058436D01*
X92137033Y-119941828D01*
X92137599Y-119839698D01*
X92138422Y-119750878D01*
X92139551Y-119674200D01*
X92141034Y-119608495D01*
X92142921Y-119552595D01*
X92145261Y-119505332D01*
X92148103Y-119465537D01*
X92151495Y-119432043D01*
X92155487Y-119403680D01*
X92160128Y-119379281D01*
X92165467Y-119357677D01*
X92171553Y-119337699D01*
X92178434Y-119318180D01*
X92186161Y-119297952D01*
X92194781Y-119275845D01*
X92195916Y-119272911D01*
X92250352Y-119153342D01*
X92315967Y-119049388D01*
X92394580Y-118959069D01*
X92488012Y-118880400D01*
X92598083Y-118811399D01*
X92639080Y-118790058D01*
X92717180Y-118753730D01*
X92787263Y-118727617D01*
X92855700Y-118710255D01*
X92928862Y-118700181D01*
X93013120Y-118695930D01*
X93050560Y-118695535D01*
X93128660Y-118696618D01*
G36*
X105270173Y-118741223D02*
G01*
X105489827Y-118741331D01*
X105691895Y-118741511D01*
X105876769Y-118741763D01*
X106044838Y-118742088D01*
X106196493Y-118742487D01*
X106332126Y-118742962D01*
X106452126Y-118743512D01*
X106556884Y-118744140D01*
X106646791Y-118744845D01*
X106722238Y-118745630D01*
X106783615Y-118746494D01*
X106831313Y-118747439D01*
X106865722Y-118748466D01*
X106887233Y-118749576D01*
X106893560Y-118750202D01*
X107018605Y-118776808D01*
X107145632Y-118821166D01*
X107271161Y-118881454D01*
X107391712Y-118955852D01*
X107503806Y-119042539D01*
X107570125Y-119104251D01*
X107678390Y-119226083D01*
X107767729Y-119355308D01*
X107838158Y-119491965D01*
X107889693Y-119636092D01*
X107922350Y-119787729D01*
X107936145Y-119946913D01*
X107936651Y-119983076D01*
X107933058Y-120106192D01*
X107921051Y-120215857D01*
X107899286Y-120317668D01*
X107866422Y-120417222D01*
X107821116Y-120520117D01*
X107796043Y-120569512D01*
X107731365Y-120676888D01*
X107652568Y-120781934D01*
X107563831Y-120879950D01*
X107469338Y-120966237D01*
X107391369Y-121024357D01*
X107356129Y-121047973D01*
X107327817Y-121067131D01*
X107310304Y-121079201D01*
X107306613Y-121081923D01*
X107309702Y-121091707D01*
X107320036Y-121118327D01*
X107336848Y-121159948D01*
X107359369Y-121214732D01*
X107386830Y-121280845D01*
X107418463Y-121356449D01*
X107453499Y-121439709D01*
X107491171Y-121528788D01*
X107530710Y-121621849D01*
X107571348Y-121717057D01*
X107612315Y-121812576D01*
X107613729Y-121815862D01*
X107649848Y-121899845D01*
X107375248Y-121897142D01*
X107100649Y-121894440D01*
X106960860Y-121569320D01*
X106821072Y-121244200D01*
X106387416Y-121241550D01*
X105953760Y-121238901D01*
X105953760Y-121899520D01*
X105435600Y-121899520D01*
X105435600Y-120720960D01*
X105953760Y-120720960D01*
X106372860Y-120720809D01*
X106482159Y-120720639D01*
X106573148Y-120720172D01*
X106647833Y-120719341D01*
X106708225Y-120718084D01*
X106756329Y-120716334D01*
X106794154Y-120714027D01*
X106823709Y-120711099D01*
X106847001Y-120707483D01*
X106858000Y-120705148D01*
X106898619Y-120693138D01*
X106948144Y-120674946D01*
X106997554Y-120653957D01*
X107010400Y-120647915D01*
X107049671Y-120627703D01*
X107083483Y-120606765D01*
X107116577Y-120581479D01*
X107153694Y-120548224D01*
X107199396Y-120503556D01*
X107244195Y-120457715D01*
X107277417Y-120420620D01*
X107302682Y-120387532D01*
X107323612Y-120353709D01*
X107343755Y-120314560D01*
X107378463Y-120233653D01*
X107400975Y-120157030D01*
X107413062Y-120076781D01*
X107416499Y-119989440D01*
X107412750Y-119898434D01*
X107400348Y-119818841D01*
X107377558Y-119742968D01*
X107343236Y-119664320D01*
X107322228Y-119624271D01*
X107300199Y-119589435D01*
X107273453Y-119554983D01*
X107238290Y-119516085D01*
X107198799Y-119475695D01*
X107132537Y-119413318D01*
X107071006Y-119365141D01*
X107008747Y-119327786D01*
X106940299Y-119297872D01*
X106878154Y-119277248D01*
X106858543Y-119271648D01*
X106839298Y-119267018D01*
X106818252Y-119263242D01*
X106793244Y-119260203D01*
X106762108Y-119257784D01*
X106722681Y-119255869D01*
X106672799Y-119254342D01*
X106610299Y-119253084D01*
X106533016Y-119251981D01*
X106438787Y-119250915D01*
X106377940Y-119250293D01*
X105953760Y-119246036D01*
X105953760Y-120720960D01*
X105435600Y-120720960D01*
X105435600Y-119257920D01*
X104446844Y-119257920D01*
X104278325Y-119257917D01*
X104128879Y-119257949D01*
X103997258Y-119258077D01*
X103882215Y-119258362D01*
X103782502Y-119258865D01*
X103696872Y-119259647D01*
X103624077Y-119260768D01*
X103562870Y-119262290D01*
X103512004Y-119264274D01*
X103470230Y-119266781D01*
X103436303Y-119269871D01*
X103408973Y-119273606D01*
X103386994Y-119278046D01*
X103369118Y-119283253D01*
X103354098Y-119289287D01*
X103340687Y-119296210D01*
X103327636Y-119304082D01*
X103313699Y-119312964D01*
X103313141Y-119313319D01*
X103275046Y-119342614D01*
X103233945Y-119382339D01*
X103195074Y-119426640D01*
X103163666Y-119469664D01*
X103147978Y-119497979D01*
X103124721Y-119573049D01*
X103116453Y-119654859D01*
X103123031Y-119737179D01*
X103144315Y-119813779D01*
X103155716Y-119839085D01*
X103193161Y-119896422D01*
X103244274Y-119951783D01*
X103302819Y-119999111D01*
X103347720Y-120025624D01*
X103408680Y-120055480D01*
X104178300Y-120058266D01*
X104947920Y-120061053D01*
X104947920Y-120578720D01*
X104213860Y-120578878D01*
X104067203Y-120578935D01*
X103939393Y-120579095D01*
X103828957Y-120579449D01*
X103734422Y-120580083D01*
X103654313Y-120581087D01*
X103587159Y-120582549D01*
X103531485Y-120584557D01*
X103485820Y-120587200D01*
X103448688Y-120590567D01*
X103418618Y-120594745D01*
X103394136Y-120599823D01*
X103373769Y-120605891D01*
X103356043Y-120613035D01*
X103339487Y-120621345D01*
X103322625Y-120630909D01*
X103319807Y-120632558D01*
X103271948Y-120667351D01*
X103224193Y-120713633D01*
X103181729Y-120765448D01*
X103149744Y-120816838D01*
X103139757Y-120839284D01*
X103124910Y-120897051D01*
X103117867Y-120964881D01*
X103118996Y-121033929D01*
X103128663Y-121095347D01*
X103129088Y-121096978D01*
X103153888Y-121158302D01*
X103193972Y-121220034D01*
X103245044Y-121277161D01*
X103302803Y-121324668D01*
X103346165Y-121350127D01*
X103379096Y-121362309D01*
X103422622Y-121373546D01*
X103465349Y-121381105D01*
X103488417Y-121382785D01*
X103529967Y-121384380D01*
X103588161Y-121385865D01*
X103661160Y-121387217D01*
X103747127Y-121388412D01*
X103844224Y-121389426D01*
X103950612Y-121390235D01*
X104064453Y-121390816D01*
X104183910Y-121391144D01*
X104244340Y-121391206D01*
X104947920Y-121391520D01*
X104947920Y-121909680D01*
X104218940Y-121908329D01*
X104096519Y-121907981D01*
X103978163Y-121907410D01*
X103865738Y-121906640D01*
X103761109Y-121905694D01*
X103666141Y-121904595D01*
X103582701Y-121903369D01*
X103512653Y-121902037D01*
X103457864Y-121900623D01*
X103420199Y-121899151D01*
X103404826Y-121898078D01*
X103288085Y-121876690D01*
X103171371Y-121838090D01*
X103059121Y-121784466D01*
X102955767Y-121718007D01*
X102865747Y-121640900D01*
X102849396Y-121624035D01*
X102764502Y-121518992D01*
X102695955Y-121403461D01*
X102644541Y-121279788D01*
X102611049Y-121150319D01*
X102596264Y-121017401D01*
X102600975Y-120883380D01*
X102600976Y-120883368D01*
X102621404Y-120761563D01*
X102655543Y-120650592D01*
X102705076Y-120546775D01*
X102771688Y-120446434D01*
X102837010Y-120367740D01*
X102875992Y-120324400D01*
X102809604Y-120245820D01*
X102755303Y-120172636D01*
X102704407Y-120087520D01*
X102660716Y-119997751D01*
X102628033Y-119910610D01*
X102620073Y-119882760D01*
X102602191Y-119782389D01*
X102596731Y-119672038D01*
X102603277Y-119557480D01*
X102621415Y-119444486D01*
X102650730Y-119338829D01*
X102661215Y-119310506D01*
X102672690Y-119280626D01*
X102680327Y-119259271D01*
X102682240Y-119252463D01*
X102672343Y-119251441D01*
X102643704Y-119250548D01*
X102597903Y-119249779D01*
X102536515Y-119249132D01*
X102461120Y-119248603D01*
X102373296Y-119248188D01*
X102274621Y-119247884D01*
X102166672Y-119247686D01*
X102051028Y-119247592D01*
X101929266Y-119247598D01*
X101802965Y-119247700D01*
X101673703Y-119247894D01*
X101543058Y-119248178D01*
X101412607Y-119248546D01*
X101283930Y-119248996D01*
X101158603Y-119249525D01*
X101038205Y-119250127D01*
X100924314Y-119250801D01*
X100818508Y-119251542D01*
X100722365Y-119252346D01*
X100637463Y-119253210D01*
X100565380Y-119254131D01*
X100507695Y-119255105D01*
X100465984Y-119256127D01*
X100441826Y-119257196D01*
X100437644Y-119257603D01*
X100351847Y-119279461D01*
X100274980Y-119317561D01*
X100208747Y-119369588D01*
X100154847Y-119433225D01*
X100114983Y-119506156D01*
X100090855Y-119586066D01*
X100084165Y-119670637D01*
X100090535Y-119730119D01*
X100100913Y-119772799D01*
X100115194Y-119815685D01*
X100123678Y-119835592D01*
X100151551Y-119879537D01*
X100192183Y-119926700D01*
X100239946Y-119971649D01*
X100289211Y-120008952D01*
X100323616Y-120028576D01*
X100381000Y-120055480D01*
X100843280Y-120061304D01*
X101305560Y-120067129D01*
X101394780Y-120094372D01*
X101513510Y-120138355D01*
X101624486Y-120194701D01*
X101724548Y-120261355D01*
X101810536Y-120336263D01*
X101867982Y-120401953D01*
X101916131Y-120473525D01*
X101962018Y-120556654D01*
X102002109Y-120644000D01*
X102032870Y-120728223D01*
X102043602Y-120766680D01*
X102057927Y-120846592D01*
X102065343Y-120936000D01*
X102065844Y-121027964D01*
X102059424Y-121115548D01*
X102046076Y-121191812D01*
X102043984Y-121199967D01*
X101998168Y-121336146D01*
X101937172Y-121458821D01*
X101861010Y-121567973D01*
X101769697Y-121663587D01*
X101663248Y-121745644D01*
X101541680Y-121814126D01*
X101488529Y-121837836D01*
X101464948Y-121847634D01*
X101443186Y-121856346D01*
X101421969Y-121864032D01*
X101400020Y-121870754D01*
X101376066Y-121876570D01*
X101348831Y-121881543D01*
X101317040Y-121885732D01*
X101279418Y-121889198D01*
X101234690Y-121892001D01*
X101181582Y-121894202D01*
X101118818Y-121895860D01*
X101045123Y-121897038D01*
X100959222Y-121897795D01*
X100859841Y-121898191D01*
X100745704Y-121898287D01*
X100615536Y-121898144D01*
X100468063Y-121897822D01*
X100302008Y-121897381D01*
X100236665Y-121897203D01*
X99218571Y-121894440D01*
X99309839Y-121787760D01*
X99396260Y-121680888D01*
X99470576Y-121576855D01*
X99530427Y-121479022D01*
X99543326Y-121455020D01*
X99576384Y-121391520D01*
X100354612Y-121391315D01*
X100480359Y-121391160D01*
X100601509Y-121390775D01*
X100716329Y-121390180D01*
X100823086Y-121389394D01*
X100920047Y-121388438D01*
X101005480Y-121387330D01*
X101077652Y-121386092D01*
X101134829Y-121384743D01*
X101175280Y-121383302D01*
X101197272Y-121381790D01*
X101198115Y-121381676D01*
X101278295Y-121360940D01*
X101354081Y-121324081D01*
X101421793Y-121273936D01*
X101477750Y-121213341D01*
X101518269Y-121145134D01*
X101524418Y-121130251D01*
X101542013Y-121061926D01*
X101547867Y-120985261D01*
X101541986Y-120908496D01*
X101524377Y-120839870D01*
X101524187Y-120839373D01*
X101494373Y-120782482D01*
X101450261Y-120725065D01*
X101396993Y-120672508D01*
X101339712Y-120630198D01*
X101308235Y-120613188D01*
X101244600Y-120583800D01*
X100787400Y-120577960D01*
X100673963Y-120576483D01*
X100578645Y-120575033D01*
X100499246Y-120573359D01*
X100433565Y-120571210D01*
X100379402Y-120568335D01*
X100334559Y-120564484D01*
X100296835Y-120559405D01*
X100264030Y-120552848D01*
X100233944Y-120544562D01*
X100204378Y-120534297D01*
X100173132Y-120521800D01*
X100138006Y-120506822D01*
X100128843Y-120502869D01*
X100030338Y-120455299D01*
X99947331Y-120403705D01*
X99884002Y-120353272D01*
X99830477Y-120305624D01*
X99824077Y-120180552D01*
X99807878Y-120009991D01*
X99777301Y-119834930D01*
X99733888Y-119662302D01*
X99679179Y-119499038D01*
X99663890Y-119460428D01*
X99647208Y-119418320D01*
X99633964Y-119382275D01*
X99625833Y-119357009D01*
X99624080Y-119348381D01*
X99629201Y-119327760D01*
X99643109Y-119294262D01*
X99663621Y-119252116D01*
X99688551Y-119205551D01*
X99715717Y-119158795D01*
X99742933Y-119116075D01*
X99747613Y-119109222D01*
X99817420Y-119021825D01*
X99898887Y-118945879D01*
X99994718Y-118879201D01*
X100104734Y-118820952D01*
X100151451Y-118800341D01*
X100200153Y-118780780D01*
X100241738Y-118765886D01*
X100248920Y-118763628D01*
X100255240Y-118761894D01*
X100262825Y-118760269D01*
X100272340Y-118758751D01*
X100284452Y-118757334D01*
X100299828Y-118756014D01*
X100319134Y-118754787D01*
X100343038Y-118753649D01*
X100372207Y-118752595D01*
X100407306Y-118751620D01*
X100449003Y-118750722D01*
X100497965Y-118749894D01*
X100554858Y-118749133D01*
X100620350Y-118748434D01*
X100695106Y-118747793D01*
X100779794Y-118747206D01*
X100875080Y-118746669D01*
X100981632Y-118746176D01*
X101100116Y-118745724D01*
X101231198Y-118745309D01*
X101375546Y-118744925D01*
X101533827Y-118744569D01*
X101706706Y-118744236D01*
X101894851Y-118743922D01*
X102098929Y-118743622D01*
X102319607Y-118743333D01*
X102557551Y-118743050D01*
X102813427Y-118742768D01*
X103087904Y-118742483D01*
X103381647Y-118742191D01*
X103561080Y-118742017D01*
X103894450Y-118741717D01*
X104207890Y-118741483D01*
X104501792Y-118741316D01*
X104776546Y-118741216D01*
X105032543Y-118741185D01*
X105270173Y-118741223D01*
G37*
X105270173Y-118741223D02*
X105489827Y-118741331D01*
X105691895Y-118741511D01*
X105876769Y-118741763D01*
X106044838Y-118742088D01*
X106196493Y-118742487D01*
X106332126Y-118742962D01*
X106452126Y-118743512D01*
X106556884Y-118744140D01*
X106646791Y-118744845D01*
X106722238Y-118745630D01*
X106783615Y-118746494D01*
X106831313Y-118747439D01*
X106865722Y-118748466D01*
X106887233Y-118749576D01*
X106893560Y-118750202D01*
X107018605Y-118776808D01*
X107145632Y-118821166D01*
X107271161Y-118881454D01*
X107391712Y-118955852D01*
X107503806Y-119042539D01*
X107570125Y-119104251D01*
X107678390Y-119226083D01*
X107767729Y-119355308D01*
X107838158Y-119491965D01*
X107889693Y-119636092D01*
X107922350Y-119787729D01*
X107936145Y-119946913D01*
X107936651Y-119983076D01*
X107933058Y-120106192D01*
X107921051Y-120215857D01*
X107899286Y-120317668D01*
X107866422Y-120417222D01*
X107821116Y-120520117D01*
X107796043Y-120569512D01*
X107731365Y-120676888D01*
X107652568Y-120781934D01*
X107563831Y-120879950D01*
X107469338Y-120966237D01*
X107391369Y-121024357D01*
X107356129Y-121047973D01*
X107327817Y-121067131D01*
X107310304Y-121079201D01*
X107306613Y-121081923D01*
X107309702Y-121091707D01*
X107320036Y-121118327D01*
X107336848Y-121159948D01*
X107359369Y-121214732D01*
X107386830Y-121280845D01*
X107418463Y-121356449D01*
X107453499Y-121439709D01*
X107491171Y-121528788D01*
X107530710Y-121621849D01*
X107571348Y-121717057D01*
X107612315Y-121812576D01*
X107613729Y-121815862D01*
X107649848Y-121899845D01*
X107375248Y-121897142D01*
X107100649Y-121894440D01*
X106960860Y-121569320D01*
X106821072Y-121244200D01*
X106387416Y-121241550D01*
X105953760Y-121238901D01*
X105953760Y-121899520D01*
X105435600Y-121899520D01*
X105435600Y-120720960D01*
X105953760Y-120720960D01*
X106372860Y-120720809D01*
X106482159Y-120720639D01*
X106573148Y-120720172D01*
X106647833Y-120719341D01*
X106708225Y-120718084D01*
X106756329Y-120716334D01*
X106794154Y-120714027D01*
X106823709Y-120711099D01*
X106847001Y-120707483D01*
X106858000Y-120705148D01*
X106898619Y-120693138D01*
X106948144Y-120674946D01*
X106997554Y-120653957D01*
X107010400Y-120647915D01*
X107049671Y-120627703D01*
X107083483Y-120606765D01*
X107116577Y-120581479D01*
X107153694Y-120548224D01*
X107199396Y-120503556D01*
X107244195Y-120457715D01*
X107277417Y-120420620D01*
X107302682Y-120387532D01*
X107323612Y-120353709D01*
X107343755Y-120314560D01*
X107378463Y-120233653D01*
X107400975Y-120157030D01*
X107413062Y-120076781D01*
X107416499Y-119989440D01*
X107412750Y-119898434D01*
X107400348Y-119818841D01*
X107377558Y-119742968D01*
X107343236Y-119664320D01*
X107322228Y-119624271D01*
X107300199Y-119589435D01*
X107273453Y-119554983D01*
X107238290Y-119516085D01*
X107198799Y-119475695D01*
X107132537Y-119413318D01*
X107071006Y-119365141D01*
X107008747Y-119327786D01*
X106940299Y-119297872D01*
X106878154Y-119277248D01*
X106858543Y-119271648D01*
X106839298Y-119267018D01*
X106818252Y-119263242D01*
X106793244Y-119260203D01*
X106762108Y-119257784D01*
X106722681Y-119255869D01*
X106672799Y-119254342D01*
X106610299Y-119253084D01*
X106533016Y-119251981D01*
X106438787Y-119250915D01*
X106377940Y-119250293D01*
X105953760Y-119246036D01*
X105953760Y-120720960D01*
X105435600Y-120720960D01*
X105435600Y-119257920D01*
X104446844Y-119257920D01*
X104278325Y-119257917D01*
X104128879Y-119257949D01*
X103997258Y-119258077D01*
X103882215Y-119258362D01*
X103782502Y-119258865D01*
X103696872Y-119259647D01*
X103624077Y-119260768D01*
X103562870Y-119262290D01*
X103512004Y-119264274D01*
X103470230Y-119266781D01*
X103436303Y-119269871D01*
X103408973Y-119273606D01*
X103386994Y-119278046D01*
X103369118Y-119283253D01*
X103354098Y-119289287D01*
X103340687Y-119296210D01*
X103327636Y-119304082D01*
X103313699Y-119312964D01*
X103313141Y-119313319D01*
X103275046Y-119342614D01*
X103233945Y-119382339D01*
X103195074Y-119426640D01*
X103163666Y-119469664D01*
X103147978Y-119497979D01*
X103124721Y-119573049D01*
X103116453Y-119654859D01*
X103123031Y-119737179D01*
X103144315Y-119813779D01*
X103155716Y-119839085D01*
X103193161Y-119896422D01*
X103244274Y-119951783D01*
X103302819Y-119999111D01*
X103347720Y-120025624D01*
X103408680Y-120055480D01*
X104178300Y-120058266D01*
X104947920Y-120061053D01*
X104947920Y-120578720D01*
X104213860Y-120578878D01*
X104067203Y-120578935D01*
X103939393Y-120579095D01*
X103828957Y-120579449D01*
X103734422Y-120580083D01*
X103654313Y-120581087D01*
X103587159Y-120582549D01*
X103531485Y-120584557D01*
X103485820Y-120587200D01*
X103448688Y-120590567D01*
X103418618Y-120594745D01*
X103394136Y-120599823D01*
X103373769Y-120605891D01*
X103356043Y-120613035D01*
X103339487Y-120621345D01*
X103322625Y-120630909D01*
X103319807Y-120632558D01*
X103271948Y-120667351D01*
X103224193Y-120713633D01*
X103181729Y-120765448D01*
X103149744Y-120816838D01*
X103139757Y-120839284D01*
X103124910Y-120897051D01*
X103117867Y-120964881D01*
X103118996Y-121033929D01*
X103128663Y-121095347D01*
X103129088Y-121096978D01*
X103153888Y-121158302D01*
X103193972Y-121220034D01*
X103245044Y-121277161D01*
X103302803Y-121324668D01*
X103346165Y-121350127D01*
X103379096Y-121362309D01*
X103422622Y-121373546D01*
X103465349Y-121381105D01*
X103488417Y-121382785D01*
X103529967Y-121384380D01*
X103588161Y-121385865D01*
X103661160Y-121387217D01*
X103747127Y-121388412D01*
X103844224Y-121389426D01*
X103950612Y-121390235D01*
X104064453Y-121390816D01*
X104183910Y-121391144D01*
X104244340Y-121391206D01*
X104947920Y-121391520D01*
X104947920Y-121909680D01*
X104218940Y-121908329D01*
X104096519Y-121907981D01*
X103978163Y-121907410D01*
X103865738Y-121906640D01*
X103761109Y-121905694D01*
X103666141Y-121904595D01*
X103582701Y-121903369D01*
X103512653Y-121902037D01*
X103457864Y-121900623D01*
X103420199Y-121899151D01*
X103404826Y-121898078D01*
X103288085Y-121876690D01*
X103171371Y-121838090D01*
X103059121Y-121784466D01*
X102955767Y-121718007D01*
X102865747Y-121640900D01*
X102849396Y-121624035D01*
X102764502Y-121518992D01*
X102695955Y-121403461D01*
X102644541Y-121279788D01*
X102611049Y-121150319D01*
X102596264Y-121017401D01*
X102600975Y-120883380D01*
X102600976Y-120883368D01*
X102621404Y-120761563D01*
X102655543Y-120650592D01*
X102705076Y-120546775D01*
X102771688Y-120446434D01*
X102837010Y-120367740D01*
X102875992Y-120324400D01*
X102809604Y-120245820D01*
X102755303Y-120172636D01*
X102704407Y-120087520D01*
X102660716Y-119997751D01*
X102628033Y-119910610D01*
X102620073Y-119882760D01*
X102602191Y-119782389D01*
X102596731Y-119672038D01*
X102603277Y-119557480D01*
X102621415Y-119444486D01*
X102650730Y-119338829D01*
X102661215Y-119310506D01*
X102672690Y-119280626D01*
X102680327Y-119259271D01*
X102682240Y-119252463D01*
X102672343Y-119251441D01*
X102643704Y-119250548D01*
X102597903Y-119249779D01*
X102536515Y-119249132D01*
X102461120Y-119248603D01*
X102373296Y-119248188D01*
X102274621Y-119247884D01*
X102166672Y-119247686D01*
X102051028Y-119247592D01*
X101929266Y-119247598D01*
X101802965Y-119247700D01*
X101673703Y-119247894D01*
X101543058Y-119248178D01*
X101412607Y-119248546D01*
X101283930Y-119248996D01*
X101158603Y-119249525D01*
X101038205Y-119250127D01*
X100924314Y-119250801D01*
X100818508Y-119251542D01*
X100722365Y-119252346D01*
X100637463Y-119253210D01*
X100565380Y-119254131D01*
X100507695Y-119255105D01*
X100465984Y-119256127D01*
X100441826Y-119257196D01*
X100437644Y-119257603D01*
X100351847Y-119279461D01*
X100274980Y-119317561D01*
X100208747Y-119369588D01*
X100154847Y-119433225D01*
X100114983Y-119506156D01*
X100090855Y-119586066D01*
X100084165Y-119670637D01*
X100090535Y-119730119D01*
X100100913Y-119772799D01*
X100115194Y-119815685D01*
X100123678Y-119835592D01*
X100151551Y-119879537D01*
X100192183Y-119926700D01*
X100239946Y-119971649D01*
X100289211Y-120008952D01*
X100323616Y-120028576D01*
X100381000Y-120055480D01*
X100843280Y-120061304D01*
X101305560Y-120067129D01*
X101394780Y-120094372D01*
X101513510Y-120138355D01*
X101624486Y-120194701D01*
X101724548Y-120261355D01*
X101810536Y-120336263D01*
X101867982Y-120401953D01*
X101916131Y-120473525D01*
X101962018Y-120556654D01*
X102002109Y-120644000D01*
X102032870Y-120728223D01*
X102043602Y-120766680D01*
X102057927Y-120846592D01*
X102065343Y-120936000D01*
X102065844Y-121027964D01*
X102059424Y-121115548D01*
X102046076Y-121191812D01*
X102043984Y-121199967D01*
X101998168Y-121336146D01*
X101937172Y-121458821D01*
X101861010Y-121567973D01*
X101769697Y-121663587D01*
X101663248Y-121745644D01*
X101541680Y-121814126D01*
X101488529Y-121837836D01*
X101464948Y-121847634D01*
X101443186Y-121856346D01*
X101421969Y-121864032D01*
X101400020Y-121870754D01*
X101376066Y-121876570D01*
X101348831Y-121881543D01*
X101317040Y-121885732D01*
X101279418Y-121889198D01*
X101234690Y-121892001D01*
X101181582Y-121894202D01*
X101118818Y-121895860D01*
X101045123Y-121897038D01*
X100959222Y-121897795D01*
X100859841Y-121898191D01*
X100745704Y-121898287D01*
X100615536Y-121898144D01*
X100468063Y-121897822D01*
X100302008Y-121897381D01*
X100236665Y-121897203D01*
X99218571Y-121894440D01*
X99309839Y-121787760D01*
X99396260Y-121680888D01*
X99470576Y-121576855D01*
X99530427Y-121479022D01*
X99543326Y-121455020D01*
X99576384Y-121391520D01*
X100354612Y-121391315D01*
X100480359Y-121391160D01*
X100601509Y-121390775D01*
X100716329Y-121390180D01*
X100823086Y-121389394D01*
X100920047Y-121388438D01*
X101005480Y-121387330D01*
X101077652Y-121386092D01*
X101134829Y-121384743D01*
X101175280Y-121383302D01*
X101197272Y-121381790D01*
X101198115Y-121381676D01*
X101278295Y-121360940D01*
X101354081Y-121324081D01*
X101421793Y-121273936D01*
X101477750Y-121213341D01*
X101518269Y-121145134D01*
X101524418Y-121130251D01*
X101542013Y-121061926D01*
X101547867Y-120985261D01*
X101541986Y-120908496D01*
X101524377Y-120839870D01*
X101524187Y-120839373D01*
X101494373Y-120782482D01*
X101450261Y-120725065D01*
X101396993Y-120672508D01*
X101339712Y-120630198D01*
X101308235Y-120613188D01*
X101244600Y-120583800D01*
X100787400Y-120577960D01*
X100673963Y-120576483D01*
X100578645Y-120575033D01*
X100499246Y-120573359D01*
X100433565Y-120571210D01*
X100379402Y-120568335D01*
X100334559Y-120564484D01*
X100296835Y-120559405D01*
X100264030Y-120552848D01*
X100233944Y-120544562D01*
X100204378Y-120534297D01*
X100173132Y-120521800D01*
X100138006Y-120506822D01*
X100128843Y-120502869D01*
X100030338Y-120455299D01*
X99947331Y-120403705D01*
X99884002Y-120353272D01*
X99830477Y-120305624D01*
X99824077Y-120180552D01*
X99807878Y-120009991D01*
X99777301Y-119834930D01*
X99733888Y-119662302D01*
X99679179Y-119499038D01*
X99663890Y-119460428D01*
X99647208Y-119418320D01*
X99633964Y-119382275D01*
X99625833Y-119357009D01*
X99624080Y-119348381D01*
X99629201Y-119327760D01*
X99643109Y-119294262D01*
X99663621Y-119252116D01*
X99688551Y-119205551D01*
X99715717Y-119158795D01*
X99742933Y-119116075D01*
X99747613Y-119109222D01*
X99817420Y-119021825D01*
X99898887Y-118945879D01*
X99994718Y-118879201D01*
X100104734Y-118820952D01*
X100151451Y-118800341D01*
X100200153Y-118780780D01*
X100241738Y-118765886D01*
X100248920Y-118763628D01*
X100255240Y-118761894D01*
X100262825Y-118760269D01*
X100272340Y-118758751D01*
X100284452Y-118757334D01*
X100299828Y-118756014D01*
X100319134Y-118754787D01*
X100343038Y-118753649D01*
X100372207Y-118752595D01*
X100407306Y-118751620D01*
X100449003Y-118750722D01*
X100497965Y-118749894D01*
X100554858Y-118749133D01*
X100620350Y-118748434D01*
X100695106Y-118747793D01*
X100779794Y-118747206D01*
X100875080Y-118746669D01*
X100981632Y-118746176D01*
X101100116Y-118745724D01*
X101231198Y-118745309D01*
X101375546Y-118744925D01*
X101533827Y-118744569D01*
X101706706Y-118744236D01*
X101894851Y-118743922D01*
X102098929Y-118743622D01*
X102319607Y-118743333D01*
X102557551Y-118743050D01*
X102813427Y-118742768D01*
X103087904Y-118742483D01*
X103381647Y-118742191D01*
X103561080Y-118742017D01*
X103894450Y-118741717D01*
X104207890Y-118741483D01*
X104501792Y-118741316D01*
X104776546Y-118741216D01*
X105032543Y-118741185D01*
X105270173Y-118741223D01*
G36*
X97669675Y-118265878D02*
G01*
X97863079Y-118289415D01*
X98052495Y-118330866D01*
X98236686Y-118389633D01*
X98414414Y-118465123D01*
X98584442Y-118556738D01*
X98745533Y-118663882D01*
X98896450Y-118785960D01*
X99035955Y-118922377D01*
X99162811Y-119072534D01*
X99275782Y-119235838D01*
X99373629Y-119411691D01*
X99375456Y-119415400D01*
X99457655Y-119604985D01*
X99520364Y-119799034D01*
X99563473Y-119996467D01*
X99586874Y-120196202D01*
X99590457Y-120397156D01*
X99574114Y-120598250D01*
X99537734Y-120798401D01*
X99521585Y-120863041D01*
X99459698Y-121056822D01*
X99380436Y-121241331D01*
X99284832Y-121415678D01*
X99173920Y-121578970D01*
X99048732Y-121730319D01*
X98910302Y-121868834D01*
X98759663Y-121993623D01*
X98597847Y-122103797D01*
X98425889Y-122198464D01*
X98244820Y-122276736D01*
X98055675Y-122337720D01*
X97859485Y-122380527D01*
X97742340Y-122396733D01*
X97676204Y-122401921D01*
X97596861Y-122404966D01*
X97511098Y-122405873D01*
X97425696Y-122404650D01*
X97347442Y-122401302D01*
X97287280Y-122396316D01*
X97090113Y-122364018D01*
X96897158Y-122312295D01*
X96709867Y-122241852D01*
X96529691Y-122153397D01*
X96358083Y-122047635D01*
X96196497Y-121925274D01*
X96057526Y-121798238D01*
X95917430Y-121644421D01*
X95794705Y-121480587D01*
X95689722Y-121307481D01*
X95602853Y-121125844D01*
X95534468Y-120936421D01*
X95484941Y-120739954D01*
X95463086Y-120609200D01*
X95455417Y-120532307D01*
X95450717Y-120441831D01*
X95448974Y-120344123D01*
X95449843Y-120272916D01*
X96246229Y-120272916D01*
X96249303Y-120431376D01*
X96271973Y-120591936D01*
X96287167Y-120658709D01*
X96311217Y-120735508D01*
X96345732Y-120821084D01*
X96387629Y-120909071D01*
X96433822Y-120993103D01*
X96481229Y-121066814D01*
X96492287Y-121082050D01*
X96543470Y-121144802D01*
X96604998Y-121210954D01*
X96671692Y-121275521D01*
X96738376Y-121333520D01*
X96799869Y-121379967D01*
X96806383Y-121384349D01*
X96926795Y-121454646D01*
X97057439Y-121513829D01*
X97192424Y-121559637D01*
X97325858Y-121589813D01*
X97353320Y-121593979D01*
X97412508Y-121599031D01*
X97485122Y-121600515D01*
X97564637Y-121598715D01*
X97644525Y-121593915D01*
X97718263Y-121586398D01*
X97779323Y-121576450D01*
X97785120Y-121575189D01*
X97939151Y-121530584D01*
X98084229Y-121468639D01*
X98219180Y-121390590D01*
X98342831Y-121297669D01*
X98454009Y-121191110D01*
X98551541Y-121072148D01*
X98634254Y-120942017D01*
X98700975Y-120801949D01*
X98750530Y-120653180D01*
X98776402Y-120532564D01*
X98785464Y-120452473D01*
X98789033Y-120361263D01*
X98787330Y-120265752D01*
X98780574Y-120172759D01*
X98768986Y-120089102D01*
X98760843Y-120050400D01*
X98712596Y-119893667D01*
X98647461Y-119747237D01*
X98566476Y-119612097D01*
X98470675Y-119489238D01*
X98361095Y-119379648D01*
X98238773Y-119284317D01*
X98104746Y-119204234D01*
X97960049Y-119140389D01*
X97805719Y-119093770D01*
X97745146Y-119080850D01*
X97682784Y-119072357D01*
X97606856Y-119067152D01*
X97523853Y-119065253D01*
X97440262Y-119066675D01*
X97362574Y-119071435D01*
X97297278Y-119079547D01*
X97296133Y-119079746D01*
X97143326Y-119116590D01*
X96997103Y-119172516D01*
X96858157Y-119247159D01*
X96727182Y-119340155D01*
X96620403Y-119435561D01*
X96512986Y-119555431D01*
X96423142Y-119684826D01*
X96351207Y-119822510D01*
X96297518Y-119967245D01*
X96262414Y-120117793D01*
X96246229Y-120272916D01*
X95449843Y-120272916D01*
X95450178Y-120245536D01*
X95454315Y-120152419D01*
X95461375Y-120071126D01*
X95464108Y-120049663D01*
X95501844Y-119850737D01*
X95558059Y-119658847D01*
X95631827Y-119474990D01*
X95722225Y-119300163D01*
X95828330Y-119135363D01*
X95949216Y-118981585D01*
X96083962Y-118839827D01*
X96231641Y-118711086D01*
X96391332Y-118596357D01*
X96562109Y-118496638D01*
X96743048Y-118412926D01*
X96933227Y-118346217D01*
X97077904Y-118308708D01*
X97275850Y-118274929D01*
X97473519Y-118260851D01*
X97669675Y-118265878D01*
G37*
X97669675Y-118265878D02*
X97863079Y-118289415D01*
X98052495Y-118330866D01*
X98236686Y-118389633D01*
X98414414Y-118465123D01*
X98584442Y-118556738D01*
X98745533Y-118663882D01*
X98896450Y-118785960D01*
X99035955Y-118922377D01*
X99162811Y-119072534D01*
X99275782Y-119235838D01*
X99373629Y-119411691D01*
X99375456Y-119415400D01*
X99457655Y-119604985D01*
X99520364Y-119799034D01*
X99563473Y-119996467D01*
X99586874Y-120196202D01*
X99590457Y-120397156D01*
X99574114Y-120598250D01*
X99537734Y-120798401D01*
X99521585Y-120863041D01*
X99459698Y-121056822D01*
X99380436Y-121241331D01*
X99284832Y-121415678D01*
X99173920Y-121578970D01*
X99048732Y-121730319D01*
X98910302Y-121868834D01*
X98759663Y-121993623D01*
X98597847Y-122103797D01*
X98425889Y-122198464D01*
X98244820Y-122276736D01*
X98055675Y-122337720D01*
X97859485Y-122380527D01*
X97742340Y-122396733D01*
X97676204Y-122401921D01*
X97596861Y-122404966D01*
X97511098Y-122405873D01*
X97425696Y-122404650D01*
X97347442Y-122401302D01*
X97287280Y-122396316D01*
X97090113Y-122364018D01*
X96897158Y-122312295D01*
X96709867Y-122241852D01*
X96529691Y-122153397D01*
X96358083Y-122047635D01*
X96196497Y-121925274D01*
X96057526Y-121798238D01*
X95917430Y-121644421D01*
X95794705Y-121480587D01*
X95689722Y-121307481D01*
X95602853Y-121125844D01*
X95534468Y-120936421D01*
X95484941Y-120739954D01*
X95463086Y-120609200D01*
X95455417Y-120532307D01*
X95450717Y-120441831D01*
X95448974Y-120344123D01*
X95449843Y-120272916D01*
X96246229Y-120272916D01*
X96249303Y-120431376D01*
X96271973Y-120591936D01*
X96287167Y-120658709D01*
X96311217Y-120735508D01*
X96345732Y-120821084D01*
X96387629Y-120909071D01*
X96433822Y-120993103D01*
X96481229Y-121066814D01*
X96492287Y-121082050D01*
X96543470Y-121144802D01*
X96604998Y-121210954D01*
X96671692Y-121275521D01*
X96738376Y-121333520D01*
X96799869Y-121379967D01*
X96806383Y-121384349D01*
X96926795Y-121454646D01*
X97057439Y-121513829D01*
X97192424Y-121559637D01*
X97325858Y-121589813D01*
X97353320Y-121593979D01*
X97412508Y-121599031D01*
X97485122Y-121600515D01*
X97564637Y-121598715D01*
X97644525Y-121593915D01*
X97718263Y-121586398D01*
X97779323Y-121576450D01*
X97785120Y-121575189D01*
X97939151Y-121530584D01*
X98084229Y-121468639D01*
X98219180Y-121390590D01*
X98342831Y-121297669D01*
X98454009Y-121191110D01*
X98551541Y-121072148D01*
X98634254Y-120942017D01*
X98700975Y-120801949D01*
X98750530Y-120653180D01*
X98776402Y-120532564D01*
X98785464Y-120452473D01*
X98789033Y-120361263D01*
X98787330Y-120265752D01*
X98780574Y-120172759D01*
X98768986Y-120089102D01*
X98760843Y-120050400D01*
X98712596Y-119893667D01*
X98647461Y-119747237D01*
X98566476Y-119612097D01*
X98470675Y-119489238D01*
X98361095Y-119379648D01*
X98238773Y-119284317D01*
X98104746Y-119204234D01*
X97960049Y-119140389D01*
X97805719Y-119093770D01*
X97745146Y-119080850D01*
X97682784Y-119072357D01*
X97606856Y-119067152D01*
X97523853Y-119065253D01*
X97440262Y-119066675D01*
X97362574Y-119071435D01*
X97297278Y-119079547D01*
X97296133Y-119079746D01*
X97143326Y-119116590D01*
X96997103Y-119172516D01*
X96858157Y-119247159D01*
X96727182Y-119340155D01*
X96620403Y-119435561D01*
X96512986Y-119555431D01*
X96423142Y-119684826D01*
X96351207Y-119822510D01*
X96297518Y-119967245D01*
X96262414Y-120117793D01*
X96246229Y-120272916D01*
X95449843Y-120272916D01*
X95450178Y-120245536D01*
X95454315Y-120152419D01*
X95461375Y-120071126D01*
X95464108Y-120049663D01*
X95501844Y-119850737D01*
X95558059Y-119658847D01*
X95631827Y-119474990D01*
X95722225Y-119300163D01*
X95828330Y-119135363D01*
X95949216Y-118981585D01*
X96083962Y-118839827D01*
X96231641Y-118711086D01*
X96391332Y-118596357D01*
X96562109Y-118496638D01*
X96743048Y-118412926D01*
X96933227Y-118346217D01*
X97077904Y-118308708D01*
X97275850Y-118274929D01*
X97473519Y-118260851D01*
X97669675Y-118265878D01*
D11*
%TO.C,A1*%
X94060000Y-126860000D02*
X94060000Y-144900000D01*
X137500000Y-126860000D02*
X94060000Y-126860000D01*
X137500000Y-144900000D02*
X137500000Y-126860000D01*
X134830000Y-142230000D02*
X134830000Y-144900000D01*
X99270000Y-142230000D02*
X134830000Y-142230000D01*
X99270000Y-142230000D02*
X99270000Y-144900000D01*
X134830000Y-129530000D02*
X134830000Y-126860000D01*
X96730000Y-129530000D02*
X134830000Y-129530000D01*
X96730000Y-129530000D02*
X96730000Y-126860000D01*
X94060000Y-144900000D02*
X96730000Y-144900000D01*
X99270000Y-144900000D02*
X137500000Y-144900000D01*
X96730000Y-142230000D02*
X96730000Y-144900000D01*
X99270000Y-142230000D02*
X96730000Y-142230000D01*
%TO.C,C1*%
X84105000Y-127069801D02*
X84505000Y-127069801D01*
X84305000Y-127269801D02*
X84305000Y-126869801D01*
X85130000Y-122919000D02*
X85870000Y-122919000D01*
X84963000Y-122959000D02*
X86037000Y-122959000D01*
X84836000Y-122999000D02*
X86164000Y-122999000D01*
X84732000Y-123039000D02*
X86268000Y-123039000D01*
X84641000Y-123079000D02*
X86359000Y-123079000D01*
X84560000Y-123119000D02*
X86440000Y-123119000D01*
X84487000Y-123159000D02*
X86513000Y-123159000D01*
X86340000Y-123199000D02*
X86580000Y-123199000D01*
X84420000Y-123199000D02*
X84660000Y-123199000D01*
X86340000Y-123239000D02*
X86642000Y-123239000D01*
X84358000Y-123239000D02*
X84660000Y-123239000D01*
X86340000Y-123279000D02*
X86700000Y-123279000D01*
X84300000Y-123279000D02*
X84660000Y-123279000D01*
X86340000Y-123319000D02*
X86754000Y-123319000D01*
X84246000Y-123319000D02*
X84660000Y-123319000D01*
X86340000Y-123359000D02*
X86804000Y-123359000D01*
X84196000Y-123359000D02*
X84660000Y-123359000D01*
X86340000Y-123399000D02*
X86851000Y-123399000D01*
X84149000Y-123399000D02*
X84660000Y-123399000D01*
X86340000Y-123439000D02*
X86896000Y-123439000D01*
X84104000Y-123439000D02*
X84660000Y-123439000D01*
X86340000Y-123479000D02*
X86938000Y-123479000D01*
X84062000Y-123479000D02*
X84660000Y-123479000D01*
X86340000Y-123519000D02*
X86978000Y-123519000D01*
X84022000Y-123519000D02*
X84660000Y-123519000D01*
X86340000Y-123559000D02*
X87016000Y-123559000D01*
X83984000Y-123559000D02*
X84660000Y-123559000D01*
X86340000Y-123599000D02*
X87052000Y-123599000D01*
X83948000Y-123599000D02*
X84660000Y-123599000D01*
X86340000Y-123639000D02*
X87087000Y-123639000D01*
X83913000Y-123639000D02*
X84660000Y-123639000D01*
X86340000Y-123679000D02*
X87119000Y-123679000D01*
X83881000Y-123679000D02*
X84660000Y-123679000D01*
X86340000Y-123719000D02*
X87150000Y-123719000D01*
X83850000Y-123719000D02*
X84660000Y-123719000D01*
X86340000Y-123759000D02*
X87180000Y-123759000D01*
X83820000Y-123759000D02*
X84660000Y-123759000D01*
X86340000Y-123799000D02*
X87208000Y-123799000D01*
X83792000Y-123799000D02*
X84660000Y-123799000D01*
X86340000Y-123839000D02*
X87235000Y-123839000D01*
X83765000Y-123839000D02*
X84660000Y-123839000D01*
X86340000Y-123879000D02*
X87260000Y-123879000D01*
X83740000Y-123879000D02*
X84660000Y-123879000D01*
X86340000Y-123919000D02*
X87285000Y-123919000D01*
X83715000Y-123919000D02*
X84660000Y-123919000D01*
X86340000Y-123959000D02*
X87308000Y-123959000D01*
X83692000Y-123959000D02*
X84660000Y-123959000D01*
X86340000Y-123999000D02*
X87330000Y-123999000D01*
X83670000Y-123999000D02*
X84660000Y-123999000D01*
X86340000Y-124039000D02*
X87351000Y-124039000D01*
X83649000Y-124039000D02*
X84660000Y-124039000D01*
X86340000Y-124079000D02*
X87370000Y-124079000D01*
X83630000Y-124079000D02*
X84660000Y-124079000D01*
X86340000Y-124119000D02*
X87389000Y-124119000D01*
X83611000Y-124119000D02*
X84660000Y-124119000D01*
X86340000Y-124159000D02*
X87407000Y-124159000D01*
X83593000Y-124159000D02*
X84660000Y-124159000D01*
X86340000Y-124199000D02*
X87424000Y-124199000D01*
X83576000Y-124199000D02*
X84660000Y-124199000D01*
X86340000Y-124239000D02*
X87440000Y-124239000D01*
X83560000Y-124239000D02*
X84660000Y-124239000D01*
X86340000Y-124279000D02*
X87454000Y-124279000D01*
X83546000Y-124279000D02*
X84660000Y-124279000D01*
X86340000Y-124320000D02*
X87468000Y-124320000D01*
X83532000Y-124320000D02*
X84660000Y-124320000D01*
X86340000Y-124360000D02*
X87482000Y-124360000D01*
X83518000Y-124360000D02*
X84660000Y-124360000D01*
X86340000Y-124400000D02*
X87494000Y-124400000D01*
X83506000Y-124400000D02*
X84660000Y-124400000D01*
X86340000Y-124440000D02*
X87505000Y-124440000D01*
X83495000Y-124440000D02*
X84660000Y-124440000D01*
X86340000Y-124480000D02*
X87516000Y-124480000D01*
X83484000Y-124480000D02*
X84660000Y-124480000D01*
X86340000Y-124520000D02*
X87525000Y-124520000D01*
X83475000Y-124520000D02*
X84660000Y-124520000D01*
X86340000Y-124560000D02*
X87534000Y-124560000D01*
X83466000Y-124560000D02*
X84660000Y-124560000D01*
X86340000Y-124600000D02*
X87542000Y-124600000D01*
X83458000Y-124600000D02*
X84660000Y-124600000D01*
X86340000Y-124640000D02*
X87550000Y-124640000D01*
X83450000Y-124640000D02*
X84660000Y-124640000D01*
X86340000Y-124680000D02*
X87556000Y-124680000D01*
X83444000Y-124680000D02*
X84660000Y-124680000D01*
X86340000Y-124720000D02*
X87562000Y-124720000D01*
X83438000Y-124720000D02*
X84660000Y-124720000D01*
X86340000Y-124760000D02*
X87567000Y-124760000D01*
X83433000Y-124760000D02*
X84660000Y-124760000D01*
X86340000Y-124800000D02*
X87571000Y-124800000D01*
X83429000Y-124800000D02*
X84660000Y-124800000D01*
X83426000Y-124840000D02*
X87574000Y-124840000D01*
X83423000Y-124880000D02*
X87577000Y-124880000D01*
X83421000Y-124920000D02*
X87579000Y-124920000D01*
X83420000Y-124960000D02*
X87580000Y-124960000D01*
X83420000Y-125000000D02*
X87580000Y-125000000D01*
X87620000Y-125000000D02*
G75*
G03*
X87620000Y-125000000I-2120000J0D01*
G01*
%TO.C,J1*%
X67810000Y-125540000D02*
X67810000Y-115380000D01*
X60190000Y-125540000D02*
X67810000Y-125540000D01*
X60190000Y-115380000D02*
X60190000Y-125540000D01*
X67810000Y-115380000D02*
X60190000Y-115380000D01*
X66540000Y-115380000D02*
X66540000Y-125540000D01*
%TO.C,J2*%
X124170000Y-117330000D02*
X124170000Y-116000000D01*
X125500000Y-117330000D02*
X124170000Y-117330000D01*
X126770000Y-117330000D02*
X126770000Y-114670000D01*
X126770000Y-114670000D02*
X131910000Y-114670000D01*
X126770000Y-117330000D02*
X131910000Y-117330000D01*
X131910000Y-117330000D02*
X131910000Y-114670000D01*
%TO.C,R1*%
X136960000Y-88960000D02*
X136630000Y-88960000D01*
X136630000Y-88960000D02*
X136630000Y-82420000D01*
X136630000Y-82420000D02*
X136960000Y-82420000D01*
X139040000Y-88960000D02*
X139370000Y-88960000D01*
X139370000Y-88960000D02*
X139370000Y-82420000D01*
X139370000Y-82420000D02*
X139040000Y-82420000D01*
%TO.C,R2*%
X114870000Y-82420000D02*
X114540000Y-82420000D01*
X114870000Y-88960000D02*
X114870000Y-82420000D01*
X114540000Y-88960000D02*
X114870000Y-88960000D01*
X112130000Y-82420000D02*
X112460000Y-82420000D01*
X112130000Y-88960000D02*
X112130000Y-82420000D01*
X112460000Y-88960000D02*
X112130000Y-88960000D01*
%TO.C,R3*%
X90370000Y-82420000D02*
X90040000Y-82420000D01*
X90370000Y-88960000D02*
X90370000Y-82420000D01*
X90040000Y-88960000D02*
X90370000Y-88960000D01*
X87630000Y-82420000D02*
X87960000Y-82420000D01*
X87630000Y-88960000D02*
X87630000Y-82420000D01*
X87960000Y-88960000D02*
X87630000Y-88960000D01*
%TO.C,R4*%
X63460000Y-88960000D02*
X63130000Y-88960000D01*
X63130000Y-88960000D02*
X63130000Y-82420000D01*
X63130000Y-82420000D02*
X63460000Y-82420000D01*
X65540000Y-88960000D02*
X65870000Y-88960000D01*
X65870000Y-88960000D02*
X65870000Y-82420000D01*
X65870000Y-82420000D02*
X65540000Y-82420000D01*
%TO.C,U1*%
X89270000Y-144024000D02*
X89270000Y-144024000D01*
X89270000Y-133356000D02*
X89270000Y-144024000D01*
X89600000Y-144600000D02*
X89600000Y-144600000D01*
X89600000Y-129150000D02*
X89600000Y-144600000D01*
X60400000Y-129150000D02*
X89600000Y-129150000D01*
X60400000Y-144600000D02*
X60400000Y-129150000D01*
X89600000Y-144600000D02*
X60400000Y-144600000D01*
X89016000Y-141230000D02*
X89016000Y-141230000D01*
X86730000Y-141230000D02*
X89016000Y-141230000D01*
X86730000Y-143516000D02*
X86730000Y-141230000D01*
X89270000Y-133356000D02*
X89270000Y-133356000D01*
X83936000Y-133356000D02*
X89270000Y-133356000D01*
X83936000Y-144024000D02*
X83936000Y-133356000D01*
X89270000Y-144024000D02*
X83936000Y-144024000D01*
%TO.C,A1*%
D10*
X93086666Y-136594285D02*
X93086666Y-136118095D01*
X93372380Y-136689523D02*
X92372380Y-136356190D01*
X93372380Y-136022857D01*
X93372380Y-135165714D02*
X93372380Y-135737142D01*
X93372380Y-135451428D02*
X92372380Y-135451428D01*
X92515238Y-135546666D01*
X92610476Y-135641904D01*
X92658095Y-135737142D01*
%TO.C,C1*%
X82607142Y-125166666D02*
X82654761Y-125214285D01*
X82702380Y-125357142D01*
X82702380Y-125452380D01*
X82654761Y-125595238D01*
X82559523Y-125690476D01*
X82464285Y-125738095D01*
X82273809Y-125785714D01*
X82130952Y-125785714D01*
X81940476Y-125738095D01*
X81845238Y-125690476D01*
X81750000Y-125595238D01*
X81702380Y-125452380D01*
X81702380Y-125357142D01*
X81750000Y-125214285D01*
X81797619Y-125166666D01*
X82702380Y-124214285D02*
X82702380Y-124785714D01*
X82702380Y-124500000D02*
X81702380Y-124500000D01*
X81845238Y-124595238D01*
X81940476Y-124690476D01*
X81988095Y-124785714D01*
%TO.C,J1*%
X58372380Y-120793333D02*
X59086666Y-120793333D01*
X59229523Y-120840952D01*
X59324761Y-120936190D01*
X59372380Y-121079047D01*
X59372380Y-121174285D01*
X59372380Y-119793333D02*
X59372380Y-120364761D01*
X59372380Y-120079047D02*
X58372380Y-120079047D01*
X58515238Y-120174285D01*
X58610476Y-120269523D01*
X58658095Y-120364761D01*
%TO.C,J2*%
X122622380Y-116333333D02*
X123336666Y-116333333D01*
X123479523Y-116380952D01*
X123574761Y-116476190D01*
X123622380Y-116619047D01*
X123622380Y-116714285D01*
X122717619Y-115904761D02*
X122670000Y-115857142D01*
X122622380Y-115761904D01*
X122622380Y-115523809D01*
X122670000Y-115428571D01*
X122717619Y-115380952D01*
X122812857Y-115333333D01*
X122908095Y-115333333D01*
X123050952Y-115380952D01*
X123622380Y-115952380D01*
X123622380Y-115333333D01*
%TO.C,R1*%
X136082380Y-85856666D02*
X135606190Y-86190000D01*
X136082380Y-86428095D02*
X135082380Y-86428095D01*
X135082380Y-86047142D01*
X135130000Y-85951904D01*
X135177619Y-85904285D01*
X135272857Y-85856666D01*
X135415714Y-85856666D01*
X135510952Y-85904285D01*
X135558571Y-85951904D01*
X135606190Y-86047142D01*
X135606190Y-86428095D01*
X136082380Y-84904285D02*
X136082380Y-85475714D01*
X136082380Y-85190000D02*
X135082380Y-85190000D01*
X135225238Y-85285238D01*
X135320476Y-85380476D01*
X135368095Y-85475714D01*
%TO.C,R2*%
X111582380Y-85856666D02*
X111106190Y-86190000D01*
X111582380Y-86428095D02*
X110582380Y-86428095D01*
X110582380Y-86047142D01*
X110630000Y-85951904D01*
X110677619Y-85904285D01*
X110772857Y-85856666D01*
X110915714Y-85856666D01*
X111010952Y-85904285D01*
X111058571Y-85951904D01*
X111106190Y-86047142D01*
X111106190Y-86428095D01*
X110677619Y-85475714D02*
X110630000Y-85428095D01*
X110582380Y-85332857D01*
X110582380Y-85094761D01*
X110630000Y-84999523D01*
X110677619Y-84951904D01*
X110772857Y-84904285D01*
X110868095Y-84904285D01*
X111010952Y-84951904D01*
X111582380Y-85523333D01*
X111582380Y-84904285D01*
%TO.C,R3*%
X87082380Y-85856666D02*
X86606190Y-86190000D01*
X87082380Y-86428095D02*
X86082380Y-86428095D01*
X86082380Y-86047142D01*
X86130000Y-85951904D01*
X86177619Y-85904285D01*
X86272857Y-85856666D01*
X86415714Y-85856666D01*
X86510952Y-85904285D01*
X86558571Y-85951904D01*
X86606190Y-86047142D01*
X86606190Y-86428095D01*
X86082380Y-85523333D02*
X86082380Y-84904285D01*
X86463333Y-85237619D01*
X86463333Y-85094761D01*
X86510952Y-84999523D01*
X86558571Y-84951904D01*
X86653809Y-84904285D01*
X86891904Y-84904285D01*
X86987142Y-84951904D01*
X87034761Y-84999523D01*
X87082380Y-85094761D01*
X87082380Y-85380476D01*
X87034761Y-85475714D01*
X86987142Y-85523333D01*
%TO.C,R4*%
X62582380Y-85856666D02*
X62106190Y-86190000D01*
X62582380Y-86428095D02*
X61582380Y-86428095D01*
X61582380Y-86047142D01*
X61630000Y-85951904D01*
X61677619Y-85904285D01*
X61772857Y-85856666D01*
X61915714Y-85856666D01*
X62010952Y-85904285D01*
X62058571Y-85951904D01*
X62106190Y-86047142D01*
X62106190Y-86428095D01*
X61915714Y-84999523D02*
X62582380Y-84999523D01*
X61534761Y-85237619D02*
X62249047Y-85475714D01*
X62249047Y-84856666D01*
%TO.C,U1*%
X87238095Y-144952380D02*
X87238095Y-145761904D01*
X87285714Y-145857142D01*
X87333333Y-145904761D01*
X87428571Y-145952380D01*
X87619047Y-145952380D01*
X87714285Y-145904761D01*
X87761904Y-145857142D01*
X87809523Y-145761904D01*
X87809523Y-144952380D01*
X88809523Y-145952380D02*
X88238095Y-145952380D01*
X88523809Y-145952380D02*
X88523809Y-144952380D01*
X88428571Y-145095238D01*
X88333333Y-145190476D01*
X88238095Y-145238095D01*
%TO.C,H1*%
X57238095Y-65252380D02*
X57238095Y-64252380D01*
X57238095Y-64728571D02*
X57809523Y-64728571D01*
X57809523Y-65252380D02*
X57809523Y-64252380D01*
X58809523Y-65252380D02*
X58238095Y-65252380D01*
X58523809Y-65252380D02*
X58523809Y-64252380D01*
X58428571Y-64395238D01*
X58333333Y-64490476D01*
X58238095Y-64538095D01*
%TO.C,H2*%
X57238095Y-144252380D02*
X57238095Y-143252380D01*
X57238095Y-143728571D02*
X57809523Y-143728571D01*
X57809523Y-144252380D02*
X57809523Y-143252380D01*
X58238095Y-143347619D02*
X58285714Y-143300000D01*
X58380952Y-143252380D01*
X58619047Y-143252380D01*
X58714285Y-143300000D01*
X58761904Y-143347619D01*
X58809523Y-143442857D01*
X58809523Y-143538095D01*
X58761904Y-143680952D01*
X58190476Y-144252380D01*
X58809523Y-144252380D01*
%TO.C,H3*%
X141238095Y-65252380D02*
X141238095Y-64252380D01*
X141238095Y-64728571D02*
X141809523Y-64728571D01*
X141809523Y-65252380D02*
X141809523Y-64252380D01*
X142190476Y-64252380D02*
X142809523Y-64252380D01*
X142476190Y-64633333D01*
X142619047Y-64633333D01*
X142714285Y-64680952D01*
X142761904Y-64728571D01*
X142809523Y-64823809D01*
X142809523Y-65061904D01*
X142761904Y-65157142D01*
X142714285Y-65204761D01*
X142619047Y-65252380D01*
X142333333Y-65252380D01*
X142238095Y-65204761D01*
X142190476Y-65157142D01*
%TO.C,H4*%
X141238095Y-144252380D02*
X141238095Y-143252380D01*
X141238095Y-143728571D02*
X141809523Y-143728571D01*
X141809523Y-144252380D02*
X141809523Y-143252380D01*
X142714285Y-143585714D02*
X142714285Y-144252380D01*
X142476190Y-143204761D02*
X142238095Y-143919047D01*
X142857142Y-143919047D01*
%TD*%
M02*
