M48
; DRILL file {KiCad (5.1.10)-1} date 11/09/21 21:09:34
; FORMAT={-:-/ absolute / metric / decimal}
; #@! TF.CreationDate,2021-11-09T21:09:34+01:00
; #@! TF.GenerationSoftware,Kicad,Pcbnew,(5.1.10)-1
FMAT,2
METRIC
T1C0.600
T2C0.762
T3C0.800
T4C0.900
T5C1.000
T6C1.100
T7C1.520
T8C2.200
%
G90
G05
T1
X85.5Y-124.0
X85.5Y-126.0
T2
X85.46Y-134.88
X85.46Y-137.42
X85.46Y-139.96
X85.46Y-142.5
X88.0Y-134.88
X88.0Y-137.42
X88.0Y-139.96
X88.0Y-142.5
T3
X64.5Y-81.88
X64.5Y-89.5
X89.0Y-81.88
X89.0Y-89.5
X113.5Y-81.88
X113.5Y-89.5
X138.0Y-81.88
X138.0Y-89.5
T4
X62.0Y-73.5
X64.54Y-73.5
X86.5Y-73.5
X89.04Y-73.5
X111.0Y-73.5
X113.54Y-73.5
X135.5Y-73.5
X138.04Y-73.5
T5
X98.0Y-128.26
X98.0Y-143.5
X100.54Y-128.26
X100.54Y-143.5
X103.08Y-128.26
X103.08Y-143.5
X105.62Y-128.26
X105.62Y-143.5
X108.16Y-128.26
X108.16Y-143.5
X110.7Y-128.26
X110.7Y-143.5
X113.24Y-128.26
X113.24Y-143.5
X115.78Y-128.26
X115.78Y-143.5
X118.32Y-128.26
X118.32Y-143.5
X120.86Y-128.26
X120.86Y-143.5
X123.4Y-128.26
X123.4Y-143.5
X125.5Y-116.0
X125.94Y-128.26
X125.94Y-143.5
X128.04Y-116.0
X128.48Y-128.26
X128.48Y-143.5
X130.58Y-116.0
X131.02Y-128.26
X131.02Y-143.5
X133.56Y-128.26
X133.56Y-143.5
T6
X61.5Y-100.0
X61.5Y-104.5
X68.0Y-100.0
X68.0Y-104.5
X83.0Y-100.0
X83.0Y-104.5
X89.5Y-100.0
X89.5Y-104.5
X110.5Y-100.0
X110.5Y-104.5
X117.0Y-100.0
X117.0Y-104.5
X132.0Y-100.0
X132.0Y-104.5
X138.5Y-100.0
X138.5Y-104.5
T7
X64.0Y-117.92
X64.0Y-123.0
T8
X58.0Y-68.0
X58.0Y-147.0
X142.0Y-68.0
X142.0Y-147.0
T0
M30
