%TF.GenerationSoftware,KiCad,Pcbnew,(5.1.10)-1*%
%TF.CreationDate,2021-11-09T21:09:32+01:00*%
%TF.ProjectId,BuzzerHost,42757a7a-6572-4486-9f73-742e6b696361,1.0*%
%TF.SameCoordinates,Original*%
%TF.FileFunction,Soldermask,Bot*%
%TF.FilePolarity,Negative*%
%FSLAX46Y46*%
G04 Gerber Fmt 4.6, Leading zero omitted, Abs format (unit mm)*
G04 Created by KiCad (PCBNEW (5.1.10)-1) date 2021-11-09 21:09:32*
%MOMM*%
%LPD*%
G01*
G04 APERTURE LIST*
%ADD10C,2.000000*%
%ADD11R,1.600000X1.600000*%
%ADD12O,1.600000X1.600000*%
%ADD13R,1.200000X1.200000*%
%ADD14C,1.200000*%
%ADD15C,1.800000*%
%ADD16R,1.800000X1.800000*%
%ADD17R,3.000000X3.000000*%
%ADD18C,3.000000*%
%ADD19R,1.700000X1.700000*%
%ADD20O,1.700000X1.700000*%
%ADD21C,1.600000*%
%ADD22R,1.524000X1.524000*%
%ADD23C,1.524000*%
%ADD24C,2.200000*%
G04 APERTURE END LIST*
D10*
%TO.C,SW1*%
X132000000Y-100000000D03*
X132000000Y-104500000D03*
X138500000Y-100000000D03*
X138500000Y-104500000D03*
%TD*%
D11*
%TO.C,A1*%
X98000000Y-143500000D03*
D12*
X131020000Y-128260000D03*
X100540000Y-143500000D03*
X128480000Y-128260000D03*
X103080000Y-143500000D03*
X125940000Y-128260000D03*
X105620000Y-143500000D03*
X123400000Y-128260000D03*
X108160000Y-143500000D03*
X120860000Y-128260000D03*
X110700000Y-143500000D03*
X118320000Y-128260000D03*
X113240000Y-143500000D03*
X115780000Y-128260000D03*
X115780000Y-143500000D03*
X113240000Y-128260000D03*
X118320000Y-143500000D03*
X110700000Y-128260000D03*
X120860000Y-143500000D03*
X108160000Y-128260000D03*
X123400000Y-143500000D03*
X105620000Y-128260000D03*
X125940000Y-143500000D03*
X103080000Y-128260000D03*
X128480000Y-143500000D03*
X100540000Y-128260000D03*
X131020000Y-143500000D03*
X98000000Y-128260000D03*
X133560000Y-143500000D03*
X133560000Y-128260000D03*
%TD*%
D13*
%TO.C,C1*%
X85500000Y-126000000D03*
D14*
X85500000Y-124000000D03*
%TD*%
D15*
%TO.C,D1*%
X138040000Y-73500000D03*
D16*
X135500000Y-73500000D03*
%TD*%
%TO.C,D2*%
X111000000Y-73500000D03*
D15*
X113540000Y-73500000D03*
%TD*%
%TO.C,D3*%
X89040000Y-73500000D03*
D16*
X86500000Y-73500000D03*
%TD*%
%TO.C,D4*%
X62000000Y-73500000D03*
D15*
X64540000Y-73500000D03*
%TD*%
D17*
%TO.C,J1*%
X64000000Y-123000000D03*
D18*
X64000000Y-117920000D03*
%TD*%
D19*
%TO.C,J2*%
X125500000Y-116000000D03*
D20*
X128040000Y-116000000D03*
X130580000Y-116000000D03*
%TD*%
D12*
%TO.C,R1*%
X138000000Y-81880000D03*
D21*
X138000000Y-89500000D03*
%TD*%
%TO.C,R2*%
X113500000Y-89500000D03*
D12*
X113500000Y-81880000D03*
%TD*%
D21*
%TO.C,R3*%
X89000000Y-89500000D03*
D12*
X89000000Y-81880000D03*
%TD*%
%TO.C,R4*%
X64500000Y-81880000D03*
D21*
X64500000Y-89500000D03*
%TD*%
D10*
%TO.C,SW2*%
X117000000Y-104500000D03*
X117000000Y-100000000D03*
X110500000Y-104500000D03*
X110500000Y-100000000D03*
%TD*%
%TO.C,SW3*%
X83000000Y-100000000D03*
X83000000Y-104500000D03*
X89500000Y-100000000D03*
X89500000Y-104500000D03*
%TD*%
%TO.C,SW4*%
X68000000Y-104500000D03*
X68000000Y-100000000D03*
X61500000Y-104500000D03*
X61500000Y-100000000D03*
%TD*%
D22*
%TO.C,U1*%
X88000000Y-142500000D03*
D23*
X85460000Y-142500000D03*
X88000000Y-139960000D03*
X85460000Y-139960000D03*
X88000000Y-137420000D03*
X85460000Y-137420000D03*
X88000000Y-134880000D03*
X85460000Y-134880000D03*
%TD*%
D24*
%TO.C,H1*%
X58000000Y-68000000D03*
%TD*%
%TO.C,H2*%
X58000000Y-147000000D03*
%TD*%
%TO.C,H3*%
X142000000Y-68000000D03*
%TD*%
%TO.C,H4*%
X142000000Y-147000000D03*
%TD*%
M02*
