%TF.GenerationSoftware,KiCad,Pcbnew,(5.1.10)-1*%
%TF.CreationDate,2021-11-09T21:09:32+01:00*%
%TF.ProjectId,BuzzerHost,42757a7a-6572-4486-9f73-742e6b696361,1.0*%
%TF.SameCoordinates,Original*%
%TF.FileFunction,Copper,L1,Top*%
%TF.FilePolarity,Positive*%
%FSLAX46Y46*%
G04 Gerber Fmt 4.6, Leading zero omitted, Abs format (unit mm)*
G04 Created by KiCad (PCBNEW (5.1.10)-1) date 2021-11-09 21:09:32*
%MOMM*%
%LPD*%
G01*
G04 APERTURE LIST*
%TA.AperFunction,ComponentPad*%
%ADD10C,2.000000*%
%TD*%
%TA.AperFunction,ComponentPad*%
%ADD11R,1.600000X1.600000*%
%TD*%
%TA.AperFunction,ComponentPad*%
%ADD12O,1.600000X1.600000*%
%TD*%
%TA.AperFunction,ComponentPad*%
%ADD13R,1.200000X1.200000*%
%TD*%
%TA.AperFunction,ComponentPad*%
%ADD14C,1.200000*%
%TD*%
%TA.AperFunction,ComponentPad*%
%ADD15C,1.800000*%
%TD*%
%TA.AperFunction,ComponentPad*%
%ADD16R,1.800000X1.800000*%
%TD*%
%TA.AperFunction,ComponentPad*%
%ADD17R,3.000000X3.000000*%
%TD*%
%TA.AperFunction,ComponentPad*%
%ADD18C,3.000000*%
%TD*%
%TA.AperFunction,ComponentPad*%
%ADD19R,1.700000X1.700000*%
%TD*%
%TA.AperFunction,ComponentPad*%
%ADD20O,1.700000X1.700000*%
%TD*%
%TA.AperFunction,ComponentPad*%
%ADD21C,1.600000*%
%TD*%
%TA.AperFunction,ComponentPad*%
%ADD22R,1.524000X1.524000*%
%TD*%
%TA.AperFunction,ComponentPad*%
%ADD23C,1.524000*%
%TD*%
%TA.AperFunction,Conductor*%
%ADD24C,0.250000*%
%TD*%
%TA.AperFunction,Conductor*%
%ADD25C,0.254000*%
%TD*%
%TA.AperFunction,Conductor*%
%ADD26C,0.100000*%
%TD*%
G04 APERTURE END LIST*
D10*
%TO.P,SW1,1*%
%TO.N,GND*%
X132000000Y-100000000D03*
%TO.P,SW1,2*%
%TO.N,Net-(A1-Pad8)*%
X132000000Y-104500000D03*
%TO.P,SW1,1*%
%TO.N,GND*%
X138500000Y-100000000D03*
%TO.P,SW1,2*%
%TO.N,Net-(A1-Pad8)*%
X138500000Y-104500000D03*
%TD*%
D11*
%TO.P,A1,1*%
%TO.N,Net-(A1-Pad1)*%
X98000000Y-143500000D03*
D12*
%TO.P,A1,17*%
%TO.N,Net-(A1-Pad17)*%
X131020000Y-128260000D03*
%TO.P,A1,2*%
%TO.N,Net-(A1-Pad2)*%
X100540000Y-143500000D03*
%TO.P,A1,18*%
%TO.N,Net-(A1-Pad18)*%
X128480000Y-128260000D03*
%TO.P,A1,3*%
%TO.N,Net-(A1-Pad3)*%
X103080000Y-143500000D03*
%TO.P,A1,19*%
%TO.N,Net-(A1-Pad19)*%
X125940000Y-128260000D03*
%TO.P,A1,4*%
%TO.N,GND*%
X105620000Y-143500000D03*
%TO.P,A1,20*%
%TO.N,Net-(A1-Pad20)*%
X123400000Y-128260000D03*
%TO.P,A1,5*%
%TO.N,Net-(A1-Pad5)*%
X108160000Y-143500000D03*
%TO.P,A1,21*%
%TO.N,Net-(A1-Pad21)*%
X120860000Y-128260000D03*
%TO.P,A1,6*%
%TO.N,Net-(A1-Pad6)*%
X110700000Y-143500000D03*
%TO.P,A1,22*%
%TO.N,Net-(A1-Pad22)*%
X118320000Y-128260000D03*
%TO.P,A1,7*%
%TO.N,Net-(A1-Pad7)*%
X113240000Y-143500000D03*
%TO.P,A1,23*%
%TO.N,Net-(A1-Pad23)*%
X115780000Y-128260000D03*
%TO.P,A1,8*%
%TO.N,Net-(A1-Pad8)*%
X115780000Y-143500000D03*
%TO.P,A1,24*%
%TO.N,Net-(A1-Pad24)*%
X113240000Y-128260000D03*
%TO.P,A1,9*%
%TO.N,Net-(A1-Pad9)*%
X118320000Y-143500000D03*
%TO.P,A1,25*%
%TO.N,Net-(A1-Pad25)*%
X110700000Y-128260000D03*
%TO.P,A1,10*%
%TO.N,Net-(A1-Pad10)*%
X120860000Y-143500000D03*
%TO.P,A1,26*%
%TO.N,Net-(A1-Pad26)*%
X108160000Y-128260000D03*
%TO.P,A1,11*%
%TO.N,Net-(A1-Pad11)*%
X123400000Y-143500000D03*
%TO.P,A1,27*%
%TO.N,Net-(A1-Pad27)*%
X105620000Y-128260000D03*
%TO.P,A1,12*%
%TO.N,Net-(A1-Pad12)*%
X125940000Y-143500000D03*
%TO.P,A1,28*%
%TO.N,Net-(A1-Pad28)*%
X103080000Y-128260000D03*
%TO.P,A1,13*%
%TO.N,Net-(A1-Pad13)*%
X128480000Y-143500000D03*
%TO.P,A1,29*%
%TO.N,GND*%
X100540000Y-128260000D03*
%TO.P,A1,14*%
%TO.N,Net-(A1-Pad14)*%
X131020000Y-143500000D03*
%TO.P,A1,30*%
%TO.N,+9V*%
X98000000Y-128260000D03*
%TO.P,A1,15*%
%TO.N,Net-(A1-Pad15)*%
X133560000Y-143500000D03*
%TO.P,A1,16*%
%TO.N,Net-(A1-Pad16)*%
X133560000Y-128260000D03*
%TD*%
D13*
%TO.P,C1,1*%
%TO.N,Net-(A1-Pad17)*%
X85500000Y-126000000D03*
D14*
%TO.P,C1,2*%
%TO.N,GND*%
X85500000Y-124000000D03*
%TD*%
D15*
%TO.P,D1,2*%
%TO.N,Net-(D1-Pad2)*%
X138040000Y-73500000D03*
D16*
%TO.P,D1,1*%
%TO.N,GND*%
X135500000Y-73500000D03*
%TD*%
%TO.P,D2,1*%
%TO.N,GND*%
X111000000Y-73500000D03*
D15*
%TO.P,D2,2*%
%TO.N,Net-(D2-Pad2)*%
X113540000Y-73500000D03*
%TD*%
%TO.P,D3,2*%
%TO.N,Net-(D3-Pad2)*%
X89040000Y-73500000D03*
D16*
%TO.P,D3,1*%
%TO.N,GND*%
X86500000Y-73500000D03*
%TD*%
%TO.P,D4,1*%
%TO.N,GND*%
X62000000Y-73500000D03*
D15*
%TO.P,D4,2*%
%TO.N,Net-(D4-Pad2)*%
X64540000Y-73500000D03*
%TD*%
D17*
%TO.P,J1,1*%
%TO.N,+9V*%
X64000000Y-123000000D03*
D18*
%TO.P,J1,2*%
%TO.N,GND*%
X64000000Y-117920000D03*
%TD*%
D19*
%TO.P,J2,1*%
%TO.N,GND*%
X125500000Y-116000000D03*
D20*
%TO.P,J2,2*%
%TO.N,Net-(J2-Pad2)*%
X128040000Y-116000000D03*
%TO.P,J2,3*%
%TO.N,Net-(A1-Pad10)*%
X130580000Y-116000000D03*
%TD*%
D12*
%TO.P,R1,2*%
%TO.N,Net-(D1-Pad2)*%
X138000000Y-81880000D03*
D21*
%TO.P,R1,1*%
%TO.N,Net-(A1-Pad20)*%
X138000000Y-89500000D03*
%TD*%
%TO.P,R2,1*%
%TO.N,Net-(A1-Pad21)*%
X113500000Y-89500000D03*
D12*
%TO.P,R2,2*%
%TO.N,Net-(D2-Pad2)*%
X113500000Y-81880000D03*
%TD*%
D21*
%TO.P,R3,1*%
%TO.N,Net-(A1-Pad22)*%
X89000000Y-89500000D03*
D12*
%TO.P,R3,2*%
%TO.N,Net-(D3-Pad2)*%
X89000000Y-81880000D03*
%TD*%
%TO.P,R4,2*%
%TO.N,Net-(D4-Pad2)*%
X64500000Y-81880000D03*
D21*
%TO.P,R4,1*%
%TO.N,Net-(A1-Pad23)*%
X64500000Y-89500000D03*
%TD*%
D10*
%TO.P,SW2,2*%
%TO.N,Net-(A1-Pad7)*%
X117000000Y-104500000D03*
%TO.P,SW2,1*%
%TO.N,GND*%
X117000000Y-100000000D03*
%TO.P,SW2,2*%
%TO.N,Net-(A1-Pad7)*%
X110500000Y-104500000D03*
%TO.P,SW2,1*%
%TO.N,GND*%
X110500000Y-100000000D03*
%TD*%
%TO.P,SW3,1*%
%TO.N,GND*%
X83000000Y-100000000D03*
%TO.P,SW3,2*%
%TO.N,Net-(A1-Pad6)*%
X83000000Y-104500000D03*
%TO.P,SW3,1*%
%TO.N,GND*%
X89500000Y-100000000D03*
%TO.P,SW3,2*%
%TO.N,Net-(A1-Pad6)*%
X89500000Y-104500000D03*
%TD*%
%TO.P,SW4,2*%
%TO.N,Net-(A1-Pad5)*%
X68000000Y-104500000D03*
%TO.P,SW4,1*%
%TO.N,GND*%
X68000000Y-100000000D03*
%TO.P,SW4,2*%
%TO.N,Net-(A1-Pad5)*%
X61500000Y-104500000D03*
%TO.P,SW4,1*%
%TO.N,GND*%
X61500000Y-100000000D03*
%TD*%
D22*
%TO.P,U1,1*%
%TO.N,GND*%
X88000000Y-142500000D03*
D23*
%TO.P,U1,2*%
%TO.N,Net-(A1-Pad17)*%
X85460000Y-142500000D03*
%TO.P,U1,3*%
%TO.N,Net-(A1-Pad12)*%
X88000000Y-139960000D03*
%TO.P,U1,4*%
%TO.N,Net-(A1-Pad13)*%
X85460000Y-139960000D03*
%TO.P,U1,5*%
%TO.N,Net-(A1-Pad16)*%
X88000000Y-137420000D03*
%TO.P,U1,6*%
%TO.N,Net-(A1-Pad14)*%
X85460000Y-137420000D03*
%TO.P,U1,7*%
%TO.N,Net-(A1-Pad15)*%
X88000000Y-134880000D03*
%TO.P,U1,8*%
%TO.N,Net-(U1-Pad8)*%
X85460000Y-134880000D03*
%TD*%
D24*
%TO.N,Net-(A1-Pad17)*%
X85460000Y-142500000D02*
X83000000Y-140040000D01*
X83000000Y-140040000D02*
X83000000Y-133000000D01*
X83000000Y-133000000D02*
X83000000Y-132500000D01*
X127780000Y-131500000D02*
X131020000Y-128260000D01*
X84000000Y-131500000D02*
X127780000Y-131500000D01*
X85500000Y-130000000D02*
X83500000Y-132000000D01*
X85500000Y-126000000D02*
X85500000Y-130000000D01*
X83500000Y-132000000D02*
X84000000Y-131500000D01*
X83000000Y-132500000D02*
X83500000Y-132000000D01*
%TO.N,Net-(A1-Pad20)*%
X123400000Y-104100000D02*
X123400000Y-128260000D01*
X138000000Y-89500000D02*
X123400000Y-104100000D01*
%TO.N,Net-(A1-Pad21)*%
X120860000Y-96860000D02*
X120860000Y-128260000D01*
X113500000Y-89500000D02*
X120860000Y-96860000D01*
%TO.N,Net-(A1-Pad22)*%
X118320000Y-118820000D02*
X118320000Y-128260000D01*
X89000000Y-89500000D02*
X118320000Y-118820000D01*
%TO.N,Net-(A1-Pad23)*%
X64500000Y-89500000D02*
X84500000Y-89500000D01*
X115780000Y-120780000D02*
X115780000Y-128260000D01*
X84500000Y-89500000D02*
X115780000Y-120780000D01*
%TO.N,Net-(A1-Pad10)*%
X138000000Y-145000000D02*
X136500000Y-146500000D01*
X123860000Y-146500000D02*
X120860000Y-143500000D01*
X136500000Y-146500000D02*
X123860000Y-146500000D01*
X138000000Y-123420000D02*
X138000000Y-124500000D01*
X130580000Y-116000000D02*
X138000000Y-123420000D01*
X138000000Y-124500000D02*
X138000000Y-145000000D01*
X138000000Y-124000000D02*
X138000000Y-124500000D01*
%TO.N,Net-(A1-Pad12)*%
X122400000Y-139960000D02*
X125940000Y-143500000D01*
X88000000Y-139960000D02*
X122400000Y-139960000D01*
%TO.N,Net-(A1-Pad13)*%
X124814999Y-144040001D02*
X125774998Y-145000000D01*
X124814999Y-143314999D02*
X124814999Y-144040001D01*
X122912999Y-141412999D02*
X124814999Y-143314999D01*
X86912999Y-141412999D02*
X122912999Y-141412999D01*
X85460000Y-139960000D02*
X86912999Y-141412999D01*
X126980000Y-145000000D02*
X128480000Y-143500000D01*
X125774998Y-145000000D02*
X126980000Y-145000000D01*
%TO.N,Net-(A1-Pad14)*%
X126027001Y-138507001D02*
X131020000Y-143500000D01*
X86547001Y-138507001D02*
X126027001Y-138507001D01*
X85460000Y-137420000D02*
X86547001Y-138507001D01*
%TO.N,+9V*%
X64000000Y-123000000D02*
X73000000Y-123000000D01*
X73000000Y-123000000D02*
X74500000Y-121500000D01*
X91240000Y-121500000D02*
X98000000Y-128260000D01*
X74500000Y-121500000D02*
X91240000Y-121500000D01*
%TO.N,Net-(A1-Pad15)*%
X124940000Y-134880000D02*
X133560000Y-143500000D01*
X88000000Y-134880000D02*
X124940000Y-134880000D01*
%TO.N,Net-(A1-Pad16)*%
X88000000Y-137420000D02*
X88000000Y-137500000D01*
X86912999Y-134358239D02*
X88771238Y-132500000D01*
X86912999Y-136332999D02*
X86912999Y-134358239D01*
X88000000Y-137420000D02*
X86912999Y-136332999D01*
X129320000Y-132500000D02*
X133560000Y-128260000D01*
X88771238Y-132500000D02*
X129320000Y-132500000D01*
%TO.N,Net-(D1-Pad2)*%
X138000000Y-73540000D02*
X138040000Y-73500000D01*
X138000000Y-81880000D02*
X138000000Y-73540000D01*
%TO.N,Net-(D2-Pad2)*%
X113500000Y-73540000D02*
X113540000Y-73500000D01*
X113500000Y-81880000D02*
X113500000Y-73540000D01*
%TO.N,Net-(D3-Pad2)*%
X89000000Y-73540000D02*
X89040000Y-73500000D01*
X89000000Y-81880000D02*
X89000000Y-73540000D01*
%TO.N,Net-(D4-Pad2)*%
X64500000Y-73540000D02*
X64540000Y-73500000D01*
X64500000Y-81880000D02*
X64500000Y-73540000D01*
%TD*%
D25*
%TO.N,GND*%
X144340000Y-149340000D02*
X55660000Y-149340000D01*
X55660000Y-146829117D01*
X56265000Y-146829117D01*
X56265000Y-147170883D01*
X56331675Y-147506081D01*
X56462463Y-147821831D01*
X56652337Y-148105998D01*
X56894002Y-148347663D01*
X57178169Y-148537537D01*
X57493919Y-148668325D01*
X57829117Y-148735000D01*
X58170883Y-148735000D01*
X58506081Y-148668325D01*
X58821831Y-148537537D01*
X59105998Y-148347663D01*
X59347663Y-148105998D01*
X59537537Y-147821831D01*
X59668325Y-147506081D01*
X59735000Y-147170883D01*
X59735000Y-146829117D01*
X59668325Y-146493919D01*
X59537537Y-146178169D01*
X59347663Y-145894002D01*
X59105998Y-145652337D01*
X58821831Y-145462463D01*
X58506081Y-145331675D01*
X58170883Y-145265000D01*
X57829117Y-145265000D01*
X57493919Y-145331675D01*
X57178169Y-145462463D01*
X56894002Y-145652337D01*
X56652337Y-145894002D01*
X56462463Y-146178169D01*
X56331675Y-146493919D01*
X56265000Y-146829117D01*
X55660000Y-146829117D01*
X55660000Y-121500000D01*
X61861928Y-121500000D01*
X61861928Y-124500000D01*
X61874188Y-124624482D01*
X61910498Y-124744180D01*
X61969463Y-124854494D01*
X62048815Y-124951185D01*
X62145506Y-125030537D01*
X62255820Y-125089502D01*
X62375518Y-125125812D01*
X62500000Y-125138072D01*
X65500000Y-125138072D01*
X65624482Y-125125812D01*
X65744180Y-125089502D01*
X65854494Y-125030537D01*
X65951185Y-124951185D01*
X66030537Y-124854494D01*
X66089502Y-124744180D01*
X66125812Y-124624482D01*
X66138072Y-124500000D01*
X66138072Y-123760000D01*
X72962678Y-123760000D01*
X73000000Y-123763676D01*
X73037322Y-123760000D01*
X73037333Y-123760000D01*
X73148986Y-123749003D01*
X73292247Y-123705546D01*
X73424276Y-123634974D01*
X73540001Y-123540001D01*
X73563804Y-123510997D01*
X73924565Y-123150236D01*
X84829841Y-123150236D01*
X85500000Y-123820395D01*
X86170159Y-123150236D01*
X86122852Y-122926652D01*
X85901484Y-122825763D01*
X85664687Y-122770000D01*
X85421562Y-122761505D01*
X85181451Y-122800605D01*
X84953582Y-122885798D01*
X84877148Y-122926652D01*
X84829841Y-123150236D01*
X73924565Y-123150236D01*
X74814802Y-122260000D01*
X90925199Y-122260000D01*
X96601312Y-127936114D01*
X96565000Y-128118665D01*
X96565000Y-128401335D01*
X96620147Y-128678574D01*
X96728320Y-128939727D01*
X96885363Y-129174759D01*
X97085241Y-129374637D01*
X97320273Y-129531680D01*
X97581426Y-129639853D01*
X97858665Y-129695000D01*
X98141335Y-129695000D01*
X98418574Y-129639853D01*
X98679727Y-129531680D01*
X98914759Y-129374637D01*
X99114637Y-129174759D01*
X99271680Y-128939727D01*
X99276067Y-128929135D01*
X99387615Y-129115131D01*
X99576586Y-129323519D01*
X99802580Y-129491037D01*
X100056913Y-129611246D01*
X100190961Y-129651904D01*
X100413000Y-129529915D01*
X100413000Y-128387000D01*
X100393000Y-128387000D01*
X100393000Y-128133000D01*
X100413000Y-128133000D01*
X100413000Y-126990085D01*
X100190961Y-126868096D01*
X100056913Y-126908754D01*
X99802580Y-127028963D01*
X99576586Y-127196481D01*
X99387615Y-127404869D01*
X99276067Y-127590865D01*
X99271680Y-127580273D01*
X99114637Y-127345241D01*
X98914759Y-127145363D01*
X98679727Y-126988320D01*
X98418574Y-126880147D01*
X98141335Y-126825000D01*
X97858665Y-126825000D01*
X97676114Y-126861312D01*
X91803804Y-120989003D01*
X91780001Y-120959999D01*
X91664276Y-120865026D01*
X91532247Y-120794454D01*
X91388986Y-120750997D01*
X91277333Y-120740000D01*
X91277322Y-120740000D01*
X91240000Y-120736324D01*
X91202678Y-120740000D01*
X74537322Y-120740000D01*
X74499999Y-120736324D01*
X74462676Y-120740000D01*
X74462667Y-120740000D01*
X74351014Y-120750997D01*
X74207753Y-120794454D01*
X74075724Y-120865026D01*
X73959999Y-120959999D01*
X73936201Y-120988997D01*
X72685199Y-122240000D01*
X66138072Y-122240000D01*
X66138072Y-121500000D01*
X66125812Y-121375518D01*
X66089502Y-121255820D01*
X66030537Y-121145506D01*
X65951185Y-121048815D01*
X65854494Y-120969463D01*
X65744180Y-120910498D01*
X65624482Y-120874188D01*
X65500000Y-120861928D01*
X62500000Y-120861928D01*
X62375518Y-120874188D01*
X62255820Y-120910498D01*
X62145506Y-120969463D01*
X62048815Y-121048815D01*
X61969463Y-121145506D01*
X61910498Y-121255820D01*
X61874188Y-121375518D01*
X61861928Y-121500000D01*
X55660000Y-121500000D01*
X55660000Y-119411653D01*
X62687952Y-119411653D01*
X62843962Y-119727214D01*
X63218745Y-119918020D01*
X63623551Y-120032044D01*
X64042824Y-120064902D01*
X64460451Y-120015334D01*
X64860383Y-119885243D01*
X65156038Y-119727214D01*
X65312048Y-119411653D01*
X64000000Y-118099605D01*
X62687952Y-119411653D01*
X55660000Y-119411653D01*
X55660000Y-117962824D01*
X61855098Y-117962824D01*
X61904666Y-118380451D01*
X62034757Y-118780383D01*
X62192786Y-119076038D01*
X62508347Y-119232048D01*
X63820395Y-117920000D01*
X64179605Y-117920000D01*
X65491653Y-119232048D01*
X65807214Y-119076038D01*
X65998020Y-118701255D01*
X66112044Y-118296449D01*
X66144902Y-117877176D01*
X66095334Y-117459549D01*
X65965243Y-117059617D01*
X65807214Y-116763962D01*
X65491653Y-116607952D01*
X64179605Y-117920000D01*
X63820395Y-117920000D01*
X62508347Y-116607952D01*
X62192786Y-116763962D01*
X62001980Y-117138745D01*
X61887956Y-117543551D01*
X61855098Y-117962824D01*
X55660000Y-117962824D01*
X55660000Y-116428347D01*
X62687952Y-116428347D01*
X64000000Y-117740395D01*
X65312048Y-116428347D01*
X65156038Y-116112786D01*
X64781255Y-115921980D01*
X64376449Y-115807956D01*
X63957176Y-115775098D01*
X63539549Y-115824666D01*
X63139617Y-115954757D01*
X62843962Y-116112786D01*
X62687952Y-116428347D01*
X55660000Y-116428347D01*
X55660000Y-104338967D01*
X59865000Y-104338967D01*
X59865000Y-104661033D01*
X59927832Y-104976912D01*
X60051082Y-105274463D01*
X60230013Y-105542252D01*
X60457748Y-105769987D01*
X60725537Y-105948918D01*
X61023088Y-106072168D01*
X61338967Y-106135000D01*
X61661033Y-106135000D01*
X61976912Y-106072168D01*
X62274463Y-105948918D01*
X62542252Y-105769987D01*
X62769987Y-105542252D01*
X62948918Y-105274463D01*
X63072168Y-104976912D01*
X63135000Y-104661033D01*
X63135000Y-104338967D01*
X66365000Y-104338967D01*
X66365000Y-104661033D01*
X66427832Y-104976912D01*
X66551082Y-105274463D01*
X66730013Y-105542252D01*
X66957748Y-105769987D01*
X67225537Y-105948918D01*
X67523088Y-106072168D01*
X67838967Y-106135000D01*
X68161033Y-106135000D01*
X68476912Y-106072168D01*
X68774463Y-105948918D01*
X69042252Y-105769987D01*
X69269987Y-105542252D01*
X69448918Y-105274463D01*
X69572168Y-104976912D01*
X69635000Y-104661033D01*
X69635000Y-104338967D01*
X81365000Y-104338967D01*
X81365000Y-104661033D01*
X81427832Y-104976912D01*
X81551082Y-105274463D01*
X81730013Y-105542252D01*
X81957748Y-105769987D01*
X82225537Y-105948918D01*
X82523088Y-106072168D01*
X82838967Y-106135000D01*
X83161033Y-106135000D01*
X83476912Y-106072168D01*
X83774463Y-105948918D01*
X84042252Y-105769987D01*
X84269987Y-105542252D01*
X84448918Y-105274463D01*
X84572168Y-104976912D01*
X84635000Y-104661033D01*
X84635000Y-104338967D01*
X87865000Y-104338967D01*
X87865000Y-104661033D01*
X87927832Y-104976912D01*
X88051082Y-105274463D01*
X88230013Y-105542252D01*
X88457748Y-105769987D01*
X88725537Y-105948918D01*
X89023088Y-106072168D01*
X89338967Y-106135000D01*
X89661033Y-106135000D01*
X89976912Y-106072168D01*
X90274463Y-105948918D01*
X90542252Y-105769987D01*
X90769987Y-105542252D01*
X90948918Y-105274463D01*
X91072168Y-104976912D01*
X91135000Y-104661033D01*
X91135000Y-104338967D01*
X91072168Y-104023088D01*
X90948918Y-103725537D01*
X90769987Y-103457748D01*
X90542252Y-103230013D01*
X90274463Y-103051082D01*
X89976912Y-102927832D01*
X89661033Y-102865000D01*
X89338967Y-102865000D01*
X89023088Y-102927832D01*
X88725537Y-103051082D01*
X88457748Y-103230013D01*
X88230013Y-103457748D01*
X88051082Y-103725537D01*
X87927832Y-104023088D01*
X87865000Y-104338967D01*
X84635000Y-104338967D01*
X84572168Y-104023088D01*
X84448918Y-103725537D01*
X84269987Y-103457748D01*
X84042252Y-103230013D01*
X83774463Y-103051082D01*
X83476912Y-102927832D01*
X83161033Y-102865000D01*
X82838967Y-102865000D01*
X82523088Y-102927832D01*
X82225537Y-103051082D01*
X81957748Y-103230013D01*
X81730013Y-103457748D01*
X81551082Y-103725537D01*
X81427832Y-104023088D01*
X81365000Y-104338967D01*
X69635000Y-104338967D01*
X69572168Y-104023088D01*
X69448918Y-103725537D01*
X69269987Y-103457748D01*
X69042252Y-103230013D01*
X68774463Y-103051082D01*
X68476912Y-102927832D01*
X68161033Y-102865000D01*
X67838967Y-102865000D01*
X67523088Y-102927832D01*
X67225537Y-103051082D01*
X66957748Y-103230013D01*
X66730013Y-103457748D01*
X66551082Y-103725537D01*
X66427832Y-104023088D01*
X66365000Y-104338967D01*
X63135000Y-104338967D01*
X63072168Y-104023088D01*
X62948918Y-103725537D01*
X62769987Y-103457748D01*
X62542252Y-103230013D01*
X62274463Y-103051082D01*
X61976912Y-102927832D01*
X61661033Y-102865000D01*
X61338967Y-102865000D01*
X61023088Y-102927832D01*
X60725537Y-103051082D01*
X60457748Y-103230013D01*
X60230013Y-103457748D01*
X60051082Y-103725537D01*
X59927832Y-104023088D01*
X59865000Y-104338967D01*
X55660000Y-104338967D01*
X55660000Y-101135413D01*
X60544192Y-101135413D01*
X60639956Y-101399814D01*
X60929571Y-101540704D01*
X61241108Y-101622384D01*
X61562595Y-101641718D01*
X61881675Y-101597961D01*
X62186088Y-101492795D01*
X62360044Y-101399814D01*
X62455808Y-101135413D01*
X67044192Y-101135413D01*
X67139956Y-101399814D01*
X67429571Y-101540704D01*
X67741108Y-101622384D01*
X68062595Y-101641718D01*
X68381675Y-101597961D01*
X68686088Y-101492795D01*
X68860044Y-101399814D01*
X68955808Y-101135413D01*
X82044192Y-101135413D01*
X82139956Y-101399814D01*
X82429571Y-101540704D01*
X82741108Y-101622384D01*
X83062595Y-101641718D01*
X83381675Y-101597961D01*
X83686088Y-101492795D01*
X83860044Y-101399814D01*
X83955808Y-101135413D01*
X88544192Y-101135413D01*
X88639956Y-101399814D01*
X88929571Y-101540704D01*
X89241108Y-101622384D01*
X89562595Y-101641718D01*
X89881675Y-101597961D01*
X90186088Y-101492795D01*
X90360044Y-101399814D01*
X90455808Y-101135413D01*
X89500000Y-100179605D01*
X88544192Y-101135413D01*
X83955808Y-101135413D01*
X83000000Y-100179605D01*
X82044192Y-101135413D01*
X68955808Y-101135413D01*
X68000000Y-100179605D01*
X67044192Y-101135413D01*
X62455808Y-101135413D01*
X61500000Y-100179605D01*
X60544192Y-101135413D01*
X55660000Y-101135413D01*
X55660000Y-100062595D01*
X59858282Y-100062595D01*
X59902039Y-100381675D01*
X60007205Y-100686088D01*
X60100186Y-100860044D01*
X60364587Y-100955808D01*
X61320395Y-100000000D01*
X61679605Y-100000000D01*
X62635413Y-100955808D01*
X62899814Y-100860044D01*
X63040704Y-100570429D01*
X63122384Y-100258892D01*
X63134189Y-100062595D01*
X66358282Y-100062595D01*
X66402039Y-100381675D01*
X66507205Y-100686088D01*
X66600186Y-100860044D01*
X66864587Y-100955808D01*
X67820395Y-100000000D01*
X68179605Y-100000000D01*
X69135413Y-100955808D01*
X69399814Y-100860044D01*
X69540704Y-100570429D01*
X69622384Y-100258892D01*
X69634189Y-100062595D01*
X81358282Y-100062595D01*
X81402039Y-100381675D01*
X81507205Y-100686088D01*
X81600186Y-100860044D01*
X81864587Y-100955808D01*
X82820395Y-100000000D01*
X83179605Y-100000000D01*
X84135413Y-100955808D01*
X84399814Y-100860044D01*
X84540704Y-100570429D01*
X84622384Y-100258892D01*
X84634189Y-100062595D01*
X87858282Y-100062595D01*
X87902039Y-100381675D01*
X88007205Y-100686088D01*
X88100186Y-100860044D01*
X88364587Y-100955808D01*
X89320395Y-100000000D01*
X89679605Y-100000000D01*
X90635413Y-100955808D01*
X90899814Y-100860044D01*
X91040704Y-100570429D01*
X91122384Y-100258892D01*
X91141718Y-99937405D01*
X91097961Y-99618325D01*
X90992795Y-99313912D01*
X90899814Y-99139956D01*
X90635413Y-99044192D01*
X89679605Y-100000000D01*
X89320395Y-100000000D01*
X88364587Y-99044192D01*
X88100186Y-99139956D01*
X87959296Y-99429571D01*
X87877616Y-99741108D01*
X87858282Y-100062595D01*
X84634189Y-100062595D01*
X84641718Y-99937405D01*
X84597961Y-99618325D01*
X84492795Y-99313912D01*
X84399814Y-99139956D01*
X84135413Y-99044192D01*
X83179605Y-100000000D01*
X82820395Y-100000000D01*
X81864587Y-99044192D01*
X81600186Y-99139956D01*
X81459296Y-99429571D01*
X81377616Y-99741108D01*
X81358282Y-100062595D01*
X69634189Y-100062595D01*
X69641718Y-99937405D01*
X69597961Y-99618325D01*
X69492795Y-99313912D01*
X69399814Y-99139956D01*
X69135413Y-99044192D01*
X68179605Y-100000000D01*
X67820395Y-100000000D01*
X66864587Y-99044192D01*
X66600186Y-99139956D01*
X66459296Y-99429571D01*
X66377616Y-99741108D01*
X66358282Y-100062595D01*
X63134189Y-100062595D01*
X63141718Y-99937405D01*
X63097961Y-99618325D01*
X62992795Y-99313912D01*
X62899814Y-99139956D01*
X62635413Y-99044192D01*
X61679605Y-100000000D01*
X61320395Y-100000000D01*
X60364587Y-99044192D01*
X60100186Y-99139956D01*
X59959296Y-99429571D01*
X59877616Y-99741108D01*
X59858282Y-100062595D01*
X55660000Y-100062595D01*
X55660000Y-98864587D01*
X60544192Y-98864587D01*
X61500000Y-99820395D01*
X62455808Y-98864587D01*
X67044192Y-98864587D01*
X68000000Y-99820395D01*
X68955808Y-98864587D01*
X82044192Y-98864587D01*
X83000000Y-99820395D01*
X83955808Y-98864587D01*
X88544192Y-98864587D01*
X89500000Y-99820395D01*
X90455808Y-98864587D01*
X90360044Y-98600186D01*
X90070429Y-98459296D01*
X89758892Y-98377616D01*
X89437405Y-98358282D01*
X89118325Y-98402039D01*
X88813912Y-98507205D01*
X88639956Y-98600186D01*
X88544192Y-98864587D01*
X83955808Y-98864587D01*
X83860044Y-98600186D01*
X83570429Y-98459296D01*
X83258892Y-98377616D01*
X82937405Y-98358282D01*
X82618325Y-98402039D01*
X82313912Y-98507205D01*
X82139956Y-98600186D01*
X82044192Y-98864587D01*
X68955808Y-98864587D01*
X68860044Y-98600186D01*
X68570429Y-98459296D01*
X68258892Y-98377616D01*
X67937405Y-98358282D01*
X67618325Y-98402039D01*
X67313912Y-98507205D01*
X67139956Y-98600186D01*
X67044192Y-98864587D01*
X62455808Y-98864587D01*
X62360044Y-98600186D01*
X62070429Y-98459296D01*
X61758892Y-98377616D01*
X61437405Y-98358282D01*
X61118325Y-98402039D01*
X60813912Y-98507205D01*
X60639956Y-98600186D01*
X60544192Y-98864587D01*
X55660000Y-98864587D01*
X55660000Y-89358665D01*
X63065000Y-89358665D01*
X63065000Y-89641335D01*
X63120147Y-89918574D01*
X63228320Y-90179727D01*
X63385363Y-90414759D01*
X63585241Y-90614637D01*
X63820273Y-90771680D01*
X64081426Y-90879853D01*
X64358665Y-90935000D01*
X64641335Y-90935000D01*
X64918574Y-90879853D01*
X65179727Y-90771680D01*
X65414759Y-90614637D01*
X65614637Y-90414759D01*
X65718043Y-90260000D01*
X84185199Y-90260000D01*
X115020000Y-121094802D01*
X115020001Y-127041956D01*
X114865241Y-127145363D01*
X114665363Y-127345241D01*
X114510000Y-127577759D01*
X114354637Y-127345241D01*
X114154759Y-127145363D01*
X113919727Y-126988320D01*
X113658574Y-126880147D01*
X113381335Y-126825000D01*
X113098665Y-126825000D01*
X112821426Y-126880147D01*
X112560273Y-126988320D01*
X112325241Y-127145363D01*
X112125363Y-127345241D01*
X111970000Y-127577759D01*
X111814637Y-127345241D01*
X111614759Y-127145363D01*
X111379727Y-126988320D01*
X111118574Y-126880147D01*
X110841335Y-126825000D01*
X110558665Y-126825000D01*
X110281426Y-126880147D01*
X110020273Y-126988320D01*
X109785241Y-127145363D01*
X109585363Y-127345241D01*
X109430000Y-127577759D01*
X109274637Y-127345241D01*
X109074759Y-127145363D01*
X108839727Y-126988320D01*
X108578574Y-126880147D01*
X108301335Y-126825000D01*
X108018665Y-126825000D01*
X107741426Y-126880147D01*
X107480273Y-126988320D01*
X107245241Y-127145363D01*
X107045363Y-127345241D01*
X106890000Y-127577759D01*
X106734637Y-127345241D01*
X106534759Y-127145363D01*
X106299727Y-126988320D01*
X106038574Y-126880147D01*
X105761335Y-126825000D01*
X105478665Y-126825000D01*
X105201426Y-126880147D01*
X104940273Y-126988320D01*
X104705241Y-127145363D01*
X104505363Y-127345241D01*
X104350000Y-127577759D01*
X104194637Y-127345241D01*
X103994759Y-127145363D01*
X103759727Y-126988320D01*
X103498574Y-126880147D01*
X103221335Y-126825000D01*
X102938665Y-126825000D01*
X102661426Y-126880147D01*
X102400273Y-126988320D01*
X102165241Y-127145363D01*
X101965363Y-127345241D01*
X101808320Y-127580273D01*
X101803933Y-127590865D01*
X101692385Y-127404869D01*
X101503414Y-127196481D01*
X101277420Y-127028963D01*
X101023087Y-126908754D01*
X100889039Y-126868096D01*
X100667000Y-126990085D01*
X100667000Y-128133000D01*
X100687000Y-128133000D01*
X100687000Y-128387000D01*
X100667000Y-128387000D01*
X100667000Y-129529915D01*
X100889039Y-129651904D01*
X101023087Y-129611246D01*
X101277420Y-129491037D01*
X101503414Y-129323519D01*
X101692385Y-129115131D01*
X101803933Y-128929135D01*
X101808320Y-128939727D01*
X101965363Y-129174759D01*
X102165241Y-129374637D01*
X102400273Y-129531680D01*
X102661426Y-129639853D01*
X102938665Y-129695000D01*
X103221335Y-129695000D01*
X103498574Y-129639853D01*
X103759727Y-129531680D01*
X103994759Y-129374637D01*
X104194637Y-129174759D01*
X104350000Y-128942241D01*
X104505363Y-129174759D01*
X104705241Y-129374637D01*
X104940273Y-129531680D01*
X105201426Y-129639853D01*
X105478665Y-129695000D01*
X105761335Y-129695000D01*
X106038574Y-129639853D01*
X106299727Y-129531680D01*
X106534759Y-129374637D01*
X106734637Y-129174759D01*
X106890000Y-128942241D01*
X107045363Y-129174759D01*
X107245241Y-129374637D01*
X107480273Y-129531680D01*
X107741426Y-129639853D01*
X108018665Y-129695000D01*
X108301335Y-129695000D01*
X108578574Y-129639853D01*
X108839727Y-129531680D01*
X109074759Y-129374637D01*
X109274637Y-129174759D01*
X109430000Y-128942241D01*
X109585363Y-129174759D01*
X109785241Y-129374637D01*
X110020273Y-129531680D01*
X110281426Y-129639853D01*
X110558665Y-129695000D01*
X110841335Y-129695000D01*
X111118574Y-129639853D01*
X111379727Y-129531680D01*
X111614759Y-129374637D01*
X111814637Y-129174759D01*
X111970000Y-128942241D01*
X112125363Y-129174759D01*
X112325241Y-129374637D01*
X112560273Y-129531680D01*
X112821426Y-129639853D01*
X113098665Y-129695000D01*
X113381335Y-129695000D01*
X113658574Y-129639853D01*
X113919727Y-129531680D01*
X114154759Y-129374637D01*
X114354637Y-129174759D01*
X114510000Y-128942241D01*
X114665363Y-129174759D01*
X114865241Y-129374637D01*
X115100273Y-129531680D01*
X115361426Y-129639853D01*
X115638665Y-129695000D01*
X115921335Y-129695000D01*
X116198574Y-129639853D01*
X116459727Y-129531680D01*
X116694759Y-129374637D01*
X116894637Y-129174759D01*
X117050000Y-128942241D01*
X117205363Y-129174759D01*
X117405241Y-129374637D01*
X117640273Y-129531680D01*
X117901426Y-129639853D01*
X118178665Y-129695000D01*
X118461335Y-129695000D01*
X118738574Y-129639853D01*
X118999727Y-129531680D01*
X119234759Y-129374637D01*
X119434637Y-129174759D01*
X119590000Y-128942241D01*
X119745363Y-129174759D01*
X119945241Y-129374637D01*
X120180273Y-129531680D01*
X120441426Y-129639853D01*
X120718665Y-129695000D01*
X121001335Y-129695000D01*
X121278574Y-129639853D01*
X121539727Y-129531680D01*
X121774759Y-129374637D01*
X121974637Y-129174759D01*
X122130000Y-128942241D01*
X122285363Y-129174759D01*
X122485241Y-129374637D01*
X122720273Y-129531680D01*
X122981426Y-129639853D01*
X123258665Y-129695000D01*
X123541335Y-129695000D01*
X123818574Y-129639853D01*
X124079727Y-129531680D01*
X124314759Y-129374637D01*
X124514637Y-129174759D01*
X124670000Y-128942241D01*
X124825363Y-129174759D01*
X125025241Y-129374637D01*
X125260273Y-129531680D01*
X125521426Y-129639853D01*
X125798665Y-129695000D01*
X126081335Y-129695000D01*
X126358574Y-129639853D01*
X126619727Y-129531680D01*
X126854759Y-129374637D01*
X127054637Y-129174759D01*
X127210000Y-128942241D01*
X127365363Y-129174759D01*
X127565241Y-129374637D01*
X127800273Y-129531680D01*
X128061426Y-129639853D01*
X128338665Y-129695000D01*
X128510199Y-129695000D01*
X127465199Y-130740000D01*
X85834802Y-130740000D01*
X86011003Y-130563799D01*
X86040001Y-130540001D01*
X86066332Y-130507917D01*
X86134974Y-130424277D01*
X86205546Y-130292247D01*
X86249003Y-130148986D01*
X86260000Y-130037333D01*
X86260000Y-130037324D01*
X86263676Y-130000001D01*
X86260000Y-129962678D01*
X86260000Y-127215038D01*
X86344180Y-127189502D01*
X86454494Y-127130537D01*
X86551185Y-127051185D01*
X86630537Y-126954494D01*
X86689502Y-126844180D01*
X86725812Y-126724482D01*
X86738072Y-126600000D01*
X86738072Y-125400000D01*
X86725812Y-125275518D01*
X86689502Y-125155820D01*
X86630537Y-125045506D01*
X86551185Y-124948815D01*
X86454494Y-124869463D01*
X86408994Y-124845142D01*
X86466872Y-124787264D01*
X86349766Y-124670158D01*
X86573348Y-124622852D01*
X86674237Y-124401484D01*
X86730000Y-124164687D01*
X86738495Y-123921562D01*
X86699395Y-123681451D01*
X86614202Y-123453582D01*
X86573348Y-123377148D01*
X86349764Y-123329841D01*
X85679605Y-124000000D01*
X85693748Y-124014143D01*
X85514143Y-124193748D01*
X85500000Y-124179605D01*
X85485858Y-124193748D01*
X85306253Y-124014143D01*
X85320395Y-124000000D01*
X84650236Y-123329841D01*
X84426652Y-123377148D01*
X84325763Y-123598516D01*
X84270000Y-123835313D01*
X84261505Y-124078438D01*
X84300605Y-124318549D01*
X84385798Y-124546418D01*
X84426652Y-124622852D01*
X84650234Y-124670158D01*
X84533128Y-124787264D01*
X84591006Y-124845142D01*
X84545506Y-124869463D01*
X84448815Y-124948815D01*
X84369463Y-125045506D01*
X84310498Y-125155820D01*
X84274188Y-125275518D01*
X84261928Y-125400000D01*
X84261928Y-126600000D01*
X84274188Y-126724482D01*
X84310498Y-126844180D01*
X84369463Y-126954494D01*
X84448815Y-127051185D01*
X84545506Y-127130537D01*
X84655820Y-127189502D01*
X84740000Y-127215038D01*
X84740001Y-129685197D01*
X83489001Y-130936197D01*
X83459999Y-130959999D01*
X83436197Y-130989001D01*
X82988998Y-131436201D01*
X82488998Y-131936201D01*
X82460000Y-131959999D01*
X82365026Y-132075724D01*
X82294454Y-132207753D01*
X82250997Y-132351014D01*
X82240000Y-132462667D01*
X82240000Y-132462678D01*
X82236324Y-132500000D01*
X82240000Y-132537322D01*
X82240000Y-133037332D01*
X82240001Y-133037342D01*
X82240000Y-140002677D01*
X82236324Y-140040000D01*
X82240000Y-140077322D01*
X82240000Y-140077332D01*
X82250997Y-140188985D01*
X82294454Y-140332246D01*
X82365026Y-140464276D01*
X82394345Y-140500001D01*
X82459999Y-140580001D01*
X82489003Y-140603804D01*
X84093628Y-142208430D01*
X84063000Y-142362408D01*
X84063000Y-142637592D01*
X84116686Y-142907490D01*
X84221995Y-143161727D01*
X84374880Y-143390535D01*
X84569465Y-143585120D01*
X84798273Y-143738005D01*
X85052510Y-143843314D01*
X85322408Y-143897000D01*
X85597592Y-143897000D01*
X85867490Y-143843314D01*
X86121727Y-143738005D01*
X86350535Y-143585120D01*
X86545120Y-143390535D01*
X86603920Y-143302535D01*
X86612188Y-143386482D01*
X86648498Y-143506180D01*
X86707463Y-143616494D01*
X86786815Y-143713185D01*
X86883506Y-143792537D01*
X86993820Y-143851502D01*
X87113518Y-143887812D01*
X87238000Y-143900072D01*
X87714250Y-143897000D01*
X87873000Y-143738250D01*
X87873000Y-142627000D01*
X88127000Y-142627000D01*
X88127000Y-143738250D01*
X88285750Y-143897000D01*
X88762000Y-143900072D01*
X88886482Y-143887812D01*
X89006180Y-143851502D01*
X89116494Y-143792537D01*
X89213185Y-143713185D01*
X89292537Y-143616494D01*
X89351502Y-143506180D01*
X89387812Y-143386482D01*
X89400072Y-143262000D01*
X89397000Y-142785750D01*
X89238250Y-142627000D01*
X88127000Y-142627000D01*
X87873000Y-142627000D01*
X87853000Y-142627000D01*
X87853000Y-142373000D01*
X87873000Y-142373000D01*
X87873000Y-142353000D01*
X88127000Y-142353000D01*
X88127000Y-142373000D01*
X89238250Y-142373000D01*
X89397000Y-142214250D01*
X89397266Y-142172999D01*
X96841197Y-142172999D01*
X96748815Y-142248815D01*
X96669463Y-142345506D01*
X96610498Y-142455820D01*
X96574188Y-142575518D01*
X96561928Y-142700000D01*
X96561928Y-144300000D01*
X96574188Y-144424482D01*
X96610498Y-144544180D01*
X96669463Y-144654494D01*
X96748815Y-144751185D01*
X96845506Y-144830537D01*
X96955820Y-144889502D01*
X97075518Y-144925812D01*
X97200000Y-144938072D01*
X98800000Y-144938072D01*
X98924482Y-144925812D01*
X99044180Y-144889502D01*
X99154494Y-144830537D01*
X99251185Y-144751185D01*
X99330537Y-144654494D01*
X99389502Y-144544180D01*
X99425812Y-144424482D01*
X99426643Y-144416039D01*
X99625241Y-144614637D01*
X99860273Y-144771680D01*
X100121426Y-144879853D01*
X100398665Y-144935000D01*
X100681335Y-144935000D01*
X100958574Y-144879853D01*
X101219727Y-144771680D01*
X101454759Y-144614637D01*
X101654637Y-144414759D01*
X101810000Y-144182241D01*
X101965363Y-144414759D01*
X102165241Y-144614637D01*
X102400273Y-144771680D01*
X102661426Y-144879853D01*
X102938665Y-144935000D01*
X103221335Y-144935000D01*
X103498574Y-144879853D01*
X103759727Y-144771680D01*
X103994759Y-144614637D01*
X104194637Y-144414759D01*
X104351680Y-144179727D01*
X104356067Y-144169135D01*
X104467615Y-144355131D01*
X104656586Y-144563519D01*
X104882580Y-144731037D01*
X105136913Y-144851246D01*
X105270961Y-144891904D01*
X105493000Y-144769915D01*
X105493000Y-143627000D01*
X105473000Y-143627000D01*
X105473000Y-143373000D01*
X105493000Y-143373000D01*
X105493000Y-143353000D01*
X105747000Y-143353000D01*
X105747000Y-143373000D01*
X105767000Y-143373000D01*
X105767000Y-143627000D01*
X105747000Y-143627000D01*
X105747000Y-144769915D01*
X105969039Y-144891904D01*
X106103087Y-144851246D01*
X106357420Y-144731037D01*
X106583414Y-144563519D01*
X106772385Y-144355131D01*
X106883933Y-144169135D01*
X106888320Y-144179727D01*
X107045363Y-144414759D01*
X107245241Y-144614637D01*
X107480273Y-144771680D01*
X107741426Y-144879853D01*
X108018665Y-144935000D01*
X108301335Y-144935000D01*
X108578574Y-144879853D01*
X108839727Y-144771680D01*
X109074759Y-144614637D01*
X109274637Y-144414759D01*
X109430000Y-144182241D01*
X109585363Y-144414759D01*
X109785241Y-144614637D01*
X110020273Y-144771680D01*
X110281426Y-144879853D01*
X110558665Y-144935000D01*
X110841335Y-144935000D01*
X111118574Y-144879853D01*
X111379727Y-144771680D01*
X111614759Y-144614637D01*
X111814637Y-144414759D01*
X111970000Y-144182241D01*
X112125363Y-144414759D01*
X112325241Y-144614637D01*
X112560273Y-144771680D01*
X112821426Y-144879853D01*
X113098665Y-144935000D01*
X113381335Y-144935000D01*
X113658574Y-144879853D01*
X113919727Y-144771680D01*
X114154759Y-144614637D01*
X114354637Y-144414759D01*
X114510000Y-144182241D01*
X114665363Y-144414759D01*
X114865241Y-144614637D01*
X115100273Y-144771680D01*
X115361426Y-144879853D01*
X115638665Y-144935000D01*
X115921335Y-144935000D01*
X116198574Y-144879853D01*
X116459727Y-144771680D01*
X116694759Y-144614637D01*
X116894637Y-144414759D01*
X117050000Y-144182241D01*
X117205363Y-144414759D01*
X117405241Y-144614637D01*
X117640273Y-144771680D01*
X117901426Y-144879853D01*
X118178665Y-144935000D01*
X118461335Y-144935000D01*
X118738574Y-144879853D01*
X118999727Y-144771680D01*
X119234759Y-144614637D01*
X119434637Y-144414759D01*
X119590000Y-144182241D01*
X119745363Y-144414759D01*
X119945241Y-144614637D01*
X120180273Y-144771680D01*
X120441426Y-144879853D01*
X120718665Y-144935000D01*
X121001335Y-144935000D01*
X121183886Y-144898688D01*
X123296201Y-147011003D01*
X123319999Y-147040001D01*
X123435724Y-147134974D01*
X123567753Y-147205546D01*
X123711014Y-147249003D01*
X123822667Y-147260000D01*
X123822675Y-147260000D01*
X123860000Y-147263676D01*
X123897325Y-147260000D01*
X136462678Y-147260000D01*
X136500000Y-147263676D01*
X136537322Y-147260000D01*
X136537333Y-147260000D01*
X136648986Y-147249003D01*
X136792247Y-147205546D01*
X136924276Y-147134974D01*
X137040001Y-147040001D01*
X137063804Y-147010997D01*
X137245684Y-146829117D01*
X140265000Y-146829117D01*
X140265000Y-147170883D01*
X140331675Y-147506081D01*
X140462463Y-147821831D01*
X140652337Y-148105998D01*
X140894002Y-148347663D01*
X141178169Y-148537537D01*
X141493919Y-148668325D01*
X141829117Y-148735000D01*
X142170883Y-148735000D01*
X142506081Y-148668325D01*
X142821831Y-148537537D01*
X143105998Y-148347663D01*
X143347663Y-148105998D01*
X143537537Y-147821831D01*
X143668325Y-147506081D01*
X143735000Y-147170883D01*
X143735000Y-146829117D01*
X143668325Y-146493919D01*
X143537537Y-146178169D01*
X143347663Y-145894002D01*
X143105998Y-145652337D01*
X142821831Y-145462463D01*
X142506081Y-145331675D01*
X142170883Y-145265000D01*
X141829117Y-145265000D01*
X141493919Y-145331675D01*
X141178169Y-145462463D01*
X140894002Y-145652337D01*
X140652337Y-145894002D01*
X140462463Y-146178169D01*
X140331675Y-146493919D01*
X140265000Y-146829117D01*
X137245684Y-146829117D01*
X138511003Y-145563799D01*
X138540001Y-145540001D01*
X138634974Y-145424276D01*
X138705546Y-145292247D01*
X138749003Y-145148986D01*
X138760000Y-145037333D01*
X138760000Y-145037324D01*
X138763676Y-145000001D01*
X138760000Y-144962678D01*
X138760000Y-123457325D01*
X138763676Y-123420000D01*
X138760000Y-123382675D01*
X138760000Y-123382667D01*
X138749003Y-123271014D01*
X138705546Y-123127753D01*
X138634974Y-122995724D01*
X138540001Y-122879999D01*
X138511004Y-122856202D01*
X132021209Y-116366408D01*
X132065000Y-116146260D01*
X132065000Y-115853740D01*
X132007932Y-115566842D01*
X131895990Y-115296589D01*
X131733475Y-115053368D01*
X131526632Y-114846525D01*
X131283411Y-114684010D01*
X131013158Y-114572068D01*
X130726260Y-114515000D01*
X130433740Y-114515000D01*
X130146842Y-114572068D01*
X129876589Y-114684010D01*
X129633368Y-114846525D01*
X129426525Y-115053368D01*
X129310000Y-115227760D01*
X129193475Y-115053368D01*
X128986632Y-114846525D01*
X128743411Y-114684010D01*
X128473158Y-114572068D01*
X128186260Y-114515000D01*
X127893740Y-114515000D01*
X127606842Y-114572068D01*
X127336589Y-114684010D01*
X127093368Y-114846525D01*
X126961513Y-114978380D01*
X126939502Y-114905820D01*
X126880537Y-114795506D01*
X126801185Y-114698815D01*
X126704494Y-114619463D01*
X126594180Y-114560498D01*
X126474482Y-114524188D01*
X126350000Y-114511928D01*
X125785750Y-114515000D01*
X125627000Y-114673750D01*
X125627000Y-115873000D01*
X125647000Y-115873000D01*
X125647000Y-116127000D01*
X125627000Y-116127000D01*
X125627000Y-117326250D01*
X125785750Y-117485000D01*
X126350000Y-117488072D01*
X126474482Y-117475812D01*
X126594180Y-117439502D01*
X126704494Y-117380537D01*
X126801185Y-117301185D01*
X126880537Y-117204494D01*
X126939502Y-117094180D01*
X126961513Y-117021620D01*
X127093368Y-117153475D01*
X127336589Y-117315990D01*
X127606842Y-117427932D01*
X127893740Y-117485000D01*
X128186260Y-117485000D01*
X128473158Y-117427932D01*
X128743411Y-117315990D01*
X128986632Y-117153475D01*
X129193475Y-116946632D01*
X129310000Y-116772240D01*
X129426525Y-116946632D01*
X129633368Y-117153475D01*
X129876589Y-117315990D01*
X130146842Y-117427932D01*
X130433740Y-117485000D01*
X130726260Y-117485000D01*
X130946408Y-117441209D01*
X137240000Y-123734802D01*
X137240001Y-123962663D01*
X137240000Y-123962668D01*
X137240000Y-124462668D01*
X137240001Y-144685197D01*
X136185199Y-145740000D01*
X127158665Y-145740000D01*
X127272247Y-145705546D01*
X127404276Y-145634974D01*
X127520001Y-145540001D01*
X127543804Y-145510997D01*
X128156114Y-144898688D01*
X128338665Y-144935000D01*
X128621335Y-144935000D01*
X128898574Y-144879853D01*
X129159727Y-144771680D01*
X129394759Y-144614637D01*
X129594637Y-144414759D01*
X129750000Y-144182241D01*
X129905363Y-144414759D01*
X130105241Y-144614637D01*
X130340273Y-144771680D01*
X130601426Y-144879853D01*
X130878665Y-144935000D01*
X131161335Y-144935000D01*
X131438574Y-144879853D01*
X131699727Y-144771680D01*
X131934759Y-144614637D01*
X132134637Y-144414759D01*
X132290000Y-144182241D01*
X132445363Y-144414759D01*
X132645241Y-144614637D01*
X132880273Y-144771680D01*
X133141426Y-144879853D01*
X133418665Y-144935000D01*
X133701335Y-144935000D01*
X133978574Y-144879853D01*
X134239727Y-144771680D01*
X134474759Y-144614637D01*
X134674637Y-144414759D01*
X134831680Y-144179727D01*
X134939853Y-143918574D01*
X134995000Y-143641335D01*
X134995000Y-143358665D01*
X134939853Y-143081426D01*
X134831680Y-142820273D01*
X134674637Y-142585241D01*
X134474759Y-142385363D01*
X134239727Y-142228320D01*
X133978574Y-142120147D01*
X133701335Y-142065000D01*
X133418665Y-142065000D01*
X133236114Y-142101312D01*
X125503804Y-134369003D01*
X125480001Y-134339999D01*
X125364276Y-134245026D01*
X125232247Y-134174454D01*
X125088986Y-134130997D01*
X124977333Y-134120000D01*
X124977322Y-134120000D01*
X124940000Y-134116324D01*
X124902678Y-134120000D01*
X89172341Y-134120000D01*
X89085120Y-133989465D01*
X88890535Y-133794880D01*
X88687095Y-133658945D01*
X89086040Y-133260000D01*
X129282678Y-133260000D01*
X129320000Y-133263676D01*
X129357322Y-133260000D01*
X129357333Y-133260000D01*
X129468986Y-133249003D01*
X129612247Y-133205546D01*
X129744276Y-133134974D01*
X129860001Y-133040001D01*
X129883804Y-133010997D01*
X133236114Y-129658688D01*
X133418665Y-129695000D01*
X133701335Y-129695000D01*
X133978574Y-129639853D01*
X134239727Y-129531680D01*
X134474759Y-129374637D01*
X134674637Y-129174759D01*
X134831680Y-128939727D01*
X134939853Y-128678574D01*
X134995000Y-128401335D01*
X134995000Y-128118665D01*
X134939853Y-127841426D01*
X134831680Y-127580273D01*
X134674637Y-127345241D01*
X134474759Y-127145363D01*
X134239727Y-126988320D01*
X133978574Y-126880147D01*
X133701335Y-126825000D01*
X133418665Y-126825000D01*
X133141426Y-126880147D01*
X132880273Y-126988320D01*
X132645241Y-127145363D01*
X132445363Y-127345241D01*
X132290000Y-127577759D01*
X132134637Y-127345241D01*
X131934759Y-127145363D01*
X131699727Y-126988320D01*
X131438574Y-126880147D01*
X131161335Y-126825000D01*
X130878665Y-126825000D01*
X130601426Y-126880147D01*
X130340273Y-126988320D01*
X130105241Y-127145363D01*
X129905363Y-127345241D01*
X129750000Y-127577759D01*
X129594637Y-127345241D01*
X129394759Y-127145363D01*
X129159727Y-126988320D01*
X128898574Y-126880147D01*
X128621335Y-126825000D01*
X128338665Y-126825000D01*
X128061426Y-126880147D01*
X127800273Y-126988320D01*
X127565241Y-127145363D01*
X127365363Y-127345241D01*
X127210000Y-127577759D01*
X127054637Y-127345241D01*
X126854759Y-127145363D01*
X126619727Y-126988320D01*
X126358574Y-126880147D01*
X126081335Y-126825000D01*
X125798665Y-126825000D01*
X125521426Y-126880147D01*
X125260273Y-126988320D01*
X125025241Y-127145363D01*
X124825363Y-127345241D01*
X124670000Y-127577759D01*
X124514637Y-127345241D01*
X124314759Y-127145363D01*
X124160000Y-127041957D01*
X124160000Y-117253889D01*
X124198815Y-117301185D01*
X124295506Y-117380537D01*
X124405820Y-117439502D01*
X124525518Y-117475812D01*
X124650000Y-117488072D01*
X125214250Y-117485000D01*
X125373000Y-117326250D01*
X125373000Y-116127000D01*
X125353000Y-116127000D01*
X125353000Y-115873000D01*
X125373000Y-115873000D01*
X125373000Y-114673750D01*
X125214250Y-114515000D01*
X124650000Y-114511928D01*
X124525518Y-114524188D01*
X124405820Y-114560498D01*
X124295506Y-114619463D01*
X124198815Y-114698815D01*
X124160000Y-114746111D01*
X124160000Y-104414801D01*
X124235834Y-104338967D01*
X130365000Y-104338967D01*
X130365000Y-104661033D01*
X130427832Y-104976912D01*
X130551082Y-105274463D01*
X130730013Y-105542252D01*
X130957748Y-105769987D01*
X131225537Y-105948918D01*
X131523088Y-106072168D01*
X131838967Y-106135000D01*
X132161033Y-106135000D01*
X132476912Y-106072168D01*
X132774463Y-105948918D01*
X133042252Y-105769987D01*
X133269987Y-105542252D01*
X133448918Y-105274463D01*
X133572168Y-104976912D01*
X133635000Y-104661033D01*
X133635000Y-104338967D01*
X136865000Y-104338967D01*
X136865000Y-104661033D01*
X136927832Y-104976912D01*
X137051082Y-105274463D01*
X137230013Y-105542252D01*
X137457748Y-105769987D01*
X137725537Y-105948918D01*
X138023088Y-106072168D01*
X138338967Y-106135000D01*
X138661033Y-106135000D01*
X138976912Y-106072168D01*
X139274463Y-105948918D01*
X139542252Y-105769987D01*
X139769987Y-105542252D01*
X139948918Y-105274463D01*
X140072168Y-104976912D01*
X140135000Y-104661033D01*
X140135000Y-104338967D01*
X140072168Y-104023088D01*
X139948918Y-103725537D01*
X139769987Y-103457748D01*
X139542252Y-103230013D01*
X139274463Y-103051082D01*
X138976912Y-102927832D01*
X138661033Y-102865000D01*
X138338967Y-102865000D01*
X138023088Y-102927832D01*
X137725537Y-103051082D01*
X137457748Y-103230013D01*
X137230013Y-103457748D01*
X137051082Y-103725537D01*
X136927832Y-104023088D01*
X136865000Y-104338967D01*
X133635000Y-104338967D01*
X133572168Y-104023088D01*
X133448918Y-103725537D01*
X133269987Y-103457748D01*
X133042252Y-103230013D01*
X132774463Y-103051082D01*
X132476912Y-102927832D01*
X132161033Y-102865000D01*
X131838967Y-102865000D01*
X131523088Y-102927832D01*
X131225537Y-103051082D01*
X130957748Y-103230013D01*
X130730013Y-103457748D01*
X130551082Y-103725537D01*
X130427832Y-104023088D01*
X130365000Y-104338967D01*
X124235834Y-104338967D01*
X127439388Y-101135413D01*
X131044192Y-101135413D01*
X131139956Y-101399814D01*
X131429571Y-101540704D01*
X131741108Y-101622384D01*
X132062595Y-101641718D01*
X132381675Y-101597961D01*
X132686088Y-101492795D01*
X132860044Y-101399814D01*
X132955808Y-101135413D01*
X137544192Y-101135413D01*
X137639956Y-101399814D01*
X137929571Y-101540704D01*
X138241108Y-101622384D01*
X138562595Y-101641718D01*
X138881675Y-101597961D01*
X139186088Y-101492795D01*
X139360044Y-101399814D01*
X139455808Y-101135413D01*
X138500000Y-100179605D01*
X137544192Y-101135413D01*
X132955808Y-101135413D01*
X132000000Y-100179605D01*
X131044192Y-101135413D01*
X127439388Y-101135413D01*
X128512206Y-100062595D01*
X130358282Y-100062595D01*
X130402039Y-100381675D01*
X130507205Y-100686088D01*
X130600186Y-100860044D01*
X130864587Y-100955808D01*
X131820395Y-100000000D01*
X132179605Y-100000000D01*
X133135413Y-100955808D01*
X133399814Y-100860044D01*
X133540704Y-100570429D01*
X133622384Y-100258892D01*
X133634189Y-100062595D01*
X136858282Y-100062595D01*
X136902039Y-100381675D01*
X137007205Y-100686088D01*
X137100186Y-100860044D01*
X137364587Y-100955808D01*
X138320395Y-100000000D01*
X138679605Y-100000000D01*
X139635413Y-100955808D01*
X139899814Y-100860044D01*
X140040704Y-100570429D01*
X140122384Y-100258892D01*
X140141718Y-99937405D01*
X140097961Y-99618325D01*
X139992795Y-99313912D01*
X139899814Y-99139956D01*
X139635413Y-99044192D01*
X138679605Y-100000000D01*
X138320395Y-100000000D01*
X137364587Y-99044192D01*
X137100186Y-99139956D01*
X136959296Y-99429571D01*
X136877616Y-99741108D01*
X136858282Y-100062595D01*
X133634189Y-100062595D01*
X133641718Y-99937405D01*
X133597961Y-99618325D01*
X133492795Y-99313912D01*
X133399814Y-99139956D01*
X133135413Y-99044192D01*
X132179605Y-100000000D01*
X131820395Y-100000000D01*
X130864587Y-99044192D01*
X130600186Y-99139956D01*
X130459296Y-99429571D01*
X130377616Y-99741108D01*
X130358282Y-100062595D01*
X128512206Y-100062595D01*
X129710214Y-98864587D01*
X131044192Y-98864587D01*
X132000000Y-99820395D01*
X132955808Y-98864587D01*
X137544192Y-98864587D01*
X138500000Y-99820395D01*
X139455808Y-98864587D01*
X139360044Y-98600186D01*
X139070429Y-98459296D01*
X138758892Y-98377616D01*
X138437405Y-98358282D01*
X138118325Y-98402039D01*
X137813912Y-98507205D01*
X137639956Y-98600186D01*
X137544192Y-98864587D01*
X132955808Y-98864587D01*
X132860044Y-98600186D01*
X132570429Y-98459296D01*
X132258892Y-98377616D01*
X131937405Y-98358282D01*
X131618325Y-98402039D01*
X131313912Y-98507205D01*
X131139956Y-98600186D01*
X131044192Y-98864587D01*
X129710214Y-98864587D01*
X137676114Y-90898688D01*
X137858665Y-90935000D01*
X138141335Y-90935000D01*
X138418574Y-90879853D01*
X138679727Y-90771680D01*
X138914759Y-90614637D01*
X139114637Y-90414759D01*
X139271680Y-90179727D01*
X139379853Y-89918574D01*
X139435000Y-89641335D01*
X139435000Y-89358665D01*
X139379853Y-89081426D01*
X139271680Y-88820273D01*
X139114637Y-88585241D01*
X138914759Y-88385363D01*
X138679727Y-88228320D01*
X138418574Y-88120147D01*
X138141335Y-88065000D01*
X137858665Y-88065000D01*
X137581426Y-88120147D01*
X137320273Y-88228320D01*
X137085241Y-88385363D01*
X136885363Y-88585241D01*
X136728320Y-88820273D01*
X136620147Y-89081426D01*
X136565000Y-89358665D01*
X136565000Y-89641335D01*
X136601312Y-89823886D01*
X122889003Y-103536196D01*
X122859999Y-103559999D01*
X122804871Y-103627174D01*
X122765026Y-103675724D01*
X122694455Y-103807753D01*
X122694454Y-103807754D01*
X122650997Y-103951015D01*
X122640000Y-104062668D01*
X122640000Y-104062678D01*
X122636324Y-104100000D01*
X122640000Y-104137322D01*
X122640001Y-127041956D01*
X122485241Y-127145363D01*
X122285363Y-127345241D01*
X122130000Y-127577759D01*
X121974637Y-127345241D01*
X121774759Y-127145363D01*
X121620000Y-127041957D01*
X121620000Y-96897323D01*
X121623676Y-96860000D01*
X121620000Y-96822677D01*
X121620000Y-96822667D01*
X121609003Y-96711014D01*
X121565546Y-96567753D01*
X121494974Y-96435724D01*
X121400001Y-96319999D01*
X121371004Y-96296202D01*
X114898688Y-89823887D01*
X114935000Y-89641335D01*
X114935000Y-89358665D01*
X114879853Y-89081426D01*
X114771680Y-88820273D01*
X114614637Y-88585241D01*
X114414759Y-88385363D01*
X114179727Y-88228320D01*
X113918574Y-88120147D01*
X113641335Y-88065000D01*
X113358665Y-88065000D01*
X113081426Y-88120147D01*
X112820273Y-88228320D01*
X112585241Y-88385363D01*
X112385363Y-88585241D01*
X112228320Y-88820273D01*
X112120147Y-89081426D01*
X112065000Y-89358665D01*
X112065000Y-89641335D01*
X112120147Y-89918574D01*
X112228320Y-90179727D01*
X112385363Y-90414759D01*
X112585241Y-90614637D01*
X112820273Y-90771680D01*
X113081426Y-90879853D01*
X113358665Y-90935000D01*
X113641335Y-90935000D01*
X113823887Y-90898688D01*
X120100000Y-97174802D01*
X120100001Y-127041956D01*
X119945241Y-127145363D01*
X119745363Y-127345241D01*
X119590000Y-127577759D01*
X119434637Y-127345241D01*
X119234759Y-127145363D01*
X119080000Y-127041957D01*
X119080000Y-118857325D01*
X119083676Y-118820000D01*
X119080000Y-118782675D01*
X119080000Y-118782667D01*
X119069003Y-118671014D01*
X119025546Y-118527753D01*
X118954974Y-118395724D01*
X118860001Y-118279999D01*
X118831004Y-118256202D01*
X104913769Y-104338967D01*
X108865000Y-104338967D01*
X108865000Y-104661033D01*
X108927832Y-104976912D01*
X109051082Y-105274463D01*
X109230013Y-105542252D01*
X109457748Y-105769987D01*
X109725537Y-105948918D01*
X110023088Y-106072168D01*
X110338967Y-106135000D01*
X110661033Y-106135000D01*
X110976912Y-106072168D01*
X111274463Y-105948918D01*
X111542252Y-105769987D01*
X111769987Y-105542252D01*
X111948918Y-105274463D01*
X112072168Y-104976912D01*
X112135000Y-104661033D01*
X112135000Y-104338967D01*
X115365000Y-104338967D01*
X115365000Y-104661033D01*
X115427832Y-104976912D01*
X115551082Y-105274463D01*
X115730013Y-105542252D01*
X115957748Y-105769987D01*
X116225537Y-105948918D01*
X116523088Y-106072168D01*
X116838967Y-106135000D01*
X117161033Y-106135000D01*
X117476912Y-106072168D01*
X117774463Y-105948918D01*
X118042252Y-105769987D01*
X118269987Y-105542252D01*
X118448918Y-105274463D01*
X118572168Y-104976912D01*
X118635000Y-104661033D01*
X118635000Y-104338967D01*
X118572168Y-104023088D01*
X118448918Y-103725537D01*
X118269987Y-103457748D01*
X118042252Y-103230013D01*
X117774463Y-103051082D01*
X117476912Y-102927832D01*
X117161033Y-102865000D01*
X116838967Y-102865000D01*
X116523088Y-102927832D01*
X116225537Y-103051082D01*
X115957748Y-103230013D01*
X115730013Y-103457748D01*
X115551082Y-103725537D01*
X115427832Y-104023088D01*
X115365000Y-104338967D01*
X112135000Y-104338967D01*
X112072168Y-104023088D01*
X111948918Y-103725537D01*
X111769987Y-103457748D01*
X111542252Y-103230013D01*
X111274463Y-103051082D01*
X110976912Y-102927832D01*
X110661033Y-102865000D01*
X110338967Y-102865000D01*
X110023088Y-102927832D01*
X109725537Y-103051082D01*
X109457748Y-103230013D01*
X109230013Y-103457748D01*
X109051082Y-103725537D01*
X108927832Y-104023088D01*
X108865000Y-104338967D01*
X104913769Y-104338967D01*
X101710215Y-101135413D01*
X109544192Y-101135413D01*
X109639956Y-101399814D01*
X109929571Y-101540704D01*
X110241108Y-101622384D01*
X110562595Y-101641718D01*
X110881675Y-101597961D01*
X111186088Y-101492795D01*
X111360044Y-101399814D01*
X111455808Y-101135413D01*
X116044192Y-101135413D01*
X116139956Y-101399814D01*
X116429571Y-101540704D01*
X116741108Y-101622384D01*
X117062595Y-101641718D01*
X117381675Y-101597961D01*
X117686088Y-101492795D01*
X117860044Y-101399814D01*
X117955808Y-101135413D01*
X117000000Y-100179605D01*
X116044192Y-101135413D01*
X111455808Y-101135413D01*
X110500000Y-100179605D01*
X109544192Y-101135413D01*
X101710215Y-101135413D01*
X100637397Y-100062595D01*
X108858282Y-100062595D01*
X108902039Y-100381675D01*
X109007205Y-100686088D01*
X109100186Y-100860044D01*
X109364587Y-100955808D01*
X110320395Y-100000000D01*
X110679605Y-100000000D01*
X111635413Y-100955808D01*
X111899814Y-100860044D01*
X112040704Y-100570429D01*
X112122384Y-100258892D01*
X112134189Y-100062595D01*
X115358282Y-100062595D01*
X115402039Y-100381675D01*
X115507205Y-100686088D01*
X115600186Y-100860044D01*
X115864587Y-100955808D01*
X116820395Y-100000000D01*
X117179605Y-100000000D01*
X118135413Y-100955808D01*
X118399814Y-100860044D01*
X118540704Y-100570429D01*
X118622384Y-100258892D01*
X118641718Y-99937405D01*
X118597961Y-99618325D01*
X118492795Y-99313912D01*
X118399814Y-99139956D01*
X118135413Y-99044192D01*
X117179605Y-100000000D01*
X116820395Y-100000000D01*
X115864587Y-99044192D01*
X115600186Y-99139956D01*
X115459296Y-99429571D01*
X115377616Y-99741108D01*
X115358282Y-100062595D01*
X112134189Y-100062595D01*
X112141718Y-99937405D01*
X112097961Y-99618325D01*
X111992795Y-99313912D01*
X111899814Y-99139956D01*
X111635413Y-99044192D01*
X110679605Y-100000000D01*
X110320395Y-100000000D01*
X109364587Y-99044192D01*
X109100186Y-99139956D01*
X108959296Y-99429571D01*
X108877616Y-99741108D01*
X108858282Y-100062595D01*
X100637397Y-100062595D01*
X99439389Y-98864587D01*
X109544192Y-98864587D01*
X110500000Y-99820395D01*
X111455808Y-98864587D01*
X116044192Y-98864587D01*
X117000000Y-99820395D01*
X117955808Y-98864587D01*
X117860044Y-98600186D01*
X117570429Y-98459296D01*
X117258892Y-98377616D01*
X116937405Y-98358282D01*
X116618325Y-98402039D01*
X116313912Y-98507205D01*
X116139956Y-98600186D01*
X116044192Y-98864587D01*
X111455808Y-98864587D01*
X111360044Y-98600186D01*
X111070429Y-98459296D01*
X110758892Y-98377616D01*
X110437405Y-98358282D01*
X110118325Y-98402039D01*
X109813912Y-98507205D01*
X109639956Y-98600186D01*
X109544192Y-98864587D01*
X99439389Y-98864587D01*
X90398688Y-89823887D01*
X90435000Y-89641335D01*
X90435000Y-89358665D01*
X90379853Y-89081426D01*
X90271680Y-88820273D01*
X90114637Y-88585241D01*
X89914759Y-88385363D01*
X89679727Y-88228320D01*
X89418574Y-88120147D01*
X89141335Y-88065000D01*
X88858665Y-88065000D01*
X88581426Y-88120147D01*
X88320273Y-88228320D01*
X88085241Y-88385363D01*
X87885363Y-88585241D01*
X87728320Y-88820273D01*
X87620147Y-89081426D01*
X87565000Y-89358665D01*
X87565000Y-89641335D01*
X87620147Y-89918574D01*
X87728320Y-90179727D01*
X87885363Y-90414759D01*
X88085241Y-90614637D01*
X88320273Y-90771680D01*
X88581426Y-90879853D01*
X88858665Y-90935000D01*
X89141335Y-90935000D01*
X89323887Y-90898688D01*
X117560000Y-119134802D01*
X117560001Y-127041956D01*
X117405241Y-127145363D01*
X117205363Y-127345241D01*
X117050000Y-127577759D01*
X116894637Y-127345241D01*
X116694759Y-127145363D01*
X116540000Y-127041957D01*
X116540000Y-120817322D01*
X116543676Y-120779999D01*
X116540000Y-120742676D01*
X116540000Y-120742667D01*
X116529003Y-120631014D01*
X116485546Y-120487753D01*
X116414974Y-120355724D01*
X116320001Y-120239999D01*
X116291004Y-120216202D01*
X85063804Y-88989003D01*
X85040001Y-88959999D01*
X84924276Y-88865026D01*
X84792247Y-88794454D01*
X84648986Y-88750997D01*
X84537333Y-88740000D01*
X84537322Y-88740000D01*
X84500000Y-88736324D01*
X84462678Y-88740000D01*
X65718043Y-88740000D01*
X65614637Y-88585241D01*
X65414759Y-88385363D01*
X65179727Y-88228320D01*
X64918574Y-88120147D01*
X64641335Y-88065000D01*
X64358665Y-88065000D01*
X64081426Y-88120147D01*
X63820273Y-88228320D01*
X63585241Y-88385363D01*
X63385363Y-88585241D01*
X63228320Y-88820273D01*
X63120147Y-89081426D01*
X63065000Y-89358665D01*
X55660000Y-89358665D01*
X55660000Y-74400000D01*
X60461928Y-74400000D01*
X60474188Y-74524482D01*
X60510498Y-74644180D01*
X60569463Y-74754494D01*
X60648815Y-74851185D01*
X60745506Y-74930537D01*
X60855820Y-74989502D01*
X60975518Y-75025812D01*
X61100000Y-75038072D01*
X61714250Y-75035000D01*
X61873000Y-74876250D01*
X61873000Y-73627000D01*
X60623750Y-73627000D01*
X60465000Y-73785750D01*
X60461928Y-74400000D01*
X55660000Y-74400000D01*
X55660000Y-72600000D01*
X60461928Y-72600000D01*
X60465000Y-73214250D01*
X60623750Y-73373000D01*
X61873000Y-73373000D01*
X61873000Y-72123750D01*
X62127000Y-72123750D01*
X62127000Y-73373000D01*
X62147000Y-73373000D01*
X62147000Y-73627000D01*
X62127000Y-73627000D01*
X62127000Y-74876250D01*
X62285750Y-75035000D01*
X62900000Y-75038072D01*
X63024482Y-75025812D01*
X63144180Y-74989502D01*
X63254494Y-74930537D01*
X63351185Y-74851185D01*
X63430537Y-74754494D01*
X63489502Y-74644180D01*
X63495056Y-74625873D01*
X63561495Y-74692312D01*
X63740001Y-74811586D01*
X63740000Y-80661956D01*
X63585241Y-80765363D01*
X63385363Y-80965241D01*
X63228320Y-81200273D01*
X63120147Y-81461426D01*
X63065000Y-81738665D01*
X63065000Y-82021335D01*
X63120147Y-82298574D01*
X63228320Y-82559727D01*
X63385363Y-82794759D01*
X63585241Y-82994637D01*
X63820273Y-83151680D01*
X64081426Y-83259853D01*
X64358665Y-83315000D01*
X64641335Y-83315000D01*
X64918574Y-83259853D01*
X65179727Y-83151680D01*
X65414759Y-82994637D01*
X65614637Y-82794759D01*
X65771680Y-82559727D01*
X65879853Y-82298574D01*
X65935000Y-82021335D01*
X65935000Y-81738665D01*
X65879853Y-81461426D01*
X65771680Y-81200273D01*
X65614637Y-80965241D01*
X65414759Y-80765363D01*
X65260000Y-80661957D01*
X65260000Y-74863238D01*
X65267095Y-74860299D01*
X65518505Y-74692312D01*
X65732312Y-74478505D01*
X65784767Y-74400000D01*
X84961928Y-74400000D01*
X84974188Y-74524482D01*
X85010498Y-74644180D01*
X85069463Y-74754494D01*
X85148815Y-74851185D01*
X85245506Y-74930537D01*
X85355820Y-74989502D01*
X85475518Y-75025812D01*
X85600000Y-75038072D01*
X86214250Y-75035000D01*
X86373000Y-74876250D01*
X86373000Y-73627000D01*
X85123750Y-73627000D01*
X84965000Y-73785750D01*
X84961928Y-74400000D01*
X65784767Y-74400000D01*
X65900299Y-74227095D01*
X66016011Y-73947743D01*
X66075000Y-73651184D01*
X66075000Y-73348816D01*
X66016011Y-73052257D01*
X65900299Y-72772905D01*
X65784768Y-72600000D01*
X84961928Y-72600000D01*
X84965000Y-73214250D01*
X85123750Y-73373000D01*
X86373000Y-73373000D01*
X86373000Y-72123750D01*
X86627000Y-72123750D01*
X86627000Y-73373000D01*
X86647000Y-73373000D01*
X86647000Y-73627000D01*
X86627000Y-73627000D01*
X86627000Y-74876250D01*
X86785750Y-75035000D01*
X87400000Y-75038072D01*
X87524482Y-75025812D01*
X87644180Y-74989502D01*
X87754494Y-74930537D01*
X87851185Y-74851185D01*
X87930537Y-74754494D01*
X87989502Y-74644180D01*
X87995056Y-74625873D01*
X88061495Y-74692312D01*
X88240001Y-74811586D01*
X88240000Y-80661956D01*
X88085241Y-80765363D01*
X87885363Y-80965241D01*
X87728320Y-81200273D01*
X87620147Y-81461426D01*
X87565000Y-81738665D01*
X87565000Y-82021335D01*
X87620147Y-82298574D01*
X87728320Y-82559727D01*
X87885363Y-82794759D01*
X88085241Y-82994637D01*
X88320273Y-83151680D01*
X88581426Y-83259853D01*
X88858665Y-83315000D01*
X89141335Y-83315000D01*
X89418574Y-83259853D01*
X89679727Y-83151680D01*
X89914759Y-82994637D01*
X90114637Y-82794759D01*
X90271680Y-82559727D01*
X90379853Y-82298574D01*
X90435000Y-82021335D01*
X90435000Y-81738665D01*
X90379853Y-81461426D01*
X90271680Y-81200273D01*
X90114637Y-80965241D01*
X89914759Y-80765363D01*
X89760000Y-80661957D01*
X89760000Y-74863238D01*
X89767095Y-74860299D01*
X90018505Y-74692312D01*
X90232312Y-74478505D01*
X90284767Y-74400000D01*
X109461928Y-74400000D01*
X109474188Y-74524482D01*
X109510498Y-74644180D01*
X109569463Y-74754494D01*
X109648815Y-74851185D01*
X109745506Y-74930537D01*
X109855820Y-74989502D01*
X109975518Y-75025812D01*
X110100000Y-75038072D01*
X110714250Y-75035000D01*
X110873000Y-74876250D01*
X110873000Y-73627000D01*
X109623750Y-73627000D01*
X109465000Y-73785750D01*
X109461928Y-74400000D01*
X90284767Y-74400000D01*
X90400299Y-74227095D01*
X90516011Y-73947743D01*
X90575000Y-73651184D01*
X90575000Y-73348816D01*
X90516011Y-73052257D01*
X90400299Y-72772905D01*
X90284768Y-72600000D01*
X109461928Y-72600000D01*
X109465000Y-73214250D01*
X109623750Y-73373000D01*
X110873000Y-73373000D01*
X110873000Y-72123750D01*
X111127000Y-72123750D01*
X111127000Y-73373000D01*
X111147000Y-73373000D01*
X111147000Y-73627000D01*
X111127000Y-73627000D01*
X111127000Y-74876250D01*
X111285750Y-75035000D01*
X111900000Y-75038072D01*
X112024482Y-75025812D01*
X112144180Y-74989502D01*
X112254494Y-74930537D01*
X112351185Y-74851185D01*
X112430537Y-74754494D01*
X112489502Y-74644180D01*
X112495056Y-74625873D01*
X112561495Y-74692312D01*
X112740001Y-74811586D01*
X112740000Y-80661956D01*
X112585241Y-80765363D01*
X112385363Y-80965241D01*
X112228320Y-81200273D01*
X112120147Y-81461426D01*
X112065000Y-81738665D01*
X112065000Y-82021335D01*
X112120147Y-82298574D01*
X112228320Y-82559727D01*
X112385363Y-82794759D01*
X112585241Y-82994637D01*
X112820273Y-83151680D01*
X113081426Y-83259853D01*
X113358665Y-83315000D01*
X113641335Y-83315000D01*
X113918574Y-83259853D01*
X114179727Y-83151680D01*
X114414759Y-82994637D01*
X114614637Y-82794759D01*
X114771680Y-82559727D01*
X114879853Y-82298574D01*
X114935000Y-82021335D01*
X114935000Y-81738665D01*
X114879853Y-81461426D01*
X114771680Y-81200273D01*
X114614637Y-80965241D01*
X114414759Y-80765363D01*
X114260000Y-80661957D01*
X114260000Y-74863238D01*
X114267095Y-74860299D01*
X114518505Y-74692312D01*
X114732312Y-74478505D01*
X114784767Y-74400000D01*
X133961928Y-74400000D01*
X133974188Y-74524482D01*
X134010498Y-74644180D01*
X134069463Y-74754494D01*
X134148815Y-74851185D01*
X134245506Y-74930537D01*
X134355820Y-74989502D01*
X134475518Y-75025812D01*
X134600000Y-75038072D01*
X135214250Y-75035000D01*
X135373000Y-74876250D01*
X135373000Y-73627000D01*
X134123750Y-73627000D01*
X133965000Y-73785750D01*
X133961928Y-74400000D01*
X114784767Y-74400000D01*
X114900299Y-74227095D01*
X115016011Y-73947743D01*
X115075000Y-73651184D01*
X115075000Y-73348816D01*
X115016011Y-73052257D01*
X114900299Y-72772905D01*
X114784768Y-72600000D01*
X133961928Y-72600000D01*
X133965000Y-73214250D01*
X134123750Y-73373000D01*
X135373000Y-73373000D01*
X135373000Y-72123750D01*
X135627000Y-72123750D01*
X135627000Y-73373000D01*
X135647000Y-73373000D01*
X135647000Y-73627000D01*
X135627000Y-73627000D01*
X135627000Y-74876250D01*
X135785750Y-75035000D01*
X136400000Y-75038072D01*
X136524482Y-75025812D01*
X136644180Y-74989502D01*
X136754494Y-74930537D01*
X136851185Y-74851185D01*
X136930537Y-74754494D01*
X136989502Y-74644180D01*
X136995056Y-74625873D01*
X137061495Y-74692312D01*
X137240001Y-74811586D01*
X137240000Y-80661956D01*
X137085241Y-80765363D01*
X136885363Y-80965241D01*
X136728320Y-81200273D01*
X136620147Y-81461426D01*
X136565000Y-81738665D01*
X136565000Y-82021335D01*
X136620147Y-82298574D01*
X136728320Y-82559727D01*
X136885363Y-82794759D01*
X137085241Y-82994637D01*
X137320273Y-83151680D01*
X137581426Y-83259853D01*
X137858665Y-83315000D01*
X138141335Y-83315000D01*
X138418574Y-83259853D01*
X138679727Y-83151680D01*
X138914759Y-82994637D01*
X139114637Y-82794759D01*
X139271680Y-82559727D01*
X139379853Y-82298574D01*
X139435000Y-82021335D01*
X139435000Y-81738665D01*
X139379853Y-81461426D01*
X139271680Y-81200273D01*
X139114637Y-80965241D01*
X138914759Y-80765363D01*
X138760000Y-80661957D01*
X138760000Y-74863238D01*
X138767095Y-74860299D01*
X139018505Y-74692312D01*
X139232312Y-74478505D01*
X139400299Y-74227095D01*
X139516011Y-73947743D01*
X139575000Y-73651184D01*
X139575000Y-73348816D01*
X139516011Y-73052257D01*
X139400299Y-72772905D01*
X139232312Y-72521495D01*
X139018505Y-72307688D01*
X138767095Y-72139701D01*
X138487743Y-72023989D01*
X138191184Y-71965000D01*
X137888816Y-71965000D01*
X137592257Y-72023989D01*
X137312905Y-72139701D01*
X137061495Y-72307688D01*
X136995056Y-72374127D01*
X136989502Y-72355820D01*
X136930537Y-72245506D01*
X136851185Y-72148815D01*
X136754494Y-72069463D01*
X136644180Y-72010498D01*
X136524482Y-71974188D01*
X136400000Y-71961928D01*
X135785750Y-71965000D01*
X135627000Y-72123750D01*
X135373000Y-72123750D01*
X135214250Y-71965000D01*
X134600000Y-71961928D01*
X134475518Y-71974188D01*
X134355820Y-72010498D01*
X134245506Y-72069463D01*
X134148815Y-72148815D01*
X134069463Y-72245506D01*
X134010498Y-72355820D01*
X133974188Y-72475518D01*
X133961928Y-72600000D01*
X114784768Y-72600000D01*
X114732312Y-72521495D01*
X114518505Y-72307688D01*
X114267095Y-72139701D01*
X113987743Y-72023989D01*
X113691184Y-71965000D01*
X113388816Y-71965000D01*
X113092257Y-72023989D01*
X112812905Y-72139701D01*
X112561495Y-72307688D01*
X112495056Y-72374127D01*
X112489502Y-72355820D01*
X112430537Y-72245506D01*
X112351185Y-72148815D01*
X112254494Y-72069463D01*
X112144180Y-72010498D01*
X112024482Y-71974188D01*
X111900000Y-71961928D01*
X111285750Y-71965000D01*
X111127000Y-72123750D01*
X110873000Y-72123750D01*
X110714250Y-71965000D01*
X110100000Y-71961928D01*
X109975518Y-71974188D01*
X109855820Y-72010498D01*
X109745506Y-72069463D01*
X109648815Y-72148815D01*
X109569463Y-72245506D01*
X109510498Y-72355820D01*
X109474188Y-72475518D01*
X109461928Y-72600000D01*
X90284768Y-72600000D01*
X90232312Y-72521495D01*
X90018505Y-72307688D01*
X89767095Y-72139701D01*
X89487743Y-72023989D01*
X89191184Y-71965000D01*
X88888816Y-71965000D01*
X88592257Y-72023989D01*
X88312905Y-72139701D01*
X88061495Y-72307688D01*
X87995056Y-72374127D01*
X87989502Y-72355820D01*
X87930537Y-72245506D01*
X87851185Y-72148815D01*
X87754494Y-72069463D01*
X87644180Y-72010498D01*
X87524482Y-71974188D01*
X87400000Y-71961928D01*
X86785750Y-71965000D01*
X86627000Y-72123750D01*
X86373000Y-72123750D01*
X86214250Y-71965000D01*
X85600000Y-71961928D01*
X85475518Y-71974188D01*
X85355820Y-72010498D01*
X85245506Y-72069463D01*
X85148815Y-72148815D01*
X85069463Y-72245506D01*
X85010498Y-72355820D01*
X84974188Y-72475518D01*
X84961928Y-72600000D01*
X65784768Y-72600000D01*
X65732312Y-72521495D01*
X65518505Y-72307688D01*
X65267095Y-72139701D01*
X64987743Y-72023989D01*
X64691184Y-71965000D01*
X64388816Y-71965000D01*
X64092257Y-72023989D01*
X63812905Y-72139701D01*
X63561495Y-72307688D01*
X63495056Y-72374127D01*
X63489502Y-72355820D01*
X63430537Y-72245506D01*
X63351185Y-72148815D01*
X63254494Y-72069463D01*
X63144180Y-72010498D01*
X63024482Y-71974188D01*
X62900000Y-71961928D01*
X62285750Y-71965000D01*
X62127000Y-72123750D01*
X61873000Y-72123750D01*
X61714250Y-71965000D01*
X61100000Y-71961928D01*
X60975518Y-71974188D01*
X60855820Y-72010498D01*
X60745506Y-72069463D01*
X60648815Y-72148815D01*
X60569463Y-72245506D01*
X60510498Y-72355820D01*
X60474188Y-72475518D01*
X60461928Y-72600000D01*
X55660000Y-72600000D01*
X55660000Y-67829117D01*
X56265000Y-67829117D01*
X56265000Y-68170883D01*
X56331675Y-68506081D01*
X56462463Y-68821831D01*
X56652337Y-69105998D01*
X56894002Y-69347663D01*
X57178169Y-69537537D01*
X57493919Y-69668325D01*
X57829117Y-69735000D01*
X58170883Y-69735000D01*
X58506081Y-69668325D01*
X58821831Y-69537537D01*
X59105998Y-69347663D01*
X59347663Y-69105998D01*
X59537537Y-68821831D01*
X59668325Y-68506081D01*
X59735000Y-68170883D01*
X59735000Y-67829117D01*
X140265000Y-67829117D01*
X140265000Y-68170883D01*
X140331675Y-68506081D01*
X140462463Y-68821831D01*
X140652337Y-69105998D01*
X140894002Y-69347663D01*
X141178169Y-69537537D01*
X141493919Y-69668325D01*
X141829117Y-69735000D01*
X142170883Y-69735000D01*
X142506081Y-69668325D01*
X142821831Y-69537537D01*
X143105998Y-69347663D01*
X143347663Y-69105998D01*
X143537537Y-68821831D01*
X143668325Y-68506081D01*
X143735000Y-68170883D01*
X143735000Y-67829117D01*
X143668325Y-67493919D01*
X143537537Y-67178169D01*
X143347663Y-66894002D01*
X143105998Y-66652337D01*
X142821831Y-66462463D01*
X142506081Y-66331675D01*
X142170883Y-66265000D01*
X141829117Y-66265000D01*
X141493919Y-66331675D01*
X141178169Y-66462463D01*
X140894002Y-66652337D01*
X140652337Y-66894002D01*
X140462463Y-67178169D01*
X140331675Y-67493919D01*
X140265000Y-67829117D01*
X59735000Y-67829117D01*
X59668325Y-67493919D01*
X59537537Y-67178169D01*
X59347663Y-66894002D01*
X59105998Y-66652337D01*
X58821831Y-66462463D01*
X58506081Y-66331675D01*
X58170883Y-66265000D01*
X57829117Y-66265000D01*
X57493919Y-66331675D01*
X57178169Y-66462463D01*
X56894002Y-66652337D01*
X56652337Y-66894002D01*
X56462463Y-67178169D01*
X56331675Y-67493919D01*
X56265000Y-67829117D01*
X55660000Y-67829117D01*
X55660000Y-65660000D01*
X144340001Y-65660000D01*
X144340000Y-149340000D01*
%TA.AperFunction,Conductor*%
D26*
G36*
X144340000Y-149340000D02*
G01*
X55660000Y-149340000D01*
X55660000Y-146829117D01*
X56265000Y-146829117D01*
X56265000Y-147170883D01*
X56331675Y-147506081D01*
X56462463Y-147821831D01*
X56652337Y-148105998D01*
X56894002Y-148347663D01*
X57178169Y-148537537D01*
X57493919Y-148668325D01*
X57829117Y-148735000D01*
X58170883Y-148735000D01*
X58506081Y-148668325D01*
X58821831Y-148537537D01*
X59105998Y-148347663D01*
X59347663Y-148105998D01*
X59537537Y-147821831D01*
X59668325Y-147506081D01*
X59735000Y-147170883D01*
X59735000Y-146829117D01*
X59668325Y-146493919D01*
X59537537Y-146178169D01*
X59347663Y-145894002D01*
X59105998Y-145652337D01*
X58821831Y-145462463D01*
X58506081Y-145331675D01*
X58170883Y-145265000D01*
X57829117Y-145265000D01*
X57493919Y-145331675D01*
X57178169Y-145462463D01*
X56894002Y-145652337D01*
X56652337Y-145894002D01*
X56462463Y-146178169D01*
X56331675Y-146493919D01*
X56265000Y-146829117D01*
X55660000Y-146829117D01*
X55660000Y-121500000D01*
X61861928Y-121500000D01*
X61861928Y-124500000D01*
X61874188Y-124624482D01*
X61910498Y-124744180D01*
X61969463Y-124854494D01*
X62048815Y-124951185D01*
X62145506Y-125030537D01*
X62255820Y-125089502D01*
X62375518Y-125125812D01*
X62500000Y-125138072D01*
X65500000Y-125138072D01*
X65624482Y-125125812D01*
X65744180Y-125089502D01*
X65854494Y-125030537D01*
X65951185Y-124951185D01*
X66030537Y-124854494D01*
X66089502Y-124744180D01*
X66125812Y-124624482D01*
X66138072Y-124500000D01*
X66138072Y-123760000D01*
X72962678Y-123760000D01*
X73000000Y-123763676D01*
X73037322Y-123760000D01*
X73037333Y-123760000D01*
X73148986Y-123749003D01*
X73292247Y-123705546D01*
X73424276Y-123634974D01*
X73540001Y-123540001D01*
X73563804Y-123510997D01*
X73924565Y-123150236D01*
X84829841Y-123150236D01*
X85500000Y-123820395D01*
X86170159Y-123150236D01*
X86122852Y-122926652D01*
X85901484Y-122825763D01*
X85664687Y-122770000D01*
X85421562Y-122761505D01*
X85181451Y-122800605D01*
X84953582Y-122885798D01*
X84877148Y-122926652D01*
X84829841Y-123150236D01*
X73924565Y-123150236D01*
X74814802Y-122260000D01*
X90925199Y-122260000D01*
X96601312Y-127936114D01*
X96565000Y-128118665D01*
X96565000Y-128401335D01*
X96620147Y-128678574D01*
X96728320Y-128939727D01*
X96885363Y-129174759D01*
X97085241Y-129374637D01*
X97320273Y-129531680D01*
X97581426Y-129639853D01*
X97858665Y-129695000D01*
X98141335Y-129695000D01*
X98418574Y-129639853D01*
X98679727Y-129531680D01*
X98914759Y-129374637D01*
X99114637Y-129174759D01*
X99271680Y-128939727D01*
X99276067Y-128929135D01*
X99387615Y-129115131D01*
X99576586Y-129323519D01*
X99802580Y-129491037D01*
X100056913Y-129611246D01*
X100190961Y-129651904D01*
X100413000Y-129529915D01*
X100413000Y-128387000D01*
X100393000Y-128387000D01*
X100393000Y-128133000D01*
X100413000Y-128133000D01*
X100413000Y-126990085D01*
X100190961Y-126868096D01*
X100056913Y-126908754D01*
X99802580Y-127028963D01*
X99576586Y-127196481D01*
X99387615Y-127404869D01*
X99276067Y-127590865D01*
X99271680Y-127580273D01*
X99114637Y-127345241D01*
X98914759Y-127145363D01*
X98679727Y-126988320D01*
X98418574Y-126880147D01*
X98141335Y-126825000D01*
X97858665Y-126825000D01*
X97676114Y-126861312D01*
X91803804Y-120989003D01*
X91780001Y-120959999D01*
X91664276Y-120865026D01*
X91532247Y-120794454D01*
X91388986Y-120750997D01*
X91277333Y-120740000D01*
X91277322Y-120740000D01*
X91240000Y-120736324D01*
X91202678Y-120740000D01*
X74537322Y-120740000D01*
X74499999Y-120736324D01*
X74462676Y-120740000D01*
X74462667Y-120740000D01*
X74351014Y-120750997D01*
X74207753Y-120794454D01*
X74075724Y-120865026D01*
X73959999Y-120959999D01*
X73936201Y-120988997D01*
X72685199Y-122240000D01*
X66138072Y-122240000D01*
X66138072Y-121500000D01*
X66125812Y-121375518D01*
X66089502Y-121255820D01*
X66030537Y-121145506D01*
X65951185Y-121048815D01*
X65854494Y-120969463D01*
X65744180Y-120910498D01*
X65624482Y-120874188D01*
X65500000Y-120861928D01*
X62500000Y-120861928D01*
X62375518Y-120874188D01*
X62255820Y-120910498D01*
X62145506Y-120969463D01*
X62048815Y-121048815D01*
X61969463Y-121145506D01*
X61910498Y-121255820D01*
X61874188Y-121375518D01*
X61861928Y-121500000D01*
X55660000Y-121500000D01*
X55660000Y-119411653D01*
X62687952Y-119411653D01*
X62843962Y-119727214D01*
X63218745Y-119918020D01*
X63623551Y-120032044D01*
X64042824Y-120064902D01*
X64460451Y-120015334D01*
X64860383Y-119885243D01*
X65156038Y-119727214D01*
X65312048Y-119411653D01*
X64000000Y-118099605D01*
X62687952Y-119411653D01*
X55660000Y-119411653D01*
X55660000Y-117962824D01*
X61855098Y-117962824D01*
X61904666Y-118380451D01*
X62034757Y-118780383D01*
X62192786Y-119076038D01*
X62508347Y-119232048D01*
X63820395Y-117920000D01*
X64179605Y-117920000D01*
X65491653Y-119232048D01*
X65807214Y-119076038D01*
X65998020Y-118701255D01*
X66112044Y-118296449D01*
X66144902Y-117877176D01*
X66095334Y-117459549D01*
X65965243Y-117059617D01*
X65807214Y-116763962D01*
X65491653Y-116607952D01*
X64179605Y-117920000D01*
X63820395Y-117920000D01*
X62508347Y-116607952D01*
X62192786Y-116763962D01*
X62001980Y-117138745D01*
X61887956Y-117543551D01*
X61855098Y-117962824D01*
X55660000Y-117962824D01*
X55660000Y-116428347D01*
X62687952Y-116428347D01*
X64000000Y-117740395D01*
X65312048Y-116428347D01*
X65156038Y-116112786D01*
X64781255Y-115921980D01*
X64376449Y-115807956D01*
X63957176Y-115775098D01*
X63539549Y-115824666D01*
X63139617Y-115954757D01*
X62843962Y-116112786D01*
X62687952Y-116428347D01*
X55660000Y-116428347D01*
X55660000Y-104338967D01*
X59865000Y-104338967D01*
X59865000Y-104661033D01*
X59927832Y-104976912D01*
X60051082Y-105274463D01*
X60230013Y-105542252D01*
X60457748Y-105769987D01*
X60725537Y-105948918D01*
X61023088Y-106072168D01*
X61338967Y-106135000D01*
X61661033Y-106135000D01*
X61976912Y-106072168D01*
X62274463Y-105948918D01*
X62542252Y-105769987D01*
X62769987Y-105542252D01*
X62948918Y-105274463D01*
X63072168Y-104976912D01*
X63135000Y-104661033D01*
X63135000Y-104338967D01*
X66365000Y-104338967D01*
X66365000Y-104661033D01*
X66427832Y-104976912D01*
X66551082Y-105274463D01*
X66730013Y-105542252D01*
X66957748Y-105769987D01*
X67225537Y-105948918D01*
X67523088Y-106072168D01*
X67838967Y-106135000D01*
X68161033Y-106135000D01*
X68476912Y-106072168D01*
X68774463Y-105948918D01*
X69042252Y-105769987D01*
X69269987Y-105542252D01*
X69448918Y-105274463D01*
X69572168Y-104976912D01*
X69635000Y-104661033D01*
X69635000Y-104338967D01*
X81365000Y-104338967D01*
X81365000Y-104661033D01*
X81427832Y-104976912D01*
X81551082Y-105274463D01*
X81730013Y-105542252D01*
X81957748Y-105769987D01*
X82225537Y-105948918D01*
X82523088Y-106072168D01*
X82838967Y-106135000D01*
X83161033Y-106135000D01*
X83476912Y-106072168D01*
X83774463Y-105948918D01*
X84042252Y-105769987D01*
X84269987Y-105542252D01*
X84448918Y-105274463D01*
X84572168Y-104976912D01*
X84635000Y-104661033D01*
X84635000Y-104338967D01*
X87865000Y-104338967D01*
X87865000Y-104661033D01*
X87927832Y-104976912D01*
X88051082Y-105274463D01*
X88230013Y-105542252D01*
X88457748Y-105769987D01*
X88725537Y-105948918D01*
X89023088Y-106072168D01*
X89338967Y-106135000D01*
X89661033Y-106135000D01*
X89976912Y-106072168D01*
X90274463Y-105948918D01*
X90542252Y-105769987D01*
X90769987Y-105542252D01*
X90948918Y-105274463D01*
X91072168Y-104976912D01*
X91135000Y-104661033D01*
X91135000Y-104338967D01*
X91072168Y-104023088D01*
X90948918Y-103725537D01*
X90769987Y-103457748D01*
X90542252Y-103230013D01*
X90274463Y-103051082D01*
X89976912Y-102927832D01*
X89661033Y-102865000D01*
X89338967Y-102865000D01*
X89023088Y-102927832D01*
X88725537Y-103051082D01*
X88457748Y-103230013D01*
X88230013Y-103457748D01*
X88051082Y-103725537D01*
X87927832Y-104023088D01*
X87865000Y-104338967D01*
X84635000Y-104338967D01*
X84572168Y-104023088D01*
X84448918Y-103725537D01*
X84269987Y-103457748D01*
X84042252Y-103230013D01*
X83774463Y-103051082D01*
X83476912Y-102927832D01*
X83161033Y-102865000D01*
X82838967Y-102865000D01*
X82523088Y-102927832D01*
X82225537Y-103051082D01*
X81957748Y-103230013D01*
X81730013Y-103457748D01*
X81551082Y-103725537D01*
X81427832Y-104023088D01*
X81365000Y-104338967D01*
X69635000Y-104338967D01*
X69572168Y-104023088D01*
X69448918Y-103725537D01*
X69269987Y-103457748D01*
X69042252Y-103230013D01*
X68774463Y-103051082D01*
X68476912Y-102927832D01*
X68161033Y-102865000D01*
X67838967Y-102865000D01*
X67523088Y-102927832D01*
X67225537Y-103051082D01*
X66957748Y-103230013D01*
X66730013Y-103457748D01*
X66551082Y-103725537D01*
X66427832Y-104023088D01*
X66365000Y-104338967D01*
X63135000Y-104338967D01*
X63072168Y-104023088D01*
X62948918Y-103725537D01*
X62769987Y-103457748D01*
X62542252Y-103230013D01*
X62274463Y-103051082D01*
X61976912Y-102927832D01*
X61661033Y-102865000D01*
X61338967Y-102865000D01*
X61023088Y-102927832D01*
X60725537Y-103051082D01*
X60457748Y-103230013D01*
X60230013Y-103457748D01*
X60051082Y-103725537D01*
X59927832Y-104023088D01*
X59865000Y-104338967D01*
X55660000Y-104338967D01*
X55660000Y-101135413D01*
X60544192Y-101135413D01*
X60639956Y-101399814D01*
X60929571Y-101540704D01*
X61241108Y-101622384D01*
X61562595Y-101641718D01*
X61881675Y-101597961D01*
X62186088Y-101492795D01*
X62360044Y-101399814D01*
X62455808Y-101135413D01*
X67044192Y-101135413D01*
X67139956Y-101399814D01*
X67429571Y-101540704D01*
X67741108Y-101622384D01*
X68062595Y-101641718D01*
X68381675Y-101597961D01*
X68686088Y-101492795D01*
X68860044Y-101399814D01*
X68955808Y-101135413D01*
X82044192Y-101135413D01*
X82139956Y-101399814D01*
X82429571Y-101540704D01*
X82741108Y-101622384D01*
X83062595Y-101641718D01*
X83381675Y-101597961D01*
X83686088Y-101492795D01*
X83860044Y-101399814D01*
X83955808Y-101135413D01*
X88544192Y-101135413D01*
X88639956Y-101399814D01*
X88929571Y-101540704D01*
X89241108Y-101622384D01*
X89562595Y-101641718D01*
X89881675Y-101597961D01*
X90186088Y-101492795D01*
X90360044Y-101399814D01*
X90455808Y-101135413D01*
X89500000Y-100179605D01*
X88544192Y-101135413D01*
X83955808Y-101135413D01*
X83000000Y-100179605D01*
X82044192Y-101135413D01*
X68955808Y-101135413D01*
X68000000Y-100179605D01*
X67044192Y-101135413D01*
X62455808Y-101135413D01*
X61500000Y-100179605D01*
X60544192Y-101135413D01*
X55660000Y-101135413D01*
X55660000Y-100062595D01*
X59858282Y-100062595D01*
X59902039Y-100381675D01*
X60007205Y-100686088D01*
X60100186Y-100860044D01*
X60364587Y-100955808D01*
X61320395Y-100000000D01*
X61679605Y-100000000D01*
X62635413Y-100955808D01*
X62899814Y-100860044D01*
X63040704Y-100570429D01*
X63122384Y-100258892D01*
X63134189Y-100062595D01*
X66358282Y-100062595D01*
X66402039Y-100381675D01*
X66507205Y-100686088D01*
X66600186Y-100860044D01*
X66864587Y-100955808D01*
X67820395Y-100000000D01*
X68179605Y-100000000D01*
X69135413Y-100955808D01*
X69399814Y-100860044D01*
X69540704Y-100570429D01*
X69622384Y-100258892D01*
X69634189Y-100062595D01*
X81358282Y-100062595D01*
X81402039Y-100381675D01*
X81507205Y-100686088D01*
X81600186Y-100860044D01*
X81864587Y-100955808D01*
X82820395Y-100000000D01*
X83179605Y-100000000D01*
X84135413Y-100955808D01*
X84399814Y-100860044D01*
X84540704Y-100570429D01*
X84622384Y-100258892D01*
X84634189Y-100062595D01*
X87858282Y-100062595D01*
X87902039Y-100381675D01*
X88007205Y-100686088D01*
X88100186Y-100860044D01*
X88364587Y-100955808D01*
X89320395Y-100000000D01*
X89679605Y-100000000D01*
X90635413Y-100955808D01*
X90899814Y-100860044D01*
X91040704Y-100570429D01*
X91122384Y-100258892D01*
X91141718Y-99937405D01*
X91097961Y-99618325D01*
X90992795Y-99313912D01*
X90899814Y-99139956D01*
X90635413Y-99044192D01*
X89679605Y-100000000D01*
X89320395Y-100000000D01*
X88364587Y-99044192D01*
X88100186Y-99139956D01*
X87959296Y-99429571D01*
X87877616Y-99741108D01*
X87858282Y-100062595D01*
X84634189Y-100062595D01*
X84641718Y-99937405D01*
X84597961Y-99618325D01*
X84492795Y-99313912D01*
X84399814Y-99139956D01*
X84135413Y-99044192D01*
X83179605Y-100000000D01*
X82820395Y-100000000D01*
X81864587Y-99044192D01*
X81600186Y-99139956D01*
X81459296Y-99429571D01*
X81377616Y-99741108D01*
X81358282Y-100062595D01*
X69634189Y-100062595D01*
X69641718Y-99937405D01*
X69597961Y-99618325D01*
X69492795Y-99313912D01*
X69399814Y-99139956D01*
X69135413Y-99044192D01*
X68179605Y-100000000D01*
X67820395Y-100000000D01*
X66864587Y-99044192D01*
X66600186Y-99139956D01*
X66459296Y-99429571D01*
X66377616Y-99741108D01*
X66358282Y-100062595D01*
X63134189Y-100062595D01*
X63141718Y-99937405D01*
X63097961Y-99618325D01*
X62992795Y-99313912D01*
X62899814Y-99139956D01*
X62635413Y-99044192D01*
X61679605Y-100000000D01*
X61320395Y-100000000D01*
X60364587Y-99044192D01*
X60100186Y-99139956D01*
X59959296Y-99429571D01*
X59877616Y-99741108D01*
X59858282Y-100062595D01*
X55660000Y-100062595D01*
X55660000Y-98864587D01*
X60544192Y-98864587D01*
X61500000Y-99820395D01*
X62455808Y-98864587D01*
X67044192Y-98864587D01*
X68000000Y-99820395D01*
X68955808Y-98864587D01*
X82044192Y-98864587D01*
X83000000Y-99820395D01*
X83955808Y-98864587D01*
X88544192Y-98864587D01*
X89500000Y-99820395D01*
X90455808Y-98864587D01*
X90360044Y-98600186D01*
X90070429Y-98459296D01*
X89758892Y-98377616D01*
X89437405Y-98358282D01*
X89118325Y-98402039D01*
X88813912Y-98507205D01*
X88639956Y-98600186D01*
X88544192Y-98864587D01*
X83955808Y-98864587D01*
X83860044Y-98600186D01*
X83570429Y-98459296D01*
X83258892Y-98377616D01*
X82937405Y-98358282D01*
X82618325Y-98402039D01*
X82313912Y-98507205D01*
X82139956Y-98600186D01*
X82044192Y-98864587D01*
X68955808Y-98864587D01*
X68860044Y-98600186D01*
X68570429Y-98459296D01*
X68258892Y-98377616D01*
X67937405Y-98358282D01*
X67618325Y-98402039D01*
X67313912Y-98507205D01*
X67139956Y-98600186D01*
X67044192Y-98864587D01*
X62455808Y-98864587D01*
X62360044Y-98600186D01*
X62070429Y-98459296D01*
X61758892Y-98377616D01*
X61437405Y-98358282D01*
X61118325Y-98402039D01*
X60813912Y-98507205D01*
X60639956Y-98600186D01*
X60544192Y-98864587D01*
X55660000Y-98864587D01*
X55660000Y-89358665D01*
X63065000Y-89358665D01*
X63065000Y-89641335D01*
X63120147Y-89918574D01*
X63228320Y-90179727D01*
X63385363Y-90414759D01*
X63585241Y-90614637D01*
X63820273Y-90771680D01*
X64081426Y-90879853D01*
X64358665Y-90935000D01*
X64641335Y-90935000D01*
X64918574Y-90879853D01*
X65179727Y-90771680D01*
X65414759Y-90614637D01*
X65614637Y-90414759D01*
X65718043Y-90260000D01*
X84185199Y-90260000D01*
X115020000Y-121094802D01*
X115020001Y-127041956D01*
X114865241Y-127145363D01*
X114665363Y-127345241D01*
X114510000Y-127577759D01*
X114354637Y-127345241D01*
X114154759Y-127145363D01*
X113919727Y-126988320D01*
X113658574Y-126880147D01*
X113381335Y-126825000D01*
X113098665Y-126825000D01*
X112821426Y-126880147D01*
X112560273Y-126988320D01*
X112325241Y-127145363D01*
X112125363Y-127345241D01*
X111970000Y-127577759D01*
X111814637Y-127345241D01*
X111614759Y-127145363D01*
X111379727Y-126988320D01*
X111118574Y-126880147D01*
X110841335Y-126825000D01*
X110558665Y-126825000D01*
X110281426Y-126880147D01*
X110020273Y-126988320D01*
X109785241Y-127145363D01*
X109585363Y-127345241D01*
X109430000Y-127577759D01*
X109274637Y-127345241D01*
X109074759Y-127145363D01*
X108839727Y-126988320D01*
X108578574Y-126880147D01*
X108301335Y-126825000D01*
X108018665Y-126825000D01*
X107741426Y-126880147D01*
X107480273Y-126988320D01*
X107245241Y-127145363D01*
X107045363Y-127345241D01*
X106890000Y-127577759D01*
X106734637Y-127345241D01*
X106534759Y-127145363D01*
X106299727Y-126988320D01*
X106038574Y-126880147D01*
X105761335Y-126825000D01*
X105478665Y-126825000D01*
X105201426Y-126880147D01*
X104940273Y-126988320D01*
X104705241Y-127145363D01*
X104505363Y-127345241D01*
X104350000Y-127577759D01*
X104194637Y-127345241D01*
X103994759Y-127145363D01*
X103759727Y-126988320D01*
X103498574Y-126880147D01*
X103221335Y-126825000D01*
X102938665Y-126825000D01*
X102661426Y-126880147D01*
X102400273Y-126988320D01*
X102165241Y-127145363D01*
X101965363Y-127345241D01*
X101808320Y-127580273D01*
X101803933Y-127590865D01*
X101692385Y-127404869D01*
X101503414Y-127196481D01*
X101277420Y-127028963D01*
X101023087Y-126908754D01*
X100889039Y-126868096D01*
X100667000Y-126990085D01*
X100667000Y-128133000D01*
X100687000Y-128133000D01*
X100687000Y-128387000D01*
X100667000Y-128387000D01*
X100667000Y-129529915D01*
X100889039Y-129651904D01*
X101023087Y-129611246D01*
X101277420Y-129491037D01*
X101503414Y-129323519D01*
X101692385Y-129115131D01*
X101803933Y-128929135D01*
X101808320Y-128939727D01*
X101965363Y-129174759D01*
X102165241Y-129374637D01*
X102400273Y-129531680D01*
X102661426Y-129639853D01*
X102938665Y-129695000D01*
X103221335Y-129695000D01*
X103498574Y-129639853D01*
X103759727Y-129531680D01*
X103994759Y-129374637D01*
X104194637Y-129174759D01*
X104350000Y-128942241D01*
X104505363Y-129174759D01*
X104705241Y-129374637D01*
X104940273Y-129531680D01*
X105201426Y-129639853D01*
X105478665Y-129695000D01*
X105761335Y-129695000D01*
X106038574Y-129639853D01*
X106299727Y-129531680D01*
X106534759Y-129374637D01*
X106734637Y-129174759D01*
X106890000Y-128942241D01*
X107045363Y-129174759D01*
X107245241Y-129374637D01*
X107480273Y-129531680D01*
X107741426Y-129639853D01*
X108018665Y-129695000D01*
X108301335Y-129695000D01*
X108578574Y-129639853D01*
X108839727Y-129531680D01*
X109074759Y-129374637D01*
X109274637Y-129174759D01*
X109430000Y-128942241D01*
X109585363Y-129174759D01*
X109785241Y-129374637D01*
X110020273Y-129531680D01*
X110281426Y-129639853D01*
X110558665Y-129695000D01*
X110841335Y-129695000D01*
X111118574Y-129639853D01*
X111379727Y-129531680D01*
X111614759Y-129374637D01*
X111814637Y-129174759D01*
X111970000Y-128942241D01*
X112125363Y-129174759D01*
X112325241Y-129374637D01*
X112560273Y-129531680D01*
X112821426Y-129639853D01*
X113098665Y-129695000D01*
X113381335Y-129695000D01*
X113658574Y-129639853D01*
X113919727Y-129531680D01*
X114154759Y-129374637D01*
X114354637Y-129174759D01*
X114510000Y-128942241D01*
X114665363Y-129174759D01*
X114865241Y-129374637D01*
X115100273Y-129531680D01*
X115361426Y-129639853D01*
X115638665Y-129695000D01*
X115921335Y-129695000D01*
X116198574Y-129639853D01*
X116459727Y-129531680D01*
X116694759Y-129374637D01*
X116894637Y-129174759D01*
X117050000Y-128942241D01*
X117205363Y-129174759D01*
X117405241Y-129374637D01*
X117640273Y-129531680D01*
X117901426Y-129639853D01*
X118178665Y-129695000D01*
X118461335Y-129695000D01*
X118738574Y-129639853D01*
X118999727Y-129531680D01*
X119234759Y-129374637D01*
X119434637Y-129174759D01*
X119590000Y-128942241D01*
X119745363Y-129174759D01*
X119945241Y-129374637D01*
X120180273Y-129531680D01*
X120441426Y-129639853D01*
X120718665Y-129695000D01*
X121001335Y-129695000D01*
X121278574Y-129639853D01*
X121539727Y-129531680D01*
X121774759Y-129374637D01*
X121974637Y-129174759D01*
X122130000Y-128942241D01*
X122285363Y-129174759D01*
X122485241Y-129374637D01*
X122720273Y-129531680D01*
X122981426Y-129639853D01*
X123258665Y-129695000D01*
X123541335Y-129695000D01*
X123818574Y-129639853D01*
X124079727Y-129531680D01*
X124314759Y-129374637D01*
X124514637Y-129174759D01*
X124670000Y-128942241D01*
X124825363Y-129174759D01*
X125025241Y-129374637D01*
X125260273Y-129531680D01*
X125521426Y-129639853D01*
X125798665Y-129695000D01*
X126081335Y-129695000D01*
X126358574Y-129639853D01*
X126619727Y-129531680D01*
X126854759Y-129374637D01*
X127054637Y-129174759D01*
X127210000Y-128942241D01*
X127365363Y-129174759D01*
X127565241Y-129374637D01*
X127800273Y-129531680D01*
X128061426Y-129639853D01*
X128338665Y-129695000D01*
X128510199Y-129695000D01*
X127465199Y-130740000D01*
X85834802Y-130740000D01*
X86011003Y-130563799D01*
X86040001Y-130540001D01*
X86066332Y-130507917D01*
X86134974Y-130424277D01*
X86205546Y-130292247D01*
X86249003Y-130148986D01*
X86260000Y-130037333D01*
X86260000Y-130037324D01*
X86263676Y-130000001D01*
X86260000Y-129962678D01*
X86260000Y-127215038D01*
X86344180Y-127189502D01*
X86454494Y-127130537D01*
X86551185Y-127051185D01*
X86630537Y-126954494D01*
X86689502Y-126844180D01*
X86725812Y-126724482D01*
X86738072Y-126600000D01*
X86738072Y-125400000D01*
X86725812Y-125275518D01*
X86689502Y-125155820D01*
X86630537Y-125045506D01*
X86551185Y-124948815D01*
X86454494Y-124869463D01*
X86408994Y-124845142D01*
X86466872Y-124787264D01*
X86349766Y-124670158D01*
X86573348Y-124622852D01*
X86674237Y-124401484D01*
X86730000Y-124164687D01*
X86738495Y-123921562D01*
X86699395Y-123681451D01*
X86614202Y-123453582D01*
X86573348Y-123377148D01*
X86349764Y-123329841D01*
X85679605Y-124000000D01*
X85693748Y-124014143D01*
X85514143Y-124193748D01*
X85500000Y-124179605D01*
X85485858Y-124193748D01*
X85306253Y-124014143D01*
X85320395Y-124000000D01*
X84650236Y-123329841D01*
X84426652Y-123377148D01*
X84325763Y-123598516D01*
X84270000Y-123835313D01*
X84261505Y-124078438D01*
X84300605Y-124318549D01*
X84385798Y-124546418D01*
X84426652Y-124622852D01*
X84650234Y-124670158D01*
X84533128Y-124787264D01*
X84591006Y-124845142D01*
X84545506Y-124869463D01*
X84448815Y-124948815D01*
X84369463Y-125045506D01*
X84310498Y-125155820D01*
X84274188Y-125275518D01*
X84261928Y-125400000D01*
X84261928Y-126600000D01*
X84274188Y-126724482D01*
X84310498Y-126844180D01*
X84369463Y-126954494D01*
X84448815Y-127051185D01*
X84545506Y-127130537D01*
X84655820Y-127189502D01*
X84740000Y-127215038D01*
X84740001Y-129685197D01*
X83489001Y-130936197D01*
X83459999Y-130959999D01*
X83436197Y-130989001D01*
X82988998Y-131436201D01*
X82488998Y-131936201D01*
X82460000Y-131959999D01*
X82365026Y-132075724D01*
X82294454Y-132207753D01*
X82250997Y-132351014D01*
X82240000Y-132462667D01*
X82240000Y-132462678D01*
X82236324Y-132500000D01*
X82240000Y-132537322D01*
X82240000Y-133037332D01*
X82240001Y-133037342D01*
X82240000Y-140002677D01*
X82236324Y-140040000D01*
X82240000Y-140077322D01*
X82240000Y-140077332D01*
X82250997Y-140188985D01*
X82294454Y-140332246D01*
X82365026Y-140464276D01*
X82394345Y-140500001D01*
X82459999Y-140580001D01*
X82489003Y-140603804D01*
X84093628Y-142208430D01*
X84063000Y-142362408D01*
X84063000Y-142637592D01*
X84116686Y-142907490D01*
X84221995Y-143161727D01*
X84374880Y-143390535D01*
X84569465Y-143585120D01*
X84798273Y-143738005D01*
X85052510Y-143843314D01*
X85322408Y-143897000D01*
X85597592Y-143897000D01*
X85867490Y-143843314D01*
X86121727Y-143738005D01*
X86350535Y-143585120D01*
X86545120Y-143390535D01*
X86603920Y-143302535D01*
X86612188Y-143386482D01*
X86648498Y-143506180D01*
X86707463Y-143616494D01*
X86786815Y-143713185D01*
X86883506Y-143792537D01*
X86993820Y-143851502D01*
X87113518Y-143887812D01*
X87238000Y-143900072D01*
X87714250Y-143897000D01*
X87873000Y-143738250D01*
X87873000Y-142627000D01*
X88127000Y-142627000D01*
X88127000Y-143738250D01*
X88285750Y-143897000D01*
X88762000Y-143900072D01*
X88886482Y-143887812D01*
X89006180Y-143851502D01*
X89116494Y-143792537D01*
X89213185Y-143713185D01*
X89292537Y-143616494D01*
X89351502Y-143506180D01*
X89387812Y-143386482D01*
X89400072Y-143262000D01*
X89397000Y-142785750D01*
X89238250Y-142627000D01*
X88127000Y-142627000D01*
X87873000Y-142627000D01*
X87853000Y-142627000D01*
X87853000Y-142373000D01*
X87873000Y-142373000D01*
X87873000Y-142353000D01*
X88127000Y-142353000D01*
X88127000Y-142373000D01*
X89238250Y-142373000D01*
X89397000Y-142214250D01*
X89397266Y-142172999D01*
X96841197Y-142172999D01*
X96748815Y-142248815D01*
X96669463Y-142345506D01*
X96610498Y-142455820D01*
X96574188Y-142575518D01*
X96561928Y-142700000D01*
X96561928Y-144300000D01*
X96574188Y-144424482D01*
X96610498Y-144544180D01*
X96669463Y-144654494D01*
X96748815Y-144751185D01*
X96845506Y-144830537D01*
X96955820Y-144889502D01*
X97075518Y-144925812D01*
X97200000Y-144938072D01*
X98800000Y-144938072D01*
X98924482Y-144925812D01*
X99044180Y-144889502D01*
X99154494Y-144830537D01*
X99251185Y-144751185D01*
X99330537Y-144654494D01*
X99389502Y-144544180D01*
X99425812Y-144424482D01*
X99426643Y-144416039D01*
X99625241Y-144614637D01*
X99860273Y-144771680D01*
X100121426Y-144879853D01*
X100398665Y-144935000D01*
X100681335Y-144935000D01*
X100958574Y-144879853D01*
X101219727Y-144771680D01*
X101454759Y-144614637D01*
X101654637Y-144414759D01*
X101810000Y-144182241D01*
X101965363Y-144414759D01*
X102165241Y-144614637D01*
X102400273Y-144771680D01*
X102661426Y-144879853D01*
X102938665Y-144935000D01*
X103221335Y-144935000D01*
X103498574Y-144879853D01*
X103759727Y-144771680D01*
X103994759Y-144614637D01*
X104194637Y-144414759D01*
X104351680Y-144179727D01*
X104356067Y-144169135D01*
X104467615Y-144355131D01*
X104656586Y-144563519D01*
X104882580Y-144731037D01*
X105136913Y-144851246D01*
X105270961Y-144891904D01*
X105493000Y-144769915D01*
X105493000Y-143627000D01*
X105473000Y-143627000D01*
X105473000Y-143373000D01*
X105493000Y-143373000D01*
X105493000Y-143353000D01*
X105747000Y-143353000D01*
X105747000Y-143373000D01*
X105767000Y-143373000D01*
X105767000Y-143627000D01*
X105747000Y-143627000D01*
X105747000Y-144769915D01*
X105969039Y-144891904D01*
X106103087Y-144851246D01*
X106357420Y-144731037D01*
X106583414Y-144563519D01*
X106772385Y-144355131D01*
X106883933Y-144169135D01*
X106888320Y-144179727D01*
X107045363Y-144414759D01*
X107245241Y-144614637D01*
X107480273Y-144771680D01*
X107741426Y-144879853D01*
X108018665Y-144935000D01*
X108301335Y-144935000D01*
X108578574Y-144879853D01*
X108839727Y-144771680D01*
X109074759Y-144614637D01*
X109274637Y-144414759D01*
X109430000Y-144182241D01*
X109585363Y-144414759D01*
X109785241Y-144614637D01*
X110020273Y-144771680D01*
X110281426Y-144879853D01*
X110558665Y-144935000D01*
X110841335Y-144935000D01*
X111118574Y-144879853D01*
X111379727Y-144771680D01*
X111614759Y-144614637D01*
X111814637Y-144414759D01*
X111970000Y-144182241D01*
X112125363Y-144414759D01*
X112325241Y-144614637D01*
X112560273Y-144771680D01*
X112821426Y-144879853D01*
X113098665Y-144935000D01*
X113381335Y-144935000D01*
X113658574Y-144879853D01*
X113919727Y-144771680D01*
X114154759Y-144614637D01*
X114354637Y-144414759D01*
X114510000Y-144182241D01*
X114665363Y-144414759D01*
X114865241Y-144614637D01*
X115100273Y-144771680D01*
X115361426Y-144879853D01*
X115638665Y-144935000D01*
X115921335Y-144935000D01*
X116198574Y-144879853D01*
X116459727Y-144771680D01*
X116694759Y-144614637D01*
X116894637Y-144414759D01*
X117050000Y-144182241D01*
X117205363Y-144414759D01*
X117405241Y-144614637D01*
X117640273Y-144771680D01*
X117901426Y-144879853D01*
X118178665Y-144935000D01*
X118461335Y-144935000D01*
X118738574Y-144879853D01*
X118999727Y-144771680D01*
X119234759Y-144614637D01*
X119434637Y-144414759D01*
X119590000Y-144182241D01*
X119745363Y-144414759D01*
X119945241Y-144614637D01*
X120180273Y-144771680D01*
X120441426Y-144879853D01*
X120718665Y-144935000D01*
X121001335Y-144935000D01*
X121183886Y-144898688D01*
X123296201Y-147011003D01*
X123319999Y-147040001D01*
X123435724Y-147134974D01*
X123567753Y-147205546D01*
X123711014Y-147249003D01*
X123822667Y-147260000D01*
X123822675Y-147260000D01*
X123860000Y-147263676D01*
X123897325Y-147260000D01*
X136462678Y-147260000D01*
X136500000Y-147263676D01*
X136537322Y-147260000D01*
X136537333Y-147260000D01*
X136648986Y-147249003D01*
X136792247Y-147205546D01*
X136924276Y-147134974D01*
X137040001Y-147040001D01*
X137063804Y-147010997D01*
X137245684Y-146829117D01*
X140265000Y-146829117D01*
X140265000Y-147170883D01*
X140331675Y-147506081D01*
X140462463Y-147821831D01*
X140652337Y-148105998D01*
X140894002Y-148347663D01*
X141178169Y-148537537D01*
X141493919Y-148668325D01*
X141829117Y-148735000D01*
X142170883Y-148735000D01*
X142506081Y-148668325D01*
X142821831Y-148537537D01*
X143105998Y-148347663D01*
X143347663Y-148105998D01*
X143537537Y-147821831D01*
X143668325Y-147506081D01*
X143735000Y-147170883D01*
X143735000Y-146829117D01*
X143668325Y-146493919D01*
X143537537Y-146178169D01*
X143347663Y-145894002D01*
X143105998Y-145652337D01*
X142821831Y-145462463D01*
X142506081Y-145331675D01*
X142170883Y-145265000D01*
X141829117Y-145265000D01*
X141493919Y-145331675D01*
X141178169Y-145462463D01*
X140894002Y-145652337D01*
X140652337Y-145894002D01*
X140462463Y-146178169D01*
X140331675Y-146493919D01*
X140265000Y-146829117D01*
X137245684Y-146829117D01*
X138511003Y-145563799D01*
X138540001Y-145540001D01*
X138634974Y-145424276D01*
X138705546Y-145292247D01*
X138749003Y-145148986D01*
X138760000Y-145037333D01*
X138760000Y-145037324D01*
X138763676Y-145000001D01*
X138760000Y-144962678D01*
X138760000Y-123457325D01*
X138763676Y-123420000D01*
X138760000Y-123382675D01*
X138760000Y-123382667D01*
X138749003Y-123271014D01*
X138705546Y-123127753D01*
X138634974Y-122995724D01*
X138540001Y-122879999D01*
X138511004Y-122856202D01*
X132021209Y-116366408D01*
X132065000Y-116146260D01*
X132065000Y-115853740D01*
X132007932Y-115566842D01*
X131895990Y-115296589D01*
X131733475Y-115053368D01*
X131526632Y-114846525D01*
X131283411Y-114684010D01*
X131013158Y-114572068D01*
X130726260Y-114515000D01*
X130433740Y-114515000D01*
X130146842Y-114572068D01*
X129876589Y-114684010D01*
X129633368Y-114846525D01*
X129426525Y-115053368D01*
X129310000Y-115227760D01*
X129193475Y-115053368D01*
X128986632Y-114846525D01*
X128743411Y-114684010D01*
X128473158Y-114572068D01*
X128186260Y-114515000D01*
X127893740Y-114515000D01*
X127606842Y-114572068D01*
X127336589Y-114684010D01*
X127093368Y-114846525D01*
X126961513Y-114978380D01*
X126939502Y-114905820D01*
X126880537Y-114795506D01*
X126801185Y-114698815D01*
X126704494Y-114619463D01*
X126594180Y-114560498D01*
X126474482Y-114524188D01*
X126350000Y-114511928D01*
X125785750Y-114515000D01*
X125627000Y-114673750D01*
X125627000Y-115873000D01*
X125647000Y-115873000D01*
X125647000Y-116127000D01*
X125627000Y-116127000D01*
X125627000Y-117326250D01*
X125785750Y-117485000D01*
X126350000Y-117488072D01*
X126474482Y-117475812D01*
X126594180Y-117439502D01*
X126704494Y-117380537D01*
X126801185Y-117301185D01*
X126880537Y-117204494D01*
X126939502Y-117094180D01*
X126961513Y-117021620D01*
X127093368Y-117153475D01*
X127336589Y-117315990D01*
X127606842Y-117427932D01*
X127893740Y-117485000D01*
X128186260Y-117485000D01*
X128473158Y-117427932D01*
X128743411Y-117315990D01*
X128986632Y-117153475D01*
X129193475Y-116946632D01*
X129310000Y-116772240D01*
X129426525Y-116946632D01*
X129633368Y-117153475D01*
X129876589Y-117315990D01*
X130146842Y-117427932D01*
X130433740Y-117485000D01*
X130726260Y-117485000D01*
X130946408Y-117441209D01*
X137240000Y-123734802D01*
X137240001Y-123962663D01*
X137240000Y-123962668D01*
X137240000Y-124462668D01*
X137240001Y-144685197D01*
X136185199Y-145740000D01*
X127158665Y-145740000D01*
X127272247Y-145705546D01*
X127404276Y-145634974D01*
X127520001Y-145540001D01*
X127543804Y-145510997D01*
X128156114Y-144898688D01*
X128338665Y-144935000D01*
X128621335Y-144935000D01*
X128898574Y-144879853D01*
X129159727Y-144771680D01*
X129394759Y-144614637D01*
X129594637Y-144414759D01*
X129750000Y-144182241D01*
X129905363Y-144414759D01*
X130105241Y-144614637D01*
X130340273Y-144771680D01*
X130601426Y-144879853D01*
X130878665Y-144935000D01*
X131161335Y-144935000D01*
X131438574Y-144879853D01*
X131699727Y-144771680D01*
X131934759Y-144614637D01*
X132134637Y-144414759D01*
X132290000Y-144182241D01*
X132445363Y-144414759D01*
X132645241Y-144614637D01*
X132880273Y-144771680D01*
X133141426Y-144879853D01*
X133418665Y-144935000D01*
X133701335Y-144935000D01*
X133978574Y-144879853D01*
X134239727Y-144771680D01*
X134474759Y-144614637D01*
X134674637Y-144414759D01*
X134831680Y-144179727D01*
X134939853Y-143918574D01*
X134995000Y-143641335D01*
X134995000Y-143358665D01*
X134939853Y-143081426D01*
X134831680Y-142820273D01*
X134674637Y-142585241D01*
X134474759Y-142385363D01*
X134239727Y-142228320D01*
X133978574Y-142120147D01*
X133701335Y-142065000D01*
X133418665Y-142065000D01*
X133236114Y-142101312D01*
X125503804Y-134369003D01*
X125480001Y-134339999D01*
X125364276Y-134245026D01*
X125232247Y-134174454D01*
X125088986Y-134130997D01*
X124977333Y-134120000D01*
X124977322Y-134120000D01*
X124940000Y-134116324D01*
X124902678Y-134120000D01*
X89172341Y-134120000D01*
X89085120Y-133989465D01*
X88890535Y-133794880D01*
X88687095Y-133658945D01*
X89086040Y-133260000D01*
X129282678Y-133260000D01*
X129320000Y-133263676D01*
X129357322Y-133260000D01*
X129357333Y-133260000D01*
X129468986Y-133249003D01*
X129612247Y-133205546D01*
X129744276Y-133134974D01*
X129860001Y-133040001D01*
X129883804Y-133010997D01*
X133236114Y-129658688D01*
X133418665Y-129695000D01*
X133701335Y-129695000D01*
X133978574Y-129639853D01*
X134239727Y-129531680D01*
X134474759Y-129374637D01*
X134674637Y-129174759D01*
X134831680Y-128939727D01*
X134939853Y-128678574D01*
X134995000Y-128401335D01*
X134995000Y-128118665D01*
X134939853Y-127841426D01*
X134831680Y-127580273D01*
X134674637Y-127345241D01*
X134474759Y-127145363D01*
X134239727Y-126988320D01*
X133978574Y-126880147D01*
X133701335Y-126825000D01*
X133418665Y-126825000D01*
X133141426Y-126880147D01*
X132880273Y-126988320D01*
X132645241Y-127145363D01*
X132445363Y-127345241D01*
X132290000Y-127577759D01*
X132134637Y-127345241D01*
X131934759Y-127145363D01*
X131699727Y-126988320D01*
X131438574Y-126880147D01*
X131161335Y-126825000D01*
X130878665Y-126825000D01*
X130601426Y-126880147D01*
X130340273Y-126988320D01*
X130105241Y-127145363D01*
X129905363Y-127345241D01*
X129750000Y-127577759D01*
X129594637Y-127345241D01*
X129394759Y-127145363D01*
X129159727Y-126988320D01*
X128898574Y-126880147D01*
X128621335Y-126825000D01*
X128338665Y-126825000D01*
X128061426Y-126880147D01*
X127800273Y-126988320D01*
X127565241Y-127145363D01*
X127365363Y-127345241D01*
X127210000Y-127577759D01*
X127054637Y-127345241D01*
X126854759Y-127145363D01*
X126619727Y-126988320D01*
X126358574Y-126880147D01*
X126081335Y-126825000D01*
X125798665Y-126825000D01*
X125521426Y-126880147D01*
X125260273Y-126988320D01*
X125025241Y-127145363D01*
X124825363Y-127345241D01*
X124670000Y-127577759D01*
X124514637Y-127345241D01*
X124314759Y-127145363D01*
X124160000Y-127041957D01*
X124160000Y-117253889D01*
X124198815Y-117301185D01*
X124295506Y-117380537D01*
X124405820Y-117439502D01*
X124525518Y-117475812D01*
X124650000Y-117488072D01*
X125214250Y-117485000D01*
X125373000Y-117326250D01*
X125373000Y-116127000D01*
X125353000Y-116127000D01*
X125353000Y-115873000D01*
X125373000Y-115873000D01*
X125373000Y-114673750D01*
X125214250Y-114515000D01*
X124650000Y-114511928D01*
X124525518Y-114524188D01*
X124405820Y-114560498D01*
X124295506Y-114619463D01*
X124198815Y-114698815D01*
X124160000Y-114746111D01*
X124160000Y-104414801D01*
X124235834Y-104338967D01*
X130365000Y-104338967D01*
X130365000Y-104661033D01*
X130427832Y-104976912D01*
X130551082Y-105274463D01*
X130730013Y-105542252D01*
X130957748Y-105769987D01*
X131225537Y-105948918D01*
X131523088Y-106072168D01*
X131838967Y-106135000D01*
X132161033Y-106135000D01*
X132476912Y-106072168D01*
X132774463Y-105948918D01*
X133042252Y-105769987D01*
X133269987Y-105542252D01*
X133448918Y-105274463D01*
X133572168Y-104976912D01*
X133635000Y-104661033D01*
X133635000Y-104338967D01*
X136865000Y-104338967D01*
X136865000Y-104661033D01*
X136927832Y-104976912D01*
X137051082Y-105274463D01*
X137230013Y-105542252D01*
X137457748Y-105769987D01*
X137725537Y-105948918D01*
X138023088Y-106072168D01*
X138338967Y-106135000D01*
X138661033Y-106135000D01*
X138976912Y-106072168D01*
X139274463Y-105948918D01*
X139542252Y-105769987D01*
X139769987Y-105542252D01*
X139948918Y-105274463D01*
X140072168Y-104976912D01*
X140135000Y-104661033D01*
X140135000Y-104338967D01*
X140072168Y-104023088D01*
X139948918Y-103725537D01*
X139769987Y-103457748D01*
X139542252Y-103230013D01*
X139274463Y-103051082D01*
X138976912Y-102927832D01*
X138661033Y-102865000D01*
X138338967Y-102865000D01*
X138023088Y-102927832D01*
X137725537Y-103051082D01*
X137457748Y-103230013D01*
X137230013Y-103457748D01*
X137051082Y-103725537D01*
X136927832Y-104023088D01*
X136865000Y-104338967D01*
X133635000Y-104338967D01*
X133572168Y-104023088D01*
X133448918Y-103725537D01*
X133269987Y-103457748D01*
X133042252Y-103230013D01*
X132774463Y-103051082D01*
X132476912Y-102927832D01*
X132161033Y-102865000D01*
X131838967Y-102865000D01*
X131523088Y-102927832D01*
X131225537Y-103051082D01*
X130957748Y-103230013D01*
X130730013Y-103457748D01*
X130551082Y-103725537D01*
X130427832Y-104023088D01*
X130365000Y-104338967D01*
X124235834Y-104338967D01*
X127439388Y-101135413D01*
X131044192Y-101135413D01*
X131139956Y-101399814D01*
X131429571Y-101540704D01*
X131741108Y-101622384D01*
X132062595Y-101641718D01*
X132381675Y-101597961D01*
X132686088Y-101492795D01*
X132860044Y-101399814D01*
X132955808Y-101135413D01*
X137544192Y-101135413D01*
X137639956Y-101399814D01*
X137929571Y-101540704D01*
X138241108Y-101622384D01*
X138562595Y-101641718D01*
X138881675Y-101597961D01*
X139186088Y-101492795D01*
X139360044Y-101399814D01*
X139455808Y-101135413D01*
X138500000Y-100179605D01*
X137544192Y-101135413D01*
X132955808Y-101135413D01*
X132000000Y-100179605D01*
X131044192Y-101135413D01*
X127439388Y-101135413D01*
X128512206Y-100062595D01*
X130358282Y-100062595D01*
X130402039Y-100381675D01*
X130507205Y-100686088D01*
X130600186Y-100860044D01*
X130864587Y-100955808D01*
X131820395Y-100000000D01*
X132179605Y-100000000D01*
X133135413Y-100955808D01*
X133399814Y-100860044D01*
X133540704Y-100570429D01*
X133622384Y-100258892D01*
X133634189Y-100062595D01*
X136858282Y-100062595D01*
X136902039Y-100381675D01*
X137007205Y-100686088D01*
X137100186Y-100860044D01*
X137364587Y-100955808D01*
X138320395Y-100000000D01*
X138679605Y-100000000D01*
X139635413Y-100955808D01*
X139899814Y-100860044D01*
X140040704Y-100570429D01*
X140122384Y-100258892D01*
X140141718Y-99937405D01*
X140097961Y-99618325D01*
X139992795Y-99313912D01*
X139899814Y-99139956D01*
X139635413Y-99044192D01*
X138679605Y-100000000D01*
X138320395Y-100000000D01*
X137364587Y-99044192D01*
X137100186Y-99139956D01*
X136959296Y-99429571D01*
X136877616Y-99741108D01*
X136858282Y-100062595D01*
X133634189Y-100062595D01*
X133641718Y-99937405D01*
X133597961Y-99618325D01*
X133492795Y-99313912D01*
X133399814Y-99139956D01*
X133135413Y-99044192D01*
X132179605Y-100000000D01*
X131820395Y-100000000D01*
X130864587Y-99044192D01*
X130600186Y-99139956D01*
X130459296Y-99429571D01*
X130377616Y-99741108D01*
X130358282Y-100062595D01*
X128512206Y-100062595D01*
X129710214Y-98864587D01*
X131044192Y-98864587D01*
X132000000Y-99820395D01*
X132955808Y-98864587D01*
X137544192Y-98864587D01*
X138500000Y-99820395D01*
X139455808Y-98864587D01*
X139360044Y-98600186D01*
X139070429Y-98459296D01*
X138758892Y-98377616D01*
X138437405Y-98358282D01*
X138118325Y-98402039D01*
X137813912Y-98507205D01*
X137639956Y-98600186D01*
X137544192Y-98864587D01*
X132955808Y-98864587D01*
X132860044Y-98600186D01*
X132570429Y-98459296D01*
X132258892Y-98377616D01*
X131937405Y-98358282D01*
X131618325Y-98402039D01*
X131313912Y-98507205D01*
X131139956Y-98600186D01*
X131044192Y-98864587D01*
X129710214Y-98864587D01*
X137676114Y-90898688D01*
X137858665Y-90935000D01*
X138141335Y-90935000D01*
X138418574Y-90879853D01*
X138679727Y-90771680D01*
X138914759Y-90614637D01*
X139114637Y-90414759D01*
X139271680Y-90179727D01*
X139379853Y-89918574D01*
X139435000Y-89641335D01*
X139435000Y-89358665D01*
X139379853Y-89081426D01*
X139271680Y-88820273D01*
X139114637Y-88585241D01*
X138914759Y-88385363D01*
X138679727Y-88228320D01*
X138418574Y-88120147D01*
X138141335Y-88065000D01*
X137858665Y-88065000D01*
X137581426Y-88120147D01*
X137320273Y-88228320D01*
X137085241Y-88385363D01*
X136885363Y-88585241D01*
X136728320Y-88820273D01*
X136620147Y-89081426D01*
X136565000Y-89358665D01*
X136565000Y-89641335D01*
X136601312Y-89823886D01*
X122889003Y-103536196D01*
X122859999Y-103559999D01*
X122804871Y-103627174D01*
X122765026Y-103675724D01*
X122694455Y-103807753D01*
X122694454Y-103807754D01*
X122650997Y-103951015D01*
X122640000Y-104062668D01*
X122640000Y-104062678D01*
X122636324Y-104100000D01*
X122640000Y-104137322D01*
X122640001Y-127041956D01*
X122485241Y-127145363D01*
X122285363Y-127345241D01*
X122130000Y-127577759D01*
X121974637Y-127345241D01*
X121774759Y-127145363D01*
X121620000Y-127041957D01*
X121620000Y-96897323D01*
X121623676Y-96860000D01*
X121620000Y-96822677D01*
X121620000Y-96822667D01*
X121609003Y-96711014D01*
X121565546Y-96567753D01*
X121494974Y-96435724D01*
X121400001Y-96319999D01*
X121371004Y-96296202D01*
X114898688Y-89823887D01*
X114935000Y-89641335D01*
X114935000Y-89358665D01*
X114879853Y-89081426D01*
X114771680Y-88820273D01*
X114614637Y-88585241D01*
X114414759Y-88385363D01*
X114179727Y-88228320D01*
X113918574Y-88120147D01*
X113641335Y-88065000D01*
X113358665Y-88065000D01*
X113081426Y-88120147D01*
X112820273Y-88228320D01*
X112585241Y-88385363D01*
X112385363Y-88585241D01*
X112228320Y-88820273D01*
X112120147Y-89081426D01*
X112065000Y-89358665D01*
X112065000Y-89641335D01*
X112120147Y-89918574D01*
X112228320Y-90179727D01*
X112385363Y-90414759D01*
X112585241Y-90614637D01*
X112820273Y-90771680D01*
X113081426Y-90879853D01*
X113358665Y-90935000D01*
X113641335Y-90935000D01*
X113823887Y-90898688D01*
X120100000Y-97174802D01*
X120100001Y-127041956D01*
X119945241Y-127145363D01*
X119745363Y-127345241D01*
X119590000Y-127577759D01*
X119434637Y-127345241D01*
X119234759Y-127145363D01*
X119080000Y-127041957D01*
X119080000Y-118857325D01*
X119083676Y-118820000D01*
X119080000Y-118782675D01*
X119080000Y-118782667D01*
X119069003Y-118671014D01*
X119025546Y-118527753D01*
X118954974Y-118395724D01*
X118860001Y-118279999D01*
X118831004Y-118256202D01*
X104913769Y-104338967D01*
X108865000Y-104338967D01*
X108865000Y-104661033D01*
X108927832Y-104976912D01*
X109051082Y-105274463D01*
X109230013Y-105542252D01*
X109457748Y-105769987D01*
X109725537Y-105948918D01*
X110023088Y-106072168D01*
X110338967Y-106135000D01*
X110661033Y-106135000D01*
X110976912Y-106072168D01*
X111274463Y-105948918D01*
X111542252Y-105769987D01*
X111769987Y-105542252D01*
X111948918Y-105274463D01*
X112072168Y-104976912D01*
X112135000Y-104661033D01*
X112135000Y-104338967D01*
X115365000Y-104338967D01*
X115365000Y-104661033D01*
X115427832Y-104976912D01*
X115551082Y-105274463D01*
X115730013Y-105542252D01*
X115957748Y-105769987D01*
X116225537Y-105948918D01*
X116523088Y-106072168D01*
X116838967Y-106135000D01*
X117161033Y-106135000D01*
X117476912Y-106072168D01*
X117774463Y-105948918D01*
X118042252Y-105769987D01*
X118269987Y-105542252D01*
X118448918Y-105274463D01*
X118572168Y-104976912D01*
X118635000Y-104661033D01*
X118635000Y-104338967D01*
X118572168Y-104023088D01*
X118448918Y-103725537D01*
X118269987Y-103457748D01*
X118042252Y-103230013D01*
X117774463Y-103051082D01*
X117476912Y-102927832D01*
X117161033Y-102865000D01*
X116838967Y-102865000D01*
X116523088Y-102927832D01*
X116225537Y-103051082D01*
X115957748Y-103230013D01*
X115730013Y-103457748D01*
X115551082Y-103725537D01*
X115427832Y-104023088D01*
X115365000Y-104338967D01*
X112135000Y-104338967D01*
X112072168Y-104023088D01*
X111948918Y-103725537D01*
X111769987Y-103457748D01*
X111542252Y-103230013D01*
X111274463Y-103051082D01*
X110976912Y-102927832D01*
X110661033Y-102865000D01*
X110338967Y-102865000D01*
X110023088Y-102927832D01*
X109725537Y-103051082D01*
X109457748Y-103230013D01*
X109230013Y-103457748D01*
X109051082Y-103725537D01*
X108927832Y-104023088D01*
X108865000Y-104338967D01*
X104913769Y-104338967D01*
X101710215Y-101135413D01*
X109544192Y-101135413D01*
X109639956Y-101399814D01*
X109929571Y-101540704D01*
X110241108Y-101622384D01*
X110562595Y-101641718D01*
X110881675Y-101597961D01*
X111186088Y-101492795D01*
X111360044Y-101399814D01*
X111455808Y-101135413D01*
X116044192Y-101135413D01*
X116139956Y-101399814D01*
X116429571Y-101540704D01*
X116741108Y-101622384D01*
X117062595Y-101641718D01*
X117381675Y-101597961D01*
X117686088Y-101492795D01*
X117860044Y-101399814D01*
X117955808Y-101135413D01*
X117000000Y-100179605D01*
X116044192Y-101135413D01*
X111455808Y-101135413D01*
X110500000Y-100179605D01*
X109544192Y-101135413D01*
X101710215Y-101135413D01*
X100637397Y-100062595D01*
X108858282Y-100062595D01*
X108902039Y-100381675D01*
X109007205Y-100686088D01*
X109100186Y-100860044D01*
X109364587Y-100955808D01*
X110320395Y-100000000D01*
X110679605Y-100000000D01*
X111635413Y-100955808D01*
X111899814Y-100860044D01*
X112040704Y-100570429D01*
X112122384Y-100258892D01*
X112134189Y-100062595D01*
X115358282Y-100062595D01*
X115402039Y-100381675D01*
X115507205Y-100686088D01*
X115600186Y-100860044D01*
X115864587Y-100955808D01*
X116820395Y-100000000D01*
X117179605Y-100000000D01*
X118135413Y-100955808D01*
X118399814Y-100860044D01*
X118540704Y-100570429D01*
X118622384Y-100258892D01*
X118641718Y-99937405D01*
X118597961Y-99618325D01*
X118492795Y-99313912D01*
X118399814Y-99139956D01*
X118135413Y-99044192D01*
X117179605Y-100000000D01*
X116820395Y-100000000D01*
X115864587Y-99044192D01*
X115600186Y-99139956D01*
X115459296Y-99429571D01*
X115377616Y-99741108D01*
X115358282Y-100062595D01*
X112134189Y-100062595D01*
X112141718Y-99937405D01*
X112097961Y-99618325D01*
X111992795Y-99313912D01*
X111899814Y-99139956D01*
X111635413Y-99044192D01*
X110679605Y-100000000D01*
X110320395Y-100000000D01*
X109364587Y-99044192D01*
X109100186Y-99139956D01*
X108959296Y-99429571D01*
X108877616Y-99741108D01*
X108858282Y-100062595D01*
X100637397Y-100062595D01*
X99439389Y-98864587D01*
X109544192Y-98864587D01*
X110500000Y-99820395D01*
X111455808Y-98864587D01*
X116044192Y-98864587D01*
X117000000Y-99820395D01*
X117955808Y-98864587D01*
X117860044Y-98600186D01*
X117570429Y-98459296D01*
X117258892Y-98377616D01*
X116937405Y-98358282D01*
X116618325Y-98402039D01*
X116313912Y-98507205D01*
X116139956Y-98600186D01*
X116044192Y-98864587D01*
X111455808Y-98864587D01*
X111360044Y-98600186D01*
X111070429Y-98459296D01*
X110758892Y-98377616D01*
X110437405Y-98358282D01*
X110118325Y-98402039D01*
X109813912Y-98507205D01*
X109639956Y-98600186D01*
X109544192Y-98864587D01*
X99439389Y-98864587D01*
X90398688Y-89823887D01*
X90435000Y-89641335D01*
X90435000Y-89358665D01*
X90379853Y-89081426D01*
X90271680Y-88820273D01*
X90114637Y-88585241D01*
X89914759Y-88385363D01*
X89679727Y-88228320D01*
X89418574Y-88120147D01*
X89141335Y-88065000D01*
X88858665Y-88065000D01*
X88581426Y-88120147D01*
X88320273Y-88228320D01*
X88085241Y-88385363D01*
X87885363Y-88585241D01*
X87728320Y-88820273D01*
X87620147Y-89081426D01*
X87565000Y-89358665D01*
X87565000Y-89641335D01*
X87620147Y-89918574D01*
X87728320Y-90179727D01*
X87885363Y-90414759D01*
X88085241Y-90614637D01*
X88320273Y-90771680D01*
X88581426Y-90879853D01*
X88858665Y-90935000D01*
X89141335Y-90935000D01*
X89323887Y-90898688D01*
X117560000Y-119134802D01*
X117560001Y-127041956D01*
X117405241Y-127145363D01*
X117205363Y-127345241D01*
X117050000Y-127577759D01*
X116894637Y-127345241D01*
X116694759Y-127145363D01*
X116540000Y-127041957D01*
X116540000Y-120817322D01*
X116543676Y-120779999D01*
X116540000Y-120742676D01*
X116540000Y-120742667D01*
X116529003Y-120631014D01*
X116485546Y-120487753D01*
X116414974Y-120355724D01*
X116320001Y-120239999D01*
X116291004Y-120216202D01*
X85063804Y-88989003D01*
X85040001Y-88959999D01*
X84924276Y-88865026D01*
X84792247Y-88794454D01*
X84648986Y-88750997D01*
X84537333Y-88740000D01*
X84537322Y-88740000D01*
X84500000Y-88736324D01*
X84462678Y-88740000D01*
X65718043Y-88740000D01*
X65614637Y-88585241D01*
X65414759Y-88385363D01*
X65179727Y-88228320D01*
X64918574Y-88120147D01*
X64641335Y-88065000D01*
X64358665Y-88065000D01*
X64081426Y-88120147D01*
X63820273Y-88228320D01*
X63585241Y-88385363D01*
X63385363Y-88585241D01*
X63228320Y-88820273D01*
X63120147Y-89081426D01*
X63065000Y-89358665D01*
X55660000Y-89358665D01*
X55660000Y-74400000D01*
X60461928Y-74400000D01*
X60474188Y-74524482D01*
X60510498Y-74644180D01*
X60569463Y-74754494D01*
X60648815Y-74851185D01*
X60745506Y-74930537D01*
X60855820Y-74989502D01*
X60975518Y-75025812D01*
X61100000Y-75038072D01*
X61714250Y-75035000D01*
X61873000Y-74876250D01*
X61873000Y-73627000D01*
X60623750Y-73627000D01*
X60465000Y-73785750D01*
X60461928Y-74400000D01*
X55660000Y-74400000D01*
X55660000Y-72600000D01*
X60461928Y-72600000D01*
X60465000Y-73214250D01*
X60623750Y-73373000D01*
X61873000Y-73373000D01*
X61873000Y-72123750D01*
X62127000Y-72123750D01*
X62127000Y-73373000D01*
X62147000Y-73373000D01*
X62147000Y-73627000D01*
X62127000Y-73627000D01*
X62127000Y-74876250D01*
X62285750Y-75035000D01*
X62900000Y-75038072D01*
X63024482Y-75025812D01*
X63144180Y-74989502D01*
X63254494Y-74930537D01*
X63351185Y-74851185D01*
X63430537Y-74754494D01*
X63489502Y-74644180D01*
X63495056Y-74625873D01*
X63561495Y-74692312D01*
X63740001Y-74811586D01*
X63740000Y-80661956D01*
X63585241Y-80765363D01*
X63385363Y-80965241D01*
X63228320Y-81200273D01*
X63120147Y-81461426D01*
X63065000Y-81738665D01*
X63065000Y-82021335D01*
X63120147Y-82298574D01*
X63228320Y-82559727D01*
X63385363Y-82794759D01*
X63585241Y-82994637D01*
X63820273Y-83151680D01*
X64081426Y-83259853D01*
X64358665Y-83315000D01*
X64641335Y-83315000D01*
X64918574Y-83259853D01*
X65179727Y-83151680D01*
X65414759Y-82994637D01*
X65614637Y-82794759D01*
X65771680Y-82559727D01*
X65879853Y-82298574D01*
X65935000Y-82021335D01*
X65935000Y-81738665D01*
X65879853Y-81461426D01*
X65771680Y-81200273D01*
X65614637Y-80965241D01*
X65414759Y-80765363D01*
X65260000Y-80661957D01*
X65260000Y-74863238D01*
X65267095Y-74860299D01*
X65518505Y-74692312D01*
X65732312Y-74478505D01*
X65784767Y-74400000D01*
X84961928Y-74400000D01*
X84974188Y-74524482D01*
X85010498Y-74644180D01*
X85069463Y-74754494D01*
X85148815Y-74851185D01*
X85245506Y-74930537D01*
X85355820Y-74989502D01*
X85475518Y-75025812D01*
X85600000Y-75038072D01*
X86214250Y-75035000D01*
X86373000Y-74876250D01*
X86373000Y-73627000D01*
X85123750Y-73627000D01*
X84965000Y-73785750D01*
X84961928Y-74400000D01*
X65784767Y-74400000D01*
X65900299Y-74227095D01*
X66016011Y-73947743D01*
X66075000Y-73651184D01*
X66075000Y-73348816D01*
X66016011Y-73052257D01*
X65900299Y-72772905D01*
X65784768Y-72600000D01*
X84961928Y-72600000D01*
X84965000Y-73214250D01*
X85123750Y-73373000D01*
X86373000Y-73373000D01*
X86373000Y-72123750D01*
X86627000Y-72123750D01*
X86627000Y-73373000D01*
X86647000Y-73373000D01*
X86647000Y-73627000D01*
X86627000Y-73627000D01*
X86627000Y-74876250D01*
X86785750Y-75035000D01*
X87400000Y-75038072D01*
X87524482Y-75025812D01*
X87644180Y-74989502D01*
X87754494Y-74930537D01*
X87851185Y-74851185D01*
X87930537Y-74754494D01*
X87989502Y-74644180D01*
X87995056Y-74625873D01*
X88061495Y-74692312D01*
X88240001Y-74811586D01*
X88240000Y-80661956D01*
X88085241Y-80765363D01*
X87885363Y-80965241D01*
X87728320Y-81200273D01*
X87620147Y-81461426D01*
X87565000Y-81738665D01*
X87565000Y-82021335D01*
X87620147Y-82298574D01*
X87728320Y-82559727D01*
X87885363Y-82794759D01*
X88085241Y-82994637D01*
X88320273Y-83151680D01*
X88581426Y-83259853D01*
X88858665Y-83315000D01*
X89141335Y-83315000D01*
X89418574Y-83259853D01*
X89679727Y-83151680D01*
X89914759Y-82994637D01*
X90114637Y-82794759D01*
X90271680Y-82559727D01*
X90379853Y-82298574D01*
X90435000Y-82021335D01*
X90435000Y-81738665D01*
X90379853Y-81461426D01*
X90271680Y-81200273D01*
X90114637Y-80965241D01*
X89914759Y-80765363D01*
X89760000Y-80661957D01*
X89760000Y-74863238D01*
X89767095Y-74860299D01*
X90018505Y-74692312D01*
X90232312Y-74478505D01*
X90284767Y-74400000D01*
X109461928Y-74400000D01*
X109474188Y-74524482D01*
X109510498Y-74644180D01*
X109569463Y-74754494D01*
X109648815Y-74851185D01*
X109745506Y-74930537D01*
X109855820Y-74989502D01*
X109975518Y-75025812D01*
X110100000Y-75038072D01*
X110714250Y-75035000D01*
X110873000Y-74876250D01*
X110873000Y-73627000D01*
X109623750Y-73627000D01*
X109465000Y-73785750D01*
X109461928Y-74400000D01*
X90284767Y-74400000D01*
X90400299Y-74227095D01*
X90516011Y-73947743D01*
X90575000Y-73651184D01*
X90575000Y-73348816D01*
X90516011Y-73052257D01*
X90400299Y-72772905D01*
X90284768Y-72600000D01*
X109461928Y-72600000D01*
X109465000Y-73214250D01*
X109623750Y-73373000D01*
X110873000Y-73373000D01*
X110873000Y-72123750D01*
X111127000Y-72123750D01*
X111127000Y-73373000D01*
X111147000Y-73373000D01*
X111147000Y-73627000D01*
X111127000Y-73627000D01*
X111127000Y-74876250D01*
X111285750Y-75035000D01*
X111900000Y-75038072D01*
X112024482Y-75025812D01*
X112144180Y-74989502D01*
X112254494Y-74930537D01*
X112351185Y-74851185D01*
X112430537Y-74754494D01*
X112489502Y-74644180D01*
X112495056Y-74625873D01*
X112561495Y-74692312D01*
X112740001Y-74811586D01*
X112740000Y-80661956D01*
X112585241Y-80765363D01*
X112385363Y-80965241D01*
X112228320Y-81200273D01*
X112120147Y-81461426D01*
X112065000Y-81738665D01*
X112065000Y-82021335D01*
X112120147Y-82298574D01*
X112228320Y-82559727D01*
X112385363Y-82794759D01*
X112585241Y-82994637D01*
X112820273Y-83151680D01*
X113081426Y-83259853D01*
X113358665Y-83315000D01*
X113641335Y-83315000D01*
X113918574Y-83259853D01*
X114179727Y-83151680D01*
X114414759Y-82994637D01*
X114614637Y-82794759D01*
X114771680Y-82559727D01*
X114879853Y-82298574D01*
X114935000Y-82021335D01*
X114935000Y-81738665D01*
X114879853Y-81461426D01*
X114771680Y-81200273D01*
X114614637Y-80965241D01*
X114414759Y-80765363D01*
X114260000Y-80661957D01*
X114260000Y-74863238D01*
X114267095Y-74860299D01*
X114518505Y-74692312D01*
X114732312Y-74478505D01*
X114784767Y-74400000D01*
X133961928Y-74400000D01*
X133974188Y-74524482D01*
X134010498Y-74644180D01*
X134069463Y-74754494D01*
X134148815Y-74851185D01*
X134245506Y-74930537D01*
X134355820Y-74989502D01*
X134475518Y-75025812D01*
X134600000Y-75038072D01*
X135214250Y-75035000D01*
X135373000Y-74876250D01*
X135373000Y-73627000D01*
X134123750Y-73627000D01*
X133965000Y-73785750D01*
X133961928Y-74400000D01*
X114784767Y-74400000D01*
X114900299Y-74227095D01*
X115016011Y-73947743D01*
X115075000Y-73651184D01*
X115075000Y-73348816D01*
X115016011Y-73052257D01*
X114900299Y-72772905D01*
X114784768Y-72600000D01*
X133961928Y-72600000D01*
X133965000Y-73214250D01*
X134123750Y-73373000D01*
X135373000Y-73373000D01*
X135373000Y-72123750D01*
X135627000Y-72123750D01*
X135627000Y-73373000D01*
X135647000Y-73373000D01*
X135647000Y-73627000D01*
X135627000Y-73627000D01*
X135627000Y-74876250D01*
X135785750Y-75035000D01*
X136400000Y-75038072D01*
X136524482Y-75025812D01*
X136644180Y-74989502D01*
X136754494Y-74930537D01*
X136851185Y-74851185D01*
X136930537Y-74754494D01*
X136989502Y-74644180D01*
X136995056Y-74625873D01*
X137061495Y-74692312D01*
X137240001Y-74811586D01*
X137240000Y-80661956D01*
X137085241Y-80765363D01*
X136885363Y-80965241D01*
X136728320Y-81200273D01*
X136620147Y-81461426D01*
X136565000Y-81738665D01*
X136565000Y-82021335D01*
X136620147Y-82298574D01*
X136728320Y-82559727D01*
X136885363Y-82794759D01*
X137085241Y-82994637D01*
X137320273Y-83151680D01*
X137581426Y-83259853D01*
X137858665Y-83315000D01*
X138141335Y-83315000D01*
X138418574Y-83259853D01*
X138679727Y-83151680D01*
X138914759Y-82994637D01*
X139114637Y-82794759D01*
X139271680Y-82559727D01*
X139379853Y-82298574D01*
X139435000Y-82021335D01*
X139435000Y-81738665D01*
X139379853Y-81461426D01*
X139271680Y-81200273D01*
X139114637Y-80965241D01*
X138914759Y-80765363D01*
X138760000Y-80661957D01*
X138760000Y-74863238D01*
X138767095Y-74860299D01*
X139018505Y-74692312D01*
X139232312Y-74478505D01*
X139400299Y-74227095D01*
X139516011Y-73947743D01*
X139575000Y-73651184D01*
X139575000Y-73348816D01*
X139516011Y-73052257D01*
X139400299Y-72772905D01*
X139232312Y-72521495D01*
X139018505Y-72307688D01*
X138767095Y-72139701D01*
X138487743Y-72023989D01*
X138191184Y-71965000D01*
X137888816Y-71965000D01*
X137592257Y-72023989D01*
X137312905Y-72139701D01*
X137061495Y-72307688D01*
X136995056Y-72374127D01*
X136989502Y-72355820D01*
X136930537Y-72245506D01*
X136851185Y-72148815D01*
X136754494Y-72069463D01*
X136644180Y-72010498D01*
X136524482Y-71974188D01*
X136400000Y-71961928D01*
X135785750Y-71965000D01*
X135627000Y-72123750D01*
X135373000Y-72123750D01*
X135214250Y-71965000D01*
X134600000Y-71961928D01*
X134475518Y-71974188D01*
X134355820Y-72010498D01*
X134245506Y-72069463D01*
X134148815Y-72148815D01*
X134069463Y-72245506D01*
X134010498Y-72355820D01*
X133974188Y-72475518D01*
X133961928Y-72600000D01*
X114784768Y-72600000D01*
X114732312Y-72521495D01*
X114518505Y-72307688D01*
X114267095Y-72139701D01*
X113987743Y-72023989D01*
X113691184Y-71965000D01*
X113388816Y-71965000D01*
X113092257Y-72023989D01*
X112812905Y-72139701D01*
X112561495Y-72307688D01*
X112495056Y-72374127D01*
X112489502Y-72355820D01*
X112430537Y-72245506D01*
X112351185Y-72148815D01*
X112254494Y-72069463D01*
X112144180Y-72010498D01*
X112024482Y-71974188D01*
X111900000Y-71961928D01*
X111285750Y-71965000D01*
X111127000Y-72123750D01*
X110873000Y-72123750D01*
X110714250Y-71965000D01*
X110100000Y-71961928D01*
X109975518Y-71974188D01*
X109855820Y-72010498D01*
X109745506Y-72069463D01*
X109648815Y-72148815D01*
X109569463Y-72245506D01*
X109510498Y-72355820D01*
X109474188Y-72475518D01*
X109461928Y-72600000D01*
X90284768Y-72600000D01*
X90232312Y-72521495D01*
X90018505Y-72307688D01*
X89767095Y-72139701D01*
X89487743Y-72023989D01*
X89191184Y-71965000D01*
X88888816Y-71965000D01*
X88592257Y-72023989D01*
X88312905Y-72139701D01*
X88061495Y-72307688D01*
X87995056Y-72374127D01*
X87989502Y-72355820D01*
X87930537Y-72245506D01*
X87851185Y-72148815D01*
X87754494Y-72069463D01*
X87644180Y-72010498D01*
X87524482Y-71974188D01*
X87400000Y-71961928D01*
X86785750Y-71965000D01*
X86627000Y-72123750D01*
X86373000Y-72123750D01*
X86214250Y-71965000D01*
X85600000Y-71961928D01*
X85475518Y-71974188D01*
X85355820Y-72010498D01*
X85245506Y-72069463D01*
X85148815Y-72148815D01*
X85069463Y-72245506D01*
X85010498Y-72355820D01*
X84974188Y-72475518D01*
X84961928Y-72600000D01*
X65784768Y-72600000D01*
X65732312Y-72521495D01*
X65518505Y-72307688D01*
X65267095Y-72139701D01*
X64987743Y-72023989D01*
X64691184Y-71965000D01*
X64388816Y-71965000D01*
X64092257Y-72023989D01*
X63812905Y-72139701D01*
X63561495Y-72307688D01*
X63495056Y-72374127D01*
X63489502Y-72355820D01*
X63430537Y-72245506D01*
X63351185Y-72148815D01*
X63254494Y-72069463D01*
X63144180Y-72010498D01*
X63024482Y-71974188D01*
X62900000Y-71961928D01*
X62285750Y-71965000D01*
X62127000Y-72123750D01*
X61873000Y-72123750D01*
X61714250Y-71965000D01*
X61100000Y-71961928D01*
X60975518Y-71974188D01*
X60855820Y-72010498D01*
X60745506Y-72069463D01*
X60648815Y-72148815D01*
X60569463Y-72245506D01*
X60510498Y-72355820D01*
X60474188Y-72475518D01*
X60461928Y-72600000D01*
X55660000Y-72600000D01*
X55660000Y-67829117D01*
X56265000Y-67829117D01*
X56265000Y-68170883D01*
X56331675Y-68506081D01*
X56462463Y-68821831D01*
X56652337Y-69105998D01*
X56894002Y-69347663D01*
X57178169Y-69537537D01*
X57493919Y-69668325D01*
X57829117Y-69735000D01*
X58170883Y-69735000D01*
X58506081Y-69668325D01*
X58821831Y-69537537D01*
X59105998Y-69347663D01*
X59347663Y-69105998D01*
X59537537Y-68821831D01*
X59668325Y-68506081D01*
X59735000Y-68170883D01*
X59735000Y-67829117D01*
X140265000Y-67829117D01*
X140265000Y-68170883D01*
X140331675Y-68506081D01*
X140462463Y-68821831D01*
X140652337Y-69105998D01*
X140894002Y-69347663D01*
X141178169Y-69537537D01*
X141493919Y-69668325D01*
X141829117Y-69735000D01*
X142170883Y-69735000D01*
X142506081Y-69668325D01*
X142821831Y-69537537D01*
X143105998Y-69347663D01*
X143347663Y-69105998D01*
X143537537Y-68821831D01*
X143668325Y-68506081D01*
X143735000Y-68170883D01*
X143735000Y-67829117D01*
X143668325Y-67493919D01*
X143537537Y-67178169D01*
X143347663Y-66894002D01*
X143105998Y-66652337D01*
X142821831Y-66462463D01*
X142506081Y-66331675D01*
X142170883Y-66265000D01*
X141829117Y-66265000D01*
X141493919Y-66331675D01*
X141178169Y-66462463D01*
X140894002Y-66652337D01*
X140652337Y-66894002D01*
X140462463Y-67178169D01*
X140331675Y-67493919D01*
X140265000Y-67829117D01*
X59735000Y-67829117D01*
X59668325Y-67493919D01*
X59537537Y-67178169D01*
X59347663Y-66894002D01*
X59105998Y-66652337D01*
X58821831Y-66462463D01*
X58506081Y-66331675D01*
X58170883Y-66265000D01*
X57829117Y-66265000D01*
X57493919Y-66331675D01*
X57178169Y-66462463D01*
X56894002Y-66652337D01*
X56652337Y-66894002D01*
X56462463Y-67178169D01*
X56331675Y-67493919D01*
X56265000Y-67829117D01*
X55660000Y-67829117D01*
X55660000Y-65660000D01*
X144340001Y-65660000D01*
X144340000Y-149340000D01*
G37*
%TD.AperFunction*%
%TD*%
M02*
